%TF.GenerationSoftware,KiCad,Pcbnew,9.0.0*%
%TF.CreationDate,2025-02-25T22:38:48+02:00*%
%TF.ProjectId,bluetooth-audio,626c7565-746f-46f7-9468-2d617564696f,rev?*%
%TF.SameCoordinates,Original*%
%TF.FileFunction,Copper,L3,Inr*%
%TF.FilePolarity,Positive*%
%FSLAX45Y45*%
G04 Gerber Fmt 4.5, Leading zero omitted, Abs format (unit mm)*
G04 Created by KiCad (PCBNEW 9.0.0) date 2025-02-25 22:38:48*
%MOMM*%
%LPD*%
G01*
G04 APERTURE LIST*
%TA.AperFunction,HeatsinkPad*%
%ADD10C,0.500000*%
%TD*%
%TA.AperFunction,ComponentPad*%
%ADD11C,2.140000*%
%TD*%
%TA.AperFunction,ComponentPad*%
%ADD12R,1.700000X1.700000*%
%TD*%
%TA.AperFunction,ComponentPad*%
%ADD13O,1.700000X1.700000*%
%TD*%
%TA.AperFunction,ViaPad*%
%ADD14C,0.500000*%
%TD*%
%TA.AperFunction,ViaPad*%
%ADD15C,0.800000*%
%TD*%
%TA.AperFunction,Conductor*%
%ADD16C,0.508000*%
%TD*%
%TA.AperFunction,Conductor*%
%ADD17C,0.254000*%
%TD*%
%TA.AperFunction,Conductor*%
%ADD18C,0.349250*%
%TD*%
%TA.AperFunction,Conductor*%
%ADD19C,0.292100*%
%TD*%
%TA.AperFunction,Conductor*%
%ADD20C,0.203200*%
%TD*%
%TA.AperFunction,Conductor*%
%ADD21C,0.381000*%
%TD*%
%TA.AperFunction,Conductor*%
%ADD22C,0.152400*%
%TD*%
%TA.AperFunction,Conductor*%
%ADD23C,0.250000*%
%TD*%
G04 APERTURE END LIST*
D10*
%TO.N,GND*%
%TO.C,U1*%
X16804000Y-8036000D03*
X16697333Y-8036000D03*
X16590667Y-8036000D03*
X16484000Y-8036000D03*
X16804000Y-8142667D03*
X16697333Y-8142667D03*
X16590667Y-8142667D03*
X16484000Y-8142667D03*
X16804000Y-8249333D03*
X16697333Y-8249333D03*
X16590667Y-8249333D03*
X16484000Y-8249333D03*
X16804000Y-8356000D03*
X16697333Y-8356000D03*
X16590667Y-8356000D03*
X16484000Y-8356000D03*
%TD*%
D11*
%TO.N,GND*%
%TO.C,MK1*%
X17479000Y-9072000D03*
%TD*%
D12*
%TO.N,+3V3*%
%TO.C,J3*%
X14772620Y-7947875D03*
D13*
%TO.N,/Micro/UART_TX*%
X14772620Y-8201875D03*
%TO.N,/Micro/UART_RX*%
X14772620Y-8455875D03*
%TO.N,GND*%
X14772620Y-8709875D03*
%TO.N,/Micro/DTR*%
X14772620Y-8963875D03*
%TO.N,/Micro/RTS*%
X14772620Y-9217875D03*
%TD*%
D14*
%TO.N,GND*%
X17264000Y-8183000D03*
X15198000Y-9064000D03*
X17562000Y-11223000D03*
D15*
X17670620Y-8260875D03*
X14689000Y-9788000D03*
X15112000Y-10597000D03*
D14*
X16159000Y-8629000D03*
D15*
X17432844Y-10872099D03*
D14*
X17122678Y-8598399D03*
X15851000Y-9790000D03*
D15*
X15319000Y-11949000D03*
X16236776Y-7547224D03*
X15984000Y-10071000D03*
X16209620Y-9701000D03*
D14*
X16063000Y-8761000D03*
D15*
X15052000Y-11969000D03*
X15216750Y-12141125D03*
X17152000Y-7770000D03*
X17526000Y-10950000D03*
X15314620Y-11387875D03*
X14961620Y-10247875D03*
X17691000Y-7925000D03*
X15873000Y-9433000D03*
D14*
X16629000Y-8741000D03*
D15*
X17337000Y-8004000D03*
X17600844Y-10872099D03*
X15752000Y-7551000D03*
X16318480Y-8488000D03*
X14710000Y-10551000D03*
X15272000Y-9270000D03*
X16471000Y-7472000D03*
X15249000Y-10816000D03*
X15027050Y-8211000D03*
D14*
X16229000Y-8803000D03*
D15*
X15080620Y-10884875D03*
X17668000Y-10310000D03*
D14*
X17086000Y-11035000D03*
D15*
X15696208Y-10822212D03*
X16237000Y-10609000D03*
X16283620Y-11437875D03*
D14*
X16759683Y-8730284D03*
D15*
X14774620Y-11248875D03*
X16833000Y-7389000D03*
D14*
X17570000Y-11746000D03*
X16417000Y-9583000D03*
D15*
X15699000Y-9279000D03*
X15669000Y-11971000D03*
X15020050Y-8077000D03*
D14*
X16981000Y-8586000D03*
D15*
X17499000Y-10009000D03*
X17121000Y-9343000D03*
X15298000Y-10972000D03*
X15527522Y-8420620D03*
X16272000Y-11920000D03*
X16658000Y-9485000D03*
X15223000Y-7752000D03*
D14*
X17377000Y-10986000D03*
D15*
X15403750Y-12145125D03*
X15956620Y-8333000D03*
X15813000Y-11586000D03*
X17594844Y-10379099D03*
X17627620Y-8768000D03*
X15513000Y-7942000D03*
D14*
X15267000Y-9622000D03*
D15*
X16984000Y-7529000D03*
D14*
X16477620Y-8705875D03*
D15*
X14925000Y-8893000D03*
D14*
X14942000Y-9071000D03*
X17115892Y-10467747D03*
D15*
X16356500Y-9911500D03*
X14859000Y-11590000D03*
D14*
X15585000Y-8799000D03*
D15*
X16291000Y-9144000D03*
X16710000Y-10447000D03*
X15027050Y-8496000D03*
X17640844Y-10471099D03*
D14*
X16124000Y-9092000D03*
X15588000Y-8937000D03*
D15*
X16442000Y-10851000D03*
X15025050Y-8333000D03*
X15755000Y-10425000D03*
X17163000Y-8813000D03*
X16710224Y-10755224D03*
X17667000Y-9377000D03*
X15984620Y-10821875D03*
X16366000Y-10590000D03*
X17311000Y-11660000D03*
X16458000Y-10086000D03*
X16387000Y-7300250D03*
D14*
X16532000Y-9582000D03*
D15*
X15630620Y-10016875D03*
D14*
X17161438Y-7879216D03*
D15*
X17379000Y-9577984D03*
X17577781Y-9788256D03*
X15455000Y-9292000D03*
X16822224Y-10756224D03*
X17391000Y-10193000D03*
X15493750Y-11963125D03*
X15199000Y-10271000D03*
X16340000Y-7735000D03*
%TO.N,/Power/USB_VBUS*%
X14963750Y-11522125D03*
X15831500Y-11025500D03*
X15677368Y-11533500D03*
X15905370Y-11475500D03*
%TO.N,+3V3*%
X17288620Y-8887875D03*
X16687000Y-7777000D03*
X17288620Y-9339875D03*
X16020000Y-7662000D03*
X15153000Y-8972000D03*
X15329000Y-8937000D03*
X16012000Y-8436000D03*
X17304000Y-8741000D03*
X14981000Y-7949000D03*
X16986000Y-7901000D03*
X17321000Y-8589000D03*
X15948620Y-10373875D03*
X15634000Y-7973000D03*
X17313596Y-10392347D03*
X17028000Y-8231520D03*
%TO.N,+1V8*%
X16752622Y-9922322D03*
X15935620Y-10227875D03*
%TO.N,/audio/MIC+*%
X17027933Y-9811809D03*
%TO.N,/audio/MIC-*%
X17172225Y-9810100D03*
%TO.N,LIN2*%
X17595000Y-9591000D03*
%TO.N,RIN2*%
X17489224Y-9718224D03*
%TO.N,/Micro/VDD_SDIO*%
X16284350Y-8874350D03*
%TO.N,/audio/LOUT2*%
X17278224Y-10977224D03*
D14*
%TO.N,/Micro/SCS{slash}CMD*%
X16607500Y-8663500D03*
X16387000Y-9513000D03*
D15*
%TO.N,/Micro/DTR*%
X15286000Y-9534000D03*
%TO.N,/audio/ROUT2*%
X17172224Y-11004224D03*
D14*
%TO.N,/Micro/SWP{slash}SD3*%
X16505000Y-8613000D03*
X16304000Y-9261000D03*
D15*
%TO.N,/Micro/RTS*%
X15755620Y-9787875D03*
X15295000Y-9376000D03*
%TO.N,/Micro/MTDI*%
X15529000Y-8249000D03*
X16123400Y-8188183D03*
%TO.N,/Micro/MTMS*%
X15972670Y-8798620D03*
X15520500Y-8875500D03*
%TO.N,/Micro/MTCK*%
X15535000Y-8726000D03*
X16057000Y-8667000D03*
D14*
%TO.N,/Micro/SDO{slash}SD0*%
X16514000Y-9511000D03*
X16722659Y-8644460D03*
%TO.N,I2C_CLK*%
X16995000Y-8664000D03*
X16878000Y-8609000D03*
D15*
%TO.N,MCLK*%
X16170355Y-8994824D03*
X15689620Y-9429875D03*
%TO.N,/Micro/MTDO*%
X16122700Y-8534700D03*
%TO.N,/Micro/UART_RX*%
X14987000Y-9156000D03*
X17343000Y-8248000D03*
%TO.N,/Micro/UART_TX*%
X17178000Y-8225000D03*
X15132001Y-9129602D03*
%TO.N,Net-(J2-D--PadA7)*%
X15221207Y-12026466D03*
X15405750Y-12029125D03*
%TO.N,Net-(J2-D+-PadA6)*%
X15316376Y-11843077D03*
X15490750Y-11859125D03*
%TD*%
D16*
%TO.N,+3V3*%
X16930720Y-7754875D02*
X17189923Y-8014077D01*
X15003752Y-7926248D02*
X15003752Y-7926247D01*
X16483000Y-7854000D02*
X16329495Y-8007505D01*
D17*
X17321000Y-8589000D02*
X17351600Y-8619600D01*
D16*
X16709125Y-7754875D02*
X16610000Y-7854000D01*
D18*
X16020000Y-7662000D02*
X16020000Y-7849000D01*
D16*
X17322245Y-8102400D02*
X17425400Y-8205555D01*
D19*
X17028000Y-8231520D02*
X17028000Y-8176000D01*
D16*
X16803620Y-7754875D02*
X16709125Y-7754875D01*
X16610000Y-7854000D02*
X16510000Y-7854000D01*
X17288620Y-8756380D02*
X17304000Y-8741000D01*
X17313844Y-10392099D02*
X17313596Y-10392347D01*
X16329495Y-8118505D02*
X16012000Y-8436000D01*
X16015000Y-7854000D02*
X15076000Y-7854000D01*
X15973372Y-10349123D02*
X17270372Y-10349123D01*
X14943000Y-8196822D02*
X14914000Y-8167822D01*
X16803620Y-7754875D02*
X16930720Y-7754875D01*
X15076000Y-7854000D02*
X15003752Y-7926247D01*
X16781877Y-10349123D02*
X17288620Y-9842380D01*
X15153000Y-8970000D02*
X14943000Y-8760000D01*
X17288620Y-9339875D02*
X17288620Y-8756380D01*
D20*
X15633000Y-7972000D02*
X15633000Y-7854000D01*
D17*
X17351600Y-8619600D02*
X17425400Y-8619600D01*
D16*
X14914000Y-8167822D02*
X14914000Y-8016000D01*
D19*
X17028000Y-8176000D02*
X17189923Y-8014077D01*
D16*
X17425400Y-8205555D02*
X17425400Y-8619600D01*
X14981000Y-7949000D02*
X15003752Y-7926248D01*
X17390000Y-8655000D02*
X17304000Y-8741000D01*
X14943000Y-8760000D02*
X14943000Y-8196822D01*
X15948620Y-10373875D02*
X15973372Y-10349123D01*
X17270372Y-10349123D02*
X17313596Y-10392347D01*
D20*
X15634000Y-7973000D02*
X15633000Y-7972000D01*
D16*
X17288620Y-9842380D02*
X17288620Y-9339875D01*
X15948620Y-10373875D02*
X15959620Y-10362875D01*
X16510000Y-7854000D02*
X16015000Y-7854000D01*
X17278245Y-8102400D02*
X17322245Y-8102400D01*
X15153000Y-8972000D02*
X15153000Y-8970000D01*
X16510000Y-7854000D02*
X16483000Y-7854000D01*
X14914000Y-8016000D02*
X14981000Y-7949000D01*
X17425400Y-8619600D02*
X17390000Y-8655000D01*
X17189923Y-8014077D02*
X17278245Y-8102400D01*
D18*
X16020000Y-7849000D02*
X16015000Y-7854000D01*
D16*
X16329495Y-8007505D02*
X16329495Y-8118505D01*
D21*
%TO.N,+1V8*%
X15935620Y-10227875D02*
X16447069Y-10227875D01*
X15935620Y-10227875D02*
X15933620Y-10227875D01*
X16447069Y-10227875D02*
X16752622Y-9922322D01*
D22*
%TO.N,/Micro/SCS{slash}CMD*%
X16573000Y-9163000D02*
X16387000Y-9349000D01*
X16607500Y-8663500D02*
X16573000Y-8698000D01*
X16387000Y-9349000D02*
X16387000Y-9513000D01*
X16573000Y-8698000D02*
X16573000Y-9163000D01*
D17*
%TO.N,/Micro/DTR*%
X14898000Y-9146000D02*
X14898000Y-9206884D01*
X15225116Y-9534000D02*
X15286000Y-9534000D01*
X14772620Y-9020620D02*
X14898000Y-9146000D01*
X14898000Y-9206884D02*
X15225116Y-9534000D01*
D22*
%TO.N,/Micro/SWP{slash}SD3*%
X16536000Y-9029000D02*
X16304000Y-9261000D01*
X16536000Y-8644000D02*
X16536000Y-9029000D01*
X16505000Y-8613000D02*
X16536000Y-8644000D01*
D23*
%TO.N,/Micro/RTS*%
X15342620Y-9787875D02*
X14772620Y-9217875D01*
X15755620Y-9787875D02*
X15342620Y-9787875D01*
D22*
%TO.N,/Micro/SDO{slash}SD0*%
X16514000Y-9511000D02*
X16694063Y-9330937D01*
X16694063Y-9330937D02*
X16694063Y-8673056D01*
X16694063Y-8673056D02*
X16722659Y-8644460D01*
%TO.N,MCLK*%
X16170355Y-8994824D02*
X16124671Y-8994824D01*
X16124671Y-8994824D02*
X15689620Y-9429875D01*
D20*
%TO.N,/Micro/UART_RX*%
X17256000Y-8248000D02*
X17343000Y-8248000D01*
X16980000Y-8524000D02*
X17256000Y-8248000D01*
X15840000Y-9185000D02*
X16501000Y-8524000D01*
X15036160Y-9205160D02*
X15197840Y-9205160D01*
X16501000Y-8524000D02*
X16980000Y-8524000D01*
X15218000Y-9185000D02*
X15840000Y-9185000D01*
X15197840Y-9205160D02*
X15218000Y-9185000D01*
X14987000Y-9156000D02*
X15036160Y-9205160D01*
%TO.N,/Micro/UART_TX*%
X16429092Y-8483680D02*
X16919320Y-8483680D01*
X16919320Y-8483680D02*
X17178000Y-8225000D01*
X15132001Y-9129602D02*
X15783171Y-9129602D01*
X15783171Y-9129602D02*
X16429092Y-8483680D01*
D19*
%TO.N,Net-(J2-D--PadA7)*%
X15405750Y-12029125D02*
X15223866Y-12029125D01*
%TO.N,Net-(J2-D+-PadA6)*%
X15316376Y-11843077D02*
X15474702Y-11843077D01*
%TD*%
%TA.AperFunction,Conductor*%
%TO.N,GND*%
G36*
X15818426Y-11546771D02*
G01*
X15823999Y-11547955D01*
X15826463Y-11548756D01*
X15831668Y-11551073D01*
X15833913Y-11552369D01*
X15838522Y-11555718D01*
X15840448Y-11557452D01*
X15843178Y-11560484D01*
X15844260Y-11561686D01*
X15845784Y-11563783D01*
X15848632Y-11568716D01*
X15849686Y-11571085D01*
X15851447Y-11576503D01*
X15851986Y-11579038D01*
X15852581Y-11584704D01*
X15852581Y-11587296D01*
X15851986Y-11592961D01*
X15851447Y-11595497D01*
X15849686Y-11600915D01*
X15848632Y-11603283D01*
X15845784Y-11608217D01*
X15844260Y-11610314D01*
X15840449Y-11614547D01*
X15838522Y-11616282D01*
X15833912Y-11619631D01*
X15831668Y-11620926D01*
X15826464Y-11623243D01*
X15823999Y-11624044D01*
X15820279Y-11624835D01*
X15818426Y-11625229D01*
X15815848Y-11625500D01*
X15810152Y-11625500D01*
X15807573Y-11625229D01*
X15806150Y-11624926D01*
X15802001Y-11624045D01*
X15799536Y-11623243D01*
X15794331Y-11620926D01*
X15792087Y-11619630D01*
X15788445Y-11616985D01*
X15787478Y-11616281D01*
X15785552Y-11614547D01*
X15781740Y-11610314D01*
X15780216Y-11608217D01*
X15777367Y-11603282D01*
X15776313Y-11600915D01*
X15774553Y-11595496D01*
X15774014Y-11592962D01*
X15773419Y-11587296D01*
X15773419Y-11584704D01*
X15773419Y-11584704D01*
X15774014Y-11579037D01*
X15774553Y-11576503D01*
X15776313Y-11571084D01*
X15777367Y-11568718D01*
X15780217Y-11563782D01*
X15781739Y-11561687D01*
X15785552Y-11557452D01*
X15787477Y-11555718D01*
X15792087Y-11552369D01*
X15794331Y-11551074D01*
X15799536Y-11548756D01*
X15802001Y-11547955D01*
X15807573Y-11546771D01*
X15810151Y-11546500D01*
X15815849Y-11546500D01*
X15818426Y-11546771D01*
G37*
%TD.AperFunction*%
%TA.AperFunction,Conductor*%
G36*
X16913329Y-7802613D02*
G01*
X16915393Y-7804277D01*
X16947723Y-7836606D01*
X16951071Y-7842739D01*
X16950573Y-7849708D01*
X16946504Y-7855212D01*
X16942944Y-7857944D01*
X16933267Y-7870554D01*
X16927184Y-7885240D01*
X16927184Y-7885240D01*
X16925109Y-7901000D01*
X16925109Y-7901000D01*
X16927184Y-7916759D01*
X16927184Y-7916760D01*
X16933267Y-7931445D01*
X16933267Y-7931445D01*
X16933267Y-7931445D01*
X16942944Y-7944056D01*
X16955555Y-7953733D01*
X16955555Y-7953733D01*
X16955555Y-7953733D01*
X16960234Y-7955671D01*
X16970240Y-7959816D01*
X16975628Y-7960525D01*
X16986000Y-7961891D01*
X16986000Y-7961891D01*
X16986000Y-7961891D01*
X16994390Y-7960786D01*
X17001760Y-7959816D01*
X17016446Y-7953733D01*
X17029056Y-7944056D01*
X17031788Y-7940496D01*
X17037430Y-7936376D01*
X17044405Y-7935961D01*
X17050394Y-7939277D01*
X17124059Y-8012943D01*
X17127408Y-8019075D01*
X17126909Y-8026044D01*
X17124059Y-8030479D01*
X17006525Y-8148013D01*
X17006525Y-8148013D01*
X17003394Y-8151144D01*
X17000013Y-8154525D01*
X16998158Y-8157737D01*
X16998159Y-8157737D01*
X16995408Y-8162500D01*
X16993025Y-8171396D01*
X16993025Y-8176147D01*
X16991056Y-8182851D01*
X16988174Y-8185985D01*
X16984944Y-8188463D01*
X16975267Y-8201074D01*
X16969184Y-8215760D01*
X16969184Y-8215760D01*
X16967109Y-8231520D01*
X16967109Y-8231520D01*
X16969184Y-8247279D01*
X16969184Y-8247280D01*
X16975267Y-8261965D01*
X16975267Y-8261965D01*
X16975267Y-8261965D01*
X16984944Y-8274576D01*
X16997555Y-8284253D01*
X16997555Y-8284253D01*
X16997555Y-8284253D01*
X16998606Y-8284689D01*
X17012240Y-8290336D01*
X17028000Y-8292411D01*
X17037172Y-8291203D01*
X17044075Y-8292280D01*
X17049301Y-8296918D01*
X17051190Y-8303645D01*
X17049142Y-8310325D01*
X17047559Y-8312265D01*
X16910306Y-8449518D01*
X16904174Y-8452867D01*
X16901538Y-8453150D01*
X16826423Y-8453150D01*
X16819719Y-8451182D01*
X16815144Y-8445901D01*
X16814149Y-8438985D01*
X16817052Y-8432630D01*
X16822328Y-8429046D01*
X16836671Y-8424027D01*
X16836671Y-8424027D01*
X16804000Y-8391355D01*
X16804000Y-8391355D01*
X16771328Y-8424027D01*
X16785672Y-8429046D01*
X16791350Y-8433118D01*
X16793924Y-8439613D01*
X16792579Y-8446469D01*
X16787740Y-8451510D01*
X16781577Y-8453150D01*
X16719756Y-8453150D01*
X16713053Y-8451182D01*
X16708477Y-8445901D01*
X16707483Y-8438985D01*
X16710385Y-8432630D01*
X16715661Y-8429046D01*
X16730005Y-8424027D01*
X16730005Y-8424027D01*
X16697333Y-8391355D01*
X16697333Y-8391355D01*
X16664662Y-8424027D01*
X16679005Y-8429046D01*
X16684683Y-8433118D01*
X16687258Y-8439613D01*
X16685912Y-8446469D01*
X16681073Y-8451510D01*
X16674910Y-8453150D01*
X16613090Y-8453150D01*
X16606386Y-8451182D01*
X16601810Y-8445901D01*
X16600816Y-8438985D01*
X16603719Y-8432630D01*
X16608994Y-8429046D01*
X16623338Y-8424027D01*
X16623338Y-8424027D01*
X16590667Y-8391355D01*
X16590667Y-8391355D01*
X16557995Y-8424027D01*
X16572339Y-8429046D01*
X16578016Y-8433118D01*
X16580591Y-8439613D01*
X16579245Y-8446469D01*
X16574407Y-8451510D01*
X16568243Y-8453150D01*
X16506423Y-8453150D01*
X16499719Y-8451182D01*
X16495144Y-8445901D01*
X16494149Y-8438985D01*
X16497052Y-8432630D01*
X16502328Y-8429046D01*
X16516671Y-8424027D01*
X16516671Y-8424027D01*
X16484000Y-8391355D01*
X16484000Y-8391355D01*
X16451328Y-8424027D01*
X16465672Y-8429046D01*
X16471350Y-8433118D01*
X16473924Y-8439613D01*
X16472579Y-8446469D01*
X16467740Y-8451510D01*
X16461577Y-8453150D01*
X16425073Y-8453150D01*
X16419249Y-8454710D01*
X16417308Y-8455231D01*
X16410346Y-8459250D01*
X16053718Y-8815878D01*
X16047586Y-8819226D01*
X16040617Y-8818728D01*
X16035024Y-8814541D01*
X16032582Y-8807994D01*
X16032656Y-8805492D01*
X16033561Y-8798620D01*
X16033519Y-8798302D01*
X16031759Y-8784935D01*
X16031486Y-8782860D01*
X16025403Y-8768175D01*
X16025403Y-8768175D01*
X16025403Y-8768174D01*
X16015727Y-8755564D01*
X16015727Y-8755564D01*
X16003116Y-8745887D01*
X16003116Y-8745887D01*
X16003115Y-8745887D01*
X15988430Y-8739804D01*
X15988430Y-8739804D01*
X15972670Y-8737729D01*
X15972670Y-8737729D01*
X15956911Y-8739804D01*
X15956910Y-8739804D01*
X15942225Y-8745887D01*
X15929614Y-8755564D01*
X15919937Y-8768174D01*
X15913854Y-8782860D01*
X15913854Y-8782860D01*
X15911779Y-8798620D01*
X15911779Y-8798620D01*
X15913854Y-8814380D01*
X15913854Y-8814380D01*
X15919937Y-8829065D01*
X15919937Y-8829065D01*
X15919937Y-8829066D01*
X15929614Y-8841676D01*
X15942225Y-8851353D01*
X15942225Y-8851353D01*
X15942225Y-8851353D01*
X15947120Y-8853381D01*
X15956910Y-8857436D01*
X15972670Y-8859511D01*
X15979542Y-8858606D01*
X15986445Y-8859683D01*
X15991670Y-8864321D01*
X15993559Y-8871048D01*
X15991511Y-8877728D01*
X15989928Y-8879668D01*
X15774157Y-9095440D01*
X15768024Y-9098788D01*
X15765389Y-9099072D01*
X15215400Y-9099072D01*
X15212483Y-9098724D01*
X15211737Y-9098543D01*
X15211736Y-9098543D01*
X15205139Y-9098272D01*
X15203858Y-9098152D01*
X15203125Y-9098045D01*
X15203125Y-9098045D01*
X15203125Y-9098045D01*
X15202964Y-9098022D01*
X15202964Y-9098022D01*
X15201759Y-9097846D01*
X15200082Y-9097601D01*
X15198511Y-9097267D01*
X15196588Y-9096725D01*
X15194966Y-9096144D01*
X15194322Y-9095862D01*
X15193603Y-9095546D01*
X15192303Y-9094882D01*
X15190207Y-9093650D01*
X15189493Y-9093197D01*
X15185899Y-9090740D01*
X15185791Y-9090666D01*
X15185599Y-9090532D01*
X15181255Y-9087495D01*
X15180899Y-9087247D01*
X15180713Y-9087119D01*
X15180562Y-9087016D01*
X15180521Y-9086989D01*
X15180230Y-9086797D01*
X15174443Y-9083063D01*
X15173873Y-9082707D01*
X15173811Y-9082670D01*
X15173811Y-9082670D01*
X15173810Y-9082669D01*
X15173542Y-9082514D01*
X15173203Y-9082319D01*
X15166211Y-9078432D01*
X15165502Y-9078056D01*
X15165501Y-9078055D01*
X15165500Y-9078055D01*
X15165475Y-9078042D01*
X15165423Y-9078016D01*
X15165343Y-9077977D01*
X15164701Y-9077667D01*
X15159043Y-9075070D01*
X15157120Y-9074187D01*
X15156777Y-9074033D01*
X15156745Y-9074019D01*
X15156745Y-9074019D01*
X15156744Y-9074019D01*
X15155472Y-9073751D01*
X15153284Y-9073074D01*
X15147760Y-9070786D01*
X15147760Y-9070785D01*
X15132001Y-9068711D01*
X15132000Y-9068711D01*
X15116241Y-9070785D01*
X15116241Y-9070786D01*
X15101555Y-9076869D01*
X15088944Y-9086545D01*
X15079267Y-9099156D01*
X15073184Y-9113842D01*
X15073184Y-9113842D01*
X15071110Y-9129601D01*
X15071110Y-9129602D01*
X15073184Y-9145361D01*
X15073185Y-9145362D01*
X15078206Y-9157485D01*
X15078953Y-9164432D01*
X15075825Y-9170680D01*
X15069816Y-9174245D01*
X15066750Y-9174630D01*
X15061458Y-9174630D01*
X15054754Y-9172662D01*
X15050179Y-9167381D01*
X15049079Y-9162953D01*
X15048651Y-9155625D01*
X15048651Y-9155623D01*
X15048563Y-9154565D01*
X15048550Y-9154448D01*
X15048409Y-9153405D01*
X15047151Y-9145589D01*
X15046852Y-9144086D01*
X15046812Y-9143918D01*
X15046400Y-9142429D01*
X15046225Y-9141878D01*
X15046035Y-9141023D01*
X15046026Y-9141026D01*
X15045816Y-9140241D01*
X15045816Y-9140240D01*
X15045549Y-9139595D01*
X15045185Y-9138598D01*
X15044234Y-9135599D01*
X15044175Y-9135426D01*
X15043951Y-9134767D01*
X15043917Y-9134673D01*
X15043917Y-9134673D01*
X15043917Y-9134673D01*
X15043333Y-9133757D01*
X15042338Y-9131845D01*
X15039733Y-9125555D01*
X15030056Y-9112944D01*
X15017445Y-9103267D01*
X15017445Y-9103267D01*
X15017445Y-9103267D01*
X15002760Y-9097184D01*
X15002759Y-9097184D01*
X14987000Y-9095109D01*
X14987000Y-9095109D01*
X14971240Y-9097184D01*
X14971240Y-9097184D01*
X14956554Y-9103267D01*
X14943943Y-9112944D01*
X14938557Y-9119964D01*
X14932914Y-9124084D01*
X14925939Y-9124499D01*
X14919951Y-9121183D01*
X14917874Y-9119105D01*
X14917871Y-9119103D01*
X14882449Y-9083681D01*
X14880462Y-9081084D01*
X14880281Y-9080769D01*
X14877076Y-9077095D01*
X14877076Y-9077095D01*
X14876879Y-9076869D01*
X14875310Y-9075070D01*
X14871454Y-9070649D01*
X14870142Y-9068838D01*
X14867530Y-9064447D01*
X14867529Y-9064446D01*
X14866539Y-9062781D01*
X14865358Y-9060134D01*
X14865183Y-9059574D01*
X14864237Y-9056539D01*
X14863694Y-9053551D01*
X14863488Y-9049929D01*
X14863584Y-9047541D01*
X14864419Y-9041459D01*
X14864675Y-9040136D01*
X14865192Y-9038071D01*
X14867037Y-9030704D01*
X14867127Y-9030364D01*
X14870558Y-9018174D01*
X14870642Y-9017867D01*
X14870642Y-9017867D01*
X14870645Y-9017858D01*
X14870652Y-9017832D01*
X14870746Y-9017464D01*
X14871336Y-9015056D01*
X14874204Y-9003374D01*
X14874386Y-9002565D01*
X14874404Y-9002476D01*
X14874550Y-9001682D01*
X14877163Y-8985729D01*
X14877313Y-8984633D01*
X14877326Y-8984510D01*
X14877418Y-8983412D01*
X14878387Y-8966289D01*
X14878411Y-8965719D01*
X14878413Y-8965654D01*
X14878413Y-8965654D01*
X14878432Y-8965001D01*
X14878471Y-8965002D01*
X14878481Y-8964068D01*
X14878500Y-8963875D01*
X14878462Y-8963489D01*
X14876465Y-8943219D01*
X14870440Y-8923357D01*
X14870440Y-8923356D01*
X14860656Y-8905052D01*
X14860656Y-8905051D01*
X14847488Y-8889007D01*
X14831444Y-8875839D01*
X14831443Y-8875839D01*
X14813139Y-8866055D01*
X14813138Y-8866055D01*
X14813138Y-8866055D01*
X14813138Y-8866055D01*
X14806950Y-8864178D01*
X14801106Y-8860348D01*
X14798260Y-8853967D01*
X14799316Y-8847060D01*
X14803939Y-8841821D01*
X14807340Y-8840334D01*
X14818968Y-8837218D01*
X14818969Y-8837218D01*
X14840378Y-8827235D01*
X14859728Y-8813686D01*
X14876430Y-8796983D01*
X14884488Y-8785476D01*
X14889946Y-8781113D01*
X14896896Y-8780394D01*
X14903131Y-8783546D01*
X14905385Y-8786388D01*
X14906375Y-8788103D01*
X14906375Y-8788104D01*
X15063413Y-8945142D01*
X15064973Y-8947048D01*
X15065696Y-8948136D01*
X15065697Y-8948137D01*
X15065697Y-8948137D01*
X15071040Y-8953508D01*
X15071155Y-8953626D01*
X15075838Y-8958460D01*
X15076085Y-8958722D01*
X15076845Y-8959555D01*
X15079430Y-8962384D01*
X15079833Y-8962848D01*
X15082076Y-8965563D01*
X15082593Y-8966233D01*
X15084163Y-8968422D01*
X15084680Y-8969203D01*
X15086094Y-8971526D01*
X15086501Y-8972248D01*
X15088157Y-8975430D01*
X15088416Y-8975958D01*
X15090527Y-8980531D01*
X15090663Y-8980836D01*
X15093348Y-8987091D01*
X15093402Y-8987218D01*
X15096329Y-8994250D01*
X15096330Y-8994252D01*
X15097073Y-8995363D01*
X15098224Y-8997514D01*
X15100267Y-9002446D01*
X15109944Y-9015056D01*
X15122554Y-9024733D01*
X15137240Y-9030816D01*
X15145120Y-9031854D01*
X15153000Y-9032891D01*
X15153000Y-9032891D01*
X15153000Y-9032891D01*
X15158253Y-9032199D01*
X15168760Y-9030816D01*
X15183445Y-9024733D01*
X15196056Y-9015056D01*
X15205733Y-9002446D01*
X15210888Y-8990000D01*
X15238109Y-8990000D01*
X15238109Y-8990000D01*
X15240184Y-9005760D01*
X15240184Y-9005760D01*
X15246267Y-9020445D01*
X15246267Y-9020445D01*
X15246267Y-9020446D01*
X15255944Y-9033056D01*
X15268554Y-9042733D01*
X15268555Y-9042733D01*
X15268555Y-9042733D01*
X15273450Y-9044761D01*
X15283240Y-9048816D01*
X15288738Y-9049540D01*
X15299000Y-9050891D01*
X15299000Y-9050891D01*
X15299000Y-9050891D01*
X15304253Y-9050199D01*
X15314760Y-9048816D01*
X15329445Y-9042733D01*
X15342056Y-9033056D01*
X15351733Y-9020446D01*
X15357816Y-9005760D01*
X15359891Y-8990000D01*
X15359596Y-8987760D01*
X15358437Y-8978957D01*
X15357816Y-8974240D01*
X15351733Y-8959555D01*
X15351733Y-8959555D01*
X15351733Y-8959554D01*
X15342056Y-8946944D01*
X15342056Y-8946944D01*
X15329445Y-8937267D01*
X15329445Y-8937267D01*
X15329445Y-8937267D01*
X15314760Y-8931184D01*
X15314759Y-8931184D01*
X15299000Y-8929109D01*
X15299000Y-8929109D01*
X15283240Y-8931184D01*
X15283240Y-8931184D01*
X15268554Y-8937267D01*
X15255944Y-8946944D01*
X15246267Y-8959554D01*
X15240184Y-8974240D01*
X15240184Y-8974240D01*
X15238109Y-8990000D01*
X15210888Y-8990000D01*
X15211816Y-8987760D01*
X15213405Y-8975691D01*
X15213891Y-8972000D01*
X15213891Y-8972000D01*
X15212074Y-8958199D01*
X15211816Y-8956240D01*
X15205733Y-8941555D01*
X15205733Y-8941555D01*
X15205733Y-8941554D01*
X15199296Y-8933166D01*
X15196056Y-8928944D01*
X15196056Y-8928944D01*
X15196056Y-8928943D01*
X15195631Y-8928519D01*
X15195120Y-8928040D01*
X15195100Y-8928062D01*
X15190067Y-8923357D01*
X15187560Y-8921013D01*
X15187426Y-8920893D01*
X15186957Y-8920471D01*
X15186889Y-8920413D01*
X15186889Y-8920412D01*
X15186266Y-8919894D01*
X15179289Y-8914320D01*
X15179288Y-8914320D01*
X15179286Y-8914318D01*
X15178612Y-8913802D01*
X15178529Y-8913741D01*
X15177803Y-8913232D01*
X15177802Y-8913231D01*
X15173870Y-8910597D01*
X15171547Y-8909040D01*
X15170876Y-8908608D01*
X15170808Y-8908567D01*
X15170144Y-8908174D01*
X15164356Y-8904896D01*
X15163927Y-8904660D01*
X15163876Y-8904632D01*
X15163797Y-8904591D01*
X15163475Y-8904423D01*
X15157889Y-8901586D01*
X15157889Y-8901585D01*
X15152951Y-8899077D01*
X15152455Y-8898811D01*
X15148352Y-8896487D01*
X15147561Y-8895999D01*
X15143426Y-8893229D01*
X15142588Y-8892615D01*
X15140892Y-8891260D01*
X15137635Y-8888658D01*
X15136908Y-8888028D01*
X15136066Y-8887242D01*
X15130669Y-8882196D01*
X15129811Y-8881654D01*
X15127670Y-8879942D01*
X15123228Y-8875500D01*
X15459609Y-8875500D01*
X15459609Y-8875500D01*
X15461684Y-8891259D01*
X15461684Y-8891260D01*
X15467767Y-8905945D01*
X15467767Y-8905945D01*
X15467767Y-8905945D01*
X15477444Y-8918556D01*
X15490055Y-8928233D01*
X15490055Y-8928233D01*
X15490055Y-8928233D01*
X15492170Y-8929109D01*
X15504740Y-8934316D01*
X15507204Y-8934640D01*
X15520500Y-8936391D01*
X15520500Y-8936391D01*
X15520500Y-8936391D01*
X15525753Y-8935699D01*
X15536260Y-8934316D01*
X15550946Y-8928233D01*
X15563556Y-8918556D01*
X15573233Y-8905945D01*
X15579316Y-8891260D01*
X15581391Y-8875500D01*
X15581240Y-8874350D01*
X15579316Y-8859740D01*
X15579316Y-8859740D01*
X15573233Y-8845055D01*
X15573233Y-8845054D01*
X15573233Y-8845054D01*
X15563557Y-8832444D01*
X15562058Y-8831294D01*
X15550946Y-8822767D01*
X15550945Y-8822767D01*
X15550945Y-8822767D01*
X15536260Y-8816684D01*
X15536260Y-8816684D01*
X15520500Y-8814609D01*
X15520500Y-8814609D01*
X15504740Y-8816684D01*
X15504740Y-8816684D01*
X15490054Y-8822767D01*
X15477444Y-8832444D01*
X15467767Y-8845054D01*
X15461684Y-8859740D01*
X15461684Y-8859740D01*
X15459609Y-8875500D01*
X15123228Y-8875500D01*
X14992402Y-8744673D01*
X14989053Y-8738541D01*
X14988770Y-8735905D01*
X14988770Y-8726000D01*
X15474109Y-8726000D01*
X15474109Y-8726000D01*
X15476184Y-8741760D01*
X15476184Y-8741760D01*
X15482267Y-8756445D01*
X15482267Y-8756445D01*
X15482267Y-8756446D01*
X15491944Y-8769056D01*
X15504554Y-8778733D01*
X15519240Y-8784816D01*
X15522209Y-8785207D01*
X15535000Y-8786891D01*
X15535000Y-8786891D01*
X15535000Y-8786891D01*
X15540253Y-8786199D01*
X15550760Y-8784816D01*
X15565445Y-8778733D01*
X15578056Y-8769056D01*
X15587733Y-8756446D01*
X15593816Y-8741760D01*
X15595891Y-8726000D01*
X15595304Y-8721546D01*
X15593857Y-8710555D01*
X15593816Y-8710240D01*
X15587733Y-8695555D01*
X15587733Y-8695555D01*
X15587733Y-8695554D01*
X15578056Y-8682944D01*
X15577817Y-8682760D01*
X15565445Y-8673267D01*
X15565445Y-8673267D01*
X15565445Y-8673267D01*
X15550760Y-8667184D01*
X15550759Y-8667184D01*
X15549362Y-8667000D01*
X15996109Y-8667000D01*
X15996109Y-8667000D01*
X15998184Y-8682760D01*
X15998184Y-8682760D01*
X16004267Y-8697445D01*
X16004267Y-8697445D01*
X16004267Y-8697446D01*
X16013944Y-8710056D01*
X16026554Y-8719733D01*
X16026555Y-8719733D01*
X16026555Y-8719733D01*
X16031450Y-8721761D01*
X16041240Y-8725816D01*
X16049120Y-8726854D01*
X16057000Y-8727891D01*
X16057000Y-8727891D01*
X16057000Y-8727891D01*
X16062253Y-8727199D01*
X16072760Y-8725816D01*
X16087445Y-8719733D01*
X16100056Y-8710056D01*
X16109733Y-8697446D01*
X16115816Y-8682760D01*
X16117404Y-8670701D01*
X16117891Y-8667000D01*
X16117891Y-8667000D01*
X16115816Y-8651240D01*
X16115816Y-8651240D01*
X16109733Y-8636555D01*
X16109733Y-8636555D01*
X16109733Y-8636554D01*
X16100056Y-8623944D01*
X16099632Y-8623618D01*
X16087445Y-8614267D01*
X16087445Y-8614267D01*
X16087445Y-8614267D01*
X16072760Y-8608184D01*
X16072759Y-8608184D01*
X16057000Y-8606109D01*
X16057000Y-8606109D01*
X16041240Y-8608184D01*
X16041240Y-8608184D01*
X16026554Y-8614267D01*
X16013944Y-8623944D01*
X16004267Y-8636554D01*
X15998184Y-8651240D01*
X15998184Y-8651240D01*
X15996109Y-8667000D01*
X15549362Y-8667000D01*
X15535000Y-8665109D01*
X15535000Y-8665109D01*
X15519240Y-8667184D01*
X15519240Y-8667184D01*
X15504554Y-8673267D01*
X15491944Y-8682944D01*
X15482267Y-8695554D01*
X15476184Y-8710240D01*
X15476184Y-8710240D01*
X15474109Y-8726000D01*
X14988770Y-8726000D01*
X14988770Y-8534700D01*
X16061809Y-8534700D01*
X16063617Y-8548430D01*
X16063884Y-8550460D01*
X16063884Y-8550460D01*
X16069967Y-8565146D01*
X16069967Y-8565146D01*
X16069967Y-8565146D01*
X16079644Y-8577757D01*
X16092255Y-8587433D01*
X16106941Y-8593516D01*
X16109559Y-8593861D01*
X16122700Y-8595591D01*
X16122700Y-8595591D01*
X16122700Y-8595591D01*
X16128972Y-8594766D01*
X16138460Y-8593516D01*
X16153146Y-8587433D01*
X16165757Y-8577757D01*
X16175433Y-8565146D01*
X16181516Y-8550460D01*
X16183591Y-8534700D01*
X16181516Y-8518941D01*
X16175433Y-8504255D01*
X16175433Y-8504255D01*
X16175433Y-8504255D01*
X16165757Y-8491644D01*
X16161963Y-8488733D01*
X16153146Y-8481967D01*
X16153146Y-8481967D01*
X16153145Y-8481967D01*
X16138460Y-8475884D01*
X16138460Y-8475884D01*
X16122700Y-8473809D01*
X16122700Y-8473809D01*
X16106941Y-8475884D01*
X16106940Y-8475884D01*
X16092255Y-8481967D01*
X16079644Y-8491644D01*
X16069967Y-8504255D01*
X16063884Y-8518941D01*
X16063884Y-8518941D01*
X16062330Y-8530743D01*
X16061809Y-8534700D01*
X14988770Y-8534700D01*
X14988770Y-8249000D01*
X15468109Y-8249000D01*
X15468109Y-8249000D01*
X15470184Y-8264759D01*
X15470184Y-8264760D01*
X15476267Y-8279445D01*
X15476267Y-8279445D01*
X15476267Y-8279445D01*
X15485944Y-8292056D01*
X15498554Y-8301733D01*
X15513240Y-8307816D01*
X15521120Y-8308853D01*
X15529000Y-8309891D01*
X15529000Y-8309891D01*
X15529000Y-8309891D01*
X15534253Y-8309199D01*
X15544760Y-8307816D01*
X15559445Y-8301733D01*
X15572056Y-8292056D01*
X15581733Y-8279445D01*
X15587816Y-8264760D01*
X15589776Y-8249874D01*
X15589891Y-8249000D01*
X15589891Y-8249000D01*
X15587816Y-8233240D01*
X15587816Y-8233240D01*
X15581733Y-8218555D01*
X15581733Y-8218554D01*
X15581733Y-8218554D01*
X15572056Y-8205944D01*
X15571664Y-8205643D01*
X15559445Y-8196267D01*
X15559445Y-8196267D01*
X15559445Y-8196267D01*
X15544760Y-8190184D01*
X15544759Y-8190184D01*
X15529000Y-8188109D01*
X15529000Y-8188109D01*
X15513240Y-8190184D01*
X15513240Y-8190184D01*
X15498554Y-8196267D01*
X15485944Y-8205944D01*
X15476267Y-8218554D01*
X15470184Y-8233240D01*
X15470184Y-8233240D01*
X15468109Y-8249000D01*
X14988770Y-8249000D01*
X14988770Y-8190796D01*
X14988770Y-8190796D01*
X14988606Y-8190184D01*
X14988145Y-8188463D01*
X14987673Y-8186703D01*
X14987673Y-8186703D01*
X14985651Y-8179156D01*
X14985651Y-8179155D01*
X14982188Y-8173158D01*
X14979625Y-8168719D01*
X14979625Y-8168718D01*
X14963402Y-8152495D01*
X14960053Y-8146363D01*
X14959770Y-8143727D01*
X14959770Y-8041295D01*
X14961738Y-8034591D01*
X14964539Y-8031520D01*
X14969263Y-8027833D01*
X14970192Y-8027174D01*
X14974207Y-8024597D01*
X14975086Y-8024083D01*
X14977441Y-8022832D01*
X14979144Y-8021927D01*
X14979688Y-8021654D01*
X14984707Y-8019298D01*
X14990440Y-8016607D01*
X14990905Y-8016382D01*
X14990957Y-8016356D01*
X14991417Y-8016119D01*
X14997341Y-8012970D01*
X14998093Y-8012551D01*
X14998176Y-8012502D01*
X14998904Y-8012056D01*
X15005274Y-8007967D01*
X15006060Y-8007437D01*
X15006148Y-8007375D01*
X15006931Y-8006792D01*
X15006934Y-8006790D01*
X15014002Y-8001272D01*
X15014100Y-8001192D01*
X15014704Y-8000699D01*
X15014780Y-8000634D01*
X15015438Y-8000049D01*
X15022597Y-7993403D01*
X15022867Y-7993147D01*
X15022896Y-7993119D01*
X15022896Y-7993119D01*
X15023279Y-7992750D01*
X15023874Y-7992238D01*
X15024056Y-7992056D01*
X15024056Y-7992056D01*
X15024056Y-7992056D01*
X15024328Y-7991785D01*
X15025005Y-7991059D01*
X15024988Y-7991043D01*
X15025402Y-7990597D01*
X15025403Y-7990597D01*
X15032049Y-7983438D01*
X15032634Y-7982780D01*
X15032699Y-7982704D01*
X15033270Y-7982004D01*
X15033272Y-7982002D01*
X15038790Y-7974934D01*
X15038790Y-7974934D01*
X15038792Y-7974931D01*
X15039375Y-7974148D01*
X15039437Y-7974060D01*
X15039967Y-7973274D01*
X15044056Y-7966904D01*
X15044502Y-7966176D01*
X15044550Y-7966093D01*
X15044970Y-7965341D01*
X15048118Y-7959417D01*
X15048356Y-7958957D01*
X15048381Y-7958905D01*
X15048607Y-7958440D01*
X15050816Y-7953733D01*
X15051298Y-7952707D01*
X15052770Y-7949571D01*
X15053653Y-7947691D01*
X15053926Y-7947145D01*
X15056083Y-7943085D01*
X15056598Y-7942206D01*
X15057435Y-7940902D01*
X15059173Y-7938193D01*
X15059833Y-7937262D01*
X15063599Y-7932438D01*
X15064285Y-7931633D01*
X15064292Y-7931626D01*
X15070056Y-7925418D01*
X15070576Y-7924591D01*
X15072304Y-7922424D01*
X15091327Y-7903402D01*
X15097459Y-7900053D01*
X15100095Y-7899770D01*
X15584512Y-7899770D01*
X15591216Y-7901738D01*
X15595791Y-7907019D01*
X15596786Y-7913935D01*
X15594899Y-7918943D01*
X15594553Y-7919474D01*
X15594507Y-7919544D01*
X15594413Y-7919685D01*
X15591157Y-7924533D01*
X15590979Y-7924803D01*
X15590964Y-7924826D01*
X15590783Y-7925110D01*
X15587162Y-7930891D01*
X15586836Y-7931429D01*
X15586804Y-7931485D01*
X15586574Y-7931891D01*
X15586493Y-7932034D01*
X15586152Y-7932659D01*
X15582912Y-7938600D01*
X15582694Y-7938998D01*
X15582404Y-7939553D01*
X15582349Y-7939660D01*
X15582312Y-7939732D01*
X15581990Y-7940407D01*
X15578560Y-7947928D01*
X15578408Y-7948268D01*
X15578395Y-7948300D01*
X15578394Y-7948300D01*
X15578128Y-7949571D01*
X15577448Y-7951774D01*
X15575184Y-7957240D01*
X15573109Y-7973000D01*
X15573109Y-7973000D01*
X15575184Y-7988759D01*
X15575184Y-7988760D01*
X15581267Y-8003445D01*
X15581267Y-8003445D01*
X15581267Y-8003445D01*
X15590944Y-8016056D01*
X15603554Y-8025733D01*
X15603555Y-8025733D01*
X15603555Y-8025733D01*
X15607030Y-8027173D01*
X15618240Y-8031816D01*
X15626120Y-8032853D01*
X15634000Y-8033891D01*
X15634000Y-8033891D01*
X15634000Y-8033891D01*
X15639253Y-8033199D01*
X15649760Y-8031816D01*
X15664445Y-8025733D01*
X15677056Y-8016056D01*
X15686733Y-8003445D01*
X15692816Y-7988760D01*
X15694681Y-7974590D01*
X15694891Y-7973000D01*
X15694891Y-7973000D01*
X15693498Y-7962418D01*
X15692816Y-7957240D01*
X15690412Y-7951436D01*
X15689815Y-7949602D01*
X15689386Y-7947827D01*
X15685873Y-7940234D01*
X15685873Y-7940232D01*
X15685497Y-7939461D01*
X15685495Y-7939458D01*
X15685450Y-7939371D01*
X15685033Y-7938600D01*
X15681533Y-7932440D01*
X15681069Y-7931622D01*
X15680682Y-7930970D01*
X15680641Y-7930903D01*
X15680640Y-7930902D01*
X15680638Y-7930898D01*
X15680235Y-7930271D01*
X15676394Y-7924520D01*
X15676149Y-7924162D01*
X15676120Y-7924121D01*
X15675856Y-7923751D01*
X15672739Y-7919490D01*
X15670370Y-7912917D01*
X15671931Y-7906107D01*
X15676926Y-7901222D01*
X15682748Y-7899770D01*
X16008974Y-7899770D01*
X16342565Y-7899770D01*
X16349269Y-7901738D01*
X16353845Y-7907019D01*
X16354839Y-7913935D01*
X16351936Y-7920290D01*
X16351333Y-7920938D01*
X16292870Y-7979401D01*
X16292869Y-7979402D01*
X16286844Y-7989838D01*
X16286844Y-7989838D01*
X16284001Y-8000449D01*
X16284001Y-8000449D01*
X16283725Y-8001479D01*
X16283725Y-8094410D01*
X16281756Y-8101114D01*
X16280093Y-8103178D01*
X16203327Y-8179944D01*
X16197195Y-8183293D01*
X16190225Y-8182794D01*
X16184632Y-8178607D01*
X16182433Y-8173206D01*
X16182426Y-8173208D01*
X16182413Y-8173158D01*
X16182265Y-8172794D01*
X16182216Y-8172423D01*
X16182216Y-8172423D01*
X16182216Y-8172423D01*
X16176133Y-8157737D01*
X16176133Y-8157737D01*
X16176133Y-8157737D01*
X16166456Y-8145126D01*
X16166456Y-8145126D01*
X16153845Y-8135449D01*
X16153845Y-8135449D01*
X16153845Y-8135449D01*
X16139160Y-8129367D01*
X16139159Y-8129366D01*
X16123400Y-8127292D01*
X16123400Y-8127292D01*
X16107640Y-8129366D01*
X16107640Y-8129366D01*
X16092954Y-8135449D01*
X16080344Y-8145126D01*
X16070667Y-8157737D01*
X16064584Y-8172423D01*
X16064584Y-8172423D01*
X16062509Y-8188182D01*
X16062509Y-8188183D01*
X16064584Y-8203942D01*
X16064584Y-8203943D01*
X16070667Y-8218628D01*
X16070667Y-8218628D01*
X16070667Y-8218628D01*
X16080344Y-8231239D01*
X16092954Y-8240916D01*
X16107640Y-8246999D01*
X16108012Y-8247048D01*
X16108302Y-8247176D01*
X16108425Y-8247209D01*
X16108420Y-8247228D01*
X16114401Y-8249874D01*
X16118249Y-8255706D01*
X16118332Y-8262693D01*
X16115162Y-8268110D01*
X16038551Y-8344720D01*
X16036285Y-8346511D01*
X16035582Y-8346944D01*
X16035582Y-8346944D01*
X16029367Y-8352714D01*
X16028560Y-8353401D01*
X16025231Y-8356000D01*
X16023739Y-8357165D01*
X16022806Y-8357826D01*
X16018792Y-8360403D01*
X16017912Y-8360917D01*
X16013855Y-8363073D01*
X16013306Y-8363348D01*
X16008293Y-8365701D01*
X16008293Y-8365701D01*
X16002553Y-8368396D01*
X16002092Y-8368619D01*
X16002046Y-8368642D01*
X16001586Y-8368879D01*
X15995659Y-8372029D01*
X15994917Y-8372443D01*
X15994838Y-8372489D01*
X15994482Y-8372707D01*
X15994096Y-8372944D01*
X15994095Y-8372945D01*
X15987723Y-8377034D01*
X15986933Y-8377567D01*
X15986850Y-8377626D01*
X15986070Y-8378206D01*
X15982483Y-8381007D01*
X15978994Y-8383731D01*
X15978286Y-8384308D01*
X15978285Y-8384309D01*
X15978214Y-8384370D01*
X15977563Y-8384949D01*
X15970404Y-8391596D01*
X15970089Y-8391895D01*
X15969746Y-8392227D01*
X15969126Y-8392761D01*
X15968944Y-8392943D01*
X15959267Y-8405554D01*
X15953184Y-8420240D01*
X15953184Y-8420240D01*
X15951109Y-8436000D01*
X15951109Y-8436000D01*
X15953184Y-8451760D01*
X15953184Y-8451760D01*
X15959267Y-8466445D01*
X15959267Y-8466445D01*
X15959267Y-8466446D01*
X15968944Y-8479056D01*
X15981554Y-8488733D01*
X15996240Y-8494816D01*
X16004120Y-8495854D01*
X16012000Y-8496891D01*
X16012000Y-8496891D01*
X16012000Y-8496891D01*
X16017253Y-8496199D01*
X16027760Y-8494816D01*
X16042445Y-8488733D01*
X16055056Y-8479056D01*
X16055056Y-8479056D01*
X16055330Y-8478783D01*
X16056005Y-8478059D01*
X16055988Y-8478043D01*
X16056402Y-8477597D01*
X16056403Y-8477597D01*
X16063049Y-8470438D01*
X16063634Y-8469780D01*
X16063699Y-8469704D01*
X16064270Y-8469004D01*
X16064272Y-8469002D01*
X16069790Y-8461935D01*
X16069790Y-8461934D01*
X16069792Y-8461931D01*
X16070375Y-8461148D01*
X16070437Y-8461060D01*
X16070967Y-8460274D01*
X16075056Y-8453904D01*
X16075502Y-8453176D01*
X16075551Y-8453093D01*
X16075970Y-8452341D01*
X16079119Y-8446417D01*
X16079356Y-8445957D01*
X16079382Y-8445905D01*
X16079607Y-8445441D01*
X16082298Y-8439707D01*
X16082298Y-8439707D01*
X16083962Y-8436163D01*
X16083962Y-8436162D01*
X16084653Y-8434691D01*
X16084925Y-8434148D01*
X16087084Y-8430084D01*
X16087596Y-8429208D01*
X16090174Y-8425193D01*
X16090832Y-8424265D01*
X16094601Y-8419437D01*
X16095285Y-8418634D01*
X16101056Y-8412419D01*
X16101576Y-8411591D01*
X16103305Y-8409423D01*
X16156729Y-8356000D01*
X16408525Y-8356000D01*
X16408525Y-8356000D01*
X16410418Y-8372794D01*
X16415973Y-8388671D01*
X16448645Y-8356000D01*
X16446655Y-8354011D01*
X16474000Y-8354011D01*
X16474000Y-8357989D01*
X16475522Y-8361664D01*
X16478335Y-8364478D01*
X16482011Y-8366000D01*
X16485989Y-8366000D01*
X16489664Y-8364478D01*
X16492478Y-8361664D01*
X16494000Y-8357989D01*
X16494000Y-8356000D01*
X16519355Y-8356000D01*
X16519355Y-8356000D01*
X16537333Y-8373978D01*
X16555311Y-8356000D01*
X16553322Y-8354011D01*
X16580667Y-8354011D01*
X16580667Y-8357989D01*
X16582189Y-8361664D01*
X16585002Y-8364478D01*
X16588678Y-8366000D01*
X16592656Y-8366000D01*
X16596331Y-8364478D01*
X16599144Y-8361664D01*
X16600667Y-8357989D01*
X16600667Y-8356000D01*
X16626022Y-8356000D01*
X16644000Y-8373978D01*
X16661978Y-8356000D01*
X16659989Y-8354011D01*
X16687333Y-8354011D01*
X16687333Y-8357989D01*
X16688856Y-8361664D01*
X16691669Y-8364478D01*
X16695344Y-8366000D01*
X16699322Y-8366000D01*
X16702998Y-8364478D01*
X16705811Y-8361664D01*
X16707333Y-8357989D01*
X16707333Y-8356000D01*
X16732689Y-8356000D01*
X16732689Y-8356000D01*
X16750666Y-8373978D01*
X16768644Y-8356000D01*
X16766655Y-8354011D01*
X16794000Y-8354011D01*
X16794000Y-8357989D01*
X16795522Y-8361664D01*
X16798336Y-8364478D01*
X16802011Y-8366000D01*
X16805989Y-8366000D01*
X16809665Y-8364478D01*
X16812478Y-8361664D01*
X16814000Y-8357989D01*
X16814000Y-8356000D01*
X16839355Y-8356000D01*
X16839355Y-8356000D01*
X16872027Y-8388671D01*
X16872027Y-8388671D01*
X16877582Y-8372794D01*
X16877582Y-8372794D01*
X16879475Y-8356000D01*
X16879475Y-8356000D01*
X16877582Y-8339206D01*
X16877582Y-8339205D01*
X16872027Y-8323328D01*
X16872027Y-8323328D01*
X16839355Y-8356000D01*
X16814000Y-8356000D01*
X16814000Y-8354011D01*
X16812478Y-8350335D01*
X16809665Y-8347522D01*
X16805989Y-8346000D01*
X16802011Y-8346000D01*
X16798336Y-8347522D01*
X16795522Y-8350335D01*
X16794000Y-8354011D01*
X16766655Y-8354011D01*
X16750667Y-8338022D01*
X16732689Y-8356000D01*
X16707333Y-8356000D01*
X16707333Y-8354011D01*
X16705811Y-8350335D01*
X16702998Y-8347522D01*
X16699322Y-8346000D01*
X16695344Y-8346000D01*
X16691669Y-8347522D01*
X16688856Y-8350335D01*
X16687333Y-8354011D01*
X16659989Y-8354011D01*
X16644000Y-8338022D01*
X16626022Y-8356000D01*
X16600667Y-8356000D01*
X16600667Y-8354011D01*
X16599144Y-8350335D01*
X16596331Y-8347522D01*
X16592656Y-8346000D01*
X16588678Y-8346000D01*
X16585002Y-8347522D01*
X16582189Y-8350335D01*
X16580667Y-8354011D01*
X16553322Y-8354011D01*
X16537333Y-8338022D01*
X16519355Y-8356000D01*
X16494000Y-8356000D01*
X16494000Y-8354011D01*
X16492478Y-8350335D01*
X16489664Y-8347522D01*
X16485989Y-8346000D01*
X16482011Y-8346000D01*
X16478335Y-8347522D01*
X16475522Y-8350335D01*
X16474000Y-8354011D01*
X16446655Y-8354011D01*
X16415973Y-8323328D01*
X16410418Y-8339205D01*
X16408525Y-8356000D01*
X16156729Y-8356000D01*
X16210062Y-8302667D01*
X16466022Y-8302667D01*
X16484000Y-8320644D01*
X16501978Y-8302667D01*
X16572689Y-8302667D01*
X16590667Y-8320644D01*
X16608644Y-8302667D01*
X16679355Y-8302667D01*
X16697333Y-8320644D01*
X16715311Y-8302667D01*
X16786022Y-8302667D01*
X16804000Y-8320644D01*
X16821978Y-8302666D01*
X16804000Y-8284689D01*
X16786022Y-8302667D01*
X16715311Y-8302667D01*
X16715311Y-8302666D01*
X16697333Y-8284689D01*
X16679355Y-8302667D01*
X16608644Y-8302667D01*
X16608645Y-8302666D01*
X16590667Y-8284689D01*
X16572689Y-8302667D01*
X16501978Y-8302667D01*
X16501978Y-8302666D01*
X16484000Y-8284689D01*
X16466022Y-8302667D01*
X16210062Y-8302667D01*
X16263396Y-8249333D01*
X16408525Y-8249333D01*
X16408525Y-8249334D01*
X16410418Y-8266128D01*
X16415973Y-8282005D01*
X16448645Y-8249333D01*
X16446655Y-8247344D01*
X16474000Y-8247344D01*
X16474000Y-8251322D01*
X16475522Y-8254998D01*
X16478335Y-8257811D01*
X16482011Y-8259333D01*
X16485989Y-8259333D01*
X16489664Y-8257811D01*
X16492478Y-8254998D01*
X16494000Y-8251322D01*
X16494000Y-8249333D01*
X16519355Y-8249333D01*
X16519355Y-8249333D01*
X16537333Y-8267311D01*
X16555311Y-8249333D01*
X16553322Y-8247344D01*
X16580667Y-8247344D01*
X16580667Y-8251322D01*
X16582189Y-8254998D01*
X16585002Y-8257811D01*
X16588678Y-8259333D01*
X16592656Y-8259333D01*
X16596331Y-8257811D01*
X16599144Y-8254998D01*
X16600667Y-8251322D01*
X16600667Y-8249333D01*
X16626022Y-8249333D01*
X16644000Y-8267311D01*
X16661978Y-8249333D01*
X16659989Y-8247344D01*
X16687333Y-8247344D01*
X16687333Y-8251322D01*
X16688856Y-8254998D01*
X16691669Y-8257811D01*
X16695344Y-8259333D01*
X16699322Y-8259333D01*
X16702998Y-8257811D01*
X16705811Y-8254998D01*
X16707333Y-8251322D01*
X16707333Y-8249333D01*
X16732689Y-8249333D01*
X16732689Y-8249333D01*
X16750666Y-8267311D01*
X16768644Y-8249333D01*
X16766655Y-8247344D01*
X16794000Y-8247344D01*
X16794000Y-8251322D01*
X16795522Y-8254998D01*
X16798336Y-8257811D01*
X16802011Y-8259333D01*
X16805989Y-8259333D01*
X16809665Y-8257811D01*
X16812478Y-8254998D01*
X16814000Y-8251322D01*
X16814000Y-8249333D01*
X16839355Y-8249333D01*
X16839355Y-8249333D01*
X16872027Y-8282005D01*
X16872027Y-8282005D01*
X16877582Y-8266128D01*
X16877582Y-8266127D01*
X16879475Y-8249334D01*
X16879475Y-8249333D01*
X16877582Y-8232539D01*
X16877582Y-8232539D01*
X16872027Y-8216662D01*
X16872027Y-8216662D01*
X16839355Y-8249333D01*
X16814000Y-8249333D01*
X16814000Y-8247344D01*
X16812478Y-8243669D01*
X16809665Y-8240856D01*
X16805989Y-8239333D01*
X16802011Y-8239333D01*
X16798336Y-8240856D01*
X16795522Y-8243669D01*
X16794000Y-8247344D01*
X16766655Y-8247344D01*
X16750667Y-8231355D01*
X16732689Y-8249333D01*
X16707333Y-8249333D01*
X16707333Y-8247344D01*
X16705811Y-8243669D01*
X16702998Y-8240856D01*
X16699322Y-8239333D01*
X16695344Y-8239333D01*
X16691669Y-8240856D01*
X16688856Y-8243669D01*
X16687333Y-8247344D01*
X16659989Y-8247344D01*
X16644000Y-8231355D01*
X16626022Y-8249333D01*
X16600667Y-8249333D01*
X16600667Y-8247344D01*
X16599144Y-8243669D01*
X16596331Y-8240856D01*
X16592656Y-8239333D01*
X16588678Y-8239333D01*
X16585002Y-8240856D01*
X16582189Y-8243669D01*
X16580667Y-8247344D01*
X16553322Y-8247344D01*
X16537333Y-8231355D01*
X16519355Y-8249333D01*
X16494000Y-8249333D01*
X16494000Y-8247344D01*
X16492478Y-8243669D01*
X16489664Y-8240856D01*
X16485989Y-8239333D01*
X16482011Y-8239333D01*
X16478335Y-8240856D01*
X16475522Y-8243669D01*
X16474000Y-8247344D01*
X16446655Y-8247344D01*
X16415973Y-8216662D01*
X16410418Y-8232539D01*
X16408525Y-8249333D01*
X16263396Y-8249333D01*
X16316729Y-8196000D01*
X16466022Y-8196000D01*
X16484000Y-8213978D01*
X16501978Y-8196000D01*
X16572689Y-8196000D01*
X16590667Y-8213978D01*
X16608645Y-8196000D01*
X16679355Y-8196000D01*
X16697333Y-8213978D01*
X16715311Y-8196000D01*
X16786022Y-8196000D01*
X16804000Y-8213978D01*
X16821978Y-8196000D01*
X16804000Y-8178022D01*
X16786022Y-8196000D01*
X16715311Y-8196000D01*
X16697333Y-8178022D01*
X16679355Y-8196000D01*
X16608645Y-8196000D01*
X16590667Y-8178022D01*
X16572689Y-8196000D01*
X16501978Y-8196000D01*
X16484000Y-8178022D01*
X16466022Y-8196000D01*
X16316729Y-8196000D01*
X16366120Y-8146608D01*
X16368396Y-8142666D01*
X16408525Y-8142666D01*
X16408525Y-8142667D01*
X16410418Y-8159461D01*
X16415973Y-8175338D01*
X16448645Y-8142667D01*
X16446655Y-8140678D01*
X16474000Y-8140678D01*
X16474000Y-8144656D01*
X16475522Y-8148331D01*
X16478335Y-8151144D01*
X16482011Y-8152667D01*
X16485989Y-8152667D01*
X16489664Y-8151144D01*
X16492478Y-8148331D01*
X16494000Y-8144656D01*
X16494000Y-8142667D01*
X16519355Y-8142667D01*
X16519355Y-8142667D01*
X16537333Y-8160645D01*
X16555311Y-8142667D01*
X16553322Y-8140678D01*
X16580667Y-8140678D01*
X16580667Y-8144656D01*
X16582189Y-8148331D01*
X16585002Y-8151144D01*
X16588678Y-8152667D01*
X16592656Y-8152667D01*
X16596331Y-8151144D01*
X16599144Y-8148331D01*
X16600667Y-8144656D01*
X16600667Y-8142667D01*
X16626022Y-8142667D01*
X16644000Y-8160645D01*
X16661978Y-8142667D01*
X16659989Y-8140678D01*
X16687333Y-8140678D01*
X16687333Y-8144656D01*
X16688856Y-8148331D01*
X16691669Y-8151144D01*
X16695344Y-8152667D01*
X16699322Y-8152667D01*
X16702998Y-8151144D01*
X16705811Y-8148331D01*
X16707333Y-8144656D01*
X16707333Y-8142667D01*
X16732689Y-8142667D01*
X16732689Y-8142667D01*
X16750666Y-8160645D01*
X16768644Y-8142667D01*
X16766655Y-8140678D01*
X16794000Y-8140678D01*
X16794000Y-8144656D01*
X16795522Y-8148331D01*
X16798336Y-8151144D01*
X16802011Y-8152667D01*
X16805989Y-8152667D01*
X16809665Y-8151144D01*
X16812478Y-8148331D01*
X16814000Y-8144656D01*
X16814000Y-8142667D01*
X16839355Y-8142667D01*
X16839355Y-8142667D01*
X16872027Y-8175338D01*
X16872027Y-8175338D01*
X16877582Y-8159461D01*
X16877582Y-8159460D01*
X16879475Y-8142667D01*
X16879475Y-8142666D01*
X16877582Y-8125872D01*
X16877582Y-8125872D01*
X16872027Y-8109995D01*
X16872027Y-8109995D01*
X16839355Y-8142667D01*
X16814000Y-8142667D01*
X16814000Y-8140678D01*
X16812478Y-8137002D01*
X16809665Y-8134189D01*
X16805989Y-8132667D01*
X16802011Y-8132667D01*
X16798336Y-8134189D01*
X16795522Y-8137002D01*
X16794000Y-8140678D01*
X16766655Y-8140678D01*
X16750667Y-8124689D01*
X16732689Y-8142667D01*
X16707333Y-8142667D01*
X16707333Y-8140678D01*
X16705811Y-8137002D01*
X16702998Y-8134189D01*
X16699322Y-8132667D01*
X16695344Y-8132667D01*
X16691669Y-8134189D01*
X16688856Y-8137002D01*
X16687333Y-8140678D01*
X16659989Y-8140678D01*
X16644000Y-8124689D01*
X16626022Y-8142667D01*
X16600667Y-8142667D01*
X16600667Y-8140678D01*
X16599144Y-8137002D01*
X16596331Y-8134189D01*
X16592656Y-8132667D01*
X16588678Y-8132667D01*
X16585002Y-8134189D01*
X16582189Y-8137002D01*
X16580667Y-8140678D01*
X16553322Y-8140678D01*
X16537333Y-8124689D01*
X16519355Y-8142667D01*
X16494000Y-8142667D01*
X16494000Y-8140678D01*
X16492478Y-8137002D01*
X16489664Y-8134189D01*
X16485989Y-8132667D01*
X16482011Y-8132667D01*
X16478335Y-8134189D01*
X16475522Y-8137002D01*
X16474000Y-8140678D01*
X16446655Y-8140678D01*
X16415973Y-8109995D01*
X16410418Y-8125872D01*
X16408525Y-8142666D01*
X16368396Y-8142666D01*
X16372146Y-8136172D01*
X16372146Y-8136171D01*
X16375265Y-8124531D01*
X16375265Y-8089333D01*
X16466022Y-8089333D01*
X16484000Y-8107311D01*
X16501978Y-8089333D01*
X16572689Y-8089333D01*
X16590667Y-8107311D01*
X16608644Y-8089333D01*
X16679355Y-8089333D01*
X16697333Y-8107311D01*
X16715311Y-8089333D01*
X16786022Y-8089333D01*
X16804000Y-8107311D01*
X16821978Y-8089333D01*
X16804000Y-8071355D01*
X16786022Y-8089333D01*
X16715311Y-8089333D01*
X16715311Y-8089333D01*
X16697333Y-8071355D01*
X16679355Y-8089333D01*
X16608644Y-8089333D01*
X16608645Y-8089333D01*
X16590667Y-8071355D01*
X16572689Y-8089333D01*
X16501978Y-8089333D01*
X16501978Y-8089333D01*
X16484000Y-8071355D01*
X16466022Y-8089333D01*
X16375265Y-8089333D01*
X16375265Y-8031600D01*
X16377233Y-8024896D01*
X16378896Y-8022832D01*
X16388902Y-8012826D01*
X16395034Y-8009478D01*
X16402003Y-8009976D01*
X16407597Y-8014164D01*
X16410038Y-8020710D01*
X16409992Y-8022983D01*
X16408525Y-8035999D01*
X16408525Y-8036000D01*
X16410418Y-8052794D01*
X16415973Y-8068671D01*
X16450634Y-8034011D01*
X16474000Y-8034011D01*
X16474000Y-8037989D01*
X16475522Y-8041664D01*
X16478335Y-8044478D01*
X16482011Y-8046000D01*
X16485989Y-8046000D01*
X16489664Y-8044478D01*
X16492478Y-8041664D01*
X16494000Y-8037989D01*
X16494000Y-8036000D01*
X16519355Y-8036000D01*
X16519355Y-8036000D01*
X16537333Y-8053978D01*
X16555311Y-8036000D01*
X16553322Y-8034011D01*
X16580667Y-8034011D01*
X16580667Y-8037989D01*
X16582189Y-8041664D01*
X16585002Y-8044478D01*
X16588678Y-8046000D01*
X16592656Y-8046000D01*
X16596331Y-8044478D01*
X16599144Y-8041664D01*
X16600667Y-8037989D01*
X16600667Y-8036000D01*
X16626022Y-8036000D01*
X16644000Y-8053978D01*
X16661978Y-8036000D01*
X16659989Y-8034011D01*
X16687333Y-8034011D01*
X16687333Y-8037989D01*
X16688856Y-8041664D01*
X16691669Y-8044478D01*
X16695344Y-8046000D01*
X16699322Y-8046000D01*
X16702998Y-8044478D01*
X16705811Y-8041664D01*
X16707333Y-8037989D01*
X16707333Y-8036000D01*
X16732689Y-8036000D01*
X16732689Y-8036000D01*
X16750666Y-8053978D01*
X16768644Y-8036000D01*
X16766655Y-8034011D01*
X16794000Y-8034011D01*
X16794000Y-8037989D01*
X16795522Y-8041664D01*
X16798336Y-8044478D01*
X16802011Y-8046000D01*
X16805989Y-8046000D01*
X16809665Y-8044478D01*
X16812478Y-8041664D01*
X16814000Y-8037989D01*
X16814000Y-8036000D01*
X16839355Y-8036000D01*
X16839355Y-8036000D01*
X16872027Y-8068671D01*
X16872027Y-8068671D01*
X16877582Y-8052794D01*
X16877582Y-8052794D01*
X16879475Y-8036000D01*
X16879475Y-8036000D01*
X16877582Y-8019206D01*
X16877582Y-8019205D01*
X16872027Y-8003328D01*
X16872027Y-8003328D01*
X16839355Y-8036000D01*
X16814000Y-8036000D01*
X16814000Y-8034011D01*
X16812478Y-8030335D01*
X16809665Y-8027522D01*
X16805989Y-8026000D01*
X16802011Y-8026000D01*
X16798336Y-8027522D01*
X16795522Y-8030335D01*
X16794000Y-8034011D01*
X16766655Y-8034011D01*
X16750667Y-8018022D01*
X16732689Y-8036000D01*
X16707333Y-8036000D01*
X16707333Y-8034011D01*
X16705811Y-8030335D01*
X16702998Y-8027522D01*
X16699322Y-8026000D01*
X16695344Y-8026000D01*
X16691669Y-8027522D01*
X16688856Y-8030335D01*
X16687333Y-8034011D01*
X16659989Y-8034011D01*
X16644000Y-8018022D01*
X16626022Y-8036000D01*
X16600667Y-8036000D01*
X16600667Y-8034011D01*
X16599144Y-8030335D01*
X16596331Y-8027522D01*
X16592656Y-8026000D01*
X16588678Y-8026000D01*
X16585002Y-8027522D01*
X16582189Y-8030335D01*
X16580667Y-8034011D01*
X16553322Y-8034011D01*
X16537333Y-8018022D01*
X16519355Y-8036000D01*
X16494000Y-8036000D01*
X16494000Y-8034011D01*
X16492478Y-8030335D01*
X16489664Y-8027522D01*
X16485989Y-8026000D01*
X16482011Y-8026000D01*
X16478335Y-8027522D01*
X16475522Y-8030335D01*
X16474000Y-8034011D01*
X16450634Y-8034011D01*
X16466322Y-8018322D01*
X16516671Y-7967973D01*
X16557995Y-7967973D01*
X16590667Y-8000645D01*
X16590667Y-8000645D01*
X16623338Y-7967973D01*
X16664662Y-7967973D01*
X16697333Y-8000645D01*
X16697333Y-8000645D01*
X16730005Y-7967973D01*
X16771328Y-7967973D01*
X16804000Y-8000645D01*
X16804000Y-8000645D01*
X16836671Y-7967973D01*
X16820794Y-7962418D01*
X16804000Y-7960525D01*
X16804000Y-7960525D01*
X16787206Y-7962418D01*
X16771328Y-7967973D01*
X16730005Y-7967973D01*
X16714128Y-7962418D01*
X16697334Y-7960525D01*
X16697333Y-7960525D01*
X16680539Y-7962418D01*
X16664662Y-7967973D01*
X16623338Y-7967973D01*
X16607461Y-7962418D01*
X16590667Y-7960525D01*
X16590666Y-7960525D01*
X16573872Y-7962418D01*
X16557995Y-7967973D01*
X16516671Y-7967973D01*
X16500794Y-7962418D01*
X16484000Y-7960525D01*
X16484000Y-7960525D01*
X16470983Y-7961992D01*
X16464101Y-7960786D01*
X16458963Y-7956051D01*
X16457200Y-7949290D01*
X16459373Y-7942650D01*
X16460826Y-7940902D01*
X16498327Y-7903402D01*
X16504459Y-7900053D01*
X16507095Y-7899770D01*
X16616026Y-7899770D01*
X16616026Y-7899770D01*
X16627667Y-7896651D01*
X16638103Y-7890625D01*
X16660450Y-7868279D01*
X16662715Y-7866489D01*
X16663418Y-7866056D01*
X16669634Y-7860285D01*
X16670437Y-7859601D01*
X16675265Y-7855832D01*
X16676192Y-7855174D01*
X16680207Y-7852597D01*
X16681086Y-7852083D01*
X16682457Y-7851354D01*
X16685144Y-7849927D01*
X16685688Y-7849654D01*
X16690707Y-7847298D01*
X16696440Y-7844607D01*
X16696905Y-7844382D01*
X16696957Y-7844356D01*
X16697417Y-7844119D01*
X16703341Y-7840970D01*
X16704093Y-7840551D01*
X16704176Y-7840502D01*
X16704904Y-7840056D01*
X16711274Y-7835967D01*
X16712060Y-7835437D01*
X16712148Y-7835375D01*
X16712931Y-7834792D01*
X16712934Y-7834790D01*
X16720002Y-7829272D01*
X16720100Y-7829192D01*
X16720704Y-7828699D01*
X16720780Y-7828634D01*
X16721438Y-7828049D01*
X16722181Y-7827359D01*
X16723627Y-7826205D01*
X16728525Y-7822861D01*
X16729594Y-7822081D01*
X16729712Y-7821989D01*
X16730742Y-7821131D01*
X16735705Y-7816720D01*
X16736384Y-7816088D01*
X16736459Y-7816016D01*
X16737105Y-7815360D01*
X16741268Y-7810940D01*
X16741471Y-7810722D01*
X16741491Y-7810701D01*
X16741637Y-7810540D01*
X16744820Y-7806989D01*
X16745298Y-7806485D01*
X16746623Y-7805165D01*
X16752433Y-7801905D01*
X16752747Y-7801828D01*
X16754844Y-7801503D01*
X16759726Y-7801171D01*
X16760315Y-7801022D01*
X16763351Y-7800645D01*
X16797594Y-7800645D01*
X16906625Y-7800645D01*
X16913329Y-7802613D01*
G37*
%TD.AperFunction*%
%TA.AperFunction,Conductor*%
G36*
X17760636Y-7281969D02*
G01*
X17767335Y-7283954D01*
X17771897Y-7289246D01*
X17773005Y-7294364D01*
X17774995Y-12245564D01*
X17773029Y-12252268D01*
X17767751Y-12256846D01*
X17762564Y-12257969D01*
X14612364Y-12250031D01*
X14605665Y-12248046D01*
X14601103Y-12242754D01*
X14599995Y-12237636D01*
X14599910Y-12026466D01*
X15160316Y-12026466D01*
X15160316Y-12026466D01*
X15162391Y-12042225D01*
X15162391Y-12042226D01*
X15168474Y-12056911D01*
X15168474Y-12056911D01*
X15168474Y-12056911D01*
X15178151Y-12069522D01*
X15190762Y-12079199D01*
X15190762Y-12079199D01*
X15190762Y-12079199D01*
X15194831Y-12080884D01*
X15205448Y-12085282D01*
X15208881Y-12085734D01*
X15221207Y-12087357D01*
X15221207Y-12087357D01*
X15221207Y-12087357D01*
X15226460Y-12086665D01*
X15236967Y-12085282D01*
X15242303Y-12083072D01*
X15244405Y-12082413D01*
X15245944Y-12082077D01*
X15253258Y-12078889D01*
X15253555Y-12078757D01*
X15253591Y-12078740D01*
X15253942Y-12078577D01*
X15260845Y-12075284D01*
X15261058Y-12075181D01*
X15261074Y-12075173D01*
X15261078Y-12075171D01*
X15261096Y-12075162D01*
X15261268Y-12075076D01*
X15261869Y-12074774D01*
X15261871Y-12074773D01*
X15261871Y-12074773D01*
X15265455Y-12072968D01*
X15265455Y-12072968D01*
X15267076Y-12072151D01*
X15269600Y-12070890D01*
X15269600Y-12070890D01*
X15271607Y-12069886D01*
X15272020Y-12069689D01*
X15275150Y-12068269D01*
X15275990Y-12067925D01*
X15278237Y-12067098D01*
X15279363Y-12066744D01*
X15281644Y-12066145D01*
X15282798Y-12065900D01*
X15286137Y-12065357D01*
X15287114Y-12065238D01*
X15292288Y-12064815D01*
X15293013Y-12064777D01*
X15300003Y-12064620D01*
X15301110Y-12064381D01*
X15303733Y-12064100D01*
X15322585Y-12064100D01*
X15325360Y-12064414D01*
X15326273Y-12064624D01*
X15333159Y-12064826D01*
X15334087Y-12064889D01*
X15338782Y-12065382D01*
X15339978Y-12065568D01*
X15342818Y-12066151D01*
X15344156Y-12066505D01*
X15346096Y-12067136D01*
X15347301Y-12067598D01*
X15349495Y-12068574D01*
X15350293Y-12068965D01*
X15352911Y-12070363D01*
X15353631Y-12070748D01*
X15353929Y-12070912D01*
X15358637Y-12073596D01*
X15358651Y-12073604D01*
X15358653Y-12073605D01*
X15358778Y-12073675D01*
X15358790Y-12073682D01*
X15358886Y-12073736D01*
X15358899Y-12073743D01*
X15364725Y-12076972D01*
X15365072Y-12077159D01*
X15365076Y-12077161D01*
X15365077Y-12077162D01*
X15365116Y-12077183D01*
X15365309Y-12077283D01*
X15365458Y-12077360D01*
X15365462Y-12077362D01*
X15365464Y-12077363D01*
X15372432Y-12080884D01*
X15372901Y-12081115D01*
X15372954Y-12081140D01*
X15373424Y-12081356D01*
X15380874Y-12084666D01*
X15381109Y-12084768D01*
X15381134Y-12084779D01*
X15382430Y-12085047D01*
X15384661Y-12085734D01*
X15389990Y-12087941D01*
X15397870Y-12088978D01*
X15405750Y-12090016D01*
X15405750Y-12090016D01*
X15405750Y-12090016D01*
X15411003Y-12089324D01*
X15421510Y-12087941D01*
X15436195Y-12081858D01*
X15448806Y-12072181D01*
X15458248Y-12059877D01*
X17059174Y-12059877D01*
X17059174Y-12080571D01*
X17063211Y-12100866D01*
X17063211Y-12100866D01*
X17071130Y-12119984D01*
X17082627Y-12137190D01*
X17097259Y-12151822D01*
X17097259Y-12151822D01*
X17114465Y-12163318D01*
X17133582Y-12171237D01*
X17153877Y-12175274D01*
X17153878Y-12175274D01*
X17153878Y-12175274D01*
X17174571Y-12175274D01*
X17174571Y-12175274D01*
X17194866Y-12171237D01*
X17213984Y-12163318D01*
X17231190Y-12151822D01*
X17245822Y-12137190D01*
X17257319Y-12119984D01*
X17265237Y-12100866D01*
X17269274Y-12080571D01*
X17269274Y-12059878D01*
X17265237Y-12039582D01*
X17257319Y-12020465D01*
X17245822Y-12003259D01*
X17245822Y-12003259D01*
X17231190Y-11988627D01*
X17221280Y-11982005D01*
X17213984Y-11977130D01*
X17213972Y-11977125D01*
X17194866Y-11969211D01*
X17194866Y-11969211D01*
X17174571Y-11965174D01*
X17174571Y-11965174D01*
X17153878Y-11965174D01*
X17153877Y-11965174D01*
X17133583Y-11969211D01*
X17133582Y-11969211D01*
X17114465Y-11977130D01*
X17097259Y-11988627D01*
X17082627Y-12003259D01*
X17071130Y-12020465D01*
X17063211Y-12039582D01*
X17063211Y-12039583D01*
X17059174Y-12059877D01*
X15458248Y-12059877D01*
X15458483Y-12059570D01*
X15464566Y-12044885D01*
X15466641Y-12029125D01*
X15466291Y-12026466D01*
X15464566Y-12013365D01*
X15464566Y-12013365D01*
X15458483Y-11998680D01*
X15458483Y-11998679D01*
X15458483Y-11998679D01*
X15448806Y-11986069D01*
X15446947Y-11984642D01*
X15436195Y-11976392D01*
X15436195Y-11976392D01*
X15436195Y-11976392D01*
X15421510Y-11970309D01*
X15421509Y-11970309D01*
X15405750Y-11968234D01*
X15405750Y-11968234D01*
X15389990Y-11970309D01*
X15389990Y-11970309D01*
X15384510Y-11972579D01*
X15382493Y-11973219D01*
X15380875Y-11973584D01*
X15380874Y-11973584D01*
X15373425Y-11976894D01*
X15372968Y-11977103D01*
X15372928Y-11977122D01*
X15372924Y-11977124D01*
X15372922Y-11977125D01*
X15372911Y-11977130D01*
X15372432Y-11977365D01*
X15365455Y-11980891D01*
X15365072Y-11981090D01*
X15365025Y-11981116D01*
X15364733Y-11981274D01*
X15358866Y-11984525D01*
X15358662Y-11984639D01*
X15353931Y-11987336D01*
X15353632Y-11987501D01*
X15350295Y-11989284D01*
X15349494Y-11989675D01*
X15348256Y-11990226D01*
X15347301Y-11990651D01*
X15346096Y-11991114D01*
X15345291Y-11991376D01*
X15344156Y-11991745D01*
X15342816Y-11992099D01*
X15339979Y-11992682D01*
X15338781Y-11992868D01*
X15334090Y-11993361D01*
X15333157Y-11993423D01*
X15326273Y-11993626D01*
X15325487Y-11993800D01*
X15325238Y-11993855D01*
X15322551Y-11994150D01*
X15303996Y-11994150D01*
X15301128Y-11993814D01*
X15300413Y-11993644D01*
X15300323Y-11993622D01*
X15293707Y-11993377D01*
X15292549Y-11993280D01*
X15289413Y-11992868D01*
X15288879Y-11992797D01*
X15288879Y-11992797D01*
X15288701Y-11992774D01*
X15288695Y-11992773D01*
X15288514Y-11992749D01*
X15287074Y-11992472D01*
X15284887Y-11991916D01*
X15283359Y-11991420D01*
X15281850Y-11990819D01*
X15280577Y-11990226D01*
X15278495Y-11989110D01*
X15277749Y-11988676D01*
X15274276Y-11986490D01*
X15274105Y-11986381D01*
X15269321Y-11983259D01*
X15269161Y-11983157D01*
X15269060Y-11983092D01*
X15269043Y-11983081D01*
X15269032Y-11983074D01*
X15268787Y-11982921D01*
X15268784Y-11982920D01*
X15267292Y-11982005D01*
X15267292Y-11982005D01*
X15266688Y-11981635D01*
X15266688Y-11981635D01*
X15266688Y-11981635D01*
X15263027Y-11979392D01*
X15262511Y-11979086D01*
X15262459Y-11979056D01*
X15261955Y-11978776D01*
X15255035Y-11975053D01*
X15254429Y-11974739D01*
X15254358Y-11974704D01*
X15253703Y-11974393D01*
X15246239Y-11971005D01*
X15245891Y-11970851D01*
X15245860Y-11970837D01*
X15244596Y-11970575D01*
X15242378Y-11969891D01*
X15238378Y-11968234D01*
X15236967Y-11967650D01*
X15236967Y-11967650D01*
X15221207Y-11965575D01*
X15221207Y-11965575D01*
X15205448Y-11967650D01*
X15205447Y-11967650D01*
X15190762Y-11973733D01*
X15178151Y-11983409D01*
X15168474Y-11996020D01*
X15162391Y-12010706D01*
X15162391Y-12010706D01*
X15160316Y-12026466D01*
X14599910Y-12026466D01*
X14599677Y-11445900D01*
X14744820Y-11445900D01*
X14744820Y-11500706D01*
X14745733Y-11510270D01*
X14745733Y-11510270D01*
X14745733Y-11510272D01*
X14746621Y-11514878D01*
X14746621Y-11514878D01*
X14749327Y-11524097D01*
X14756520Y-11536557D01*
X14756520Y-11536557D01*
X14756520Y-11536558D01*
X14756520Y-11536558D01*
X14760839Y-11542051D01*
X14771251Y-11551980D01*
X14784039Y-11558574D01*
X14784039Y-11558574D01*
X14784040Y-11558575D01*
X14790636Y-11560858D01*
X14790640Y-11560859D01*
X14790641Y-11560860D01*
X14790643Y-11560860D01*
X14804770Y-11563584D01*
X14819092Y-11562218D01*
X14819093Y-11562218D01*
X14819093Y-11562218D01*
X14819093Y-11562218D01*
X14824967Y-11560793D01*
X14824967Y-11560793D01*
X14827508Y-11560177D01*
X14827821Y-11559892D01*
X14829858Y-11559115D01*
X14833694Y-11558029D01*
X14845536Y-11552756D01*
X14848001Y-11551955D01*
X14849769Y-11551579D01*
X14853574Y-11550771D01*
X14856151Y-11550500D01*
X14861849Y-11550500D01*
X14864426Y-11550771D01*
X14869999Y-11551955D01*
X14872464Y-11552756D01*
X14877668Y-11555073D01*
X14879913Y-11556369D01*
X14884369Y-11559607D01*
X14884522Y-11559718D01*
X14886448Y-11561452D01*
X14890260Y-11565686D01*
X14891784Y-11567783D01*
X14892974Y-11569845D01*
X14894632Y-11572717D01*
X14895686Y-11575085D01*
X14897447Y-11580503D01*
X14897986Y-11583038D01*
X14898297Y-11586000D01*
X14898297Y-11586000D01*
X14898581Y-11588704D01*
X14898581Y-11591296D01*
X14897986Y-11596961D01*
X14897447Y-11599497D01*
X14895686Y-11604915D01*
X14894632Y-11607283D01*
X14891784Y-11612217D01*
X14890260Y-11614314D01*
X14886449Y-11618547D01*
X14884522Y-11620282D01*
X14879912Y-11623631D01*
X14877668Y-11624926D01*
X14872464Y-11627243D01*
X14869999Y-11628044D01*
X14866279Y-11628835D01*
X14864426Y-11629229D01*
X14861848Y-11629500D01*
X14856152Y-11629500D01*
X14853574Y-11629229D01*
X14849763Y-11628419D01*
X14848001Y-11628044D01*
X14845536Y-11627243D01*
X14833585Y-11621923D01*
X14833447Y-11621805D01*
X14828830Y-11620206D01*
X14828662Y-11620147D01*
X14826746Y-11619453D01*
X14826106Y-11619264D01*
X14826072Y-11619252D01*
X14826070Y-11619251D01*
X14820827Y-11617979D01*
X14816728Y-11616985D01*
X14816728Y-11616985D01*
X14802341Y-11616985D01*
X14799255Y-11617428D01*
X14795424Y-11617979D01*
X14795424Y-11617979D01*
X14795424Y-11617979D01*
X14781620Y-11622033D01*
X14781619Y-11622033D01*
X14769516Y-11629811D01*
X14769515Y-11629812D01*
X14764236Y-11634386D01*
X14754813Y-11645260D01*
X14754813Y-11645261D01*
X14748836Y-11658347D01*
X14748836Y-11658348D01*
X14746868Y-11665052D01*
X14746868Y-11665052D01*
X14744820Y-11679294D01*
X14744820Y-11788100D01*
X14744820Y-11788101D01*
X14745975Y-11798845D01*
X14745975Y-11798846D01*
X14747096Y-11803997D01*
X14750508Y-11814250D01*
X14750509Y-11814250D01*
X14758287Y-11826354D01*
X14758288Y-11826355D01*
X14762862Y-11831634D01*
X14762863Y-11831634D01*
X14762863Y-11831635D01*
X14773736Y-11841057D01*
X14773737Y-11841057D01*
X14773737Y-11841057D01*
X14786724Y-11846988D01*
X14786824Y-11847034D01*
X14793528Y-11849002D01*
X14793528Y-11849002D01*
X14807770Y-11851050D01*
X14807770Y-11851050D01*
X14980493Y-11851050D01*
X14984697Y-11850875D01*
X14984698Y-11850875D01*
X14984698Y-11850875D01*
X14986755Y-11850703D01*
X14990932Y-11850178D01*
X14993528Y-11849348D01*
X15001148Y-11846912D01*
X15008133Y-11846746D01*
X15012641Y-11849348D01*
X15012769Y-11849182D01*
X15013413Y-11849676D01*
X15013413Y-11849676D01*
X15026536Y-11857253D01*
X15041173Y-11861175D01*
X15041174Y-11861175D01*
X15056326Y-11861175D01*
X15056327Y-11861175D01*
X15070963Y-11857253D01*
X15084086Y-11849676D01*
X15084087Y-11849676D01*
X15084087Y-11849676D01*
X15084732Y-11849182D01*
X15084917Y-11849424D01*
X15089773Y-11846770D01*
X15095907Y-11846988D01*
X15096062Y-11847034D01*
X15096062Y-11847034D01*
X15102766Y-11849002D01*
X15102766Y-11849002D01*
X15117008Y-11851050D01*
X15117008Y-11851050D01*
X15229818Y-11851050D01*
X15231521Y-11850846D01*
X15241736Y-11849625D01*
X15242509Y-11849437D01*
X15249488Y-11849769D01*
X15255180Y-11853822D01*
X15257411Y-11858278D01*
X15257560Y-11858837D01*
X15263643Y-11873522D01*
X15263643Y-11873523D01*
X15263643Y-11873523D01*
X15273320Y-11886134D01*
X15285931Y-11895810D01*
X15285931Y-11895810D01*
X15285931Y-11895810D01*
X15286654Y-11896110D01*
X15300617Y-11901893D01*
X15307950Y-11902859D01*
X15316376Y-11903968D01*
X15316376Y-11903968D01*
X15316376Y-11903968D01*
X15324020Y-11902962D01*
X15332136Y-11901893D01*
X15337617Y-11899623D01*
X15339634Y-11898983D01*
X15341252Y-11898618D01*
X15348702Y-11895308D01*
X15349172Y-11895092D01*
X15349225Y-11895067D01*
X15349694Y-11894837D01*
X15356662Y-11891315D01*
X15357010Y-11891135D01*
X15357049Y-11891114D01*
X15357402Y-11890923D01*
X15363240Y-11887688D01*
X15363336Y-11887635D01*
X15363348Y-11887628D01*
X15363472Y-11887557D01*
X15368205Y-11884860D01*
X15368490Y-11884703D01*
X15371831Y-11882918D01*
X15372630Y-11882527D01*
X15374828Y-11881549D01*
X15376030Y-11881088D01*
X15377970Y-11880457D01*
X15379308Y-11880103D01*
X15382147Y-11879520D01*
X15383344Y-11879334D01*
X15388038Y-11878841D01*
X15388966Y-11878779D01*
X15395853Y-11878576D01*
X15396889Y-11878347D01*
X15399575Y-11878052D01*
X15410273Y-11878052D01*
X15413574Y-11878500D01*
X15413718Y-11878539D01*
X15413850Y-11878576D01*
X15419137Y-11878963D01*
X15419269Y-11878973D01*
X15421530Y-11879351D01*
X15422076Y-11879495D01*
X15428054Y-11883110D01*
X15428067Y-11883123D01*
X15429880Y-11885109D01*
X15430316Y-11885614D01*
X15433747Y-11889805D01*
X15433962Y-11890062D01*
X15433965Y-11890066D01*
X15433966Y-11890067D01*
X15433989Y-11890094D01*
X15434070Y-11890189D01*
X15434182Y-11890319D01*
X15438576Y-11895361D01*
X15438987Y-11895810D01*
X15439261Y-11896110D01*
X15439339Y-11896191D01*
X15440066Y-11896912D01*
X15445358Y-11901905D01*
X15446442Y-11902859D01*
X15446568Y-11902962D01*
X15447730Y-11903850D01*
X15454451Y-11908617D01*
X15455782Y-11909488D01*
X15455935Y-11909579D01*
X15457327Y-11910345D01*
X15457328Y-11910345D01*
X15459704Y-11911536D01*
X15460345Y-11911882D01*
X15460366Y-11911894D01*
X15460943Y-11912157D01*
X15464969Y-11914175D01*
X15465639Y-11914496D01*
X15465641Y-11914497D01*
X15465643Y-11914498D01*
X15465712Y-11914530D01*
X15465712Y-11914530D01*
X15465713Y-11914530D01*
X15466852Y-11914780D01*
X15468942Y-11915436D01*
X15474990Y-11917941D01*
X15482870Y-11918978D01*
X15490750Y-11920016D01*
X15490750Y-11920016D01*
X15490750Y-11920016D01*
X15496003Y-11919324D01*
X15506510Y-11917941D01*
X15521195Y-11911858D01*
X15533806Y-11902181D01*
X15543483Y-11889570D01*
X15549566Y-11874885D01*
X15551641Y-11859125D01*
X15551639Y-11859110D01*
X15551641Y-11859098D01*
X15551641Y-11858312D01*
X15551763Y-11858312D01*
X15552715Y-11852207D01*
X15557353Y-11846981D01*
X15563638Y-11845095D01*
X15570335Y-11844936D01*
X15575516Y-11843280D01*
X15582501Y-11843114D01*
X15588060Y-11846323D01*
X15591413Y-11849676D01*
X15604536Y-11857253D01*
X15619173Y-11861175D01*
X15619174Y-11861175D01*
X15634326Y-11861175D01*
X15634327Y-11861175D01*
X15648963Y-11857253D01*
X15662086Y-11849676D01*
X15662087Y-11849676D01*
X15662087Y-11849676D01*
X15662732Y-11849182D01*
X15662917Y-11849424D01*
X15667773Y-11846770D01*
X15673907Y-11846988D01*
X15674062Y-11847034D01*
X15674062Y-11847034D01*
X15680766Y-11849002D01*
X15680766Y-11849002D01*
X15695008Y-11851050D01*
X15695008Y-11851050D01*
X16064969Y-11851050D01*
X16064970Y-11851050D01*
X16075716Y-11849895D01*
X16080867Y-11848774D01*
X16084290Y-11847635D01*
X16091120Y-11845362D01*
X16091120Y-11845361D01*
X16091120Y-11845361D01*
X16103224Y-11837582D01*
X16108505Y-11833007D01*
X16117927Y-11822134D01*
X16123904Y-11809046D01*
X16125872Y-11802342D01*
X16125872Y-11802342D01*
X16127920Y-11788100D01*
X16127920Y-11359877D01*
X17059174Y-11359877D01*
X17059174Y-11380571D01*
X17063211Y-11400866D01*
X17063211Y-11400866D01*
X17070373Y-11418157D01*
X17071130Y-11419984D01*
X17074915Y-11425648D01*
X17082627Y-11437190D01*
X17097259Y-11451822D01*
X17097259Y-11451822D01*
X17114465Y-11463318D01*
X17133582Y-11471237D01*
X17153877Y-11475274D01*
X17153878Y-11475274D01*
X17153878Y-11475274D01*
X17174571Y-11475274D01*
X17174571Y-11475274D01*
X17194866Y-11471237D01*
X17213984Y-11463318D01*
X17231190Y-11451822D01*
X17245822Y-11437190D01*
X17257319Y-11419984D01*
X17265237Y-11400866D01*
X17269274Y-11380571D01*
X17269274Y-11359878D01*
X17265237Y-11339582D01*
X17257319Y-11320465D01*
X17245822Y-11303259D01*
X17245822Y-11303259D01*
X17231190Y-11288627D01*
X17222587Y-11282878D01*
X17213984Y-11277130D01*
X17194866Y-11269211D01*
X17194866Y-11269211D01*
X17174571Y-11265174D01*
X17174571Y-11265174D01*
X17153878Y-11265174D01*
X17153877Y-11265174D01*
X17133583Y-11269211D01*
X17133582Y-11269211D01*
X17114465Y-11277130D01*
X17097259Y-11288627D01*
X17082627Y-11303259D01*
X17071130Y-11320465D01*
X17063211Y-11339582D01*
X17063211Y-11339583D01*
X17059174Y-11359877D01*
X16127920Y-11359877D01*
X16127920Y-11004224D01*
X17111334Y-11004224D01*
X17111334Y-11004225D01*
X17113408Y-11019984D01*
X17113408Y-11019984D01*
X17119491Y-11034670D01*
X17119491Y-11034670D01*
X17119491Y-11034670D01*
X17129168Y-11047281D01*
X17141779Y-11056958D01*
X17156465Y-11063041D01*
X17164345Y-11064078D01*
X17172224Y-11065115D01*
X17172224Y-11065115D01*
X17172225Y-11065115D01*
X17177478Y-11064424D01*
X17187984Y-11063041D01*
X17202670Y-11056958D01*
X17215281Y-11047281D01*
X17224958Y-11034670D01*
X17225759Y-11032736D01*
X17230142Y-11027296D01*
X17236772Y-11025089D01*
X17243542Y-11026817D01*
X17244763Y-11027644D01*
X17247779Y-11029957D01*
X17247779Y-11029958D01*
X17257039Y-11033793D01*
X17262465Y-11036041D01*
X17270345Y-11037078D01*
X17278224Y-11038115D01*
X17278224Y-11038115D01*
X17278225Y-11038115D01*
X17283478Y-11037424D01*
X17293984Y-11036041D01*
X17308670Y-11029958D01*
X17321281Y-11020281D01*
X17330958Y-11007670D01*
X17337041Y-10992984D01*
X17339115Y-10977224D01*
X17337041Y-10961465D01*
X17330958Y-10946779D01*
X17330957Y-10946779D01*
X17330957Y-10946779D01*
X17321281Y-10934168D01*
X17308670Y-10924491D01*
X17293984Y-10918408D01*
X17293984Y-10918408D01*
X17278225Y-10916334D01*
X17278224Y-10916334D01*
X17262465Y-10918408D01*
X17262465Y-10918408D01*
X17247779Y-10924491D01*
X17235168Y-10934168D01*
X17225491Y-10946779D01*
X17224690Y-10948713D01*
X17220306Y-10954153D01*
X17213676Y-10956360D01*
X17206907Y-10954632D01*
X17205686Y-10953805D01*
X17202670Y-10951491D01*
X17202670Y-10951491D01*
X17187984Y-10945408D01*
X17187984Y-10945408D01*
X17172225Y-10943334D01*
X17172224Y-10943334D01*
X17156465Y-10945408D01*
X17156465Y-10945408D01*
X17141779Y-10951491D01*
X17129168Y-10961168D01*
X17119491Y-10973779D01*
X17113408Y-10988465D01*
X17113408Y-10988465D01*
X17111334Y-11004224D01*
X16127920Y-11004224D01*
X16127920Y-10895900D01*
X16126765Y-10885154D01*
X16125644Y-10880003D01*
X16124864Y-10877659D01*
X16122232Y-10869750D01*
X16122231Y-10869750D01*
X16114453Y-10857646D01*
X16114452Y-10857646D01*
X16113721Y-10856802D01*
X16109878Y-10852366D01*
X16109877Y-10852366D01*
X16109877Y-10852365D01*
X16099004Y-10842943D01*
X16099003Y-10842943D01*
X16099003Y-10842943D01*
X16085916Y-10836966D01*
X16085916Y-10836966D01*
X16085916Y-10836966D01*
X16079212Y-10834998D01*
X16079212Y-10834998D01*
X16079212Y-10834998D01*
X16074464Y-10834315D01*
X16064970Y-10832950D01*
X16055828Y-10832950D01*
X16051797Y-10833219D01*
X16049109Y-10833398D01*
X16047243Y-10833649D01*
X16045843Y-10833836D01*
X16045841Y-10833837D01*
X16045840Y-10833837D01*
X16039247Y-10835173D01*
X16026048Y-10840899D01*
X16026046Y-10840900D01*
X16020101Y-10844563D01*
X16020096Y-10844566D01*
X16020095Y-10844566D01*
X16017066Y-10847092D01*
X16016413Y-10847600D01*
X16005533Y-10855506D01*
X16003288Y-10856802D01*
X15998084Y-10859119D01*
X15995619Y-10859920D01*
X15991899Y-10860710D01*
X15990046Y-10861104D01*
X15987468Y-10861375D01*
X15981772Y-10861375D01*
X15979194Y-10861104D01*
X15977018Y-10860642D01*
X15973621Y-10859920D01*
X15971156Y-10859119D01*
X15971084Y-10859086D01*
X15965951Y-10856801D01*
X15963707Y-10855505D01*
X15957545Y-10851028D01*
X15956192Y-10849889D01*
X15955363Y-10849085D01*
X15953019Y-10847092D01*
X15952853Y-10846951D01*
X15950347Y-10845094D01*
X15947446Y-10842943D01*
X15947446Y-10842943D01*
X15934359Y-10836966D01*
X15934358Y-10836966D01*
X15934358Y-10836966D01*
X15927654Y-10834998D01*
X15927654Y-10834998D01*
X15927654Y-10834998D01*
X15922907Y-10834315D01*
X15913412Y-10832950D01*
X15833570Y-10832950D01*
X15833570Y-10832950D01*
X15824618Y-10833749D01*
X15820294Y-10834527D01*
X15811624Y-10836899D01*
X15798990Y-10843783D01*
X15798990Y-10843783D01*
X15793393Y-10847966D01*
X15783210Y-10858130D01*
X15783210Y-10858130D01*
X15768563Y-10877659D01*
X15639408Y-11049865D01*
X15638340Y-11051346D01*
X15637826Y-11052084D01*
X15636814Y-11053599D01*
X15636813Y-11053599D01*
X15630836Y-11066687D01*
X15628868Y-11073392D01*
X15626820Y-11087633D01*
X15626820Y-11370550D01*
X15624851Y-11377254D01*
X15619571Y-11381829D01*
X15614420Y-11382950D01*
X15399418Y-11382950D01*
X15398146Y-11383102D01*
X15387501Y-11384375D01*
X15381819Y-11385753D01*
X15370574Y-11389947D01*
X15370574Y-11389947D01*
X15358855Y-11398292D01*
X15353797Y-11403114D01*
X15352297Y-11405021D01*
X15351766Y-11405652D01*
X15342068Y-11416422D01*
X15340142Y-11418156D01*
X15335533Y-11421505D01*
X15333288Y-11422801D01*
X15328084Y-11425118D01*
X15325619Y-11425919D01*
X15321899Y-11426710D01*
X15320046Y-11427104D01*
X15317468Y-11427375D01*
X15311772Y-11427375D01*
X15309193Y-11427104D01*
X15303621Y-11425920D01*
X15301156Y-11425118D01*
X15295951Y-11422801D01*
X15293707Y-11421505D01*
X15289098Y-11418157D01*
X15287171Y-11416422D01*
X15279608Y-11408022D01*
X15278897Y-11407156D01*
X15277144Y-11404816D01*
X15277144Y-11404815D01*
X15275522Y-11403114D01*
X15273109Y-11400584D01*
X15273109Y-11400584D01*
X15273109Y-11400584D01*
X15273109Y-11400584D01*
X15263855Y-11392943D01*
X15263855Y-11392943D01*
X15254429Y-11388638D01*
X15250768Y-11386966D01*
X15244063Y-11384998D01*
X15237856Y-11384105D01*
X15229822Y-11382950D01*
X14807770Y-11382950D01*
X14807769Y-11382950D01*
X14807769Y-11382950D01*
X14797025Y-11384105D01*
X14797024Y-11384105D01*
X14791873Y-11385226D01*
X14781620Y-11388638D01*
X14781620Y-11388639D01*
X14769516Y-11396417D01*
X14769515Y-11396418D01*
X14764236Y-11400992D01*
X14754813Y-11411866D01*
X14754813Y-11411867D01*
X14748836Y-11424953D01*
X14748788Y-11425118D01*
X14746868Y-11431658D01*
X14746868Y-11431658D01*
X14744820Y-11445900D01*
X14599677Y-11445900D01*
X14598567Y-8684875D01*
X14639556Y-8684875D01*
X14639556Y-8684875D01*
X14729319Y-8684875D01*
X14726027Y-8690576D01*
X14722620Y-8703292D01*
X14722620Y-8716458D01*
X14726027Y-8729174D01*
X14729319Y-8734875D01*
X14639556Y-8734875D01*
X14645277Y-8756224D01*
X14645277Y-8756224D01*
X14655260Y-8777633D01*
X14668809Y-8796983D01*
X14685512Y-8813686D01*
X14704862Y-8827235D01*
X14726271Y-8837218D01*
X14726272Y-8837218D01*
X14737900Y-8840334D01*
X14743866Y-8843971D01*
X14746919Y-8850255D01*
X14746089Y-8857193D01*
X14741641Y-8862581D01*
X14738290Y-8864178D01*
X14732101Y-8866055D01*
X14732101Y-8866055D01*
X14713797Y-8875839D01*
X14713796Y-8875839D01*
X14697752Y-8889007D01*
X14684584Y-8905051D01*
X14684584Y-8905052D01*
X14674800Y-8923356D01*
X14674800Y-8923356D01*
X14674800Y-8923356D01*
X14674800Y-8923357D01*
X14673105Y-8928943D01*
X14668775Y-8943219D01*
X14666740Y-8963875D01*
X14668775Y-8984531D01*
X14670434Y-8990000D01*
X14674800Y-9004393D01*
X14674800Y-9004394D01*
X14674800Y-9004394D01*
X14674800Y-9004394D01*
X14684584Y-9022698D01*
X14684584Y-9022699D01*
X14697752Y-9038743D01*
X14713796Y-9051911D01*
X14713797Y-9051911D01*
X14728133Y-9059574D01*
X14732102Y-9061695D01*
X14732102Y-9061695D01*
X14732593Y-9061899D01*
X14732765Y-9061960D01*
X14748134Y-9068347D01*
X14748247Y-9068395D01*
X14761086Y-9073880D01*
X14761376Y-9074008D01*
X14771456Y-9078623D01*
X14771970Y-9078873D01*
X14779414Y-9082707D01*
X14779861Y-9082938D01*
X14780576Y-9083336D01*
X14787087Y-9087254D01*
X14787870Y-9087766D01*
X14791766Y-9090532D01*
X14791882Y-9090614D01*
X14796209Y-9096099D01*
X14796884Y-9103054D01*
X14793692Y-9109269D01*
X14787646Y-9112771D01*
X14783489Y-9113066D01*
X14772620Y-9111995D01*
X14751964Y-9114030D01*
X14740236Y-9117587D01*
X14732102Y-9120055D01*
X14732101Y-9120055D01*
X14732101Y-9120055D01*
X14732101Y-9120055D01*
X14713797Y-9129839D01*
X14713796Y-9129839D01*
X14697752Y-9143007D01*
X14684584Y-9159051D01*
X14684584Y-9159052D01*
X14674800Y-9177356D01*
X14674800Y-9177356D01*
X14668775Y-9197219D01*
X14666740Y-9217875D01*
X14668775Y-9238531D01*
X14670783Y-9245152D01*
X14674800Y-9258393D01*
X14674800Y-9258394D01*
X14674800Y-9258394D01*
X14674800Y-9258394D01*
X14684584Y-9276698D01*
X14684584Y-9276699D01*
X14697752Y-9292743D01*
X14713796Y-9305911D01*
X14713797Y-9305911D01*
X14717604Y-9307946D01*
X14732102Y-9315695D01*
X14732373Y-9315778D01*
X14732562Y-9315835D01*
X14734043Y-9316406D01*
X14734213Y-9316467D01*
X14734213Y-9316467D01*
X14752694Y-9323083D01*
X14753694Y-9323413D01*
X14753808Y-9323447D01*
X14754840Y-9323730D01*
X14768059Y-9326993D01*
X14771880Y-9327937D01*
X14772812Y-9328144D01*
X14772916Y-9328165D01*
X14773837Y-9328327D01*
X14788870Y-9330621D01*
X14789486Y-9330705D01*
X14789553Y-9330714D01*
X14790145Y-9330777D01*
X14792462Y-9330994D01*
X14803124Y-9331989D01*
X14803169Y-9331996D01*
X14803756Y-9332048D01*
X14803810Y-9332053D01*
X14803818Y-9332054D01*
X14803829Y-9332055D01*
X14815327Y-9333080D01*
X14816112Y-9333175D01*
X14825046Y-9334552D01*
X14826595Y-9334894D01*
X14831811Y-9336400D01*
X14834039Y-9337043D01*
X14835929Y-9337760D01*
X14843715Y-9341467D01*
X14845421Y-9342453D01*
X14849573Y-9345315D01*
X14855130Y-9349146D01*
X14856395Y-9350145D01*
X14869190Y-9361679D01*
X14869190Y-9361679D01*
X14869879Y-9362102D01*
X14872163Y-9363904D01*
X15322437Y-9814178D01*
X15322437Y-9814178D01*
X15322438Y-9814178D01*
X15329932Y-9818505D01*
X15329932Y-9818505D01*
X15329933Y-9818505D01*
X15331698Y-9818978D01*
X15331699Y-9818979D01*
X15331699Y-9818978D01*
X15338293Y-9820745D01*
X15672342Y-9820745D01*
X15675185Y-9821075D01*
X15676019Y-9821272D01*
X15682761Y-9821508D01*
X15683859Y-9821595D01*
X15688114Y-9822125D01*
X15689488Y-9822376D01*
X15691883Y-9822954D01*
X15693360Y-9823411D01*
X15695013Y-9824036D01*
X15696268Y-9824593D01*
X15697088Y-9825013D01*
X15697089Y-9825013D01*
X15697089Y-9825013D01*
X15698405Y-9825686D01*
X15699167Y-9826110D01*
X15702640Y-9828207D01*
X15702843Y-9828333D01*
X15707644Y-9831359D01*
X15707852Y-9831488D01*
X15707876Y-9831503D01*
X15707881Y-9831506D01*
X15707888Y-9831511D01*
X15708090Y-9831633D01*
X15713912Y-9835109D01*
X15714401Y-9835393D01*
X15714450Y-9835420D01*
X15714900Y-9835665D01*
X15721869Y-9839354D01*
X15721870Y-9839355D01*
X15721873Y-9839357D01*
X15722441Y-9839646D01*
X15722507Y-9839679D01*
X15723118Y-9839966D01*
X15728188Y-9842255D01*
X15730632Y-9843358D01*
X15730924Y-9843487D01*
X15730941Y-9843494D01*
X15730958Y-9843502D01*
X15732236Y-9843768D01*
X15734453Y-9844451D01*
X15739860Y-9846691D01*
X15747740Y-9847729D01*
X15755620Y-9848766D01*
X15755620Y-9848766D01*
X15755620Y-9848766D01*
X15760873Y-9848074D01*
X15771380Y-9846691D01*
X15786065Y-9840608D01*
X15798676Y-9830931D01*
X15808353Y-9818321D01*
X15811050Y-9811809D01*
X16967042Y-9811809D01*
X16967042Y-9811810D01*
X16969116Y-9827569D01*
X16969117Y-9827569D01*
X16975199Y-9842255D01*
X16975199Y-9842255D01*
X16975200Y-9842255D01*
X16984876Y-9854866D01*
X16997487Y-9864543D01*
X17012173Y-9870626D01*
X17014945Y-9870991D01*
X17027933Y-9872700D01*
X17027933Y-9872700D01*
X17027933Y-9872700D01*
X17033186Y-9872009D01*
X17043692Y-9870626D01*
X17058378Y-9864543D01*
X17070989Y-9854866D01*
X17080666Y-9842255D01*
X17086749Y-9827569D01*
X17087897Y-9818845D01*
X17090724Y-9812456D01*
X17092870Y-9811040D01*
X17090692Y-9809676D01*
X17087714Y-9803356D01*
X17087673Y-9803070D01*
X17086749Y-9796050D01*
X17080666Y-9781364D01*
X17080666Y-9781364D01*
X17080666Y-9781364D01*
X17070989Y-9768753D01*
X17068761Y-9767043D01*
X17058378Y-9759076D01*
X17058378Y-9759076D01*
X17058378Y-9759076D01*
X17043693Y-9752993D01*
X17043692Y-9752993D01*
X17027933Y-9750919D01*
X17027933Y-9750919D01*
X17012173Y-9752993D01*
X17012173Y-9752993D01*
X16997487Y-9759076D01*
X16984876Y-9768753D01*
X16975200Y-9781364D01*
X16969117Y-9796050D01*
X16969116Y-9796050D01*
X16967042Y-9811809D01*
X15811050Y-9811809D01*
X15814436Y-9803635D01*
X15816511Y-9787875D01*
X15814436Y-9772115D01*
X15808353Y-9757430D01*
X15808353Y-9757430D01*
X15808353Y-9757429D01*
X15798676Y-9744819D01*
X15798676Y-9744819D01*
X15786065Y-9735142D01*
X15786065Y-9735142D01*
X15786065Y-9735142D01*
X15771380Y-9729059D01*
X15771379Y-9729059D01*
X15755620Y-9726984D01*
X15755620Y-9726984D01*
X15739860Y-9729059D01*
X15734257Y-9731380D01*
X15732311Y-9732004D01*
X15730629Y-9732393D01*
X15723113Y-9735786D01*
X15722509Y-9736070D01*
X15722449Y-9736100D01*
X15721875Y-9736392D01*
X15714895Y-9740087D01*
X15714432Y-9740340D01*
X15714380Y-9740370D01*
X15713917Y-9740637D01*
X15708083Y-9744121D01*
X15707965Y-9744192D01*
X15707938Y-9744209D01*
X15707649Y-9744388D01*
X15702838Y-9747420D01*
X15702635Y-9747545D01*
X15699168Y-9749639D01*
X15698406Y-9750063D01*
X15696268Y-9751157D01*
X15695012Y-9751714D01*
X15693363Y-9752338D01*
X15691882Y-9752796D01*
X15689489Y-9753374D01*
X15688111Y-9753625D01*
X15683860Y-9754155D01*
X15682761Y-9754242D01*
X15676018Y-9754478D01*
X15675044Y-9754699D01*
X15672306Y-9755005D01*
X15361371Y-9755005D01*
X15354667Y-9753037D01*
X15352603Y-9751373D01*
X14918621Y-9317391D01*
X14916736Y-9314969D01*
X14916424Y-9314445D01*
X14916424Y-9314445D01*
X14904890Y-9301650D01*
X14903890Y-9300385D01*
X14900620Y-9295641D01*
X14897198Y-9290676D01*
X14896212Y-9288970D01*
X14895549Y-9287578D01*
X14893446Y-9283161D01*
X14892342Y-9276262D01*
X14895142Y-9269861D01*
X14900959Y-9265990D01*
X14907945Y-9265879D01*
X14913410Y-9269063D01*
X15186560Y-9542212D01*
X15188029Y-9543984D01*
X15188862Y-9545202D01*
X15188863Y-9545203D01*
X15195760Y-9551957D01*
X15196007Y-9552195D01*
X15196040Y-9552226D01*
X15196269Y-9552440D01*
X15202513Y-9558181D01*
X15202889Y-9558541D01*
X15204810Y-9560463D01*
X15205088Y-9560623D01*
X15206823Y-9561833D01*
X15209407Y-9563985D01*
X15209964Y-9564433D01*
X15210013Y-9564470D01*
X15210028Y-9564483D01*
X15210578Y-9564895D01*
X15210587Y-9564901D01*
X15215875Y-9568729D01*
X15216552Y-9569199D01*
X15216629Y-9569251D01*
X15217333Y-9569699D01*
X15222520Y-9572859D01*
X15223200Y-9573256D01*
X15223277Y-9573299D01*
X15223967Y-9573668D01*
X15227075Y-9575254D01*
X15227075Y-9575254D01*
X15229425Y-9576453D01*
X15229943Y-9576709D01*
X15229985Y-9576729D01*
X15230003Y-9576737D01*
X15230518Y-9576974D01*
X15230523Y-9576976D01*
X15232975Y-9578061D01*
X15232975Y-9578061D01*
X15236604Y-9579667D01*
X15236608Y-9579668D01*
X15236613Y-9579671D01*
X15236768Y-9579738D01*
X15236883Y-9579788D01*
X15236907Y-9579798D01*
X15236910Y-9579799D01*
X15236913Y-9579800D01*
X15237212Y-9579925D01*
X15244295Y-9582813D01*
X15244382Y-9582848D01*
X15244390Y-9582851D01*
X15244450Y-9582875D01*
X15252764Y-9586192D01*
X15252830Y-9586218D01*
X15261751Y-9589848D01*
X15261751Y-9589849D01*
X15261752Y-9589849D01*
X15261752Y-9589849D01*
X15261752Y-9589849D01*
X15263027Y-9590097D01*
X15265403Y-9590812D01*
X15270240Y-9592816D01*
X15278120Y-9593854D01*
X15286000Y-9594891D01*
X15286000Y-9594891D01*
X15286000Y-9594891D01*
X15291253Y-9594199D01*
X15301760Y-9592816D01*
X15316445Y-9586733D01*
X15329056Y-9577056D01*
X15338733Y-9564446D01*
X15344816Y-9549760D01*
X15346891Y-9534000D01*
X15345826Y-9525914D01*
X15345365Y-9522409D01*
X15344816Y-9518240D01*
X15338733Y-9503555D01*
X15338733Y-9503555D01*
X15338733Y-9503554D01*
X15329056Y-9490944D01*
X15327117Y-9489456D01*
X15316445Y-9481267D01*
X15316445Y-9481267D01*
X15316445Y-9481267D01*
X15301760Y-9475184D01*
X15301759Y-9475184D01*
X15286000Y-9473109D01*
X15286000Y-9473109D01*
X15270240Y-9475184D01*
X15263876Y-9477820D01*
X15262332Y-9478343D01*
X15260357Y-9478871D01*
X15260357Y-9478871D01*
X15254772Y-9481620D01*
X15253756Y-9482156D01*
X15253648Y-9482216D01*
X15252670Y-9482802D01*
X15246823Y-9486526D01*
X15246191Y-9486944D01*
X15246127Y-9486988D01*
X15246126Y-9486989D01*
X15246123Y-9486991D01*
X15245547Y-9487402D01*
X15245543Y-9487405D01*
X15242495Y-9489662D01*
X15235936Y-9492070D01*
X15229116Y-9490548D01*
X15226348Y-9488465D01*
X15113883Y-9376000D01*
X15234109Y-9376000D01*
X15234109Y-9376000D01*
X15236184Y-9391760D01*
X15236184Y-9391760D01*
X15242267Y-9406445D01*
X15242267Y-9406445D01*
X15242267Y-9406446D01*
X15251944Y-9419056D01*
X15264554Y-9428733D01*
X15264555Y-9428733D01*
X15264555Y-9428733D01*
X15269450Y-9430761D01*
X15279240Y-9434816D01*
X15287120Y-9435854D01*
X15295000Y-9436891D01*
X15295000Y-9436891D01*
X15295000Y-9436891D01*
X15300253Y-9436199D01*
X15310760Y-9434816D01*
X15325445Y-9428733D01*
X15338056Y-9419056D01*
X15347733Y-9406446D01*
X15353816Y-9391760D01*
X15355368Y-9379969D01*
X15355891Y-9376000D01*
X15355891Y-9376000D01*
X15354005Y-9361679D01*
X15353816Y-9360240D01*
X15347733Y-9345555D01*
X15347733Y-9345555D01*
X15347733Y-9345554D01*
X15338056Y-9332944D01*
X15338056Y-9332944D01*
X15325445Y-9323267D01*
X15325445Y-9323267D01*
X15325445Y-9323267D01*
X15310760Y-9317184D01*
X15310759Y-9317184D01*
X15295000Y-9315109D01*
X15295000Y-9315109D01*
X15279240Y-9317184D01*
X15279240Y-9317184D01*
X15264554Y-9323267D01*
X15251944Y-9332944D01*
X15242267Y-9345554D01*
X15236184Y-9360240D01*
X15236184Y-9360240D01*
X15234109Y-9376000D01*
X15113883Y-9376000D01*
X14987518Y-9249635D01*
X14984170Y-9243502D01*
X14984668Y-9236533D01*
X14988855Y-9230940D01*
X14995402Y-9228498D01*
X15000608Y-9229244D01*
X15001176Y-9229455D01*
X15001179Y-9229456D01*
X15001180Y-9229457D01*
X15001858Y-9229695D01*
X15006803Y-9231431D01*
X15007726Y-9231731D01*
X15007728Y-9231732D01*
X15007729Y-9231732D01*
X15007829Y-9231762D01*
X15007830Y-9231762D01*
X15007831Y-9231762D01*
X15008777Y-9232022D01*
X15014936Y-9233556D01*
X15015872Y-9233766D01*
X15015977Y-9233787D01*
X15016924Y-9233955D01*
X15024089Y-9235053D01*
X15024732Y-9235139D01*
X15024872Y-9235158D01*
X15024956Y-9235168D01*
X15025746Y-9235243D01*
X15034386Y-9235904D01*
X15034387Y-9235904D01*
X15034388Y-9235904D01*
X15034983Y-9235942D01*
X15034983Y-9235942D01*
X15034985Y-9235942D01*
X15035016Y-9235943D01*
X15035048Y-9235945D01*
X15035181Y-9235949D01*
X15035604Y-9235964D01*
X15035608Y-9235964D01*
X15035609Y-9235964D01*
X15045006Y-9236160D01*
X15045187Y-9236163D01*
X15045212Y-9236164D01*
X15046510Y-9235914D01*
X15048855Y-9235690D01*
X15201859Y-9235690D01*
X15201859Y-9235690D01*
X15209624Y-9233609D01*
X15209624Y-9233609D01*
X15209624Y-9233609D01*
X15209625Y-9233609D01*
X15212374Y-9232022D01*
X15212374Y-9232022D01*
X15212824Y-9231762D01*
X15216586Y-9229590D01*
X15227014Y-9219162D01*
X15233146Y-9215813D01*
X15235782Y-9215530D01*
X15834445Y-9215530D01*
X15841149Y-9217499D01*
X15845724Y-9222779D01*
X15846719Y-9229695D01*
X15843816Y-9236050D01*
X15843213Y-9236698D01*
X15728889Y-9351022D01*
X15726512Y-9352880D01*
X15725936Y-9353226D01*
X15725935Y-9353227D01*
X15725935Y-9353227D01*
X15725636Y-9353499D01*
X15721155Y-9357574D01*
X15720001Y-9358503D01*
X15717294Y-9360429D01*
X15715734Y-9361374D01*
X15714377Y-9362065D01*
X15712618Y-9362797D01*
X15711450Y-9363180D01*
X15709962Y-9363569D01*
X15707512Y-9364048D01*
X15706709Y-9364178D01*
X15702054Y-9364774D01*
X15702035Y-9364776D01*
X15695811Y-9365563D01*
X15695303Y-9365633D01*
X15695247Y-9365642D01*
X15694722Y-9365728D01*
X15687815Y-9366954D01*
X15686968Y-9367123D01*
X15686879Y-9367142D01*
X15686080Y-9367335D01*
X15678225Y-9369394D01*
X15677324Y-9369653D01*
X15677227Y-9369683D01*
X15676779Y-9369834D01*
X15676300Y-9369995D01*
X15676298Y-9369996D01*
X15668338Y-9372886D01*
X15667871Y-9373062D01*
X15667831Y-9373077D01*
X15667830Y-9373078D01*
X15666775Y-9373765D01*
X15664751Y-9374832D01*
X15659175Y-9377142D01*
X15646564Y-9386819D01*
X15636887Y-9399429D01*
X15630804Y-9414115D01*
X15630804Y-9414115D01*
X15628729Y-9429875D01*
X15628729Y-9429875D01*
X15630804Y-9445635D01*
X15630804Y-9445635D01*
X15636887Y-9460320D01*
X15636887Y-9460320D01*
X15636887Y-9460321D01*
X15646564Y-9472931D01*
X15659174Y-9482608D01*
X15659175Y-9482608D01*
X15659175Y-9482608D01*
X15662139Y-9483836D01*
X15673860Y-9488691D01*
X15679673Y-9489456D01*
X15689620Y-9490766D01*
X15689620Y-9490766D01*
X15689620Y-9490766D01*
X15698002Y-9489662D01*
X15705380Y-9488691D01*
X15720065Y-9482608D01*
X15732676Y-9472931D01*
X15742353Y-9460321D01*
X15744793Y-9454431D01*
X15745642Y-9452752D01*
X15746609Y-9451157D01*
X15749499Y-9443197D01*
X15749811Y-9442271D01*
X15749843Y-9442168D01*
X15750101Y-9441265D01*
X15752159Y-9433418D01*
X15752353Y-9432612D01*
X15752373Y-9432520D01*
X15752540Y-9431680D01*
X15753766Y-9424774D01*
X15753849Y-9424273D01*
X15753858Y-9424215D01*
X15753931Y-9423687D01*
X15754306Y-9420721D01*
X15754716Y-9417485D01*
X15755317Y-9412785D01*
X15755446Y-9411987D01*
X15755926Y-9409531D01*
X15756314Y-9408045D01*
X15756698Y-9406876D01*
X15757429Y-9405118D01*
X15758121Y-9403761D01*
X15759065Y-9402202D01*
X15760993Y-9399493D01*
X15761921Y-9398341D01*
X15766268Y-9393560D01*
X15766718Y-9392830D01*
X15768499Y-9390580D01*
X16114601Y-9044477D01*
X16120733Y-9041129D01*
X16127703Y-9041627D01*
X16129719Y-9042595D01*
X16135626Y-9046118D01*
X16135629Y-9046119D01*
X16135629Y-9046119D01*
X16136471Y-9046595D01*
X16136552Y-9046639D01*
X16136567Y-9046647D01*
X16137435Y-9047085D01*
X16142588Y-9049540D01*
X16144248Y-9050331D01*
X16145699Y-9050956D01*
X16145701Y-9050957D01*
X16145867Y-9051021D01*
X16147382Y-9051541D01*
X16155110Y-9053864D01*
X16157041Y-9054345D01*
X16157059Y-9054349D01*
X16157060Y-9054349D01*
X16157274Y-9054392D01*
X16157275Y-9054392D01*
X16157278Y-9054393D01*
X16158941Y-9054640D01*
X16159261Y-9054688D01*
X16165471Y-9055310D01*
X16166991Y-9055462D01*
X16168015Y-9055539D01*
X16168129Y-9055545D01*
X16168129Y-9055545D01*
X16168814Y-9055580D01*
X16168812Y-9055621D01*
X16169945Y-9055661D01*
X16170355Y-9055715D01*
X16170355Y-9055715D01*
X16186115Y-9053640D01*
X16200800Y-9047557D01*
X16213411Y-9037881D01*
X16223088Y-9025270D01*
X16229171Y-9010584D01*
X16230833Y-8997959D01*
X16231246Y-8994824D01*
X16231246Y-8994824D01*
X16229364Y-8980531D01*
X16229171Y-8979065D01*
X16223088Y-8964379D01*
X16223088Y-8964379D01*
X16223088Y-8964379D01*
X16213411Y-8951768D01*
X16207124Y-8946944D01*
X16200800Y-8942091D01*
X16200800Y-8942091D01*
X16200800Y-8942091D01*
X16186115Y-8936008D01*
X16186114Y-8936008D01*
X16170355Y-8933933D01*
X16170354Y-8933933D01*
X16164984Y-8934640D01*
X16158080Y-8933564D01*
X16152855Y-8928926D01*
X16150966Y-8922199D01*
X16153014Y-8915519D01*
X16154597Y-8913579D01*
X16202291Y-8865885D01*
X16208423Y-8862536D01*
X16215393Y-8863035D01*
X16220986Y-8867222D01*
X16223344Y-8873545D01*
X16223353Y-8873544D01*
X16223358Y-8873582D01*
X16223428Y-8873768D01*
X16223444Y-8874238D01*
X16225534Y-8890110D01*
X16225534Y-8890110D01*
X16231617Y-8904795D01*
X16231617Y-8904796D01*
X16231617Y-8904796D01*
X16241294Y-8917407D01*
X16253905Y-8927083D01*
X16253905Y-8927083D01*
X16253905Y-8927083D01*
X16258353Y-8928926D01*
X16268590Y-8933166D01*
X16271610Y-8933564D01*
X16284350Y-8935241D01*
X16284350Y-8935241D01*
X16284350Y-8935241D01*
X16291378Y-8934316D01*
X16300110Y-8933166D01*
X16314796Y-8927083D01*
X16327406Y-8917407D01*
X16337083Y-8904796D01*
X16343166Y-8890110D01*
X16345241Y-8874350D01*
X16344302Y-8867222D01*
X16343166Y-8858591D01*
X16343166Y-8858590D01*
X16337083Y-8843905D01*
X16337083Y-8843905D01*
X16337083Y-8843905D01*
X16327407Y-8831294D01*
X16327406Y-8831294D01*
X16314796Y-8821617D01*
X16314795Y-8821617D01*
X16314795Y-8821617D01*
X16300110Y-8815534D01*
X16300110Y-8815534D01*
X16283544Y-8813353D01*
X16283572Y-8813142D01*
X16277949Y-8811491D01*
X16273373Y-8806210D01*
X16272379Y-8799295D01*
X16275281Y-8792939D01*
X16275885Y-8792291D01*
X16358931Y-8709244D01*
X16442511Y-8625665D01*
X16448643Y-8622316D01*
X16455612Y-8622815D01*
X16461206Y-8627002D01*
X16462558Y-8629282D01*
X16466361Y-8637609D01*
X16466440Y-8637781D01*
X16474983Y-8647641D01*
X16485959Y-8654694D01*
X16485959Y-8654694D01*
X16485959Y-8654694D01*
X16487465Y-8655137D01*
X16489970Y-8656182D01*
X16490306Y-8656367D01*
X16493958Y-8657531D01*
X16494638Y-8657721D01*
X16495412Y-8657938D01*
X16495413Y-8657938D01*
X16495414Y-8657938D01*
X16495579Y-8657978D01*
X16497058Y-8658277D01*
X16497631Y-8658372D01*
X16503924Y-8661407D01*
X16507578Y-8667362D01*
X16508010Y-8670606D01*
X16508010Y-9012270D01*
X16506041Y-9018974D01*
X16504378Y-9021038D01*
X16321893Y-9203523D01*
X16319640Y-9205305D01*
X16318922Y-9205749D01*
X16318922Y-9205749D01*
X16318921Y-9205749D01*
X16316569Y-9207939D01*
X16315710Y-9208668D01*
X16314754Y-9209409D01*
X16310890Y-9211430D01*
X16310816Y-9211453D01*
X16309973Y-9211686D01*
X16308873Y-9211949D01*
X16308859Y-9211953D01*
X16308020Y-9212153D01*
X16307803Y-9212203D01*
X16304442Y-9212942D01*
X16304176Y-9213003D01*
X16304154Y-9213008D01*
X16303880Y-9213073D01*
X16299775Y-9214089D01*
X16299219Y-9214234D01*
X16299168Y-9214248D01*
X16298639Y-9214402D01*
X16293936Y-9215835D01*
X16293323Y-9216032D01*
X16293248Y-9216058D01*
X16292589Y-9216294D01*
X16288194Y-9217951D01*
X16287929Y-9218054D01*
X16287829Y-9218092D01*
X16287800Y-9218104D01*
X16287800Y-9218104D01*
X16287799Y-9218104D01*
X16287252Y-9218389D01*
X16285023Y-9219287D01*
X16284959Y-9219306D01*
X16284959Y-9219306D01*
X16273984Y-9226359D01*
X16273984Y-9226359D01*
X16265440Y-9236219D01*
X16265440Y-9236219D01*
X16260020Y-9248086D01*
X16260020Y-9248086D01*
X16258163Y-9261000D01*
X16260020Y-9273914D01*
X16260020Y-9273914D01*
X16265440Y-9285781D01*
X16265440Y-9285781D01*
X16272389Y-9293801D01*
X16273984Y-9295641D01*
X16273984Y-9295641D01*
X16284958Y-9302694D01*
X16284958Y-9302694D01*
X16284959Y-9302694D01*
X16297477Y-9306370D01*
X16310523Y-9306370D01*
X16323041Y-9302694D01*
X16334016Y-9295641D01*
X16342560Y-9285781D01*
X16345256Y-9279877D01*
X16346009Y-9278475D01*
X16347050Y-9276803D01*
X16348706Y-9272411D01*
X16348938Y-9271764D01*
X16348962Y-9271692D01*
X16349166Y-9271060D01*
X16350598Y-9266359D01*
X16350751Y-9265832D01*
X16350768Y-9265772D01*
X16350911Y-9265226D01*
X16351925Y-9261127D01*
X16351983Y-9260884D01*
X16351990Y-9260855D01*
X16352054Y-9260572D01*
X16352798Y-9257190D01*
X16352847Y-9256977D01*
X16353313Y-9255026D01*
X16353546Y-9254187D01*
X16353569Y-9254111D01*
X16355590Y-9250247D01*
X16356331Y-9249290D01*
X16357060Y-9248432D01*
X16359250Y-9246079D01*
X16359779Y-9245240D01*
X16361501Y-9243082D01*
X16523842Y-9080742D01*
X16529974Y-9077393D01*
X16536943Y-9077892D01*
X16542537Y-9082079D01*
X16544978Y-9088625D01*
X16545010Y-9089510D01*
X16545010Y-9146270D01*
X16543041Y-9152974D01*
X16541378Y-9155038D01*
X16364602Y-9331814D01*
X16364602Y-9331814D01*
X16360917Y-9338196D01*
X16359010Y-9345315D01*
X16359010Y-9459706D01*
X16358678Y-9462557D01*
X16358483Y-9463380D01*
X16358483Y-9463382D01*
X16358368Y-9466592D01*
X16358276Y-9467716D01*
X16358123Y-9468917D01*
X16356821Y-9473075D01*
X16356786Y-9473143D01*
X16356354Y-9473905D01*
X16355304Y-9475615D01*
X16355186Y-9475803D01*
X16353319Y-9478723D01*
X16353312Y-9478734D01*
X16353312Y-9478734D01*
X16353237Y-9478853D01*
X16353221Y-9478879D01*
X16353025Y-9479197D01*
X16350836Y-9482824D01*
X16350534Y-9483342D01*
X16350510Y-9483384D01*
X16350264Y-9483833D01*
X16347948Y-9488178D01*
X16347647Y-9488767D01*
X16347615Y-9488830D01*
X16347321Y-9489453D01*
X16345381Y-9493742D01*
X16345250Y-9494038D01*
X16345238Y-9494064D01*
X16345071Y-9494864D01*
X16344214Y-9497473D01*
X16343020Y-9500086D01*
X16341163Y-9513000D01*
X16343020Y-9525914D01*
X16343020Y-9525914D01*
X16347526Y-9535781D01*
X16348440Y-9537781D01*
X16356983Y-9547641D01*
X16356984Y-9547641D01*
X16356984Y-9547641D01*
X16367958Y-9554694D01*
X16367958Y-9554694D01*
X16367959Y-9554694D01*
X16380477Y-9558370D01*
X16393523Y-9558370D01*
X16406041Y-9554694D01*
X16417016Y-9547641D01*
X16425560Y-9537781D01*
X16430980Y-9525914D01*
X16432836Y-9513000D01*
X16430980Y-9500086D01*
X16429689Y-9497259D01*
X16428890Y-9494917D01*
X16428615Y-9493734D01*
X16426680Y-9489456D01*
X16426393Y-9488847D01*
X16426359Y-9488779D01*
X16426050Y-9488176D01*
X16423737Y-9483836D01*
X16423484Y-9483375D01*
X16423456Y-9483325D01*
X16423160Y-9482819D01*
X16420977Y-9479201D01*
X16420825Y-9478953D01*
X16420809Y-9478927D01*
X16420806Y-9478922D01*
X16420680Y-9478723D01*
X16420676Y-9478716D01*
X16418814Y-9475804D01*
X16418695Y-9475614D01*
X16417646Y-9473906D01*
X16417217Y-9473148D01*
X16417181Y-9473080D01*
X16415876Y-9468915D01*
X16415723Y-9467714D01*
X16415632Y-9466591D01*
X16415553Y-9464401D01*
X16415517Y-9463381D01*
X16415297Y-9462414D01*
X16414990Y-9459670D01*
X16414990Y-9365730D01*
X16416958Y-9359026D01*
X16418622Y-9356962D01*
X16506882Y-9268702D01*
X16595398Y-9180186D01*
X16599082Y-9173804D01*
X16600990Y-9166685D01*
X16600990Y-9159315D01*
X16600990Y-8721546D01*
X16602958Y-8714842D01*
X16608239Y-8710267D01*
X16611833Y-8709244D01*
X16614239Y-8708940D01*
X16614771Y-8708850D01*
X16615968Y-8708647D01*
X16615968Y-8708647D01*
X16615969Y-8708647D01*
X16616162Y-8708606D01*
X16617880Y-8708162D01*
X16621902Y-8706940D01*
X16622867Y-8706621D01*
X16622973Y-8706583D01*
X16622973Y-8706583D01*
X16623586Y-8706284D01*
X16623629Y-8706370D01*
X16625645Y-8705457D01*
X16626541Y-8705194D01*
X16637516Y-8698141D01*
X16644302Y-8690310D01*
X16650179Y-8686533D01*
X16657166Y-8686533D01*
X16663044Y-8690310D01*
X16665947Y-8696666D01*
X16666073Y-8698431D01*
X16666073Y-9314207D01*
X16664104Y-9320911D01*
X16662441Y-9322975D01*
X16531893Y-9453523D01*
X16529641Y-9455305D01*
X16528922Y-9455749D01*
X16528921Y-9455749D01*
X16526569Y-9457939D01*
X16525710Y-9458669D01*
X16524753Y-9459409D01*
X16520890Y-9461430D01*
X16520816Y-9461453D01*
X16519973Y-9461686D01*
X16518873Y-9461949D01*
X16518859Y-9461953D01*
X16518020Y-9462153D01*
X16517803Y-9462203D01*
X16514442Y-9462942D01*
X16514176Y-9463003D01*
X16514154Y-9463008D01*
X16513880Y-9463073D01*
X16509775Y-9464089D01*
X16509219Y-9464234D01*
X16509168Y-9464248D01*
X16508639Y-9464402D01*
X16503936Y-9465835D01*
X16503323Y-9466032D01*
X16503248Y-9466058D01*
X16502589Y-9466294D01*
X16498194Y-9467951D01*
X16497929Y-9468054D01*
X16497829Y-9468092D01*
X16497800Y-9468104D01*
X16497800Y-9468104D01*
X16497799Y-9468104D01*
X16497252Y-9468389D01*
X16495023Y-9469287D01*
X16494959Y-9469306D01*
X16494959Y-9469306D01*
X16483984Y-9476359D01*
X16483984Y-9476359D01*
X16475440Y-9486219D01*
X16475440Y-9486219D01*
X16470020Y-9498086D01*
X16470020Y-9498086D01*
X16468163Y-9511000D01*
X16470020Y-9523914D01*
X16470020Y-9523914D01*
X16474626Y-9534000D01*
X16475440Y-9535781D01*
X16483604Y-9545203D01*
X16483984Y-9545641D01*
X16483984Y-9545641D01*
X16494958Y-9552694D01*
X16494958Y-9552694D01*
X16494959Y-9552694D01*
X16507477Y-9556370D01*
X16520523Y-9556370D01*
X16533041Y-9552694D01*
X16544016Y-9545641D01*
X16552560Y-9535781D01*
X16555256Y-9529877D01*
X16556009Y-9528475D01*
X16557050Y-9526803D01*
X16558706Y-9522411D01*
X16558938Y-9521764D01*
X16558962Y-9521692D01*
X16559166Y-9521060D01*
X16560598Y-9516359D01*
X16560751Y-9515832D01*
X16560768Y-9515772D01*
X16560911Y-9515226D01*
X16561925Y-9511127D01*
X16561983Y-9510884D01*
X16561990Y-9510855D01*
X16562054Y-9510572D01*
X16562798Y-9507190D01*
X16562847Y-9506977D01*
X16563313Y-9505027D01*
X16563546Y-9504187D01*
X16563569Y-9504111D01*
X16565590Y-9500247D01*
X16566331Y-9499290D01*
X16567060Y-9498432D01*
X16569250Y-9496079D01*
X16569779Y-9495240D01*
X16571501Y-9493082D01*
X16716460Y-9348123D01*
X16720145Y-9341741D01*
X16722053Y-9334622D01*
X16722053Y-9327252D01*
X16722053Y-8701639D01*
X16724021Y-8694935D01*
X16729302Y-8690359D01*
X16731694Y-8689550D01*
X16732753Y-8689308D01*
X16732754Y-8689308D01*
X16732896Y-8689271D01*
X16734164Y-8688896D01*
X16737578Y-8687768D01*
X16738303Y-8687514D01*
X16738382Y-8687484D01*
X16738382Y-8687484D01*
X16738976Y-8687188D01*
X16739022Y-8687280D01*
X16741110Y-8686327D01*
X16741700Y-8686154D01*
X16752675Y-8679101D01*
X16761219Y-8669241D01*
X16763613Y-8664000D01*
X16949164Y-8664000D01*
X16951020Y-8676914D01*
X16951020Y-8676914D01*
X16956417Y-8688730D01*
X16956440Y-8688781D01*
X16964550Y-8698141D01*
X16964984Y-8698641D01*
X16964984Y-8698641D01*
X16975958Y-8705694D01*
X16975958Y-8705694D01*
X16975959Y-8705694D01*
X16988477Y-8709370D01*
X17001523Y-8709370D01*
X17014041Y-8705694D01*
X17025017Y-8698641D01*
X17033560Y-8688781D01*
X17037947Y-8679174D01*
X17038980Y-8676914D01*
X17038980Y-8676914D01*
X17039248Y-8675048D01*
X17040837Y-8664000D01*
X17038980Y-8651086D01*
X17038980Y-8651086D01*
X17033560Y-8639219D01*
X17033560Y-8639219D01*
X17025017Y-8629359D01*
X17025016Y-8629359D01*
X17025016Y-8629359D01*
X17025016Y-8629359D01*
X17014042Y-8622306D01*
X17014041Y-8622306D01*
X17014041Y-8622306D01*
X17001523Y-8618630D01*
X16988477Y-8618630D01*
X16975959Y-8622306D01*
X16975958Y-8622306D01*
X16964984Y-8629359D01*
X16964984Y-8629359D01*
X16956440Y-8639219D01*
X16956440Y-8639219D01*
X16951020Y-8651086D01*
X16951020Y-8651086D01*
X16949164Y-8664000D01*
X16763613Y-8664000D01*
X16765637Y-8659567D01*
X16766639Y-8657374D01*
X16766639Y-8657373D01*
X16766771Y-8656457D01*
X16768495Y-8644460D01*
X16766639Y-8631546D01*
X16766639Y-8631546D01*
X16762651Y-8622815D01*
X16761219Y-8619679D01*
X16752675Y-8609819D01*
X16752675Y-8609819D01*
X16752675Y-8609819D01*
X16752675Y-8609819D01*
X16741701Y-8602766D01*
X16741700Y-8602766D01*
X16741700Y-8602766D01*
X16729182Y-8599090D01*
X16716136Y-8599090D01*
X16703618Y-8602766D01*
X16703617Y-8602766D01*
X16692643Y-8609819D01*
X16692643Y-8609819D01*
X16684099Y-8619679D01*
X16684099Y-8619679D01*
X16681858Y-8624585D01*
X16680803Y-8626450D01*
X16679927Y-8627725D01*
X16679927Y-8627727D01*
X16677845Y-8632581D01*
X16677742Y-8632816D01*
X16675605Y-8637528D01*
X16675568Y-8637609D01*
X16675055Y-8638719D01*
X16673662Y-8641733D01*
X16673605Y-8641856D01*
X16673470Y-8642153D01*
X16671911Y-8645673D01*
X16667395Y-8651005D01*
X16660714Y-8653049D01*
X16653988Y-8651156D01*
X16649353Y-8645928D01*
X16649300Y-8645814D01*
X16646060Y-8638719D01*
X16637516Y-8628859D01*
X16637516Y-8628859D01*
X16637516Y-8628859D01*
X16637516Y-8628859D01*
X16626542Y-8621806D01*
X16626541Y-8621806D01*
X16626541Y-8621806D01*
X16614023Y-8618130D01*
X16600977Y-8618130D01*
X16588459Y-8621806D01*
X16588459Y-8621806D01*
X16578622Y-8628128D01*
X16571918Y-8630096D01*
X16565214Y-8628127D01*
X16560638Y-8622847D01*
X16560362Y-8622194D01*
X16560101Y-8621521D01*
X16558662Y-8618081D01*
X16558660Y-8618077D01*
X16558358Y-8617390D01*
X16558321Y-8617309D01*
X16557992Y-8616628D01*
X16556262Y-8613211D01*
X16556261Y-8613211D01*
X16556258Y-8613204D01*
X16556105Y-8612908D01*
X16556088Y-8612876D01*
X16555940Y-8612600D01*
X16553976Y-8609000D01*
X16553946Y-8608945D01*
X16551969Y-8605261D01*
X16551789Y-8604912D01*
X16549847Y-8600995D01*
X16549615Y-8600501D01*
X16547649Y-8596047D01*
X16546763Y-8594766D01*
X16545680Y-8592861D01*
X16543560Y-8588219D01*
X16535016Y-8578359D01*
X16533464Y-8577362D01*
X16528889Y-8572081D01*
X16527894Y-8565165D01*
X16530797Y-8558810D01*
X16536675Y-8555032D01*
X16540168Y-8554530D01*
X16838013Y-8554530D01*
X16844717Y-8556499D01*
X16849293Y-8561779D01*
X16850287Y-8568695D01*
X16847385Y-8575050D01*
X16840902Y-8582532D01*
X16839440Y-8584219D01*
X16839440Y-8584219D01*
X16834020Y-8596086D01*
X16834020Y-8596086D01*
X16832164Y-8609000D01*
X16834020Y-8621914D01*
X16834020Y-8621914D01*
X16838892Y-8632581D01*
X16839440Y-8633781D01*
X16847393Y-8642959D01*
X16847984Y-8643641D01*
X16847984Y-8643641D01*
X16858958Y-8650694D01*
X16858958Y-8650694D01*
X16858959Y-8650694D01*
X16871477Y-8654370D01*
X16884523Y-8654370D01*
X16897041Y-8650694D01*
X16908017Y-8643641D01*
X16916560Y-8633781D01*
X16921053Y-8623944D01*
X16921980Y-8621914D01*
X16921980Y-8621914D01*
X16921995Y-8621806D01*
X16923837Y-8609000D01*
X16921980Y-8596086D01*
X16921980Y-8596086D01*
X16918387Y-8588219D01*
X16916560Y-8584219D01*
X16908615Y-8575050D01*
X16905713Y-8568695D01*
X16906707Y-8561779D01*
X16911283Y-8556499D01*
X16917987Y-8554530D01*
X16984019Y-8554530D01*
X16984019Y-8554530D01*
X16991784Y-8552449D01*
X16995230Y-8550460D01*
X16998746Y-8548430D01*
X17263761Y-8283414D01*
X17269894Y-8280066D01*
X17274319Y-8279912D01*
X17274919Y-8280000D01*
X17276488Y-8280334D01*
X17278166Y-8280807D01*
X17278412Y-8280876D01*
X17280034Y-8281457D01*
X17281398Y-8282056D01*
X17282697Y-8282720D01*
X17284794Y-8283952D01*
X17285506Y-8284404D01*
X17289106Y-8286864D01*
X17289213Y-8286938D01*
X17294100Y-8290353D01*
X17294425Y-8290576D01*
X17294441Y-8290587D01*
X17294469Y-8290606D01*
X17294471Y-8290607D01*
X17294775Y-8290807D01*
X17300556Y-8294538D01*
X17301136Y-8294899D01*
X17301200Y-8294938D01*
X17301797Y-8295283D01*
X17308787Y-8299168D01*
X17308790Y-8299170D01*
X17308790Y-8299170D01*
X17309497Y-8299545D01*
X17309498Y-8299546D01*
X17309501Y-8299547D01*
X17309582Y-8299588D01*
X17310300Y-8299935D01*
X17317884Y-8303416D01*
X17317890Y-8303419D01*
X17318218Y-8303566D01*
X17318255Y-8303582D01*
X17318256Y-8303582D01*
X17318256Y-8303583D01*
X17319526Y-8303850D01*
X17321716Y-8304528D01*
X17327240Y-8306816D01*
X17334836Y-8307816D01*
X17343000Y-8308891D01*
X17343000Y-8308891D01*
X17343000Y-8308891D01*
X17351164Y-8307816D01*
X17358760Y-8306816D01*
X17362485Y-8305273D01*
X17369432Y-8304526D01*
X17375680Y-8307654D01*
X17379245Y-8313663D01*
X17379630Y-8316729D01*
X17379630Y-8532749D01*
X17377662Y-8539453D01*
X17372381Y-8544028D01*
X17365465Y-8545023D01*
X17359681Y-8542587D01*
X17351446Y-8536267D01*
X17351445Y-8536267D01*
X17336760Y-8530184D01*
X17336760Y-8530184D01*
X17321000Y-8528109D01*
X17321000Y-8528109D01*
X17305240Y-8530184D01*
X17305240Y-8530184D01*
X17290554Y-8536267D01*
X17277944Y-8545944D01*
X17268267Y-8558554D01*
X17262184Y-8573240D01*
X17262184Y-8573240D01*
X17260109Y-8589000D01*
X17260109Y-8589000D01*
X17262184Y-8604760D01*
X17262184Y-8604760D01*
X17268267Y-8619445D01*
X17268267Y-8619445D01*
X17268267Y-8619446D01*
X17277944Y-8632056D01*
X17290555Y-8641733D01*
X17290555Y-8641733D01*
X17290555Y-8641733D01*
X17291729Y-8642220D01*
X17302565Y-8646708D01*
X17308005Y-8651092D01*
X17310212Y-8657721D01*
X17308484Y-8664491D01*
X17303370Y-8669252D01*
X17303089Y-8669389D01*
X17300293Y-8670701D01*
X17300293Y-8670701D01*
X17294553Y-8673396D01*
X17294092Y-8673620D01*
X17294046Y-8673642D01*
X17293587Y-8673879D01*
X17287659Y-8677029D01*
X17286917Y-8677443D01*
X17286838Y-8677489D01*
X17286482Y-8677707D01*
X17286096Y-8677944D01*
X17281007Y-8681211D01*
X17279723Y-8682034D01*
X17278933Y-8682567D01*
X17278850Y-8682626D01*
X17278070Y-8683206D01*
X17275933Y-8684875D01*
X17270994Y-8688731D01*
X17270791Y-8688896D01*
X17270285Y-8689309D01*
X17270214Y-8689370D01*
X17269563Y-8689949D01*
X17262404Y-8696596D01*
X17262089Y-8696895D01*
X17261746Y-8697227D01*
X17261126Y-8697761D01*
X17260944Y-8697943D01*
X17251267Y-8710554D01*
X17245184Y-8725240D01*
X17245184Y-8725240D01*
X17243109Y-8741000D01*
X17243109Y-8741690D01*
X17243128Y-8741981D01*
X17243116Y-8747757D01*
X17242879Y-8749539D01*
X17242956Y-8749549D01*
X17242850Y-8750354D01*
X17242850Y-8773551D01*
X17242848Y-8773796D01*
X17242744Y-8779041D01*
X17242744Y-8779041D01*
X17242639Y-8784347D01*
X17242637Y-8784381D01*
X17242628Y-8784903D01*
X17242628Y-8784935D01*
X17242622Y-8785207D01*
X17242623Y-8785239D01*
X17242603Y-8786388D01*
X17242521Y-8791253D01*
X17242521Y-8791311D01*
X17242520Y-8791355D01*
X17242486Y-8794172D01*
X17242433Y-8798581D01*
X17242432Y-8798689D01*
X17242432Y-8798704D01*
X17242407Y-8802315D01*
X17242382Y-8802396D01*
X17242363Y-8811491D01*
X17242352Y-8816691D01*
X17242352Y-8816737D01*
X17242549Y-8817726D01*
X17242612Y-8818040D01*
X17242850Y-8820459D01*
X17242850Y-8844146D01*
X17240882Y-8850850D01*
X17240288Y-8851694D01*
X17235887Y-8857429D01*
X17229804Y-8872115D01*
X17229804Y-8872115D01*
X17227729Y-8887875D01*
X17227729Y-8887875D01*
X17229804Y-8903635D01*
X17231251Y-8907128D01*
X17231706Y-8908426D01*
X17232548Y-8911338D01*
X17232549Y-8911339D01*
X17232806Y-8911917D01*
X17232806Y-8911917D01*
X17233563Y-8913137D01*
X17234482Y-8914929D01*
X17235887Y-8918320D01*
X17235887Y-8918321D01*
X17240288Y-8924055D01*
X17242807Y-8930572D01*
X17242850Y-8931604D01*
X17242850Y-9256556D01*
X17242514Y-9259424D01*
X17242323Y-9260228D01*
X17242008Y-9268703D01*
X17241924Y-9269759D01*
X17241176Y-9275830D01*
X17240984Y-9276957D01*
X17239968Y-9281616D01*
X17239710Y-9282602D01*
X17238365Y-9286996D01*
X17238171Y-9287578D01*
X17237052Y-9290677D01*
X17236290Y-9292788D01*
X17235925Y-9293801D01*
X17234138Y-9298748D01*
X17234138Y-9298749D01*
X17233973Y-9299223D01*
X17233956Y-9299274D01*
X17233954Y-9299281D01*
X17233796Y-9299776D01*
X17232903Y-9302694D01*
X17231831Y-9306198D01*
X17231700Y-9306656D01*
X17231600Y-9307010D01*
X17231576Y-9307099D01*
X17231373Y-9307948D01*
X17229760Y-9315342D01*
X17229576Y-9316289D01*
X17229559Y-9316390D01*
X17229418Y-9317346D01*
X17228321Y-9326253D01*
X17228231Y-9327145D01*
X17228223Y-9327238D01*
X17228171Y-9328127D01*
X17227809Y-9337897D01*
X17227798Y-9338319D01*
X17227789Y-9338802D01*
X17227729Y-9339616D01*
X17227729Y-9340258D01*
X17227764Y-9341251D01*
X17227787Y-9341250D01*
X17228171Y-9351624D01*
X17228223Y-9352503D01*
X17228230Y-9352600D01*
X17228321Y-9353494D01*
X17229419Y-9362406D01*
X17229557Y-9363350D01*
X17229575Y-9363455D01*
X17229759Y-9364403D01*
X17230029Y-9365642D01*
X17231373Y-9371802D01*
X17231373Y-9371803D01*
X17231570Y-9372627D01*
X17231594Y-9372719D01*
X17231830Y-9373552D01*
X17233793Y-9379967D01*
X17233950Y-9380457D01*
X17233966Y-9380506D01*
X17234138Y-9381001D01*
X17234139Y-9381004D01*
X17236290Y-9386962D01*
X17236414Y-9387304D01*
X17238171Y-9392172D01*
X17238365Y-9392754D01*
X17239710Y-9397148D01*
X17239968Y-9398133D01*
X17240984Y-9402792D01*
X17241176Y-9403919D01*
X17241903Y-9409820D01*
X17241903Y-9409823D01*
X17241923Y-9409989D01*
X17242008Y-9411047D01*
X17242322Y-9419522D01*
X17242323Y-9419522D01*
X17242540Y-9420474D01*
X17242850Y-9423231D01*
X17242850Y-9766443D01*
X17240882Y-9773147D01*
X17235601Y-9777722D01*
X17228685Y-9778717D01*
X17222330Y-9775814D01*
X17220613Y-9773991D01*
X17216593Y-9768753D01*
X17215281Y-9767043D01*
X17202670Y-9757367D01*
X17202670Y-9757366D01*
X17202670Y-9757366D01*
X17187985Y-9751284D01*
X17187984Y-9751283D01*
X17172225Y-9749209D01*
X17172224Y-9749209D01*
X17156465Y-9751283D01*
X17156465Y-9751284D01*
X17141779Y-9757367D01*
X17129168Y-9767043D01*
X17119491Y-9779654D01*
X17113408Y-9794340D01*
X17113408Y-9794340D01*
X17112260Y-9803064D01*
X17109433Y-9809453D01*
X17107287Y-9810869D01*
X17109465Y-9812233D01*
X17112443Y-9818553D01*
X17112485Y-9818845D01*
X17113408Y-9825859D01*
X17113409Y-9825860D01*
X17119491Y-9840545D01*
X17119491Y-9840545D01*
X17119491Y-9840545D01*
X17129168Y-9853156D01*
X17141779Y-9862833D01*
X17141779Y-9862833D01*
X17141779Y-9862833D01*
X17143405Y-9863506D01*
X17156465Y-9868916D01*
X17167669Y-9870391D01*
X17174059Y-9873217D01*
X17177906Y-9879050D01*
X17177989Y-9886036D01*
X17174818Y-9891453D01*
X16766550Y-10299721D01*
X16760418Y-10303070D01*
X16757782Y-10303353D01*
X16021189Y-10303353D01*
X16019127Y-10303180D01*
X16018470Y-10303070D01*
X16017448Y-10302897D01*
X16017448Y-10302897D01*
X16014633Y-10302980D01*
X16009004Y-10303145D01*
X16008272Y-10303179D01*
X16008202Y-10303184D01*
X16007521Y-10303239D01*
X16007148Y-10303275D01*
X16006945Y-10303295D01*
X16005745Y-10303353D01*
X15974327Y-10303353D01*
X15967624Y-10301385D01*
X15963048Y-10296104D01*
X15962054Y-10289188D01*
X15964956Y-10282833D01*
X15969193Y-10279666D01*
X15974951Y-10277047D01*
X15975033Y-10277227D01*
X15975037Y-10277225D01*
X15974955Y-10277045D01*
X15974960Y-10277043D01*
X15974973Y-10277037D01*
X15974973Y-10277037D01*
X15980748Y-10274412D01*
X15980972Y-10274252D01*
X15985240Y-10272347D01*
X15985760Y-10272129D01*
X15988786Y-10270941D01*
X15989656Y-10270637D01*
X15992033Y-10269903D01*
X15993089Y-10269627D01*
X15995736Y-10269059D01*
X15996742Y-10268887D01*
X16000581Y-10268391D01*
X16001382Y-10268314D01*
X16004037Y-10268146D01*
X16004037Y-10268146D01*
X16006702Y-10267978D01*
X16006702Y-10267978D01*
X16007043Y-10267956D01*
X16007612Y-10267933D01*
X16014823Y-10267811D01*
X16015985Y-10267565D01*
X16018558Y-10267295D01*
X16441118Y-10267295D01*
X16441119Y-10267295D01*
X16441879Y-10267295D01*
X16452258Y-10267295D01*
X16452258Y-10267295D01*
X16460166Y-10265176D01*
X16460166Y-10265176D01*
X16460166Y-10265176D01*
X16462284Y-10264609D01*
X16471273Y-10259419D01*
X16478613Y-10252080D01*
X16478613Y-10252079D01*
X16479633Y-10251059D01*
X16479633Y-10251059D01*
X16721866Y-10008826D01*
X16723921Y-10007168D01*
X16724856Y-10006566D01*
X16730044Y-10001551D01*
X16730459Y-10001168D01*
X16734715Y-9997417D01*
X16735339Y-9996903D01*
X16738398Y-9994544D01*
X16739234Y-9993953D01*
X16741507Y-9992483D01*
X16742448Y-9991931D01*
X16744650Y-9990768D01*
X16745480Y-9990369D01*
X16748458Y-9989069D01*
X16748984Y-9988854D01*
X16753361Y-9987178D01*
X16753510Y-9987123D01*
X16759391Y-9984973D01*
X16759554Y-9984913D01*
X16759563Y-9984909D01*
X16759563Y-9984909D01*
X16759710Y-9984854D01*
X16766708Y-9982232D01*
X16766877Y-9982168D01*
X16766901Y-9982159D01*
X16767149Y-9982061D01*
X16774572Y-9979097D01*
X16774700Y-9979046D01*
X16774711Y-9979041D01*
X16775830Y-9978300D01*
X16777932Y-9977182D01*
X16783067Y-9975055D01*
X16795678Y-9965378D01*
X16805355Y-9952768D01*
X16811438Y-9938082D01*
X16813513Y-9922322D01*
X16811438Y-9906562D01*
X16805355Y-9891877D01*
X16805355Y-9891877D01*
X16805355Y-9891876D01*
X16795678Y-9879266D01*
X16795678Y-9879266D01*
X16783067Y-9869589D01*
X16783067Y-9869589D01*
X16783067Y-9869589D01*
X16768382Y-9863506D01*
X16768381Y-9863506D01*
X16752622Y-9861431D01*
X16752622Y-9861431D01*
X16736862Y-9863506D01*
X16736862Y-9863506D01*
X16722176Y-9869589D01*
X16709565Y-9879266D01*
X16699889Y-9891877D01*
X16697726Y-9897097D01*
X16696667Y-9899110D01*
X16695847Y-9900371D01*
X16692876Y-9907808D01*
X16692777Y-9908063D01*
X16692773Y-9908073D01*
X16692723Y-9908205D01*
X16690192Y-9914959D01*
X16690162Y-9915027D01*
X16690018Y-9915422D01*
X16689985Y-9915512D01*
X16689973Y-9915544D01*
X16689962Y-9915576D01*
X16687825Y-9921420D01*
X16687760Y-9921596D01*
X16686089Y-9925959D01*
X16685874Y-9926485D01*
X16684575Y-9929464D01*
X16684174Y-9930296D01*
X16683014Y-9932493D01*
X16682460Y-9933437D01*
X16680991Y-9935708D01*
X16680399Y-9936545D01*
X16678041Y-9939604D01*
X16677525Y-9940229D01*
X16673778Y-9944482D01*
X16673393Y-9944899D01*
X16673096Y-9945206D01*
X16673092Y-9945210D01*
X16668377Y-9950087D01*
X16668377Y-9950088D01*
X16667729Y-9951085D01*
X16666101Y-9953094D01*
X16434372Y-10184823D01*
X16428240Y-10188172D01*
X16425604Y-10188455D01*
X16018535Y-10188455D01*
X16015911Y-10188174D01*
X16014823Y-10187938D01*
X16014823Y-10187938D01*
X16007611Y-10187816D01*
X16007039Y-10187793D01*
X16001384Y-10187436D01*
X16000577Y-10187358D01*
X15996746Y-10186863D01*
X15995736Y-10186690D01*
X15993090Y-10186123D01*
X15992032Y-10185847D01*
X15989657Y-10185113D01*
X15988788Y-10184809D01*
X15987868Y-10184448D01*
X15987867Y-10184448D01*
X15987867Y-10184448D01*
X15987867Y-10184447D01*
X15987867Y-10184448D01*
X15985761Y-10183621D01*
X15985237Y-10183402D01*
X15982077Y-10181991D01*
X15980963Y-10181494D01*
X15980802Y-10181420D01*
X15975475Y-10178946D01*
X15975411Y-10178912D01*
X15975091Y-10178767D01*
X15975006Y-10178728D01*
X15974958Y-10178706D01*
X15974924Y-10178691D01*
X15969465Y-10176208D01*
X15969464Y-10176207D01*
X15968738Y-10175877D01*
X15968019Y-10175550D01*
X15967833Y-10175466D01*
X15967826Y-10175463D01*
X15967591Y-10175361D01*
X15960243Y-10172207D01*
X15960089Y-10172142D01*
X15960078Y-10172137D01*
X15960078Y-10172137D01*
X15958774Y-10171873D01*
X15956491Y-10171176D01*
X15955253Y-10170663D01*
X15951380Y-10169059D01*
X15951379Y-10169059D01*
X15935620Y-10166984D01*
X15935620Y-10166984D01*
X15919860Y-10169059D01*
X15919860Y-10169059D01*
X15905174Y-10175142D01*
X15892564Y-10184819D01*
X15882887Y-10197429D01*
X15876804Y-10212115D01*
X15876804Y-10212115D01*
X15874729Y-10227875D01*
X15874729Y-10227875D01*
X15876804Y-10243635D01*
X15876804Y-10243635D01*
X15882887Y-10258320D01*
X15882887Y-10258320D01*
X15882887Y-10258321D01*
X15892564Y-10270931D01*
X15905174Y-10280608D01*
X15919860Y-10286691D01*
X15927740Y-10287729D01*
X15935620Y-10288766D01*
X15935620Y-10288766D01*
X15939560Y-10288247D01*
X15946463Y-10289324D01*
X15951689Y-10293962D01*
X15953577Y-10300689D01*
X15951529Y-10307369D01*
X15947378Y-10311280D01*
X15945323Y-10312466D01*
X15940742Y-10314021D01*
X15932860Y-10315059D01*
X15932860Y-10315059D01*
X15918174Y-10321142D01*
X15905564Y-10330819D01*
X15895887Y-10343429D01*
X15889804Y-10358115D01*
X15889804Y-10358115D01*
X15887729Y-10373875D01*
X15887729Y-10373875D01*
X15889804Y-10389635D01*
X15889804Y-10389635D01*
X15895887Y-10404320D01*
X15895887Y-10404320D01*
X15895887Y-10404321D01*
X15905564Y-10416931D01*
X15918174Y-10426608D01*
X15918175Y-10426608D01*
X15918175Y-10426608D01*
X15920924Y-10427747D01*
X15932860Y-10432691D01*
X15939973Y-10433628D01*
X15948620Y-10434766D01*
X15948620Y-10434766D01*
X15948620Y-10434766D01*
X15950453Y-10434525D01*
X15964380Y-10432691D01*
X15971029Y-10429937D01*
X15972438Y-10429450D01*
X15974479Y-10428880D01*
X15978099Y-10427047D01*
X15978954Y-10426654D01*
X15979065Y-10426608D01*
X15979066Y-10426607D01*
X15979479Y-10426369D01*
X15980077Y-10426046D01*
X15981356Y-10425398D01*
X15982821Y-10424580D01*
X15982982Y-10424482D01*
X15984385Y-10423544D01*
X15990471Y-10419106D01*
X15991681Y-10418154D01*
X15991812Y-10418042D01*
X15992950Y-10417001D01*
X15997708Y-10412316D01*
X15998460Y-10411536D01*
X15998542Y-10411447D01*
X15999254Y-10410627D01*
X16003178Y-10405865D01*
X16003422Y-10405562D01*
X16003448Y-10405530D01*
X16003655Y-10405264D01*
X16006686Y-10401313D01*
X16007086Y-10400819D01*
X16007783Y-10400001D01*
X16013632Y-10396179D01*
X16016266Y-10395685D01*
X16019786Y-10395415D01*
X16020263Y-10395291D01*
X16023378Y-10394893D01*
X16775851Y-10394893D01*
X16787903Y-10394893D01*
X17241559Y-10394893D01*
X17248263Y-10396862D01*
X17252838Y-10402142D01*
X17253558Y-10404167D01*
X17254287Y-10406964D01*
X17254548Y-10407882D01*
X17254580Y-10407985D01*
X17254886Y-10408896D01*
X17257118Y-10415078D01*
X17257708Y-10416537D01*
X17257780Y-10416699D01*
X17258476Y-10418105D01*
X17260051Y-10421007D01*
X17260607Y-10422174D01*
X17260863Y-10422793D01*
X17260940Y-10422925D01*
X17261743Y-10424161D01*
X17261754Y-10424155D01*
X17261827Y-10424281D01*
X17262852Y-10425974D01*
X17262852Y-10425974D01*
X17262975Y-10426157D01*
X17262976Y-10426158D01*
X17263343Y-10426653D01*
X17264158Y-10427748D01*
X17265953Y-10429937D01*
X17268357Y-10432868D01*
X17269010Y-10433628D01*
X17269545Y-10434219D01*
X17269515Y-10434246D01*
X17270293Y-10435082D01*
X17270540Y-10435404D01*
X17283151Y-10445081D01*
X17297837Y-10451164D01*
X17305717Y-10452201D01*
X17313596Y-10453238D01*
X17313596Y-10453238D01*
X17313597Y-10453238D01*
X17318850Y-10452547D01*
X17329356Y-10451164D01*
X17344042Y-10445081D01*
X17356653Y-10435404D01*
X17366330Y-10422793D01*
X17372413Y-10408107D01*
X17374487Y-10392347D01*
X17374130Y-10389635D01*
X17372413Y-10376588D01*
X17372413Y-10376588D01*
X17366330Y-10361902D01*
X17366329Y-10361902D01*
X17366329Y-10361902D01*
X17362958Y-10357508D01*
X17356653Y-10349291D01*
X17344042Y-10339614D01*
X17344042Y-10339614D01*
X17344041Y-10339614D01*
X17339763Y-10337842D01*
X17337245Y-10336436D01*
X17336571Y-10335949D01*
X17336571Y-10335949D01*
X17330251Y-10333054D01*
X17330251Y-10333054D01*
X17330251Y-10333054D01*
X17328302Y-10332161D01*
X17327471Y-10331743D01*
X17321051Y-10328197D01*
X17320371Y-10327793D01*
X17314773Y-10324218D01*
X17314413Y-10323979D01*
X17311339Y-10321860D01*
X17311339Y-10321860D01*
X17308856Y-10320149D01*
X17308654Y-10320011D01*
X17303071Y-10316258D01*
X17302461Y-10315863D01*
X17302394Y-10315821D01*
X17302392Y-10315820D01*
X17302389Y-10315819D01*
X17302218Y-10315716D01*
X17299827Y-10313850D01*
X17298476Y-10312498D01*
X17298475Y-10312497D01*
X17288039Y-10306473D01*
X17288039Y-10306472D01*
X17284158Y-10305432D01*
X17276398Y-10303353D01*
X17276398Y-10303353D01*
X17276398Y-10303353D01*
X17264444Y-10303353D01*
X17263627Y-10303326D01*
X17263567Y-10303322D01*
X17253556Y-10302919D01*
X17253083Y-10302905D01*
X17253035Y-10302904D01*
X17253035Y-10302904D01*
X17251818Y-10303135D01*
X17249505Y-10303353D01*
X16922312Y-10303353D01*
X16915608Y-10301385D01*
X16911032Y-10296104D01*
X16910038Y-10289188D01*
X16912941Y-10282833D01*
X16913544Y-10282185D01*
X17028745Y-10166984D01*
X17325245Y-9870484D01*
X17331271Y-9860047D01*
X17333117Y-9853156D01*
X17334390Y-9848406D01*
X17334390Y-9718224D01*
X17428334Y-9718224D01*
X17428334Y-9718225D01*
X17430408Y-9733984D01*
X17430408Y-9733984D01*
X17436491Y-9748670D01*
X17436491Y-9748670D01*
X17436491Y-9748670D01*
X17446168Y-9761281D01*
X17458779Y-9770958D01*
X17458779Y-9770958D01*
X17458779Y-9770958D01*
X17461574Y-9772115D01*
X17473465Y-9777041D01*
X17478642Y-9777722D01*
X17489224Y-9779115D01*
X17489224Y-9779115D01*
X17489225Y-9779115D01*
X17494478Y-9778424D01*
X17504984Y-9777041D01*
X17519670Y-9770958D01*
X17532281Y-9761281D01*
X17541958Y-9748670D01*
X17548041Y-9733984D01*
X17550115Y-9718224D01*
X17548041Y-9702465D01*
X17541958Y-9687779D01*
X17541957Y-9687779D01*
X17541957Y-9687779D01*
X17532281Y-9675168D01*
X17519670Y-9665491D01*
X17504984Y-9659408D01*
X17504984Y-9659408D01*
X17489225Y-9657334D01*
X17489224Y-9657334D01*
X17473465Y-9659408D01*
X17473465Y-9659408D01*
X17458779Y-9665491D01*
X17446168Y-9675168D01*
X17436491Y-9687779D01*
X17430408Y-9702465D01*
X17430408Y-9702465D01*
X17428334Y-9718224D01*
X17334390Y-9718224D01*
X17334390Y-9591000D01*
X17534109Y-9591000D01*
X17534109Y-9591000D01*
X17536184Y-9606760D01*
X17536184Y-9606760D01*
X17542267Y-9621445D01*
X17542267Y-9621445D01*
X17542267Y-9621446D01*
X17551944Y-9634056D01*
X17564555Y-9643733D01*
X17579240Y-9649816D01*
X17587120Y-9650854D01*
X17595000Y-9651891D01*
X17595000Y-9651891D01*
X17595000Y-9651891D01*
X17600253Y-9651199D01*
X17610760Y-9649816D01*
X17625446Y-9643733D01*
X17638056Y-9634056D01*
X17647733Y-9621446D01*
X17653816Y-9606760D01*
X17655891Y-9591000D01*
X17655739Y-9589849D01*
X17654399Y-9579667D01*
X17653816Y-9575240D01*
X17647733Y-9560555D01*
X17647733Y-9560555D01*
X17647733Y-9560554D01*
X17638057Y-9547944D01*
X17637662Y-9547641D01*
X17625446Y-9538267D01*
X17625445Y-9538267D01*
X17625445Y-9538267D01*
X17610760Y-9532184D01*
X17610760Y-9532184D01*
X17595000Y-9530109D01*
X17595000Y-9530109D01*
X17579240Y-9532184D01*
X17579240Y-9532184D01*
X17564554Y-9538267D01*
X17551944Y-9547944D01*
X17542267Y-9560554D01*
X17536184Y-9575240D01*
X17536184Y-9575240D01*
X17534109Y-9591000D01*
X17334390Y-9591000D01*
X17334390Y-9423194D01*
X17334726Y-9420326D01*
X17334917Y-9419522D01*
X17334918Y-9419522D01*
X17335232Y-9411047D01*
X17335316Y-9409991D01*
X17336064Y-9403918D01*
X17336255Y-9402796D01*
X17337273Y-9398130D01*
X17337530Y-9397148D01*
X17338876Y-9392749D01*
X17339067Y-9392177D01*
X17340950Y-9386962D01*
X17340950Y-9386962D01*
X17343101Y-9381004D01*
X17343270Y-9380517D01*
X17343288Y-9380462D01*
X17343446Y-9379969D01*
X17345409Y-9373554D01*
X17345645Y-9372723D01*
X17345669Y-9372630D01*
X17345867Y-9371802D01*
X17347481Y-9364406D01*
X17347665Y-9363458D01*
X17347683Y-9363351D01*
X17347822Y-9362403D01*
X17348918Y-9353499D01*
X17349008Y-9352619D01*
X17349016Y-9352519D01*
X17349069Y-9351622D01*
X17349431Y-9341859D01*
X17349441Y-9341498D01*
X17349442Y-9341457D01*
X17349442Y-9341456D01*
X17349453Y-9340905D01*
X17349511Y-9340133D01*
X17349511Y-9339485D01*
X17349477Y-9338499D01*
X17349453Y-9338500D01*
X17349376Y-9336400D01*
X17349069Y-9328128D01*
X17349016Y-9327231D01*
X17349008Y-9327131D01*
X17348918Y-9326251D01*
X17347822Y-9317347D01*
X17347683Y-9316399D01*
X17347679Y-9316375D01*
X17347665Y-9316297D01*
X17347665Y-9316294D01*
X17347665Y-9316292D01*
X17347481Y-9315344D01*
X17345867Y-9307948D01*
X17345669Y-9307120D01*
X17345645Y-9307027D01*
X17345409Y-9306196D01*
X17343446Y-9299780D01*
X17343288Y-9299288D01*
X17343270Y-9299233D01*
X17343101Y-9298745D01*
X17340950Y-9292788D01*
X17340950Y-9292788D01*
X17339068Y-9287575D01*
X17338874Y-9286994D01*
X17338503Y-9285781D01*
X17337530Y-9282601D01*
X17337272Y-9281616D01*
X17336256Y-9276957D01*
X17336064Y-9275831D01*
X17335316Y-9269758D01*
X17335232Y-9268702D01*
X17335145Y-9266359D01*
X17334918Y-9260228D01*
X17334700Y-9259275D01*
X17334390Y-9256519D01*
X17334390Y-9176190D01*
X17336359Y-9169486D01*
X17341639Y-9164911D01*
X17348248Y-9163876D01*
X17351396Y-9164249D01*
X17409711Y-9105933D01*
X17410764Y-9108473D01*
X17419190Y-9121085D01*
X17429915Y-9131810D01*
X17442527Y-9140237D01*
X17445067Y-9141289D01*
X17386751Y-9199604D01*
X17407503Y-9212321D01*
X17407503Y-9212321D01*
X17430335Y-9221778D01*
X17454364Y-9227547D01*
X17454364Y-9227547D01*
X17479000Y-9229485D01*
X17503636Y-9227547D01*
X17527665Y-9221778D01*
X17550497Y-9212321D01*
X17550497Y-9212321D01*
X17571249Y-9199604D01*
X17512933Y-9141289D01*
X17515473Y-9140237D01*
X17528085Y-9131810D01*
X17538810Y-9121085D01*
X17547237Y-9108473D01*
X17548289Y-9105933D01*
X17606604Y-9164249D01*
X17619321Y-9143497D01*
X17619321Y-9143497D01*
X17628778Y-9120665D01*
X17634547Y-9096636D01*
X17636485Y-9072000D01*
X17634547Y-9047364D01*
X17628778Y-9023335D01*
X17619321Y-9000503D01*
X17619321Y-9000503D01*
X17606604Y-8979751D01*
X17548289Y-9038067D01*
X17547237Y-9035527D01*
X17538810Y-9022915D01*
X17528085Y-9012190D01*
X17515473Y-9003764D01*
X17512933Y-9002711D01*
X17571249Y-8944396D01*
X17550497Y-8931679D01*
X17550497Y-8931679D01*
X17527665Y-8922222D01*
X17503636Y-8916453D01*
X17503636Y-8916453D01*
X17479000Y-8914515D01*
X17454364Y-8916453D01*
X17430335Y-8922222D01*
X17407504Y-8931679D01*
X17407503Y-8931679D01*
X17386751Y-8944396D01*
X17445067Y-9002711D01*
X17442527Y-9003764D01*
X17429915Y-9012190D01*
X17419190Y-9022915D01*
X17410764Y-9035527D01*
X17409711Y-9038067D01*
X17351396Y-8979751D01*
X17348248Y-8980124D01*
X17341359Y-8978957D01*
X17336194Y-8974251D01*
X17334390Y-8967810D01*
X17334390Y-8931604D01*
X17336359Y-8924900D01*
X17336953Y-8924055D01*
X17339748Y-8920413D01*
X17341353Y-8918321D01*
X17347436Y-8903635D01*
X17349065Y-8891259D01*
X17349511Y-8887875D01*
X17349511Y-8887875D01*
X17347436Y-8872115D01*
X17347436Y-8872115D01*
X17341353Y-8857430D01*
X17341353Y-8857430D01*
X17341353Y-8857429D01*
X17336952Y-8851694D01*
X17334433Y-8845178D01*
X17334390Y-8844146D01*
X17334390Y-8821379D01*
X17334749Y-8818417D01*
X17334757Y-8818384D01*
X17334919Y-8817726D01*
X17335191Y-8811670D01*
X17335333Y-8810276D01*
X17335829Y-8807161D01*
X17336221Y-8805471D01*
X17336634Y-8804128D01*
X17337298Y-8802424D01*
X17337754Y-8801470D01*
X17338483Y-8800156D01*
X17339667Y-8798299D01*
X17340131Y-8797622D01*
X17342695Y-8794137D01*
X17346195Y-8789431D01*
X17346455Y-8789074D01*
X17346485Y-8789031D01*
X17346764Y-8788629D01*
X17350476Y-8783142D01*
X17350899Y-8782490D01*
X17350946Y-8782416D01*
X17351346Y-8781747D01*
X17354156Y-8776840D01*
X17355560Y-8774889D01*
X17355550Y-8774880D01*
X17355634Y-8774780D01*
X17355699Y-8774704D01*
X17356271Y-8774004D01*
X17356272Y-8774002D01*
X17361790Y-8766935D01*
X17361790Y-8766934D01*
X17361792Y-8766931D01*
X17362375Y-8766148D01*
X17362437Y-8766060D01*
X17362967Y-8765274D01*
X17367056Y-8758904D01*
X17367502Y-8758176D01*
X17367551Y-8758093D01*
X17367971Y-8757341D01*
X17371119Y-8751417D01*
X17371356Y-8750957D01*
X17371382Y-8750905D01*
X17371607Y-8750441D01*
X17374298Y-8744707D01*
X17374298Y-8744707D01*
X17375962Y-8741163D01*
X17375962Y-8741162D01*
X17376653Y-8739691D01*
X17376925Y-8739148D01*
X17379084Y-8735084D01*
X17379597Y-8734208D01*
X17382174Y-8730193D01*
X17382832Y-8729265D01*
X17386601Y-8724437D01*
X17387285Y-8723634D01*
X17393056Y-8717419D01*
X17393575Y-8716592D01*
X17395305Y-8714423D01*
X17417083Y-8692646D01*
X17417083Y-8692646D01*
X17418103Y-8691625D01*
X17418104Y-8691625D01*
X17462025Y-8647703D01*
X17468051Y-8637267D01*
X17471170Y-8625626D01*
X17471170Y-8613574D01*
X17471170Y-8199529D01*
X17470372Y-8196551D01*
X17468051Y-8187888D01*
X17466952Y-8185985D01*
X17462026Y-8177452D01*
X17462025Y-8177451D01*
X17406549Y-8121975D01*
X17406548Y-8121974D01*
X17396112Y-8115949D01*
X17396112Y-8115949D01*
X17392231Y-8114909D01*
X17384471Y-8112830D01*
X17384471Y-8112830D01*
X17384471Y-8112830D01*
X17358540Y-8112830D01*
X17351836Y-8110861D01*
X17349772Y-8109198D01*
X17285051Y-8044478D01*
X17218026Y-7977452D01*
X16958824Y-7718250D01*
X16958823Y-7718250D01*
X16958823Y-7718249D01*
X16948387Y-7712224D01*
X16948387Y-7712224D01*
X16944506Y-7711184D01*
X16936746Y-7709105D01*
X16936746Y-7709105D01*
X16936746Y-7709105D01*
X16761505Y-7709105D01*
X16759345Y-7708915D01*
X16758673Y-7708796D01*
X16757760Y-7708635D01*
X16749089Y-7708820D01*
X16748595Y-7708836D01*
X16748547Y-7708838D01*
X16748022Y-7708869D01*
X16748021Y-7708869D01*
X16748020Y-7708869D01*
X16745228Y-7709065D01*
X16745102Y-7709074D01*
X16744231Y-7709105D01*
X16703099Y-7709105D01*
X16694577Y-7711388D01*
X16694577Y-7711388D01*
X16691459Y-7712224D01*
X16691458Y-7712224D01*
X16686195Y-7715263D01*
X16681613Y-7716818D01*
X16673572Y-7717877D01*
X16671240Y-7718184D01*
X16671240Y-7718184D01*
X16656554Y-7724267D01*
X16643943Y-7733944D01*
X16643675Y-7734212D01*
X16642995Y-7734941D01*
X16643012Y-7734957D01*
X16635949Y-7742563D01*
X16635370Y-7743214D01*
X16635309Y-7743285D01*
X16635308Y-7743286D01*
X16634960Y-7743712D01*
X16634730Y-7743994D01*
X16629206Y-7751070D01*
X16628626Y-7751849D01*
X16628568Y-7751933D01*
X16628033Y-7752725D01*
X16623943Y-7759097D01*
X16623505Y-7759811D01*
X16623459Y-7759889D01*
X16623029Y-7760659D01*
X16619881Y-7766583D01*
X16619641Y-7767050D01*
X16619619Y-7767092D01*
X16619396Y-7767553D01*
X16616701Y-7773293D01*
X16616701Y-7773293D01*
X16614348Y-7778306D01*
X16614073Y-7778855D01*
X16611917Y-7782912D01*
X16611403Y-7783792D01*
X16608826Y-7787806D01*
X16608165Y-7788739D01*
X16604401Y-7793560D01*
X16603714Y-7794367D01*
X16597944Y-7800582D01*
X16597424Y-7801409D01*
X16595694Y-7803577D01*
X16594673Y-7804598D01*
X16588541Y-7807947D01*
X16585905Y-7808230D01*
X16070232Y-7808230D01*
X16063529Y-7806261D01*
X16058953Y-7800981D01*
X16057832Y-7795830D01*
X16057832Y-7745006D01*
X16058125Y-7742327D01*
X16058352Y-7741302D01*
X16058504Y-7734212D01*
X16058539Y-7733512D01*
X16058955Y-7728203D01*
X16059066Y-7727254D01*
X16059608Y-7723787D01*
X16059840Y-7722654D01*
X16060444Y-7720274D01*
X16060783Y-7719161D01*
X16061605Y-7716856D01*
X16061942Y-7716012D01*
X16063332Y-7712869D01*
X16063536Y-7712431D01*
X16065761Y-7707891D01*
X16065789Y-7707834D01*
X16068652Y-7702066D01*
X16068736Y-7701895D01*
X16068746Y-7701875D01*
X16068747Y-7701872D01*
X16068748Y-7701870D01*
X16068835Y-7701689D01*
X16072126Y-7694730D01*
X16072273Y-7694413D01*
X16072288Y-7694379D01*
X16072416Y-7694092D01*
X16073875Y-7690735D01*
X16075621Y-7686718D01*
X16075681Y-7686578D01*
X16075689Y-7686558D01*
X16075961Y-7685238D01*
X16076651Y-7682986D01*
X16078816Y-7677760D01*
X16080891Y-7662000D01*
X16078816Y-7646240D01*
X16072733Y-7631555D01*
X16072733Y-7631554D01*
X16072733Y-7631554D01*
X16063056Y-7618944D01*
X16050445Y-7609267D01*
X16035760Y-7603184D01*
X16035759Y-7603184D01*
X16020000Y-7601109D01*
X16020000Y-7601109D01*
X16004240Y-7603184D01*
X16004240Y-7603184D01*
X15989554Y-7609267D01*
X15976944Y-7618944D01*
X15967267Y-7631554D01*
X15961184Y-7646240D01*
X15961184Y-7646240D01*
X15959109Y-7662000D01*
X15959109Y-7662000D01*
X15961184Y-7677760D01*
X15963385Y-7683074D01*
X15964047Y-7685189D01*
X15964378Y-7686715D01*
X15964378Y-7686716D01*
X15964378Y-7686716D01*
X15967584Y-7694092D01*
X15967710Y-7694377D01*
X15967725Y-7694410D01*
X15967874Y-7694732D01*
X15971165Y-7701689D01*
X15971251Y-7701870D01*
X15971252Y-7701872D01*
X15971254Y-7701875D01*
X15971263Y-7701895D01*
X15971348Y-7702066D01*
X15971351Y-7702073D01*
X15974227Y-7707868D01*
X15974250Y-7707914D01*
X15974718Y-7708869D01*
X15976462Y-7712428D01*
X15976667Y-7712869D01*
X15978056Y-7716009D01*
X15978395Y-7716858D01*
X15979216Y-7719159D01*
X15979556Y-7720276D01*
X15980159Y-7722655D01*
X15980391Y-7723787D01*
X15980934Y-7727254D01*
X15981045Y-7728203D01*
X15981461Y-7733513D01*
X15981496Y-7734215D01*
X15981648Y-7741302D01*
X15981648Y-7741303D01*
X15981889Y-7742420D01*
X15982167Y-7745034D01*
X15982167Y-7795830D01*
X15980199Y-7802534D01*
X15974919Y-7807109D01*
X15969767Y-7808230D01*
X15082026Y-7808230D01*
X15069974Y-7808230D01*
X15062989Y-7810101D01*
X15058333Y-7811349D01*
X15058332Y-7811349D01*
X15047897Y-7817374D01*
X15047896Y-7817375D01*
X15007551Y-7857720D01*
X15005285Y-7859510D01*
X15004582Y-7859943D01*
X15004581Y-7859944D01*
X14998367Y-7865714D01*
X14997560Y-7866401D01*
X14992738Y-7870165D01*
X14991806Y-7870826D01*
X14987792Y-7873402D01*
X14986912Y-7873917D01*
X14982854Y-7876074D01*
X14982305Y-7876348D01*
X14977293Y-7878701D01*
X14977293Y-7878701D01*
X14971553Y-7881396D01*
X14971092Y-7881619D01*
X14971046Y-7881642D01*
X14970586Y-7881879D01*
X14964659Y-7885029D01*
X14963919Y-7885442D01*
X14963832Y-7885493D01*
X14963097Y-7885943D01*
X14956727Y-7890032D01*
X14955936Y-7890565D01*
X14955853Y-7890624D01*
X14955067Y-7891208D01*
X14947995Y-7896729D01*
X14947286Y-7897308D01*
X14947214Y-7897369D01*
X14946563Y-7897949D01*
X14939404Y-7904596D01*
X14939089Y-7904895D01*
X14938746Y-7905227D01*
X14938126Y-7905761D01*
X14937675Y-7906212D01*
X14936995Y-7906941D01*
X14937012Y-7906957D01*
X14929949Y-7914563D01*
X14929370Y-7915214D01*
X14929309Y-7915285D01*
X14928730Y-7915994D01*
X14923206Y-7923070D01*
X14922626Y-7923849D01*
X14922568Y-7923933D01*
X14922033Y-7924725D01*
X14917943Y-7931097D01*
X14917505Y-7931811D01*
X14917459Y-7931889D01*
X14917029Y-7932659D01*
X14913881Y-7938583D01*
X14913879Y-7938586D01*
X14913667Y-7938997D01*
X14913641Y-7939050D01*
X14913619Y-7939092D01*
X14913396Y-7939553D01*
X14910701Y-7945293D01*
X14910701Y-7945293D01*
X14908348Y-7950306D01*
X14908073Y-7950855D01*
X14905917Y-7954912D01*
X14905403Y-7955792D01*
X14902826Y-7959806D01*
X14902165Y-7960739D01*
X14900164Y-7963301D01*
X14894488Y-7967375D01*
X14887510Y-7967732D01*
X14881446Y-7964260D01*
X14878223Y-7958061D01*
X14877990Y-7955671D01*
X14877990Y-7860868D01*
X14876808Y-7854927D01*
X14876808Y-7854927D01*
X14875252Y-7852598D01*
X14872306Y-7848189D01*
X14866608Y-7844382D01*
X14865568Y-7843687D01*
X14865568Y-7843687D01*
X14859627Y-7842505D01*
X14859626Y-7842505D01*
X14685614Y-7842505D01*
X14685613Y-7842505D01*
X14679672Y-7843687D01*
X14679672Y-7843687D01*
X14672934Y-7848189D01*
X14668432Y-7854927D01*
X14668432Y-7854927D01*
X14667250Y-7860868D01*
X14667250Y-7860869D01*
X14667250Y-8034881D01*
X14667250Y-8034882D01*
X14667250Y-8034882D01*
X14668432Y-8040823D01*
X14668432Y-8040823D01*
X14669926Y-8043059D01*
X14672934Y-8047561D01*
X14679672Y-8052063D01*
X14679672Y-8052063D01*
X14685613Y-8053245D01*
X14855830Y-8053245D01*
X14862534Y-8055213D01*
X14867109Y-8060494D01*
X14868230Y-8065645D01*
X14868230Y-8117812D01*
X14866261Y-8124516D01*
X14860981Y-8129091D01*
X14854065Y-8130086D01*
X14848016Y-8127323D01*
X14847959Y-8127393D01*
X14831444Y-8113839D01*
X14831443Y-8113839D01*
X14813139Y-8104055D01*
X14813139Y-8104055D01*
X14813139Y-8104055D01*
X14813138Y-8104055D01*
X14793276Y-8098030D01*
X14793276Y-8098030D01*
X14793276Y-8098030D01*
X14772620Y-8095995D01*
X14751964Y-8098030D01*
X14741796Y-8101114D01*
X14732102Y-8104055D01*
X14732101Y-8104055D01*
X14732101Y-8104055D01*
X14732101Y-8104055D01*
X14713797Y-8113839D01*
X14713796Y-8113839D01*
X14697752Y-8127007D01*
X14684584Y-8143051D01*
X14684584Y-8143052D01*
X14674800Y-8161356D01*
X14674800Y-8161356D01*
X14674800Y-8161356D01*
X14674800Y-8161357D01*
X14672567Y-8168718D01*
X14668775Y-8181219D01*
X14666740Y-8201875D01*
X14668775Y-8222531D01*
X14669640Y-8225384D01*
X14674800Y-8242393D01*
X14674800Y-8242394D01*
X14674800Y-8242394D01*
X14674800Y-8242394D01*
X14684584Y-8260698D01*
X14684584Y-8260699D01*
X14697752Y-8276743D01*
X14713796Y-8289911D01*
X14713797Y-8289911D01*
X14732101Y-8299695D01*
X14732101Y-8299695D01*
X14732102Y-8299695D01*
X14751964Y-8305720D01*
X14751964Y-8305720D01*
X14753816Y-8305903D01*
X14772620Y-8307755D01*
X14793276Y-8305720D01*
X14813138Y-8299695D01*
X14831444Y-8289911D01*
X14847488Y-8276743D01*
X14860656Y-8260699D01*
X14870440Y-8242393D01*
X14872964Y-8234073D01*
X14876794Y-8228230D01*
X14883175Y-8225384D01*
X14890082Y-8226440D01*
X14895321Y-8231062D01*
X14897230Y-8237673D01*
X14897230Y-8420077D01*
X14895261Y-8426781D01*
X14889981Y-8431356D01*
X14883065Y-8432351D01*
X14876710Y-8429448D01*
X14872964Y-8423677D01*
X14870440Y-8415357D01*
X14868428Y-8411592D01*
X14860656Y-8397052D01*
X14860656Y-8397051D01*
X14847488Y-8381007D01*
X14831444Y-8367839D01*
X14831443Y-8367839D01*
X14813139Y-8358055D01*
X14813139Y-8358055D01*
X14813139Y-8358055D01*
X14813138Y-8358055D01*
X14793276Y-8352030D01*
X14793276Y-8352030D01*
X14793276Y-8352030D01*
X14772620Y-8349995D01*
X14751964Y-8352030D01*
X14740236Y-8355587D01*
X14732102Y-8358055D01*
X14732101Y-8358055D01*
X14732101Y-8358055D01*
X14732101Y-8358055D01*
X14713797Y-8367839D01*
X14713796Y-8367839D01*
X14697752Y-8381007D01*
X14684584Y-8397051D01*
X14684584Y-8397052D01*
X14674800Y-8415356D01*
X14674800Y-8415356D01*
X14674800Y-8415356D01*
X14674800Y-8415357D01*
X14672332Y-8423492D01*
X14668775Y-8435219D01*
X14666740Y-8455875D01*
X14668775Y-8476531D01*
X14669541Y-8479056D01*
X14674800Y-8496393D01*
X14674800Y-8496394D01*
X14674800Y-8496394D01*
X14674800Y-8496394D01*
X14684584Y-8514698D01*
X14684584Y-8514699D01*
X14697752Y-8530743D01*
X14713796Y-8543911D01*
X14713797Y-8543911D01*
X14732101Y-8553695D01*
X14732101Y-8553695D01*
X14732102Y-8553695D01*
X14738290Y-8555572D01*
X14744134Y-8559402D01*
X14746979Y-8565783D01*
X14745923Y-8572690D01*
X14741301Y-8577929D01*
X14737900Y-8579416D01*
X14726271Y-8582532D01*
X14726271Y-8582532D01*
X14704862Y-8592515D01*
X14704862Y-8592515D01*
X14685513Y-8606064D01*
X14685512Y-8606064D01*
X14668809Y-8622767D01*
X14668809Y-8622768D01*
X14655260Y-8642117D01*
X14655260Y-8642117D01*
X14645277Y-8663526D01*
X14645277Y-8663526D01*
X14639556Y-8684875D01*
X14598567Y-8684875D01*
X14598005Y-7286436D01*
X14599971Y-7279731D01*
X14605249Y-7275154D01*
X14610436Y-7274031D01*
X17760636Y-7281969D01*
G37*
%TD.AperFunction*%
%TD*%
%TA.AperFunction,Conductor*%
%TO.N,Net-(J2-D--PadA7)*%
G36*
X15390893Y-11993250D02*
G01*
X15390903Y-11993275D01*
X15405662Y-12028675D01*
X15405664Y-12029570D01*
X15405662Y-12029575D01*
X15390903Y-12064975D01*
X15390269Y-12065607D01*
X15389373Y-12065605D01*
X15389348Y-12065594D01*
X15381899Y-12062284D01*
X15381846Y-12062259D01*
X15374879Y-12058737D01*
X15374840Y-12058716D01*
X15369001Y-12055481D01*
X15368988Y-12055474D01*
X15363868Y-12052555D01*
X15359073Y-12049994D01*
X15359073Y-12049994D01*
X15359072Y-12049993D01*
X15359072Y-12049993D01*
X15354201Y-12047826D01*
X15354200Y-12047825D01*
X15348841Y-12046083D01*
X15348840Y-12046082D01*
X15348840Y-12046082D01*
X15348840Y-12046082D01*
X15342584Y-12044797D01*
X15342584Y-12044797D01*
X15342583Y-12044797D01*
X15335025Y-12044002D01*
X15335024Y-12044002D01*
X15335024Y-12044002D01*
X15334392Y-12043984D01*
X15326886Y-12043763D01*
X15326069Y-12043396D01*
X15325750Y-12042594D01*
X15325750Y-12015656D01*
X15326093Y-12014829D01*
X15326885Y-12014487D01*
X15335024Y-12014248D01*
X15342584Y-12013453D01*
X15348840Y-12012167D01*
X15348841Y-12012167D01*
X15348841Y-12012167D01*
X15350454Y-12011643D01*
X15354200Y-12010424D01*
X15359073Y-12008256D01*
X15363868Y-12005695D01*
X15368994Y-12002773D01*
X15374841Y-11999533D01*
X15374876Y-11999514D01*
X15381849Y-11995989D01*
X15381896Y-11995967D01*
X15389349Y-11992656D01*
X15390244Y-11992633D01*
X15390893Y-11993250D01*
G37*
%TD.AperFunction*%
%TD*%
%TA.AperFunction,Conductor*%
%TO.N,+3V3*%
G36*
X17252716Y-10323772D02*
G01*
X17262727Y-10324175D01*
X17262845Y-10324186D01*
X17271826Y-10325470D01*
X17271970Y-10325500D01*
X17279281Y-10327518D01*
X17279432Y-10327571D01*
X17285623Y-10330235D01*
X17285744Y-10330296D01*
X17291361Y-10333537D01*
X17291428Y-10333579D01*
X17297011Y-10337332D01*
X17299494Y-10339043D01*
X17303050Y-10341494D01*
X17303051Y-10341495D01*
X17310033Y-10345954D01*
X17318478Y-10350617D01*
X17318478Y-10350617D01*
X17318478Y-10350617D01*
X17321560Y-10352029D01*
X17327881Y-10354924D01*
X17328490Y-10355580D01*
X17328476Y-10356433D01*
X17313786Y-10392130D01*
X17313530Y-10392513D01*
X17286225Y-10419722D01*
X17285397Y-10420063D01*
X17284571Y-10419719D01*
X17284495Y-10419635D01*
X17280295Y-10414514D01*
X17280172Y-10414330D01*
X17276820Y-10408151D01*
X17276748Y-10407991D01*
X17274515Y-10401807D01*
X17274483Y-10401705D01*
X17272911Y-10395668D01*
X17271546Y-10389997D01*
X17269930Y-10384931D01*
X17267591Y-10380662D01*
X17264054Y-10377378D01*
X17258848Y-10375268D01*
X17258848Y-10375268D01*
X17252552Y-10374630D01*
X17251764Y-10374205D01*
X17251500Y-10373466D01*
X17251500Y-10324941D01*
X17251843Y-10324114D01*
X17252670Y-10323771D01*
X17252716Y-10323772D01*
G37*
%TD.AperFunction*%
%TD*%
%TA.AperFunction,Conductor*%
%TO.N,+3V3*%
G36*
X17304217Y-8740991D02*
G01*
X17339832Y-8755839D01*
X17340464Y-8756474D01*
X17340462Y-8757369D01*
X17340443Y-8757411D01*
X17337096Y-8764625D01*
X17337050Y-8764714D01*
X17333236Y-8771374D01*
X17333190Y-8771448D01*
X17329478Y-8776935D01*
X17329448Y-8776977D01*
X17325915Y-8781728D01*
X17322665Y-8786146D01*
X17322663Y-8786148D01*
X17319797Y-8790645D01*
X17319796Y-8790647D01*
X17317407Y-8795646D01*
X17317407Y-8795647D01*
X17315587Y-8801572D01*
X17315586Y-8801574D01*
X17314427Y-8808851D01*
X17314427Y-8808852D01*
X17314070Y-8816789D01*
X17313691Y-8817600D01*
X17312901Y-8817907D01*
X17264392Y-8817907D01*
X17263565Y-8817564D01*
X17263222Y-8816737D01*
X17263222Y-8816734D01*
X17263242Y-8807453D01*
X17263242Y-8807447D01*
X17263301Y-8798833D01*
X17263388Y-8791604D01*
X17263494Y-8785301D01*
X17263496Y-8785298D01*
X17263495Y-8785298D01*
X17263610Y-8779453D01*
X17263725Y-8773607D01*
X17263832Y-8767300D01*
X17263919Y-8760076D01*
X17263978Y-8751457D01*
X17263998Y-8742164D01*
X17264342Y-8741338D01*
X17265164Y-8740997D01*
X17303765Y-8740901D01*
X17304217Y-8740991D01*
G37*
%TD.AperFunction*%
%TD*%
%TA.AperFunction,Conductor*%
%TO.N,+3V3*%
G36*
X17298064Y-8871408D02*
G01*
X17298385Y-8871473D01*
X17306115Y-8874207D01*
X17306539Y-8874469D01*
X17311704Y-8879471D01*
X17312024Y-8880023D01*
X17313649Y-8886417D01*
X17313521Y-8887303D01*
X17312804Y-8887839D01*
X17312515Y-8887875D01*
X17288380Y-8887875D01*
X17264243Y-8887875D01*
X17263415Y-8887532D01*
X17263083Y-8886862D01*
X17262996Y-8886212D01*
X17262371Y-8886635D01*
X17262370Y-8886635D01*
X17261418Y-8888625D01*
X17261418Y-8888627D01*
X17260211Y-8891668D01*
X17258824Y-8895241D01*
X17258813Y-8895267D01*
X17257332Y-8898825D01*
X17257300Y-8898894D01*
X17256093Y-8901336D01*
X17256093Y-8901336D01*
X17256093Y-8901336D01*
X17255848Y-8901832D01*
X17255821Y-8901886D01*
X17255724Y-8902048D01*
X17254471Y-8903799D01*
X17253966Y-8904200D01*
X17253677Y-8904319D01*
X17252781Y-8904318D01*
X17252330Y-8903984D01*
X17252176Y-8903799D01*
X17251875Y-8903435D01*
X17251617Y-8902857D01*
X17251030Y-8898825D01*
X17250470Y-8894989D01*
X17250541Y-8894389D01*
X17253345Y-8887338D01*
X17253598Y-8886951D01*
X17259606Y-8880840D01*
X17259851Y-8880650D01*
X17268206Y-8875794D01*
X17268417Y-8875698D01*
X17278135Y-8872401D01*
X17278340Y-8872352D01*
X17288415Y-8870870D01*
X17288652Y-8870859D01*
X17298064Y-8871408D01*
G37*
%TD.AperFunction*%
%TD*%
%TA.AperFunction,Conductor*%
%TO.N,/Micro/SWP{slash}SD3*%
G36*
X16334765Y-9221055D02*
G01*
X16343945Y-9230235D01*
X16344288Y-9231062D01*
X16343974Y-9231859D01*
X16340753Y-9235320D01*
X16340753Y-9235320D01*
X16337826Y-9239101D01*
X16337826Y-9239102D01*
X16335747Y-9242543D01*
X16335747Y-9242543D01*
X16334305Y-9245801D01*
X16333286Y-9249040D01*
X16332480Y-9252415D01*
X16331672Y-9256086D01*
X16331665Y-9256116D01*
X16330651Y-9260215D01*
X16330634Y-9260275D01*
X16329202Y-9264977D01*
X16329178Y-9265048D01*
X16327522Y-9269441D01*
X16326909Y-9270094D01*
X16326014Y-9270123D01*
X16325983Y-9270111D01*
X16304382Y-9261256D01*
X16303747Y-9260626D01*
X16303743Y-9260618D01*
X16303591Y-9260245D01*
X16294889Y-9239017D01*
X16294893Y-9238121D01*
X16295528Y-9237491D01*
X16295557Y-9237479D01*
X16299953Y-9235822D01*
X16300022Y-9235798D01*
X16304725Y-9234365D01*
X16304783Y-9234349D01*
X16308885Y-9233335D01*
X16308913Y-9233328D01*
X16312580Y-9232521D01*
X16313783Y-9232233D01*
X16315959Y-9231713D01*
X16316189Y-9231641D01*
X16319198Y-9230695D01*
X16322457Y-9229253D01*
X16325898Y-9227174D01*
X16329681Y-9224246D01*
X16333141Y-9221025D01*
X16333980Y-9220713D01*
X16334765Y-9221055D01*
G37*
%TD.AperFunction*%
%TD*%
%TA.AperFunction,Conductor*%
%TO.N,+3V3*%
G36*
X16659545Y-7749542D02*
G01*
X16659574Y-7749569D01*
X16666802Y-7756762D01*
X16687071Y-7776929D01*
X16687075Y-7776933D01*
X16714430Y-7804426D01*
X16714771Y-7805254D01*
X16714426Y-7806080D01*
X16714397Y-7806108D01*
X16707238Y-7812755D01*
X16707162Y-7812820D01*
X16700089Y-7818341D01*
X16700001Y-7818404D01*
X16693631Y-7822492D01*
X16693548Y-7822541D01*
X16687623Y-7825689D01*
X16687572Y-7825715D01*
X16681838Y-7828407D01*
X16676078Y-7831111D01*
X16676078Y-7831111D01*
X16676077Y-7831111D01*
X16670086Y-7834295D01*
X16670085Y-7834295D01*
X16663630Y-7838438D01*
X16656475Y-7844024D01*
X16649218Y-7850762D01*
X16648379Y-7851074D01*
X16647595Y-7850732D01*
X16613268Y-7816405D01*
X16612925Y-7815578D01*
X16613238Y-7814782D01*
X16619976Y-7807525D01*
X16625561Y-7800371D01*
X16629705Y-7793914D01*
X16632889Y-7787922D01*
X16635593Y-7782162D01*
X16638286Y-7776425D01*
X16638309Y-7776380D01*
X16641459Y-7770451D01*
X16641507Y-7770369D01*
X16645597Y-7763998D01*
X16645658Y-7763912D01*
X16651181Y-7756836D01*
X16651243Y-7756763D01*
X16657892Y-7749603D01*
X16658706Y-7749230D01*
X16659545Y-7749542D01*
G37*
%TD.AperFunction*%
%TD*%
%TA.AperFunction,Conductor*%
%TO.N,/Micro/UART_RX*%
G36*
X16232323Y-8807045D02*
G01*
X16233719Y-8804983D01*
X16233701Y-8803169D01*
X16230773Y-8800578D01*
X16222634Y-8798728D01*
X16216570Y-8798782D01*
X16210893Y-8799896D01*
X16207200Y-8801654D01*
X16204883Y-8804233D01*
X16204480Y-8807877D01*
X16229071Y-8802929D01*
X16204480Y-8807877D01*
X16205285Y-8809522D01*
X16206625Y-8809723D01*
X16210294Y-8806937D01*
X16217007Y-8797586D01*
X16219515Y-8792407D01*
X16219365Y-8791627D01*
X16217955Y-8792677D01*
X16232323Y-8807045D01*
G37*
%TD.AperFunction*%
%TD*%
%TA.AperFunction,Conductor*%
%TO.N,/Micro/DTR*%
G36*
X14856383Y-8963874D02*
G01*
X14857210Y-8964217D01*
X14857552Y-8965045D01*
X14857550Y-8965110D01*
X14856581Y-8982233D01*
X14856567Y-8982356D01*
X14853955Y-8998308D01*
X14853936Y-8998398D01*
X14850479Y-9012481D01*
X14850469Y-9012519D01*
X14846908Y-9025170D01*
X14843990Y-9036824D01*
X14843990Y-9036824D01*
X14842469Y-9047895D01*
X14842469Y-9047896D01*
X14843091Y-9058835D01*
X14843091Y-9058835D01*
X14846601Y-9070086D01*
X14846601Y-9070087D01*
X14849988Y-9075780D01*
X14853746Y-9082097D01*
X14861348Y-9090813D01*
X14864553Y-9094487D01*
X14864839Y-9095336D01*
X14864499Y-9096084D01*
X14848136Y-9112447D01*
X14847308Y-9112790D01*
X14846484Y-9112449D01*
X14834870Y-9100909D01*
X14824411Y-9090813D01*
X14815334Y-9082573D01*
X14807038Y-9075779D01*
X14798925Y-9070020D01*
X14798925Y-9070020D01*
X14798924Y-9070020D01*
X14790395Y-9064888D01*
X14790394Y-9064887D01*
X14790394Y-9064887D01*
X14780845Y-9059969D01*
X14780844Y-9059968D01*
X14780843Y-9059968D01*
X14769677Y-9054856D01*
X14756293Y-9049138D01*
X14741170Y-9042853D01*
X14740537Y-9042219D01*
X14740537Y-9041326D01*
X14772250Y-8964528D01*
X14772883Y-8963894D01*
X14773332Y-8963805D01*
X14856383Y-8963874D01*
G37*
%TD.AperFunction*%
%TD*%
%TA.AperFunction,Conductor*%
%TO.N,+3V3*%
G36*
X16018897Y-10324077D02*
G01*
X16019264Y-10324894D01*
X16019264Y-10324928D01*
X16019264Y-10373440D01*
X16018922Y-10374267D01*
X16018184Y-10374606D01*
X16010500Y-10375197D01*
X16010500Y-10375197D01*
X16003737Y-10377083D01*
X16001454Y-10378342D01*
X15998496Y-10379972D01*
X15998496Y-10379972D01*
X15994295Y-10383656D01*
X15990649Y-10387930D01*
X15987096Y-10392562D01*
X15987071Y-10392594D01*
X15983147Y-10397356D01*
X15983065Y-10397446D01*
X15978307Y-10402131D01*
X15978176Y-10402242D01*
X15972089Y-10406681D01*
X15971928Y-10406779D01*
X15965051Y-10410261D01*
X15964158Y-10410329D01*
X15963479Y-10409746D01*
X15963443Y-10409670D01*
X15948610Y-10374092D01*
X15948520Y-10373640D01*
X15948617Y-10335008D01*
X15948962Y-10334182D01*
X15949753Y-10333842D01*
X15958306Y-10333591D01*
X15966244Y-10332819D01*
X15972872Y-10331682D01*
X15978625Y-10330301D01*
X15983942Y-10328799D01*
X15989238Y-10327302D01*
X15989280Y-10327291D01*
X15994975Y-10325925D01*
X15995049Y-10325910D01*
X16001601Y-10324785D01*
X16001680Y-10324775D01*
X16009540Y-10324011D01*
X16009616Y-10324006D01*
X16018060Y-10323758D01*
X16018897Y-10324077D01*
G37*
%TD.AperFunction*%
%TD*%
%TA.AperFunction,Conductor*%
%TO.N,+3V3*%
G36*
X17327409Y-9339872D02*
G01*
X17328235Y-9340217D01*
X17328576Y-9341045D01*
X17328575Y-9341085D01*
X17328213Y-9350848D01*
X17328205Y-9350948D01*
X17327108Y-9359851D01*
X17327090Y-9359958D01*
X17325477Y-9367354D01*
X17325452Y-9367447D01*
X17323489Y-9373862D01*
X17323471Y-9373917D01*
X17321320Y-9379875D01*
X17319160Y-9385858D01*
X17319159Y-9385860D01*
X17317174Y-9392348D01*
X17317173Y-9392350D01*
X17315539Y-9399844D01*
X17315538Y-9399844D01*
X17314429Y-9408852D01*
X17314062Y-9418748D01*
X17313689Y-9419562D01*
X17312893Y-9419875D01*
X17264347Y-9419875D01*
X17263520Y-9419532D01*
X17263178Y-9418748D01*
X17262811Y-9408852D01*
X17262594Y-9407092D01*
X17261702Y-9399845D01*
X17260066Y-9392348D01*
X17258081Y-9385860D01*
X17255920Y-9379875D01*
X17253769Y-9373916D01*
X17253751Y-9373862D01*
X17251787Y-9367446D01*
X17251764Y-9367355D01*
X17250150Y-9359957D01*
X17250132Y-9359853D01*
X17249035Y-9350946D01*
X17249027Y-9350849D01*
X17248665Y-9341085D01*
X17248977Y-9340246D01*
X17249791Y-9339873D01*
X17249827Y-9339872D01*
X17288620Y-9339775D01*
X17327409Y-9339872D01*
G37*
%TD.AperFunction*%
%TD*%
%TA.AperFunction,Conductor*%
%TO.N,+3V3*%
G36*
X15020405Y-7875268D02*
G01*
X15054732Y-7909595D01*
X15055074Y-7910422D01*
X15054762Y-7911218D01*
X15048024Y-7918475D01*
X15042438Y-7925630D01*
X15038295Y-7932085D01*
X15038295Y-7932086D01*
X15035111Y-7938077D01*
X15032406Y-7943838D01*
X15029715Y-7949572D01*
X15029689Y-7949623D01*
X15026541Y-7955548D01*
X15026492Y-7955631D01*
X15022404Y-7962001D01*
X15022341Y-7962089D01*
X15016820Y-7969162D01*
X15016755Y-7969238D01*
X15010108Y-7976397D01*
X15009294Y-7976770D01*
X15008455Y-7976458D01*
X15008426Y-7976430D01*
X15008392Y-7976397D01*
X14980929Y-7949071D01*
X14953570Y-7921574D01*
X14953229Y-7920746D01*
X14953574Y-7919920D01*
X14953601Y-7919893D01*
X14960763Y-7913243D01*
X14960836Y-7913181D01*
X14967912Y-7907657D01*
X14967998Y-7907597D01*
X14974369Y-7903507D01*
X14974452Y-7903459D01*
X14980380Y-7900309D01*
X14980425Y-7900286D01*
X14986162Y-7897593D01*
X14991922Y-7894889D01*
X14997914Y-7891705D01*
X15004371Y-7887561D01*
X15011525Y-7881976D01*
X15018782Y-7875238D01*
X15019621Y-7874926D01*
X15020405Y-7875268D01*
G37*
%TD.AperFunction*%
%TD*%
%TA.AperFunction,Conductor*%
%TO.N,/Micro/SDO{slash}SD0*%
G36*
X16700627Y-8635329D02*
G01*
X16722207Y-8644175D01*
X16722843Y-8644806D01*
X16722845Y-8644811D01*
X16731746Y-8666394D01*
X16731745Y-8667290D01*
X16731111Y-8667922D01*
X16731032Y-8667951D01*
X16727618Y-8669079D01*
X16727475Y-8669116D01*
X16723057Y-8669981D01*
X16722960Y-8669996D01*
X16718712Y-8670462D01*
X16718673Y-8670466D01*
X16716264Y-8670648D01*
X16714679Y-8670768D01*
X16713773Y-8670862D01*
X16711055Y-8671144D01*
X16707904Y-8671835D01*
X16705307Y-8673085D01*
X16703349Y-8675136D01*
X16702113Y-8678232D01*
X16702113Y-8678232D01*
X16701787Y-8681559D01*
X16701365Y-8682349D01*
X16700622Y-8682615D01*
X16687632Y-8682615D01*
X16686805Y-8682272D01*
X16686462Y-8681445D01*
X16686463Y-8681426D01*
X16686554Y-8675909D01*
X16686556Y-8675858D01*
X16686728Y-8673085D01*
X16686896Y-8670380D01*
X16686903Y-8670308D01*
X16687481Y-8665760D01*
X16687496Y-8665670D01*
X16688323Y-8661759D01*
X16688348Y-8661664D01*
X16689439Y-8658085D01*
X16689466Y-8658009D01*
X16690844Y-8654463D01*
X16690862Y-8654420D01*
X16692552Y-8650606D01*
X16694561Y-8646259D01*
X16696893Y-8641116D01*
X16699108Y-8635951D01*
X16699749Y-8635326D01*
X16700627Y-8635329D01*
G37*
%TD.AperFunction*%
%TD*%
%TA.AperFunction,Conductor*%
%TO.N,+3V3*%
G36*
X15642867Y-7893542D02*
G01*
X15643209Y-7894318D01*
X15643575Y-7902661D01*
X15643575Y-7902661D01*
X15644761Y-7910276D01*
X15645621Y-7913142D01*
X15646624Y-7916483D01*
X15646624Y-7916483D01*
X15649073Y-7921726D01*
X15649074Y-7921727D01*
X15652011Y-7926436D01*
X15652018Y-7926448D01*
X15655366Y-7931089D01*
X15655397Y-7931132D01*
X15659011Y-7936072D01*
X15659039Y-7936113D01*
X15662881Y-7941863D01*
X15662925Y-7941935D01*
X15666887Y-7948909D01*
X15666932Y-7948996D01*
X15670445Y-7956589D01*
X15670481Y-7957484D01*
X15669874Y-7958142D01*
X15669833Y-7958160D01*
X15634450Y-7972912D01*
X15633555Y-7972914D01*
X15633550Y-7972912D01*
X15598161Y-7958158D01*
X15597529Y-7957523D01*
X15597531Y-7956628D01*
X15597545Y-7956595D01*
X15600980Y-7949064D01*
X15601016Y-7948992D01*
X15604815Y-7942028D01*
X15604850Y-7941968D01*
X15608470Y-7936187D01*
X15608486Y-7936163D01*
X15611866Y-7931132D01*
X15614926Y-7926437D01*
X15617588Y-7921663D01*
X15619780Y-7916381D01*
X15621433Y-7910162D01*
X15622476Y-7902578D01*
X15622796Y-7894323D01*
X15623171Y-7893510D01*
X15623965Y-7893199D01*
X15642040Y-7893199D01*
X15642867Y-7893542D01*
G37*
%TD.AperFunction*%
%TD*%
%TA.AperFunction,Conductor*%
%TO.N,/Power/USB_VBUS*%
G36*
X15920116Y-10885469D02*
G01*
X15922627Y-10887603D01*
X15924033Y-10889164D01*
X15924033Y-10889164D01*
X15939346Y-10900290D01*
X15939347Y-10900290D01*
X15956639Y-10907989D01*
X15956640Y-10907989D01*
X15975155Y-10911925D01*
X15975155Y-10911925D01*
X15994084Y-10911925D01*
X15994085Y-10911925D01*
X16012600Y-10907989D01*
X16029893Y-10900290D01*
X16045207Y-10889164D01*
X16046613Y-10887603D01*
X16052561Y-10883938D01*
X16055828Y-10883500D01*
X16064970Y-10883500D01*
X16071674Y-10885469D01*
X16076249Y-10890749D01*
X16077370Y-10895900D01*
X16077370Y-11788100D01*
X16075401Y-11794804D01*
X16070121Y-11799379D01*
X16064970Y-11800500D01*
X15695008Y-11800500D01*
X15688304Y-11798531D01*
X15683728Y-11793251D01*
X15683030Y-11791310D01*
X15680378Y-11781411D01*
X15679973Y-11780710D01*
X15678568Y-11778276D01*
X15672801Y-11768288D01*
X15662086Y-11757573D01*
X15654212Y-11753027D01*
X15648964Y-11749997D01*
X15641645Y-11748036D01*
X15634327Y-11746075D01*
X15619173Y-11746075D01*
X15604536Y-11749997D01*
X15591413Y-11757573D01*
X15591413Y-11757574D01*
X15580699Y-11768288D01*
X15580698Y-11768288D01*
X15573122Y-11781411D01*
X15571874Y-11786067D01*
X15568238Y-11792033D01*
X15561953Y-11795086D01*
X15555016Y-11794256D01*
X15551601Y-11792073D01*
X15551337Y-11791837D01*
X15551337Y-11791836D01*
X15546195Y-11788100D01*
X15536023Y-11780710D01*
X15536023Y-11780710D01*
X15518731Y-11773011D01*
X15518730Y-11773010D01*
X15501127Y-11769269D01*
X15500215Y-11769075D01*
X15500214Y-11769075D01*
X15492860Y-11769075D01*
X15491403Y-11768989D01*
X15488289Y-11768621D01*
X15479062Y-11768851D01*
X15477609Y-11768908D01*
X15477555Y-11768911D01*
X15476092Y-11769011D01*
X15467568Y-11769717D01*
X15466100Y-11769860D01*
X15466023Y-11769868D01*
X15464380Y-11770081D01*
X15464376Y-11770081D01*
X15464375Y-11770081D01*
X15457263Y-11771119D01*
X15457263Y-11771119D01*
X15457261Y-11771119D01*
X15455795Y-11771355D01*
X15455732Y-11771366D01*
X15454402Y-11771618D01*
X15448209Y-11772880D01*
X15447419Y-11773048D01*
X15447383Y-11773056D01*
X15446498Y-11773260D01*
X15440735Y-11774641D01*
X15440735Y-11774642D01*
X15436014Y-11775773D01*
X15435599Y-11775865D01*
X15432152Y-11776568D01*
X15431466Y-11776687D01*
X15428930Y-11777057D01*
X15427978Y-11777196D01*
X15427212Y-11777284D01*
X15422385Y-11777683D01*
X15421673Y-11777721D01*
X15414165Y-11777909D01*
X15414161Y-11777910D01*
X15409109Y-11778276D01*
X15407366Y-11778422D01*
X15400736Y-11778422D01*
X15398612Y-11778239D01*
X15396724Y-11777911D01*
X15390958Y-11777741D01*
X15390026Y-11777678D01*
X15388641Y-11777533D01*
X15384096Y-11776139D01*
X15383440Y-11775788D01*
X15382836Y-11775466D01*
X15382540Y-11775302D01*
X15381381Y-11774642D01*
X15378166Y-11772809D01*
X15377632Y-11772509D01*
X15371785Y-11769269D01*
X15370925Y-11768803D01*
X15370907Y-11768794D01*
X15370892Y-11768786D01*
X15370050Y-11768351D01*
X15363083Y-11764829D01*
X15363083Y-11764829D01*
X15361926Y-11764262D01*
X15361876Y-11764239D01*
X15361876Y-11764238D01*
X15361874Y-11764238D01*
X15360754Y-11763723D01*
X15353301Y-11760412D01*
X15352747Y-11760170D01*
X15352739Y-11760166D01*
X15352735Y-11760165D01*
X15352710Y-11760154D01*
X15352709Y-11760154D01*
X15352709Y-11760153D01*
X15346821Y-11758025D01*
X15345993Y-11757691D01*
X15344356Y-11756963D01*
X15330839Y-11754089D01*
X15325841Y-11753027D01*
X15306912Y-11753027D01*
X15303666Y-11753717D01*
X15288396Y-11756963D01*
X15288395Y-11756963D01*
X15271103Y-11764662D01*
X15271103Y-11764662D01*
X15255789Y-11775788D01*
X15243123Y-11789856D01*
X15240557Y-11794300D01*
X15235500Y-11799122D01*
X15229818Y-11800500D01*
X15117008Y-11800500D01*
X15110304Y-11798531D01*
X15105728Y-11793251D01*
X15105030Y-11791310D01*
X15102378Y-11781411D01*
X15101973Y-11780710D01*
X15100568Y-11778276D01*
X15094801Y-11768288D01*
X15084086Y-11757573D01*
X15076212Y-11753027D01*
X15070964Y-11749997D01*
X15063645Y-11748036D01*
X15056327Y-11746075D01*
X15041173Y-11746075D01*
X15026536Y-11749997D01*
X15013413Y-11757573D01*
X15013413Y-11757574D01*
X15002699Y-11768288D01*
X15002698Y-11768288D01*
X14995122Y-11781411D01*
X14994031Y-11785482D01*
X14992470Y-11791309D01*
X14988833Y-11797275D01*
X14982549Y-11800328D01*
X14980492Y-11800500D01*
X14807770Y-11800500D01*
X14801066Y-11798531D01*
X14796491Y-11793251D01*
X14795370Y-11788100D01*
X14795370Y-11679294D01*
X14797338Y-11672590D01*
X14802619Y-11668015D01*
X14809535Y-11667020D01*
X14813089Y-11668251D01*
X14813133Y-11668151D01*
X14831019Y-11676114D01*
X14831020Y-11676114D01*
X14849535Y-11680050D01*
X14849535Y-11680050D01*
X14868464Y-11680050D01*
X14868465Y-11680050D01*
X14886980Y-11676114D01*
X14904273Y-11668415D01*
X14919587Y-11657289D01*
X14932253Y-11643222D01*
X14941718Y-11626828D01*
X14947567Y-11608826D01*
X14949546Y-11590000D01*
X14949126Y-11586000D01*
X15722454Y-11586000D01*
X15724433Y-11604826D01*
X15724433Y-11604826D01*
X15730282Y-11622828D01*
X15730282Y-11622828D01*
X15739747Y-11639222D01*
X15752413Y-11653289D01*
X15767726Y-11664415D01*
X15767727Y-11664415D01*
X15785019Y-11672114D01*
X15785020Y-11672114D01*
X15803535Y-11676050D01*
X15803535Y-11676050D01*
X15822464Y-11676050D01*
X15822465Y-11676050D01*
X15840980Y-11672114D01*
X15858273Y-11664415D01*
X15873587Y-11653289D01*
X15886253Y-11639222D01*
X15895718Y-11622828D01*
X15901567Y-11604826D01*
X15903546Y-11586000D01*
X15901567Y-11567174D01*
X15895718Y-11549172D01*
X15886253Y-11532778D01*
X15873587Y-11518711D01*
X15873587Y-11518711D01*
X15858273Y-11507585D01*
X15858273Y-11507585D01*
X15840981Y-11499886D01*
X15840980Y-11499885D01*
X15826400Y-11496786D01*
X15822465Y-11495950D01*
X15803535Y-11495950D01*
X15800290Y-11496640D01*
X15785020Y-11499885D01*
X15785019Y-11499886D01*
X15767727Y-11507585D01*
X15767726Y-11507585D01*
X15752413Y-11518711D01*
X15739747Y-11532778D01*
X15730282Y-11549171D01*
X15730282Y-11549172D01*
X15724433Y-11567174D01*
X15724433Y-11567174D01*
X15722454Y-11586000D01*
X14949126Y-11586000D01*
X14947567Y-11571174D01*
X14941718Y-11553172D01*
X14932253Y-11536778D01*
X14919587Y-11522711D01*
X14914082Y-11518711D01*
X14904273Y-11511585D01*
X14904273Y-11511585D01*
X14886981Y-11503886D01*
X14886980Y-11503885D01*
X14872021Y-11500706D01*
X14868465Y-11499950D01*
X14849535Y-11499950D01*
X14846290Y-11500640D01*
X14831020Y-11503885D01*
X14831019Y-11503886D01*
X14813133Y-11511849D01*
X14813052Y-11511667D01*
X14807179Y-11513092D01*
X14800576Y-11510806D01*
X14796258Y-11505313D01*
X14795370Y-11500706D01*
X14795370Y-11445900D01*
X14797338Y-11439196D01*
X14802619Y-11434621D01*
X14807770Y-11433500D01*
X15229822Y-11433500D01*
X15236525Y-11435468D01*
X15240560Y-11439700D01*
X15241198Y-11440805D01*
X15241367Y-11441097D01*
X15254033Y-11455164D01*
X15269346Y-11466290D01*
X15269347Y-11466290D01*
X15286639Y-11473989D01*
X15286640Y-11473989D01*
X15305155Y-11477925D01*
X15305155Y-11477925D01*
X15324084Y-11477925D01*
X15324085Y-11477925D01*
X15342600Y-11473989D01*
X15359893Y-11466290D01*
X15375207Y-11455164D01*
X15387873Y-11441097D01*
X15388408Y-11440170D01*
X15388680Y-11439700D01*
X15393737Y-11434878D01*
X15399418Y-11433500D01*
X15677370Y-11433500D01*
X15677370Y-11087633D01*
X15679338Y-11080929D01*
X15679850Y-11080193D01*
X15809003Y-10907989D01*
X15823650Y-10888460D01*
X15829247Y-10884278D01*
X15833570Y-10883500D01*
X15913412Y-10883500D01*
X15920116Y-10885469D01*
G37*
%TD.AperFunction*%
%TD*%
%TA.AperFunction,Conductor*%
%TO.N,/Micro/SWP{slash}SD3*%
G36*
X16527938Y-8603868D02*
G01*
X16528557Y-8604475D01*
X16530821Y-8609603D01*
X16533329Y-8614663D01*
X16533329Y-8614663D01*
X16535603Y-8618900D01*
X16537621Y-8622598D01*
X16537638Y-8622630D01*
X16539373Y-8626057D01*
X16539408Y-8626133D01*
X16540847Y-8629573D01*
X16540886Y-8629681D01*
X16542029Y-8633448D01*
X16542059Y-8633569D01*
X16542900Y-8637978D01*
X16542915Y-8638084D01*
X16543436Y-8643441D01*
X16543441Y-8643523D01*
X16543588Y-8648958D01*
X16543267Y-8649794D01*
X16542450Y-8650159D01*
X16542418Y-8650160D01*
X16529434Y-8650160D01*
X16528607Y-8649817D01*
X16528271Y-8649111D01*
X16527904Y-8645598D01*
X16527904Y-8645598D01*
X16527904Y-8645598D01*
X16527105Y-8643768D01*
X16526542Y-8642477D01*
X16524391Y-8640519D01*
X16524390Y-8640518D01*
X16521549Y-8639446D01*
X16521548Y-8639446D01*
X16518111Y-8638982D01*
X16518110Y-8638982D01*
X16514181Y-8638850D01*
X16509875Y-8638773D01*
X16509821Y-8638770D01*
X16505271Y-8638476D01*
X16505155Y-8638462D01*
X16500460Y-8637687D01*
X16500296Y-8637647D01*
X16496644Y-8636483D01*
X16495959Y-8635905D01*
X16495884Y-8635013D01*
X16495917Y-8634923D01*
X16504814Y-8613351D01*
X16505446Y-8612717D01*
X16527043Y-8603865D01*
X16527938Y-8603868D01*
G37*
%TD.AperFunction*%
%TD*%
%TA.AperFunction,Conductor*%
%TO.N,/Micro/RTS*%
G36*
X15740763Y-9752000D02*
G01*
X15740776Y-9752031D01*
X15755532Y-9787425D01*
X15755534Y-9788320D01*
X15755532Y-9788325D01*
X15740776Y-9823718D01*
X15740141Y-9824350D01*
X15739246Y-9824348D01*
X15739215Y-9824335D01*
X15731704Y-9820944D01*
X15731638Y-9820912D01*
X15724664Y-9817220D01*
X15724612Y-9817191D01*
X15718797Y-9813719D01*
X15718773Y-9813704D01*
X15713697Y-9810504D01*
X15708954Y-9807640D01*
X15708953Y-9807640D01*
X15708953Y-9807640D01*
X15706595Y-9806434D01*
X15704130Y-9805172D01*
X15698805Y-9803156D01*
X15692560Y-9801648D01*
X15692560Y-9801648D01*
X15692560Y-9801648D01*
X15684972Y-9800702D01*
X15684972Y-9800702D01*
X15684971Y-9800702D01*
X15676749Y-9800415D01*
X15675934Y-9800043D01*
X15675620Y-9799245D01*
X15675620Y-9776505D01*
X15675963Y-9775677D01*
X15676749Y-9775335D01*
X15684972Y-9775048D01*
X15692560Y-9774102D01*
X15698805Y-9772594D01*
X15704129Y-9770578D01*
X15708953Y-9768110D01*
X15713698Y-9765245D01*
X15718780Y-9762041D01*
X15718790Y-9762035D01*
X15724614Y-9758558D01*
X15724661Y-9758531D01*
X15731639Y-9754837D01*
X15731703Y-9754806D01*
X15739215Y-9751415D01*
X15740110Y-9751387D01*
X15740763Y-9752000D01*
G37*
%TD.AperFunction*%
%TD*%
%TA.AperFunction,Conductor*%
%TO.N,/Micro/SDO{slash}SD0*%
G36*
X16544765Y-9471055D02*
G01*
X16553945Y-9480235D01*
X16554288Y-9481062D01*
X16553974Y-9481859D01*
X16550753Y-9485320D01*
X16550753Y-9485320D01*
X16547826Y-9489101D01*
X16547826Y-9489102D01*
X16545747Y-9492543D01*
X16545747Y-9492543D01*
X16544305Y-9495801D01*
X16543286Y-9499040D01*
X16542480Y-9502415D01*
X16541672Y-9506086D01*
X16541665Y-9506116D01*
X16540651Y-9510215D01*
X16540634Y-9510275D01*
X16539202Y-9514977D01*
X16539178Y-9515048D01*
X16537522Y-9519441D01*
X16536909Y-9520094D01*
X16536014Y-9520123D01*
X16535983Y-9520111D01*
X16514382Y-9511256D01*
X16513747Y-9510626D01*
X16513743Y-9510618D01*
X16513591Y-9510245D01*
X16504889Y-9489017D01*
X16504893Y-9488121D01*
X16505528Y-9487491D01*
X16505557Y-9487479D01*
X16509953Y-9485822D01*
X16510022Y-9485798D01*
X16514725Y-9484365D01*
X16514783Y-9484349D01*
X16518885Y-9483335D01*
X16518913Y-9483328D01*
X16522580Y-9482521D01*
X16523783Y-9482233D01*
X16525959Y-9481713D01*
X16526189Y-9481641D01*
X16529198Y-9480695D01*
X16532457Y-9479253D01*
X16535898Y-9477174D01*
X16539681Y-9474246D01*
X16543141Y-9471025D01*
X16543980Y-9470713D01*
X16544765Y-9471055D01*
G37*
%TD.AperFunction*%
%TD*%
%TA.AperFunction,Conductor*%
%TO.N,/Micro/SCS{slash}CMD*%
G36*
X16585440Y-8654358D02*
G01*
X16607048Y-8663215D01*
X16607684Y-8663846D01*
X16607686Y-8663851D01*
X16616576Y-8685406D01*
X16616574Y-8686301D01*
X16615940Y-8686934D01*
X16615834Y-8686972D01*
X16611811Y-8688194D01*
X16611618Y-8688235D01*
X16606504Y-8688882D01*
X16606367Y-8688892D01*
X16601373Y-8688931D01*
X16601301Y-8688929D01*
X16596542Y-8688671D01*
X16596541Y-8688671D01*
X16592162Y-8688439D01*
X16592162Y-8688439D01*
X16588318Y-8688565D01*
X16585125Y-8689376D01*
X16585125Y-8689376D01*
X16582700Y-8691201D01*
X16581159Y-8694370D01*
X16580736Y-8698169D01*
X16580304Y-8698954D01*
X16579573Y-8699210D01*
X16566600Y-8699210D01*
X16565773Y-8698867D01*
X16565430Y-8698040D01*
X16565431Y-8697991D01*
X16565584Y-8694370D01*
X16565656Y-8692648D01*
X16565668Y-8692528D01*
X16566445Y-8687325D01*
X16566478Y-8687174D01*
X16566729Y-8686301D01*
X16567690Y-8682968D01*
X16567746Y-8682814D01*
X16569341Y-8679261D01*
X16569405Y-8679138D01*
X16571348Y-8675902D01*
X16571390Y-8675838D01*
X16573647Y-8672599D01*
X16576150Y-8669076D01*
X16578816Y-8664996D01*
X16581587Y-8660050D01*
X16583934Y-8654951D01*
X16584591Y-8654343D01*
X16585440Y-8654358D01*
G37*
%TD.AperFunction*%
%TD*%
%TA.AperFunction,Conductor*%
%TO.N,MCLK*%
G36*
X16106337Y-9023934D02*
G01*
X16111233Y-9019726D01*
X16115721Y-9017223D01*
X16119474Y-9016239D01*
X16123079Y-9016258D01*
X16130853Y-9018980D01*
X16137732Y-9023050D01*
X16148663Y-9029308D01*
X16155157Y-9032030D01*
X16162551Y-9034056D01*
X16170426Y-8994754D01*
X16148132Y-8961566D01*
X16135830Y-8970358D01*
X16127269Y-8977681D01*
X16115405Y-8990980D01*
X16107351Y-9000603D01*
X16095561Y-9013158D01*
X16106337Y-9023934D01*
G37*
%TD.AperFunction*%
%TD*%
%TA.AperFunction,Conductor*%
%TO.N,+3V3*%
G36*
X15080014Y-8932936D02*
G01*
X15089302Y-8942893D01*
X15095663Y-8951109D01*
X15103658Y-8965359D01*
X15104540Y-8967201D01*
X15110377Y-8978814D01*
X15119741Y-8994223D01*
X15153071Y-8972071D01*
X15175223Y-8938741D01*
X15151343Y-8924214D01*
X15135626Y-8914476D01*
X15126909Y-8907409D01*
X15115935Y-8897015D01*
X15080014Y-8932936D01*
G37*
%TD.AperFunction*%
%TD*%
%TA.AperFunction,Conductor*%
%TO.N,+3V3*%
G36*
X16051405Y-8362268D02*
G01*
X16085732Y-8396595D01*
X16086074Y-8397422D01*
X16085762Y-8398218D01*
X16079024Y-8405475D01*
X16073438Y-8412630D01*
X16069295Y-8419085D01*
X16069295Y-8419086D01*
X16066111Y-8425077D01*
X16063407Y-8430838D01*
X16060715Y-8436572D01*
X16060689Y-8436623D01*
X16057541Y-8442548D01*
X16057492Y-8442631D01*
X16053404Y-8449001D01*
X16053341Y-8449089D01*
X16047820Y-8456162D01*
X16047755Y-8456238D01*
X16041108Y-8463397D01*
X16040294Y-8463770D01*
X16039455Y-8463458D01*
X16039426Y-8463430D01*
X16039392Y-8463397D01*
X16011929Y-8436071D01*
X15984570Y-8408574D01*
X15984229Y-8407746D01*
X15984574Y-8406920D01*
X15984601Y-8406893D01*
X15991763Y-8400243D01*
X15991836Y-8400182D01*
X15998912Y-8394658D01*
X15998998Y-8394597D01*
X16005369Y-8390507D01*
X16005452Y-8390459D01*
X16011380Y-8387309D01*
X16011425Y-8387286D01*
X16017162Y-8384593D01*
X16022922Y-8381889D01*
X16028914Y-8378705D01*
X16035371Y-8374561D01*
X16042525Y-8368976D01*
X16049782Y-8362238D01*
X16050621Y-8361926D01*
X16051405Y-8362268D01*
G37*
%TD.AperFunction*%
%TD*%
%TA.AperFunction,Conductor*%
%TO.N,/Micro/UART_TX*%
G36*
X15148371Y-9093136D02*
G01*
X15148409Y-9093152D01*
X15155993Y-9096634D01*
X15156072Y-9096674D01*
X15163064Y-9100560D01*
X15163126Y-9100598D01*
X15168913Y-9104332D01*
X15168943Y-9104353D01*
X15173642Y-9107637D01*
X15173975Y-9107870D01*
X15177874Y-9110535D01*
X15178655Y-9111068D01*
X15183420Y-9113868D01*
X15188700Y-9116186D01*
X15188701Y-9116186D01*
X15188701Y-9116186D01*
X15194934Y-9117941D01*
X15199951Y-9118673D01*
X15202555Y-9119053D01*
X15210879Y-9119395D01*
X15211691Y-9119772D01*
X15212001Y-9120564D01*
X15212001Y-9138639D01*
X15211658Y-9139466D01*
X15210879Y-9139808D01*
X15202555Y-9140150D01*
X15194934Y-9141262D01*
X15188701Y-9143017D01*
X15183419Y-9145335D01*
X15183418Y-9145335D01*
X15178655Y-9148134D01*
X15178654Y-9148135D01*
X15173975Y-9151333D01*
X15173975Y-9151333D01*
X15168944Y-9154850D01*
X15168909Y-9154874D01*
X15163129Y-9158604D01*
X15163063Y-9158643D01*
X15156074Y-9162529D01*
X15155993Y-9162569D01*
X15148409Y-9166051D01*
X15147515Y-9166085D01*
X15146858Y-9165476D01*
X15146841Y-9165438D01*
X15142437Y-9154874D01*
X15132088Y-9130052D01*
X15132086Y-9129157D01*
X15146841Y-9093765D01*
X15147476Y-9093133D01*
X15148371Y-9093136D01*
G37*
%TD.AperFunction*%
%TD*%
%TA.AperFunction,Conductor*%
%TO.N,/Micro/UART_RX*%
G36*
X17328143Y-8212126D02*
G01*
X17328159Y-8212163D01*
X17342912Y-8247550D01*
X17342914Y-8248445D01*
X17342912Y-8248450D01*
X17328159Y-8283836D01*
X17327524Y-8284468D01*
X17326629Y-8284466D01*
X17326591Y-8284449D01*
X17319008Y-8280968D01*
X17318927Y-8280927D01*
X17311937Y-8277042D01*
X17311873Y-8277003D01*
X17306092Y-8273272D01*
X17306056Y-8273248D01*
X17301026Y-8269732D01*
X17301026Y-8269732D01*
X17296347Y-8266534D01*
X17296346Y-8266534D01*
X17296346Y-8266533D01*
X17295409Y-8265982D01*
X17291582Y-8263734D01*
X17291581Y-8263733D01*
X17291581Y-8263733D01*
X17291581Y-8263733D01*
X17286300Y-8261415D01*
X17286300Y-8261415D01*
X17286299Y-8261415D01*
X17280067Y-8259660D01*
X17272445Y-8258548D01*
X17264122Y-8258206D01*
X17263309Y-8257830D01*
X17263000Y-8257037D01*
X17263000Y-8238963D01*
X17263343Y-8238135D01*
X17264122Y-8237794D01*
X17272446Y-8237451D01*
X17276351Y-8236882D01*
X17280067Y-8236340D01*
X17286299Y-8234585D01*
X17286299Y-8234584D01*
X17286300Y-8234584D01*
X17291581Y-8232267D01*
X17296346Y-8229467D01*
X17298717Y-8227846D01*
X17301026Y-8226268D01*
X17301358Y-8226035D01*
X17306057Y-8222751D01*
X17306088Y-8222731D01*
X17311875Y-8218995D01*
X17311935Y-8218959D01*
X17318929Y-8215071D01*
X17319006Y-8215033D01*
X17326591Y-8211550D01*
X17327486Y-8211517D01*
X17328143Y-8212126D01*
G37*
%TD.AperFunction*%
%TD*%
%TA.AperFunction,Conductor*%
%TO.N,+3V3*%
G36*
X14953545Y-7921542D02*
G01*
X14953574Y-7921569D01*
X14960802Y-7928762D01*
X14981071Y-7948929D01*
X14981075Y-7948933D01*
X15008430Y-7976426D01*
X15008771Y-7977254D01*
X15008426Y-7978080D01*
X15008397Y-7978108D01*
X15001238Y-7984755D01*
X15001162Y-7984820D01*
X14994089Y-7990341D01*
X14994001Y-7990404D01*
X14987631Y-7994492D01*
X14987548Y-7994541D01*
X14981623Y-7997689D01*
X14981572Y-7997715D01*
X14975838Y-8000407D01*
X14970078Y-8003111D01*
X14970078Y-8003111D01*
X14970077Y-8003111D01*
X14964086Y-8006295D01*
X14964085Y-8006295D01*
X14957630Y-8010438D01*
X14950475Y-8016024D01*
X14943218Y-8022762D01*
X14942379Y-8023074D01*
X14941595Y-8022732D01*
X14907268Y-7988405D01*
X14906925Y-7987578D01*
X14907238Y-7986782D01*
X14913976Y-7979525D01*
X14919561Y-7972371D01*
X14923705Y-7965914D01*
X14926889Y-7959922D01*
X14929593Y-7954162D01*
X14932286Y-7948425D01*
X14932309Y-7948380D01*
X14935459Y-7942451D01*
X14935507Y-7942369D01*
X14939597Y-7935998D01*
X14939658Y-7935912D01*
X14945181Y-7928836D01*
X14945243Y-7928763D01*
X14951892Y-7921603D01*
X14952706Y-7921230D01*
X14953545Y-7921542D01*
G37*
%TD.AperFunction*%
%TD*%
%TA.AperFunction,Conductor*%
%TO.N,/Micro/UART_RX*%
G36*
X15023674Y-9141180D02*
G01*
X15024306Y-9141814D01*
X15024340Y-9141907D01*
X15026506Y-9148738D01*
X15026546Y-9148905D01*
X15027804Y-9156722D01*
X15027817Y-9156839D01*
X15028257Y-9164385D01*
X15028259Y-9164441D01*
X15028329Y-9171545D01*
X15028484Y-9178041D01*
X15028484Y-9178041D01*
X15029184Y-9183714D01*
X15030889Y-9188408D01*
X15030889Y-9188408D01*
X15030889Y-9188408D01*
X15034059Y-9191962D01*
X15034059Y-9191962D01*
X15039156Y-9194213D01*
X15045590Y-9194890D01*
X15046377Y-9195317D01*
X15046637Y-9196053D01*
X15046637Y-9214125D01*
X15046295Y-9214953D01*
X15045467Y-9215295D01*
X15045443Y-9215295D01*
X15036045Y-9215098D01*
X15035980Y-9215095D01*
X15027339Y-9214434D01*
X15027251Y-9214424D01*
X15020085Y-9213326D01*
X15019980Y-9213304D01*
X15013821Y-9211771D01*
X15013716Y-9211739D01*
X15008089Y-9209764D01*
X15008009Y-9209732D01*
X15002440Y-9207302D01*
X15002398Y-9207282D01*
X14996429Y-9204389D01*
X14996422Y-9204385D01*
X14993762Y-9203075D01*
X14989606Y-9201028D01*
X14987690Y-9200125D01*
X14981516Y-9197218D01*
X14972746Y-9193412D01*
X14972123Y-9192768D01*
X14972129Y-9191894D01*
X14986715Y-9156450D01*
X14987346Y-9155816D01*
X14987347Y-9155815D01*
X15022778Y-9141179D01*
X15023674Y-9141180D01*
G37*
%TD.AperFunction*%
%TD*%
%TA.AperFunction,Conductor*%
%TO.N,/Micro/DTR*%
G36*
X15271140Y-9498129D02*
G01*
X15271171Y-9498196D01*
X15285884Y-9533621D01*
X15285885Y-9534517D01*
X15285883Y-9534520D01*
X15271139Y-9569884D01*
X15270504Y-9570516D01*
X15269618Y-9570518D01*
X15260595Y-9566846D01*
X15252182Y-9563490D01*
X15252174Y-9563487D01*
X15245090Y-9560599D01*
X15245058Y-9560586D01*
X15241420Y-9558976D01*
X15238968Y-9557891D01*
X15238912Y-9557864D01*
X15236563Y-9556665D01*
X15233455Y-9555079D01*
X15233378Y-9555036D01*
X15228190Y-9551876D01*
X15228113Y-9551824D01*
X15222825Y-9547996D01*
X15222762Y-9547947D01*
X15217008Y-9543156D01*
X15216965Y-9543118D01*
X15210394Y-9537076D01*
X15210367Y-9537050D01*
X15203463Y-9530291D01*
X15203112Y-9529467D01*
X15203446Y-9528636D01*
X15219825Y-9512257D01*
X15220652Y-9511914D01*
X15221400Y-9512184D01*
X15224708Y-9514931D01*
X15225813Y-9515849D01*
X15230559Y-9518039D01*
X15232328Y-9518182D01*
X15234982Y-9518398D01*
X15234982Y-9518398D01*
X15234982Y-9518398D01*
X15239246Y-9517254D01*
X15243516Y-9514931D01*
X15247955Y-9511756D01*
X15252724Y-9508057D01*
X15252733Y-9508050D01*
X15257967Y-9504175D01*
X15258033Y-9504129D01*
X15263879Y-9500407D01*
X15263989Y-9500345D01*
X15269574Y-9497595D01*
X15270467Y-9497538D01*
X15271140Y-9498129D01*
G37*
%TD.AperFunction*%
%TD*%
%TA.AperFunction,Conductor*%
%TO.N,+3V3*%
G36*
X17350038Y-8561616D02*
G01*
X17350104Y-8561688D01*
X17352306Y-8564299D01*
X17354695Y-8567132D01*
X17354805Y-8567286D01*
X17358614Y-8573665D01*
X17358682Y-8573798D01*
X17361414Y-8580080D01*
X17361446Y-8580162D01*
X17363553Y-8586204D01*
X17363554Y-8586209D01*
X17363555Y-8586209D01*
X17365484Y-8591826D01*
X17367678Y-8596801D01*
X17370599Y-8600965D01*
X17374706Y-8604149D01*
X17377584Y-8605167D01*
X17380462Y-8606184D01*
X17387261Y-8606803D01*
X17388054Y-8607219D01*
X17388325Y-8607968D01*
X17388325Y-8631118D01*
X17387983Y-8631945D01*
X17387155Y-8632288D01*
X17387143Y-8632288D01*
X17379178Y-8632208D01*
X17379150Y-8632207D01*
X17371629Y-8631957D01*
X17371600Y-8631956D01*
X17365302Y-8631588D01*
X17365275Y-8631586D01*
X17359785Y-8631139D01*
X17359769Y-8631138D01*
X17354663Y-8630650D01*
X17349548Y-8630161D01*
X17344037Y-8629713D01*
X17344036Y-8629713D01*
X17344035Y-8629713D01*
X17343503Y-8629682D01*
X17337711Y-8629343D01*
X17332271Y-8629162D01*
X17330165Y-8629092D01*
X17330164Y-8629092D01*
X17330161Y-8629092D01*
X17322155Y-8629012D01*
X17321332Y-8628661D01*
X17320997Y-8627845D01*
X17320946Y-8607219D01*
X17320901Y-8589487D01*
X17321242Y-8588659D01*
X17348384Y-8561613D01*
X17349212Y-8561272D01*
X17350038Y-8561616D01*
G37*
%TD.AperFunction*%
%TD*%
%TA.AperFunction,Conductor*%
%TO.N,+3V3*%
G36*
X17313720Y-9260218D02*
G01*
X17314062Y-9261002D01*
X17314429Y-9270898D01*
X17315538Y-9279906D01*
X17315539Y-9279906D01*
X17317022Y-9286704D01*
X17317174Y-9287401D01*
X17319159Y-9293890D01*
X17319160Y-9293892D01*
X17319160Y-9293892D01*
X17321320Y-9299875D01*
X17323471Y-9305833D01*
X17323489Y-9305887D01*
X17325452Y-9312303D01*
X17325477Y-9312396D01*
X17327090Y-9319792D01*
X17327108Y-9319899D01*
X17328205Y-9328802D01*
X17328213Y-9328902D01*
X17328575Y-9338665D01*
X17328263Y-9339504D01*
X17327449Y-9339877D01*
X17327409Y-9339878D01*
X17288623Y-9339975D01*
X17288617Y-9339975D01*
X17249831Y-9339878D01*
X17249005Y-9339533D01*
X17248664Y-9338705D01*
X17248665Y-9338670D01*
X17249027Y-9328900D01*
X17249035Y-9328804D01*
X17250132Y-9319897D01*
X17250150Y-9319794D01*
X17251764Y-9312394D01*
X17251787Y-9312305D01*
X17253751Y-9305885D01*
X17253768Y-9305835D01*
X17255920Y-9299875D01*
X17258081Y-9293890D01*
X17260066Y-9287401D01*
X17261702Y-9279905D01*
X17262811Y-9270898D01*
X17263178Y-9261002D01*
X17263551Y-9260188D01*
X17264347Y-9259875D01*
X17312893Y-9259875D01*
X17313720Y-9260218D01*
G37*
%TD.AperFunction*%
%TD*%
%TA.AperFunction,Conductor*%
%TO.N,+3V3*%
G36*
X16759039Y-7729825D02*
G01*
X16759399Y-7730645D01*
X16759400Y-7730670D01*
X16759400Y-7779182D01*
X16759057Y-7780009D01*
X16758309Y-7780349D01*
X16750575Y-7780875D01*
X16750574Y-7780875D01*
X16750574Y-7780875D01*
X16750574Y-7780875D01*
X16750573Y-7780876D01*
X16743675Y-7782560D01*
X16738239Y-7785152D01*
X16738239Y-7785152D01*
X16733804Y-7788477D01*
X16733803Y-7788478D01*
X16729909Y-7792357D01*
X16729906Y-7792360D01*
X16726098Y-7796608D01*
X16726078Y-7796629D01*
X16721914Y-7801049D01*
X16721840Y-7801121D01*
X16716877Y-7805533D01*
X16716759Y-7805624D01*
X16710520Y-7809883D01*
X16710378Y-7809966D01*
X16703425Y-7813402D01*
X16702532Y-7813462D01*
X16701858Y-7812872D01*
X16701828Y-7812805D01*
X16686990Y-7777217D01*
X16686900Y-7776765D01*
X16686997Y-7738142D01*
X16687342Y-7737316D01*
X16688142Y-7736976D01*
X16696888Y-7736789D01*
X16705011Y-7736217D01*
X16711810Y-7735375D01*
X16717725Y-7734351D01*
X16723200Y-7733237D01*
X16728664Y-7732126D01*
X16728683Y-7732122D01*
X16734566Y-7731104D01*
X16734615Y-7731097D01*
X16741359Y-7730261D01*
X16741418Y-7730255D01*
X16749486Y-7729687D01*
X16749537Y-7729685D01*
X16758205Y-7729500D01*
X16759039Y-7729825D01*
G37*
%TD.AperFunction*%
%TD*%
%TA.AperFunction,Conductor*%
%TO.N,+3V3*%
G36*
X16055859Y-7676850D02*
G01*
X16056491Y-7677485D01*
X16056489Y-7678380D01*
X16056482Y-7678396D01*
X16053275Y-7685773D01*
X16053260Y-7685807D01*
X16049968Y-7692767D01*
X16049958Y-7692787D01*
X16047045Y-7698657D01*
X16047043Y-7698660D01*
X16044509Y-7703833D01*
X16044508Y-7703834D01*
X16042361Y-7708689D01*
X16040600Y-7713623D01*
X16039229Y-7719027D01*
X16038249Y-7725295D01*
X16038248Y-7725297D01*
X16037659Y-7732820D01*
X16037659Y-7732825D01*
X16037487Y-7740855D01*
X16037127Y-7741675D01*
X16036317Y-7742000D01*
X16003683Y-7742000D01*
X16002855Y-7741657D01*
X16002513Y-7740855D01*
X16002341Y-7732825D01*
X16002341Y-7732824D01*
X16002341Y-7732822D01*
X16001751Y-7725296D01*
X16000770Y-7719027D01*
X15999399Y-7713623D01*
X15997639Y-7708689D01*
X15995491Y-7703833D01*
X15992956Y-7698660D01*
X15990041Y-7692787D01*
X15990032Y-7692767D01*
X15986739Y-7685807D01*
X15986724Y-7685773D01*
X15983518Y-7678396D01*
X15983503Y-7677501D01*
X15984125Y-7676857D01*
X15984133Y-7676854D01*
X16019550Y-7662087D01*
X16020445Y-7662085D01*
X16055859Y-7676850D01*
G37*
%TD.AperFunction*%
%TD*%
%TA.AperFunction,Conductor*%
%TO.N,/Micro/SCS{slash}CMD*%
G36*
X16394318Y-9463343D02*
G01*
X16394660Y-9464128D01*
X16394829Y-9468851D01*
X16394830Y-9468853D01*
X16395434Y-9473596D01*
X16395434Y-9473598D01*
X16396397Y-9477499D01*
X16396398Y-9477501D01*
X16397682Y-9480824D01*
X16399252Y-9483834D01*
X16401070Y-9486794D01*
X16403092Y-9489957D01*
X16403108Y-9489983D01*
X16405291Y-9493601D01*
X16405320Y-9493651D01*
X16407632Y-9497991D01*
X16407666Y-9498059D01*
X16409601Y-9502336D01*
X16409629Y-9503231D01*
X16409017Y-9503884D01*
X16408986Y-9503898D01*
X16387452Y-9512911D01*
X16386556Y-9512914D01*
X16386548Y-9512911D01*
X16365013Y-9503898D01*
X16364382Y-9503262D01*
X16364386Y-9502367D01*
X16364397Y-9502341D01*
X16366335Y-9498058D01*
X16366366Y-9497993D01*
X16368680Y-9493651D01*
X16368706Y-9493605D01*
X16370896Y-9489977D01*
X16370903Y-9489965D01*
X16372929Y-9486795D01*
X16374748Y-9483834D01*
X16376318Y-9480824D01*
X16377603Y-9477500D01*
X16378566Y-9473598D01*
X16379170Y-9468852D01*
X16379340Y-9464128D01*
X16379712Y-9463314D01*
X16380509Y-9463000D01*
X16393491Y-9463000D01*
X16394318Y-9463343D01*
G37*
%TD.AperFunction*%
%TD*%
%TA.AperFunction,Conductor*%
%TO.N,/Micro/RTS*%
G36*
X14850911Y-9185816D02*
G01*
X14851543Y-9186450D01*
X14851563Y-9186502D01*
X14858179Y-9204983D01*
X14858213Y-9205097D01*
X14862420Y-9222137D01*
X14862441Y-9222241D01*
X14864734Y-9237273D01*
X14864743Y-9237340D01*
X14866009Y-9250899D01*
X14866009Y-9250904D01*
X14866009Y-9250904D01*
X14867131Y-9263495D01*
X14868996Y-9275588D01*
X14868996Y-9275589D01*
X14871093Y-9282855D01*
X14872492Y-9287699D01*
X14878509Y-9300337D01*
X14878510Y-9300337D01*
X14887938Y-9314015D01*
X14900923Y-9328419D01*
X14901222Y-9329263D01*
X14900881Y-9330030D01*
X14884775Y-9346136D01*
X14883947Y-9346479D01*
X14883164Y-9346178D01*
X14868759Y-9333193D01*
X14855082Y-9323765D01*
X14855082Y-9323765D01*
X14855082Y-9323764D01*
X14842444Y-9317747D01*
X14837600Y-9316348D01*
X14830334Y-9314251D01*
X14830333Y-9314251D01*
X14818240Y-9312387D01*
X14805649Y-9311264D01*
X14805649Y-9311264D01*
X14805644Y-9311264D01*
X14794402Y-9310214D01*
X14792085Y-9309998D01*
X14792018Y-9309989D01*
X14776986Y-9307696D01*
X14776882Y-9307675D01*
X14773060Y-9306732D01*
X14759842Y-9303469D01*
X14759728Y-9303434D01*
X14741247Y-9296818D01*
X14740584Y-9296217D01*
X14740540Y-9295323D01*
X14740559Y-9295273D01*
X14772364Y-9218253D01*
X14772996Y-9217620D01*
X14850015Y-9185815D01*
X14850911Y-9185816D01*
G37*
%TD.AperFunction*%
%TD*%
%TA.AperFunction,Conductor*%
%TO.N,+1V8*%
G36*
X15952002Y-10191381D02*
G01*
X15952014Y-10191386D01*
X15959357Y-10194538D01*
X15959380Y-10194548D01*
X15960824Y-10195205D01*
X15966332Y-10197710D01*
X15966338Y-10197717D01*
X15966340Y-10197714D01*
X15972234Y-10200452D01*
X15977427Y-10202770D01*
X15977428Y-10202771D01*
X15980244Y-10203876D01*
X15982314Y-10204688D01*
X15982315Y-10204688D01*
X15982316Y-10204689D01*
X15987279Y-10206221D01*
X15992706Y-10207385D01*
X15998981Y-10208196D01*
X16006490Y-10208670D01*
X16014470Y-10208806D01*
X16015291Y-10209162D01*
X16015620Y-10209975D01*
X16015620Y-10245775D01*
X16015277Y-10246602D01*
X16014470Y-10246944D01*
X16006492Y-10247079D01*
X16006490Y-10247079D01*
X16006490Y-10247080D01*
X16005386Y-10247149D01*
X15998982Y-10247554D01*
X15998981Y-10247554D01*
X15998981Y-10247554D01*
X15992706Y-10248365D01*
X15992705Y-10248365D01*
X15992704Y-10248365D01*
X15992703Y-10248365D01*
X15987280Y-10249529D01*
X15987279Y-10249529D01*
X15982317Y-10251060D01*
X15982314Y-10251062D01*
X15977430Y-10252978D01*
X15977427Y-10252980D01*
X15972234Y-10255298D01*
X15966340Y-10258036D01*
X15966332Y-10258040D01*
X15959382Y-10261201D01*
X15959359Y-10261211D01*
X15952014Y-10264364D01*
X15951118Y-10264375D01*
X15950477Y-10263750D01*
X15950472Y-10263739D01*
X15935707Y-10228325D01*
X15935705Y-10227430D01*
X15950472Y-10192011D01*
X15951107Y-10191379D01*
X15952002Y-10191381D01*
G37*
%TD.AperFunction*%
%TD*%
%TA.AperFunction,Conductor*%
%TO.N,+1V8*%
G36*
X16716753Y-9907462D02*
G01*
X16752241Y-9922066D01*
X16752876Y-9922697D01*
X16752878Y-9922702D01*
X16767479Y-9958184D01*
X16767477Y-9959079D01*
X16766842Y-9959711D01*
X16766831Y-9959716D01*
X16759409Y-9962680D01*
X16759386Y-9962689D01*
X16752235Y-9965368D01*
X16752226Y-9965372D01*
X16746123Y-9967603D01*
X16740812Y-9969635D01*
X16740811Y-9969636D01*
X16740810Y-9969636D01*
X16735998Y-9971736D01*
X16735998Y-9971736D01*
X16735998Y-9971736D01*
X16731405Y-9974162D01*
X16726744Y-9977176D01*
X16726744Y-9977177D01*
X16721735Y-9981040D01*
X16721733Y-9981041D01*
X16716089Y-9986014D01*
X16716088Y-9986015D01*
X16710351Y-9991561D01*
X16709518Y-9991890D01*
X16708710Y-9991547D01*
X16683396Y-9966234D01*
X16683054Y-9965406D01*
X16683382Y-9964593D01*
X16688097Y-9959716D01*
X16688929Y-9958855D01*
X16693904Y-9953209D01*
X16697767Y-9948199D01*
X16700782Y-9943539D01*
X16703208Y-9938946D01*
X16705307Y-9934134D01*
X16707342Y-9928819D01*
X16709572Y-9922717D01*
X16709573Y-9922718D01*
X16709575Y-9922709D01*
X16712258Y-9915548D01*
X16712262Y-9915540D01*
X16715228Y-9908112D01*
X16715853Y-9907471D01*
X16716749Y-9907460D01*
X16716753Y-9907462D01*
G37*
%TD.AperFunction*%
%TD*%
%TA.AperFunction,Conductor*%
%TO.N,Net-(J2-D+-PadA6)*%
G36*
X15332753Y-11806597D02*
G01*
X15332778Y-11806608D01*
X15340228Y-11809919D01*
X15340278Y-11809942D01*
X15347249Y-11813466D01*
X15347285Y-11813485D01*
X15353132Y-11816725D01*
X15358258Y-11819647D01*
X15363053Y-11822208D01*
X15363054Y-11822208D01*
X15363054Y-11822208D01*
X15367925Y-11824376D01*
X15367926Y-11824377D01*
X15369367Y-11824845D01*
X15373285Y-11826119D01*
X15373285Y-11826119D01*
X15373286Y-11826120D01*
X15379542Y-11827405D01*
X15387102Y-11828200D01*
X15395241Y-11828439D01*
X15396057Y-11828806D01*
X15396376Y-11829608D01*
X15396376Y-11856546D01*
X15396034Y-11857373D01*
X15395241Y-11857715D01*
X15387102Y-11857954D01*
X15387101Y-11857954D01*
X15379543Y-11858749D01*
X15379542Y-11858749D01*
X15379542Y-11858749D01*
X15373942Y-11859900D01*
X15373286Y-11860035D01*
X15373285Y-11860035D01*
X15367928Y-11861777D01*
X15367926Y-11861778D01*
X15363053Y-11863946D01*
X15358258Y-11866507D01*
X15353138Y-11869426D01*
X15353125Y-11869433D01*
X15347286Y-11872668D01*
X15347247Y-11872689D01*
X15340280Y-11876211D01*
X15340227Y-11876236D01*
X15332778Y-11879546D01*
X15331883Y-11879569D01*
X15331233Y-11878952D01*
X15331223Y-11878927D01*
X15324977Y-11863946D01*
X15316464Y-11843527D01*
X15316462Y-11842632D01*
X15331223Y-11807227D01*
X15331857Y-11806595D01*
X15332753Y-11806597D01*
G37*
%TD.AperFunction*%
%TD*%
%TA.AperFunction,Conductor*%
%TO.N,Net-(J2-D--PadA7)*%
G36*
X15237580Y-11989995D02*
G01*
X15237612Y-11990009D01*
X15245077Y-11993397D01*
X15245147Y-11993432D01*
X15252070Y-11997156D01*
X15252123Y-11997187D01*
X15256388Y-11999800D01*
X15257881Y-12000715D01*
X15257909Y-12000732D01*
X15262926Y-12004006D01*
X15267613Y-12006957D01*
X15272379Y-12009512D01*
X15277646Y-12011608D01*
X15283837Y-12013184D01*
X15283837Y-12013184D01*
X15283838Y-12013184D01*
X15286157Y-12013489D01*
X15291373Y-12014175D01*
X15299552Y-12014478D01*
X15300366Y-12014851D01*
X15300678Y-12015647D01*
X15300678Y-12042586D01*
X15300336Y-12043413D01*
X15299535Y-12043756D01*
X15291564Y-12043935D01*
X15284094Y-12044545D01*
X15277879Y-12045556D01*
X15272525Y-12046962D01*
X15272524Y-12046963D01*
X15267641Y-12048759D01*
X15267637Y-12048760D01*
X15262830Y-12050942D01*
X15260267Y-12052223D01*
X15257704Y-12053504D01*
X15256068Y-12054328D01*
X15251881Y-12056437D01*
X15251859Y-12056448D01*
X15244955Y-12059741D01*
X15244919Y-12059758D01*
X15237604Y-12062946D01*
X15236709Y-12062962D01*
X15236064Y-12062341D01*
X15236060Y-12062330D01*
X15221295Y-12026916D01*
X15221293Y-12026021D01*
X15236050Y-11990625D01*
X15236685Y-11989993D01*
X15237580Y-11989995D01*
G37*
%TD.AperFunction*%
%TD*%
%TA.AperFunction,Conductor*%
%TO.N,+3V3*%
G36*
X17343405Y-8667268D02*
G01*
X17377732Y-8701595D01*
X17378074Y-8702422D01*
X17377762Y-8703218D01*
X17371024Y-8710475D01*
X17365439Y-8717630D01*
X17361295Y-8724085D01*
X17361295Y-8724086D01*
X17358111Y-8730077D01*
X17355407Y-8735838D01*
X17352715Y-8741572D01*
X17352689Y-8741623D01*
X17349541Y-8747548D01*
X17349492Y-8747631D01*
X17345404Y-8754001D01*
X17345341Y-8754089D01*
X17339820Y-8761162D01*
X17339755Y-8761238D01*
X17333108Y-8768397D01*
X17332294Y-8768770D01*
X17331455Y-8768458D01*
X17331426Y-8768430D01*
X17331392Y-8768397D01*
X17303929Y-8741071D01*
X17276570Y-8713574D01*
X17276229Y-8712746D01*
X17276574Y-8711920D01*
X17276601Y-8711893D01*
X17283764Y-8705243D01*
X17283836Y-8705182D01*
X17290912Y-8699658D01*
X17290998Y-8699597D01*
X17297369Y-8695507D01*
X17297452Y-8695459D01*
X17303380Y-8692309D01*
X17303425Y-8692286D01*
X17309162Y-8689593D01*
X17314922Y-8686889D01*
X17320914Y-8683705D01*
X17327371Y-8679561D01*
X17334525Y-8673976D01*
X17341782Y-8667238D01*
X17342621Y-8666926D01*
X17343405Y-8667268D01*
G37*
%TD.AperFunction*%
%TD*%
%TA.AperFunction,Conductor*%
%TO.N,Net-(J2-D+-PadA6)*%
G36*
X15490389Y-11819477D02*
G01*
X15490752Y-11820295D01*
X15490753Y-11820322D01*
X15490849Y-11858889D01*
X15490759Y-11859342D01*
X15475925Y-11894922D01*
X15475291Y-11895554D01*
X15474395Y-11895552D01*
X15474321Y-11895518D01*
X15466679Y-11891688D01*
X15466527Y-11891596D01*
X15459806Y-11886828D01*
X15459680Y-11886725D01*
X15454388Y-11881732D01*
X15454310Y-11881650D01*
X15449916Y-11876608D01*
X15449893Y-11876581D01*
X15445897Y-11871701D01*
X15445897Y-11871700D01*
X15441806Y-11867219D01*
X15437116Y-11863365D01*
X15431311Y-11860349D01*
X15431311Y-11860349D01*
X15431311Y-11860349D01*
X15423875Y-11858384D01*
X15415374Y-11857762D01*
X15414574Y-11857359D01*
X15414290Y-11856595D01*
X15414290Y-11829613D01*
X15414632Y-11828786D01*
X15415430Y-11828444D01*
X15424750Y-11828210D01*
X15433334Y-11827500D01*
X15440511Y-11826453D01*
X15446750Y-11825182D01*
X15452520Y-11823799D01*
X15458278Y-11822418D01*
X15458306Y-11822412D01*
X15464495Y-11821151D01*
X15464559Y-11821139D01*
X15471671Y-11820102D01*
X15471743Y-11820094D01*
X15480258Y-11819389D01*
X15480322Y-11819386D01*
X15489554Y-11819155D01*
X15490389Y-11819477D01*
G37*
%TD.AperFunction*%
%TD*%
%TA.AperFunction,Conductor*%
%TO.N,/Micro/UART_TX*%
G36*
X17142165Y-8210153D02*
G01*
X17177620Y-8224744D01*
X17178254Y-8225375D01*
X17178256Y-8225380D01*
X17192846Y-8260834D01*
X17192844Y-8261730D01*
X17192209Y-8262361D01*
X17192171Y-8262376D01*
X17184347Y-8265277D01*
X17184262Y-8265305D01*
X17176571Y-8267500D01*
X17176496Y-8267519D01*
X17169771Y-8268968D01*
X17169729Y-8268976D01*
X17163693Y-8270046D01*
X17158114Y-8271095D01*
X17152767Y-8272483D01*
X17152765Y-8272484D01*
X17147394Y-8274579D01*
X17141745Y-8277745D01*
X17141745Y-8277746D01*
X17135569Y-8282348D01*
X17129442Y-8287992D01*
X17128601Y-8288300D01*
X17127822Y-8287959D01*
X17115041Y-8275178D01*
X17114699Y-8274351D01*
X17115008Y-8273558D01*
X17120652Y-8267430D01*
X17125255Y-8261255D01*
X17128421Y-8255607D01*
X17130516Y-8250234D01*
X17131905Y-8244884D01*
X17132954Y-8239308D01*
X17134024Y-8233266D01*
X17134031Y-8233234D01*
X17135482Y-8226500D01*
X17135499Y-8226431D01*
X17137695Y-8218737D01*
X17137723Y-8218653D01*
X17140624Y-8210829D01*
X17141232Y-8210173D01*
X17142127Y-8210139D01*
X17142165Y-8210153D01*
G37*
%TD.AperFunction*%
%TD*%
%TA.AperFunction,Conductor*%
%TO.N,MCLK*%
G36*
X15741589Y-9368707D02*
G01*
X15750788Y-9377906D01*
X15751130Y-9378733D01*
X15750826Y-9379520D01*
X15745141Y-9385773D01*
X15740637Y-9392103D01*
X15737670Y-9397929D01*
X15735841Y-9403498D01*
X15735841Y-9403499D01*
X15734755Y-9409052D01*
X15734755Y-9409052D01*
X15734014Y-9414835D01*
X15734014Y-9414836D01*
X15733601Y-9418103D01*
X15733226Y-9421069D01*
X15733217Y-9421126D01*
X15731992Y-9428033D01*
X15731971Y-9428125D01*
X15729914Y-9435972D01*
X15729882Y-9436075D01*
X15726992Y-9444035D01*
X15726387Y-9444696D01*
X15725492Y-9444736D01*
X15725447Y-9444718D01*
X15690000Y-9430131D01*
X15689366Y-9429500D01*
X15689364Y-9429495D01*
X15685908Y-9421097D01*
X15674777Y-9394048D01*
X15674779Y-9393153D01*
X15675414Y-9392521D01*
X15675458Y-9392504D01*
X15683422Y-9389612D01*
X15683521Y-9389582D01*
X15691372Y-9387523D01*
X15691460Y-9387504D01*
X15698370Y-9386277D01*
X15698425Y-9386269D01*
X15704659Y-9385481D01*
X15709812Y-9384821D01*
X15710443Y-9384740D01*
X15710443Y-9384740D01*
X15710443Y-9384740D01*
X15710444Y-9384740D01*
X15715997Y-9383654D01*
X15721565Y-9381825D01*
X15727392Y-9378857D01*
X15733722Y-9374354D01*
X15739975Y-9368669D01*
X15740818Y-9368366D01*
X15741589Y-9368707D01*
G37*
%TD.AperFunction*%
%TD*%
M02*
