%TF.GenerationSoftware,KiCad,Pcbnew,9.0.0*%
%TF.CreationDate,2025-04-19T15:08:13+02:00*%
%TF.ProjectId,bluetooth-audio,626c7565-746f-46f7-9468-2d617564696f,rev?*%
%TF.SameCoordinates,Original*%
%TF.FileFunction,Paste,Top*%
%TF.FilePolarity,Positive*%
%FSLAX45Y45*%
G04 Gerber Fmt 4.5, Leading zero omitted, Abs format (unit mm)*
G04 Created by KiCad (PCBNEW 9.0.0) date 2025-04-19 15:08:13*
%MOMM*%
%LPD*%
G01*
G04 APERTURE LIST*
G04 Aperture macros list*
%AMRoundRect*
0 Rectangle with rounded corners*
0 $1 Rounding radius*
0 $2 $3 $4 $5 $6 $7 $8 $9 X,Y pos of 4 corners*
0 Add a 4 corners polygon primitive as box body*
4,1,4,$2,$3,$4,$5,$6,$7,$8,$9,$2,$3,0*
0 Add four circle primitives for the rounded corners*
1,1,$1+$1,$2,$3*
1,1,$1+$1,$4,$5*
1,1,$1+$1,$6,$7*
1,1,$1+$1,$8,$9*
0 Add four rect primitives between the rounded corners*
20,1,$1+$1,$2,$3,$4,$5,0*
20,1,$1+$1,$4,$5,$6,$7,0*
20,1,$1+$1,$6,$7,$8,$9,0*
20,1,$1+$1,$8,$9,$2,$3,0*%
G04 Aperture macros list end*
%ADD10C,0.220000*%
%ADD11RoundRect,0.225000X-0.250000X0.225000X-0.250000X-0.225000X0.250000X-0.225000X0.250000X0.225000X0*%
%ADD12RoundRect,0.140000X-0.140000X-0.170000X0.140000X-0.170000X0.140000X0.170000X-0.140000X0.170000X0*%
%ADD13RoundRect,0.135000X-0.185000X0.135000X-0.185000X-0.135000X0.185000X-0.135000X0.185000X0.135000X0*%
%ADD14RoundRect,0.135000X-0.135000X-0.185000X0.135000X-0.185000X0.135000X0.185000X-0.135000X0.185000X0*%
%ADD15R,2.500000X1.200000*%
%ADD16RoundRect,0.225000X-0.225000X-0.250000X0.225000X-0.250000X0.225000X0.250000X-0.225000X0.250000X0*%
%ADD17RoundRect,0.140000X0.170000X-0.140000X0.170000X0.140000X-0.170000X0.140000X-0.170000X-0.140000X0*%
%ADD18RoundRect,0.140000X0.140000X0.170000X-0.140000X0.170000X-0.140000X-0.170000X0.140000X-0.170000X0*%
%ADD19RoundRect,0.218750X-0.218750X-0.381250X0.218750X-0.381250X0.218750X0.381250X-0.218750X0.381250X0*%
%ADD20RoundRect,0.135000X0.135000X0.185000X-0.135000X0.185000X-0.135000X-0.185000X0.135000X-0.185000X0*%
%ADD21RoundRect,0.147500X-0.147500X-0.172500X0.147500X-0.172500X0.147500X0.172500X-0.147500X0.172500X0*%
%ADD22RoundRect,0.140000X-0.170000X0.140000X-0.170000X-0.140000X0.170000X-0.140000X0.170000X0.140000X0*%
%ADD23RoundRect,0.053000X-0.212000X-0.312000X0.212000X-0.312000X0.212000X0.312000X-0.212000X0.312000X0*%
%ADD24RoundRect,0.053000X0.312000X-0.212000X0.312000X0.212000X-0.312000X0.212000X-0.312000X-0.212000X0*%
%ADD25C,0.254000*%
%ADD26RoundRect,0.243750X0.243750X0.456250X-0.243750X0.456250X-0.243750X-0.456250X0.243750X-0.456250X0*%
%ADD27RoundRect,0.150000X-0.150000X-0.425000X0.150000X-0.425000X0.150000X0.425000X-0.150000X0.425000X0*%
%ADD28RoundRect,0.075000X-0.075000X-0.500000X0.075000X-0.500000X0.075000X0.500000X-0.075000X0.500000X0*%
%ADD29RoundRect,0.250000X-0.840000X-0.750000X0.840000X-0.750000X0.840000X0.750000X-0.840000X0.750000X0*%
%ADD30RoundRect,0.243750X-0.243750X-0.456250X0.243750X-0.456250X0.243750X0.456250X-0.243750X0.456250X0*%
%ADD31R,0.500000X0.500000*%
%ADD32RoundRect,0.150000X-0.150000X0.512500X-0.150000X-0.512500X0.150000X-0.512500X0.150000X0.512500X0*%
%ADD33RoundRect,0.135000X0.185000X-0.135000X0.185000X0.135000X-0.185000X0.135000X-0.185000X-0.135000X0*%
%ADD34R,1.200000X2.500000*%
G04 APERTURE END LIST*
D10*
%TO.C,MK2*%
X16574246Y-9600754D02*
G75*
G02*
X16574246Y-9465246I67754J67754D01*
G01*
X16617000Y-9440500D02*
G75*
G02*
X16734500Y-9508000I25000J-92500D01*
G01*
X16734500Y-9558000D02*
G75*
G02*
X16615989Y-9625221I-92500J25000D01*
G01*
%TO.C,MK1*%
X19469000Y-9058500D02*
G75*
G02*
X19536500Y-8941000I92500J25000D01*
G01*
X19586500Y-8941000D02*
G75*
G02*
X19653721Y-9059511I-25000J-92500D01*
G01*
X19629254Y-9101254D02*
G75*
G02*
X19493746Y-9101254I-67754J67754D01*
G01*
%TD*%
D11*
%TO.C,C50*%
X16060250Y-9472250D03*
X16060250Y-9627250D03*
%TD*%
D12*
%TO.C,C3*%
X18309000Y-7722000D03*
X18405000Y-7722000D03*
%TD*%
%TO.C,C9*%
X18883000Y-7722000D03*
X18979000Y-7722000D03*
%TD*%
%TO.C,C7*%
X18596000Y-7919000D03*
X18692000Y-7919000D03*
%TD*%
D13*
%TO.C,R5*%
X16274000Y-11131000D03*
X16274000Y-11233000D03*
%TD*%
D14*
%TO.C,R4*%
X14964750Y-10981356D03*
X15066750Y-10981356D03*
%TD*%
D15*
%TO.C,J3*%
X16839224Y-11610224D03*
X16839224Y-11910224D03*
X17489224Y-11100224D03*
X16839224Y-11210224D03*
%TD*%
D12*
%TO.C,C40*%
X20985000Y-7919000D03*
X21081000Y-7919000D03*
%TD*%
D14*
%TO.C,R32*%
X16028890Y-8231890D03*
X16130890Y-8231890D03*
%TD*%
D12*
%TO.C,C6*%
X18596000Y-7722000D03*
X18692000Y-7722000D03*
%TD*%
%TO.C,C45*%
X16702000Y-10198000D03*
X16798000Y-10198000D03*
%TD*%
D14*
%TO.C,R30*%
X16028890Y-7833890D03*
X16130890Y-7833890D03*
%TD*%
D16*
%TO.C,C15*%
X17935500Y-9004000D03*
X18090500Y-9004000D03*
%TD*%
D17*
%TO.C,C47*%
X16190250Y-9542750D03*
X16190250Y-9446750D03*
%TD*%
D13*
%TO.C,R25*%
X16190250Y-9244750D03*
X16190250Y-9346750D03*
%TD*%
D14*
%TO.C,R1*%
X18763000Y-8314000D03*
X18865000Y-8314000D03*
%TD*%
D12*
%TO.C,C46*%
X16938890Y-7633890D03*
X17034890Y-7633890D03*
%TD*%
%TO.C,C8*%
X18596000Y-8116000D03*
X18692000Y-8116000D03*
%TD*%
D18*
%TO.C,C49*%
X16572000Y-10188000D03*
X16476000Y-10188000D03*
%TD*%
D16*
%TO.C,C18*%
X17935500Y-9757000D03*
X18090500Y-9757000D03*
%TD*%
D19*
%TO.C,L1*%
X18334750Y-8352000D03*
X18547250Y-8352000D03*
%TD*%
D20*
%TO.C,R26*%
X16375000Y-10192000D03*
X16273000Y-10192000D03*
%TD*%
D16*
%TO.C,C11*%
X17935500Y-8251000D03*
X18090500Y-8251000D03*
%TD*%
%TO.C,C16*%
X17935500Y-9255000D03*
X18090500Y-9255000D03*
%TD*%
D14*
%TO.C,R22*%
X20697000Y-9027000D03*
X20799000Y-9027000D03*
%TD*%
D16*
%TO.C,C1*%
X17935500Y-7749000D03*
X18090500Y-7749000D03*
%TD*%
D14*
%TO.C,R36*%
X16028890Y-8629890D03*
X16130890Y-8629890D03*
%TD*%
D12*
%TO.C,C48*%
X16938890Y-7830890D03*
X17034890Y-7830890D03*
%TD*%
D21*
%TO.C,L2*%
X16031390Y-7634890D03*
X16128390Y-7634890D03*
%TD*%
D14*
%TO.C,R31*%
X16028890Y-8032890D03*
X16130890Y-8032890D03*
%TD*%
D22*
%TO.C,C52*%
X16231000Y-10438000D03*
X16231000Y-10534000D03*
%TD*%
D23*
%TO.C,MK2*%
X16554000Y-9742000D03*
X16642000Y-9742000D03*
X16730000Y-9742000D03*
%TD*%
D24*
%TO.C,MK1*%
X19770500Y-9121500D03*
X19770500Y-9033500D03*
X19770500Y-8945500D03*
%TD*%
D25*
%TO.C,U2*%
X16625000Y-8489000D03*
X16675000Y-8489000D03*
X16725000Y-8489000D03*
X16775000Y-8489000D03*
X16825000Y-8489000D03*
X16875000Y-8489000D03*
X16925000Y-8489000D03*
X16975000Y-8489000D03*
X17025000Y-8489000D03*
X17075000Y-8489000D03*
X16625000Y-8539000D03*
X16675000Y-8539000D03*
X16725000Y-8539000D03*
X16775000Y-8539000D03*
X16825000Y-8539000D03*
X16875000Y-8539000D03*
X16925000Y-8539000D03*
X16975000Y-8539000D03*
X17025000Y-8539000D03*
X17075000Y-8539000D03*
X16625000Y-8589000D03*
X16675000Y-8589000D03*
X16725000Y-8589000D03*
X16875000Y-8589000D03*
X16975000Y-8589000D03*
X17025000Y-8589000D03*
X17075000Y-8589000D03*
X16625000Y-8639000D03*
X16675000Y-8639000D03*
X16725000Y-8639000D03*
X16975000Y-8639000D03*
X17025000Y-8639000D03*
X17075000Y-8639000D03*
X16625000Y-8689000D03*
X16675000Y-8689000D03*
X16725000Y-8689000D03*
X16825000Y-8689000D03*
X16875000Y-8689000D03*
X16975000Y-8689000D03*
X17025000Y-8689000D03*
X17075000Y-8689000D03*
X16625000Y-8739000D03*
X16675000Y-8739000D03*
X16725000Y-8739000D03*
X16825000Y-8739000D03*
X16875000Y-8739000D03*
X16975000Y-8739000D03*
X17025000Y-8739000D03*
X17075000Y-8739000D03*
X16625000Y-8789000D03*
X16675000Y-8789000D03*
X16725000Y-8789000D03*
X16975000Y-8789000D03*
X17025000Y-8789000D03*
X17075000Y-8789000D03*
X16625000Y-8839000D03*
X16675000Y-8839000D03*
X16725000Y-8839000D03*
X16825000Y-8839000D03*
X16975000Y-8839000D03*
X17025000Y-8839000D03*
X17075000Y-8839000D03*
X16625000Y-8889000D03*
X16675000Y-8889000D03*
X16725000Y-8889000D03*
X16775000Y-8889000D03*
X16825000Y-8889000D03*
X16875000Y-8889000D03*
X16925000Y-8889000D03*
X16975000Y-8889000D03*
X17025000Y-8889000D03*
X17075000Y-8889000D03*
X16625000Y-8939000D03*
X16675000Y-8939000D03*
X16725000Y-8939000D03*
X16775000Y-8939000D03*
X16825000Y-8939000D03*
X16875000Y-8939000D03*
X16925000Y-8939000D03*
X16975000Y-8939000D03*
X17025000Y-8939000D03*
X17075000Y-8939000D03*
%TD*%
D12*
%TO.C,C39*%
X20985000Y-7722000D03*
X21081000Y-7722000D03*
%TD*%
D22*
%TO.C,C51*%
X16131000Y-10438000D03*
X16131000Y-10534000D03*
%TD*%
D12*
%TO.C,C43*%
X20985000Y-8510000D03*
X21081000Y-8510000D03*
%TD*%
%TO.C,C10*%
X18883000Y-7919000D03*
X18979000Y-7919000D03*
%TD*%
D16*
%TO.C,C17*%
X17935500Y-9506000D03*
X18090500Y-9506000D03*
%TD*%
D12*
%TO.C,C42*%
X20985000Y-8313000D03*
X21081000Y-8313000D03*
%TD*%
D16*
%TO.C,C13*%
X17935500Y-8753000D03*
X18090500Y-8753000D03*
%TD*%
D12*
%TO.C,C14*%
X18883000Y-8116000D03*
X18979000Y-8116000D03*
%TD*%
D14*
%TO.C,R21*%
X20697000Y-8828000D03*
X20799000Y-8828000D03*
%TD*%
D12*
%TO.C,C4*%
X18309000Y-7919000D03*
X18405000Y-7919000D03*
%TD*%
D26*
%TO.C,D2*%
X15715500Y-10141250D03*
X15528000Y-10141250D03*
%TD*%
D13*
%TO.C,R6*%
X15516120Y-9893750D03*
X15516120Y-9995750D03*
%TD*%
D27*
%TO.C,J2*%
X15017750Y-11696125D03*
X15097750Y-11696125D03*
D28*
X15212750Y-11696125D03*
X15312750Y-11696125D03*
X15362750Y-11696125D03*
X15462750Y-11696125D03*
D27*
X15577750Y-11696125D03*
X15657750Y-11696125D03*
X15657750Y-11696125D03*
X15577750Y-11696125D03*
D28*
X15512750Y-11696125D03*
X15412750Y-11696125D03*
X15262750Y-11696125D03*
X15162750Y-11696125D03*
D27*
X15097750Y-11696125D03*
X15017750Y-11696125D03*
D29*
X14826750Y-11753625D03*
X14826750Y-12146625D03*
X15848750Y-11753625D03*
X15848750Y-12146625D03*
%TD*%
D30*
%TO.C,D4*%
X16775140Y-7015390D03*
X16962640Y-7015390D03*
%TD*%
D14*
%TO.C,R23*%
X20697000Y-9226000D03*
X20799000Y-9226000D03*
%TD*%
D16*
%TO.C,C2*%
X17935500Y-8000000D03*
X18090500Y-8000000D03*
%TD*%
D31*
%TO.C,ANT2*%
X15376890Y-7460890D03*
X15166890Y-7459890D03*
%TD*%
D30*
%TO.C,D5*%
X16775140Y-7319390D03*
X16962640Y-7319390D03*
%TD*%
D32*
%TO.C,U5*%
X15077000Y-10559500D03*
X14982000Y-10559500D03*
X14887000Y-10559500D03*
X14887000Y-10787000D03*
X14982000Y-10787000D03*
X15077000Y-10787000D03*
%TD*%
D12*
%TO.C,C5*%
X18309000Y-8116000D03*
X18405000Y-8116000D03*
%TD*%
D14*
%TO.C,R35*%
X16028890Y-8430890D03*
X16130890Y-8430890D03*
%TD*%
D16*
%TO.C,C44*%
X20107500Y-9218000D03*
X20262500Y-9218000D03*
%TD*%
D33*
%TO.C,R24*%
X16074250Y-9344750D03*
X16074250Y-9242750D03*
%TD*%
D19*
%TO.C,L3*%
X18334750Y-8627000D03*
X18547250Y-8627000D03*
%TD*%
D34*
%TO.C,J1*%
X20197000Y-7851000D03*
X19897000Y-7851000D03*
X20707000Y-8501000D03*
X20597000Y-7851000D03*
%TD*%
D16*
%TO.C,C12*%
X17935500Y-8502000D03*
X18090500Y-8502000D03*
%TD*%
D12*
%TO.C,C41*%
X20985000Y-8116000D03*
X21081000Y-8116000D03*
%TD*%
M02*
