%TF.GenerationSoftware,KiCad,Pcbnew,9.0.0*%
%TF.CreationDate,2025-02-25T22:38:48+02:00*%
%TF.ProjectId,bluetooth-audio,626c7565-746f-46f7-9468-2d617564696f,rev?*%
%TF.SameCoordinates,Original*%
%TF.FileFunction,Copper,L2,Inr*%
%TF.FilePolarity,Positive*%
%FSLAX45Y45*%
G04 Gerber Fmt 4.5, Leading zero omitted, Abs format (unit mm)*
G04 Created by KiCad (PCBNEW 9.0.0) date 2025-02-25 22:38:48*
%MOMM*%
%LPD*%
G01*
G04 APERTURE LIST*
%TA.AperFunction,HeatsinkPad*%
%ADD10C,0.500000*%
%TD*%
%TA.AperFunction,ComponentPad*%
%ADD11C,2.140000*%
%TD*%
%TA.AperFunction,ComponentPad*%
%ADD12R,1.700000X1.700000*%
%TD*%
%TA.AperFunction,ComponentPad*%
%ADD13O,1.700000X1.700000*%
%TD*%
%TA.AperFunction,ViaPad*%
%ADD14C,0.500000*%
%TD*%
%TA.AperFunction,ViaPad*%
%ADD15C,0.800000*%
%TD*%
G04 APERTURE END LIST*
D10*
%TO.N,GND*%
%TO.C,U1*%
X16804000Y-8036000D03*
X16697333Y-8036000D03*
X16590667Y-8036000D03*
X16484000Y-8036000D03*
X16804000Y-8142667D03*
X16697333Y-8142667D03*
X16590667Y-8142667D03*
X16484000Y-8142667D03*
X16804000Y-8249333D03*
X16697333Y-8249333D03*
X16590667Y-8249333D03*
X16484000Y-8249333D03*
X16804000Y-8356000D03*
X16697333Y-8356000D03*
X16590667Y-8356000D03*
X16484000Y-8356000D03*
%TD*%
D11*
%TO.N,GND*%
%TO.C,MK1*%
X17479000Y-9072000D03*
%TD*%
D12*
%TO.N,+3V3*%
%TO.C,J3*%
X14772620Y-7947875D03*
D13*
%TO.N,/Micro/UART_TX*%
X14772620Y-8201875D03*
%TO.N,/Micro/UART_RX*%
X14772620Y-8455875D03*
%TO.N,GND*%
X14772620Y-8709875D03*
%TO.N,/Micro/DTR*%
X14772620Y-8963875D03*
%TO.N,/Micro/RTS*%
X14772620Y-9217875D03*
%TD*%
D14*
%TO.N,GND*%
X17264000Y-8183000D03*
X15198000Y-9064000D03*
X17562000Y-11223000D03*
D15*
X17670620Y-8260875D03*
X14689000Y-9788000D03*
X15112000Y-10597000D03*
D14*
X16159000Y-8629000D03*
D15*
X17432844Y-10872099D03*
D14*
X17122678Y-8598399D03*
X15851000Y-9790000D03*
D15*
X15319000Y-11949000D03*
X16236776Y-7547224D03*
X15984000Y-10071000D03*
X16209620Y-9701000D03*
D14*
X16063000Y-8761000D03*
D15*
X15052000Y-11969000D03*
X15216750Y-12141125D03*
X17152000Y-7770000D03*
X17526000Y-10950000D03*
X15314620Y-11387875D03*
X14961620Y-10247875D03*
X17691000Y-7925000D03*
X15873000Y-9433000D03*
D14*
X16629000Y-8741000D03*
D15*
X17337000Y-8004000D03*
X17600844Y-10872099D03*
X15752000Y-7551000D03*
X16318480Y-8488000D03*
X14710000Y-10551000D03*
X15272000Y-9270000D03*
X16471000Y-7472000D03*
X15249000Y-10816000D03*
X15027050Y-8211000D03*
D14*
X16229000Y-8803000D03*
D15*
X15080620Y-10884875D03*
X17668000Y-10310000D03*
D14*
X17086000Y-11035000D03*
D15*
X15696208Y-10822212D03*
X16237000Y-10609000D03*
X16283620Y-11437875D03*
D14*
X16759683Y-8730284D03*
D15*
X14774620Y-11248875D03*
X16833000Y-7389000D03*
D14*
X17570000Y-11746000D03*
X16417000Y-9583000D03*
D15*
X15699000Y-9279000D03*
X15669000Y-11971000D03*
X15020050Y-8077000D03*
D14*
X16981000Y-8586000D03*
D15*
X17499000Y-10009000D03*
X17121000Y-9343000D03*
X15298000Y-10972000D03*
X15527522Y-8420620D03*
X16272000Y-11920000D03*
X16658000Y-9485000D03*
X15223000Y-7752000D03*
D14*
X17377000Y-10986000D03*
D15*
X15403750Y-12145125D03*
X15956620Y-8333000D03*
X15813000Y-11586000D03*
X17594844Y-10379099D03*
X17627620Y-8768000D03*
X15513000Y-7942000D03*
D14*
X15267000Y-9622000D03*
D15*
X16984000Y-7529000D03*
D14*
X16477620Y-8705875D03*
D15*
X14925000Y-8893000D03*
D14*
X14942000Y-9071000D03*
X17115892Y-10467747D03*
D15*
X16356500Y-9911500D03*
X14859000Y-11590000D03*
D14*
X15585000Y-8799000D03*
D15*
X16291000Y-9144000D03*
X16710000Y-10447000D03*
X15027050Y-8496000D03*
X17640844Y-10471099D03*
D14*
X16124000Y-9092000D03*
X15588000Y-8937000D03*
D15*
X16442000Y-10851000D03*
X15025050Y-8333000D03*
X15755000Y-10425000D03*
X17163000Y-8813000D03*
X16710224Y-10755224D03*
X17667000Y-9377000D03*
X15984620Y-10821875D03*
X16366000Y-10590000D03*
X17311000Y-11660000D03*
X16458000Y-10086000D03*
X16387000Y-7300250D03*
D14*
X16532000Y-9582000D03*
D15*
X15630620Y-10016875D03*
D14*
X17161438Y-7879216D03*
D15*
X17379000Y-9577984D03*
X17577781Y-9788256D03*
X15455000Y-9292000D03*
X16822224Y-10756224D03*
X17391000Y-10193000D03*
X15493750Y-11963125D03*
X15199000Y-10271000D03*
X16340000Y-7735000D03*
%TO.N,/Power/USB_VBUS*%
X14963750Y-11522125D03*
X15831500Y-11025500D03*
X15677368Y-11533500D03*
X15905370Y-11475500D03*
%TO.N,+3V3*%
X17288620Y-8887875D03*
X16687000Y-7777000D03*
X17288620Y-9339875D03*
X16020000Y-7662000D03*
X15153000Y-8972000D03*
X15329000Y-8937000D03*
X16012000Y-8436000D03*
X17304000Y-8741000D03*
X14981000Y-7949000D03*
X16986000Y-7901000D03*
X17321000Y-8589000D03*
X15948620Y-10373875D03*
X15634000Y-7973000D03*
X17313596Y-10392347D03*
X17028000Y-8231520D03*
%TO.N,+1V8*%
X16752622Y-9922322D03*
X15935620Y-10227875D03*
%TO.N,/audio/MIC+*%
X17027933Y-9811809D03*
%TO.N,/audio/MIC-*%
X17172225Y-9810100D03*
%TO.N,LIN2*%
X17595000Y-9591000D03*
%TO.N,RIN2*%
X17489224Y-9718224D03*
%TO.N,/Micro/VDD_SDIO*%
X16284350Y-8874350D03*
%TO.N,/audio/LOUT2*%
X17278224Y-10977224D03*
D14*
%TO.N,/Micro/SCS{slash}CMD*%
X16607500Y-8663500D03*
X16387000Y-9513000D03*
D15*
%TO.N,/Micro/DTR*%
X15286000Y-9534000D03*
%TO.N,/audio/ROUT2*%
X17172224Y-11004224D03*
D14*
%TO.N,/Micro/SWP{slash}SD3*%
X16505000Y-8613000D03*
X16304000Y-9261000D03*
D15*
%TO.N,/Micro/RTS*%
X15755620Y-9787875D03*
X15295000Y-9376000D03*
%TO.N,/Micro/MTDI*%
X15529000Y-8249000D03*
X16123400Y-8188183D03*
%TO.N,/Micro/MTMS*%
X15972670Y-8798620D03*
X15520500Y-8875500D03*
%TO.N,/Micro/MTCK*%
X15535000Y-8726000D03*
X16057000Y-8667000D03*
D14*
%TO.N,/Micro/SDO{slash}SD0*%
X16514000Y-9511000D03*
X16722659Y-8644460D03*
%TO.N,I2C_CLK*%
X16995000Y-8664000D03*
X16878000Y-8609000D03*
D15*
%TO.N,MCLK*%
X16170355Y-8994824D03*
X15689620Y-9429875D03*
%TO.N,/Micro/MTDO*%
X16122700Y-8534700D03*
%TO.N,/Micro/UART_RX*%
X14987000Y-9156000D03*
X17343000Y-8248000D03*
%TO.N,/Micro/UART_TX*%
X17178000Y-8225000D03*
X15132001Y-9129602D03*
%TO.N,Net-(J2-D--PadA7)*%
X15221207Y-12026466D03*
X15405750Y-12029125D03*
%TO.N,Net-(J2-D+-PadA6)*%
X15316376Y-11843077D03*
X15490750Y-11859125D03*
%TD*%
%TA.AperFunction,Conductor*%
%TO.N,GND*%
G36*
X17760636Y-7281969D02*
G01*
X17767335Y-7283954D01*
X17771897Y-7289246D01*
X17773005Y-7294364D01*
X17774995Y-12245564D01*
X17773029Y-12252268D01*
X17767751Y-12256846D01*
X17762564Y-12257969D01*
X14612364Y-12250031D01*
X14605665Y-12248046D01*
X14601103Y-12242754D01*
X14599995Y-12237636D01*
X14599910Y-12026466D01*
X15160316Y-12026466D01*
X15160316Y-12026466D01*
X15162391Y-12042225D01*
X15162391Y-12042226D01*
X15168474Y-12056911D01*
X15168474Y-12056911D01*
X15168474Y-12056911D01*
X15178151Y-12069522D01*
X15190762Y-12079199D01*
X15190762Y-12079199D01*
X15190762Y-12079199D01*
X15195657Y-12081227D01*
X15205448Y-12085282D01*
X15213327Y-12086319D01*
X15221207Y-12087357D01*
X15221207Y-12087357D01*
X15221207Y-12087357D01*
X15226460Y-12086665D01*
X15236967Y-12085282D01*
X15251653Y-12079199D01*
X15264264Y-12069522D01*
X15273940Y-12056911D01*
X15280023Y-12042226D01*
X15281748Y-12029125D01*
X15281748Y-12029125D01*
X15344859Y-12029125D01*
X15344859Y-12029125D01*
X15346934Y-12044884D01*
X15346934Y-12044885D01*
X15353017Y-12059570D01*
X15353017Y-12059570D01*
X15353017Y-12059570D01*
X15362694Y-12072181D01*
X15375304Y-12081858D01*
X15389990Y-12087941D01*
X15397870Y-12088978D01*
X15405750Y-12090016D01*
X15405750Y-12090016D01*
X15405750Y-12090016D01*
X15411003Y-12089324D01*
X15421510Y-12087941D01*
X15436195Y-12081858D01*
X15448806Y-12072181D01*
X15458248Y-12059877D01*
X17059174Y-12059877D01*
X17059174Y-12080571D01*
X17063211Y-12100866D01*
X17063211Y-12100866D01*
X17071130Y-12119984D01*
X17082627Y-12137190D01*
X17097259Y-12151822D01*
X17097259Y-12151822D01*
X17114465Y-12163318D01*
X17133582Y-12171237D01*
X17153877Y-12175274D01*
X17153878Y-12175274D01*
X17153878Y-12175274D01*
X17174571Y-12175274D01*
X17174571Y-12175274D01*
X17194866Y-12171237D01*
X17213984Y-12163318D01*
X17231190Y-12151822D01*
X17245822Y-12137190D01*
X17257319Y-12119984D01*
X17265237Y-12100866D01*
X17269274Y-12080571D01*
X17269274Y-12059878D01*
X17265237Y-12039582D01*
X17257319Y-12020465D01*
X17245822Y-12003259D01*
X17245822Y-12003259D01*
X17231190Y-11988627D01*
X17222587Y-11982878D01*
X17213984Y-11977130D01*
X17194866Y-11969211D01*
X17194866Y-11969211D01*
X17174571Y-11965174D01*
X17174571Y-11965174D01*
X17153878Y-11965174D01*
X17153877Y-11965174D01*
X17133583Y-11969211D01*
X17133582Y-11969211D01*
X17114465Y-11977130D01*
X17097259Y-11988627D01*
X17082627Y-12003259D01*
X17071130Y-12020465D01*
X17063211Y-12039582D01*
X17063211Y-12039583D01*
X17059174Y-12059877D01*
X15458248Y-12059877D01*
X15458483Y-12059570D01*
X15464566Y-12044885D01*
X15466641Y-12029125D01*
X15466291Y-12026466D01*
X15464566Y-12013365D01*
X15464566Y-12013365D01*
X15458483Y-11998680D01*
X15458483Y-11998679D01*
X15458483Y-11998679D01*
X15448806Y-11986069D01*
X15437158Y-11977130D01*
X15436195Y-11976392D01*
X15436195Y-11976392D01*
X15436195Y-11976392D01*
X15421510Y-11970309D01*
X15421509Y-11970309D01*
X15405750Y-11968234D01*
X15405750Y-11968234D01*
X15389990Y-11970309D01*
X15389990Y-11970309D01*
X15375304Y-11976392D01*
X15362694Y-11986069D01*
X15353017Y-11998679D01*
X15346934Y-12013365D01*
X15346934Y-12013365D01*
X15344859Y-12029125D01*
X15281748Y-12029125D01*
X15282098Y-12026466D01*
X15282098Y-12026466D01*
X15280023Y-12010706D01*
X15280023Y-12010706D01*
X15273940Y-11996020D01*
X15273940Y-11996020D01*
X15273940Y-11996020D01*
X15264264Y-11983410D01*
X15256080Y-11977130D01*
X15251653Y-11973733D01*
X15251653Y-11973733D01*
X15251652Y-11973733D01*
X15236967Y-11967650D01*
X15236967Y-11967650D01*
X15221207Y-11965575D01*
X15221207Y-11965575D01*
X15205448Y-11967650D01*
X15205447Y-11967650D01*
X15190762Y-11973733D01*
X15178151Y-11983409D01*
X15168474Y-11996020D01*
X15162391Y-12010706D01*
X15162391Y-12010706D01*
X15160316Y-12026466D01*
X14599910Y-12026466D01*
X14599817Y-11796048D01*
X14991200Y-11796048D01*
X14991200Y-11811201D01*
X14995122Y-11825839D01*
X14996762Y-11828679D01*
X15002698Y-11838961D01*
X15013413Y-11849676D01*
X15026536Y-11857253D01*
X15041173Y-11861175D01*
X15041174Y-11861175D01*
X15056326Y-11861175D01*
X15056327Y-11861175D01*
X15070963Y-11857253D01*
X15084086Y-11849676D01*
X15090686Y-11843077D01*
X15255485Y-11843077D01*
X15255485Y-11843077D01*
X15257560Y-11858837D01*
X15257560Y-11858837D01*
X15263643Y-11873522D01*
X15263643Y-11873523D01*
X15263643Y-11873523D01*
X15273320Y-11886134D01*
X15285931Y-11895810D01*
X15300617Y-11901893D01*
X15308496Y-11902931D01*
X15316376Y-11903968D01*
X15316376Y-11903968D01*
X15316376Y-11903968D01*
X15321629Y-11903276D01*
X15332136Y-11901893D01*
X15346822Y-11895810D01*
X15359433Y-11886134D01*
X15369109Y-11873523D01*
X15375073Y-11859125D01*
X15429859Y-11859125D01*
X15429859Y-11859125D01*
X15431934Y-11874884D01*
X15431934Y-11874885D01*
X15438017Y-11889570D01*
X15438017Y-11889570D01*
X15438017Y-11889570D01*
X15447694Y-11902181D01*
X15460304Y-11911858D01*
X15474990Y-11917941D01*
X15482870Y-11918978D01*
X15490750Y-11920016D01*
X15490750Y-11920016D01*
X15490750Y-11920016D01*
X15496003Y-11919324D01*
X15506510Y-11917941D01*
X15521195Y-11911858D01*
X15533806Y-11902181D01*
X15543483Y-11889570D01*
X15549566Y-11874885D01*
X15551641Y-11859125D01*
X15551603Y-11858837D01*
X15549566Y-11843365D01*
X15549566Y-11843365D01*
X15543483Y-11828680D01*
X15543483Y-11828679D01*
X15543483Y-11828679D01*
X15533806Y-11816069D01*
X15533806Y-11816069D01*
X15521195Y-11806392D01*
X15521195Y-11806392D01*
X15521195Y-11806392D01*
X15506510Y-11800309D01*
X15506509Y-11800309D01*
X15490750Y-11798234D01*
X15490750Y-11798234D01*
X15474990Y-11800309D01*
X15474990Y-11800309D01*
X15460304Y-11806392D01*
X15447694Y-11816069D01*
X15438017Y-11828679D01*
X15431934Y-11843365D01*
X15431934Y-11843365D01*
X15429859Y-11859125D01*
X15375073Y-11859125D01*
X15375192Y-11858837D01*
X15377267Y-11843077D01*
X15376725Y-11838961D01*
X15375192Y-11827318D01*
X15375192Y-11827317D01*
X15369109Y-11812632D01*
X15369109Y-11812632D01*
X15369109Y-11812632D01*
X15359433Y-11800021D01*
X15354256Y-11796049D01*
X15354256Y-11796048D01*
X15569200Y-11796048D01*
X15569200Y-11811201D01*
X15573122Y-11825839D01*
X15574762Y-11828679D01*
X15580698Y-11838961D01*
X15591413Y-11849676D01*
X15604536Y-11857253D01*
X15619173Y-11861175D01*
X15619174Y-11861175D01*
X15634326Y-11861175D01*
X15634327Y-11861175D01*
X15648963Y-11857253D01*
X15662086Y-11849676D01*
X15672801Y-11838961D01*
X15680378Y-11825838D01*
X15684300Y-11811202D01*
X15684300Y-11796048D01*
X15680378Y-11781411D01*
X15672801Y-11768288D01*
X15662086Y-11757573D01*
X15655525Y-11753785D01*
X15648964Y-11749997D01*
X15641645Y-11748036D01*
X15634327Y-11746075D01*
X15619173Y-11746075D01*
X15604536Y-11749997D01*
X15591413Y-11757573D01*
X15591413Y-11757574D01*
X15580699Y-11768288D01*
X15580698Y-11768288D01*
X15573122Y-11781411D01*
X15569200Y-11796048D01*
X15354256Y-11796048D01*
X15346822Y-11790344D01*
X15346822Y-11790344D01*
X15346821Y-11790344D01*
X15332136Y-11784261D01*
X15332136Y-11784261D01*
X15316376Y-11782186D01*
X15316376Y-11782186D01*
X15300617Y-11784261D01*
X15300616Y-11784261D01*
X15285931Y-11790344D01*
X15273320Y-11800021D01*
X15263643Y-11812632D01*
X15257560Y-11827317D01*
X15257560Y-11827318D01*
X15255485Y-11843077D01*
X15090686Y-11843077D01*
X15094801Y-11838961D01*
X15102378Y-11825838D01*
X15106300Y-11811202D01*
X15106300Y-11796048D01*
X15102378Y-11781411D01*
X15094801Y-11768288D01*
X15084086Y-11757573D01*
X15077525Y-11753785D01*
X15070964Y-11749997D01*
X15063645Y-11748036D01*
X15056327Y-11746075D01*
X15041173Y-11746075D01*
X15026536Y-11749997D01*
X15013413Y-11757573D01*
X15013413Y-11757574D01*
X15002699Y-11768288D01*
X15002698Y-11768288D01*
X14995122Y-11781411D01*
X14991200Y-11796048D01*
X14599817Y-11796048D01*
X14599707Y-11522125D01*
X14902859Y-11522125D01*
X14902859Y-11522125D01*
X14904934Y-11537884D01*
X14904934Y-11537885D01*
X14911017Y-11552570D01*
X14911017Y-11552570D01*
X14911017Y-11552570D01*
X14920694Y-11565181D01*
X14933304Y-11574858D01*
X14933305Y-11574858D01*
X14933305Y-11574858D01*
X14937405Y-11576556D01*
X14947990Y-11580941D01*
X14955870Y-11581978D01*
X14963750Y-11583016D01*
X14963750Y-11583016D01*
X14963750Y-11583016D01*
X14969003Y-11582324D01*
X14979510Y-11580941D01*
X14994195Y-11574858D01*
X15006806Y-11565181D01*
X15016483Y-11552570D01*
X15022566Y-11537885D01*
X15023143Y-11533500D01*
X15616477Y-11533500D01*
X15616477Y-11533500D01*
X15618552Y-11549259D01*
X15618552Y-11549260D01*
X15624635Y-11563945D01*
X15624635Y-11563945D01*
X15624635Y-11563945D01*
X15634312Y-11576556D01*
X15646923Y-11586233D01*
X15661609Y-11592316D01*
X15669488Y-11593353D01*
X15677368Y-11594391D01*
X15677368Y-11594391D01*
X15677368Y-11594391D01*
X15682622Y-11593699D01*
X15693128Y-11592316D01*
X15707814Y-11586233D01*
X15720425Y-11576556D01*
X15730101Y-11563945D01*
X15736184Y-11549260D01*
X15738259Y-11533500D01*
X15736184Y-11517740D01*
X15730101Y-11503055D01*
X15730101Y-11503054D01*
X15730101Y-11503054D01*
X15720425Y-11490444D01*
X15707814Y-11480767D01*
X15695098Y-11475500D01*
X15844479Y-11475500D01*
X15844479Y-11475500D01*
X15846554Y-11491259D01*
X15846554Y-11491260D01*
X15852637Y-11505945D01*
X15852637Y-11505945D01*
X15852637Y-11505945D01*
X15862314Y-11518556D01*
X15874924Y-11528233D01*
X15889610Y-11534316D01*
X15897490Y-11535353D01*
X15905370Y-11536391D01*
X15905370Y-11536391D01*
X15905370Y-11536391D01*
X15910623Y-11535699D01*
X15921130Y-11534316D01*
X15935815Y-11528233D01*
X15948426Y-11518556D01*
X15958103Y-11505945D01*
X15964186Y-11491260D01*
X15966261Y-11475500D01*
X15966153Y-11474684D01*
X15964186Y-11459740D01*
X15964186Y-11459740D01*
X15958103Y-11445055D01*
X15958103Y-11445054D01*
X15958103Y-11445054D01*
X15948426Y-11432444D01*
X15935815Y-11422767D01*
X15921130Y-11416684D01*
X15921129Y-11416684D01*
X15905370Y-11414609D01*
X15905370Y-11414609D01*
X15889610Y-11416684D01*
X15889610Y-11416684D01*
X15874924Y-11422767D01*
X15862314Y-11432444D01*
X15852637Y-11445054D01*
X15846554Y-11459740D01*
X15846554Y-11459740D01*
X15844479Y-11475500D01*
X15695098Y-11475500D01*
X15693128Y-11474684D01*
X15693128Y-11474684D01*
X15677368Y-11472609D01*
X15677368Y-11472609D01*
X15661609Y-11474684D01*
X15661609Y-11474684D01*
X15646923Y-11480767D01*
X15634312Y-11490444D01*
X15624635Y-11503054D01*
X15618552Y-11517740D01*
X15618552Y-11517740D01*
X15616477Y-11533500D01*
X15023143Y-11533500D01*
X15024641Y-11522125D01*
X15024064Y-11517740D01*
X15022566Y-11506365D01*
X15022566Y-11506365D01*
X15016483Y-11491680D01*
X15016483Y-11491679D01*
X15016483Y-11491679D01*
X15006806Y-11479069D01*
X15002156Y-11475500D01*
X14994195Y-11469392D01*
X14994195Y-11469392D01*
X14994195Y-11469392D01*
X14979510Y-11463309D01*
X14979509Y-11463309D01*
X14963750Y-11461234D01*
X14963750Y-11461234D01*
X14947990Y-11463309D01*
X14947990Y-11463309D01*
X14933304Y-11469392D01*
X14920694Y-11479069D01*
X14911017Y-11491679D01*
X14904934Y-11506365D01*
X14904934Y-11506365D01*
X14902859Y-11522125D01*
X14599707Y-11522125D01*
X14599642Y-11359877D01*
X17059174Y-11359877D01*
X17059174Y-11380571D01*
X17063211Y-11400866D01*
X17063211Y-11400866D01*
X17069763Y-11416684D01*
X17071130Y-11419984D01*
X17076879Y-11428587D01*
X17082627Y-11437190D01*
X17097259Y-11451822D01*
X17097259Y-11451822D01*
X17114465Y-11463318D01*
X17133582Y-11471237D01*
X17153877Y-11475274D01*
X17153878Y-11475274D01*
X17153878Y-11475274D01*
X17174571Y-11475274D01*
X17174571Y-11475274D01*
X17194866Y-11471237D01*
X17213984Y-11463318D01*
X17231190Y-11451822D01*
X17245822Y-11437190D01*
X17257319Y-11419984D01*
X17265237Y-11400866D01*
X17269274Y-11380571D01*
X17269274Y-11359878D01*
X17265237Y-11339582D01*
X17257319Y-11320465D01*
X17245822Y-11303259D01*
X17245822Y-11303259D01*
X17231190Y-11288627D01*
X17222587Y-11282878D01*
X17213984Y-11277130D01*
X17194866Y-11269211D01*
X17194866Y-11269211D01*
X17174571Y-11265174D01*
X17174571Y-11265174D01*
X17153878Y-11265174D01*
X17153877Y-11265174D01*
X17133583Y-11269211D01*
X17133582Y-11269211D01*
X17114465Y-11277130D01*
X17097259Y-11288627D01*
X17082627Y-11303259D01*
X17071130Y-11320465D01*
X17063211Y-11339582D01*
X17063211Y-11339583D01*
X17059174Y-11359877D01*
X14599642Y-11359877D01*
X14599508Y-11025500D01*
X15770609Y-11025500D01*
X15770609Y-11025500D01*
X15772684Y-11041260D01*
X15772684Y-11041260D01*
X15778767Y-11055945D01*
X15778767Y-11055945D01*
X15778767Y-11055946D01*
X15788444Y-11068556D01*
X15801054Y-11078233D01*
X15815740Y-11084316D01*
X15823620Y-11085354D01*
X15831500Y-11086391D01*
X15831500Y-11086391D01*
X15831500Y-11086391D01*
X15836753Y-11085699D01*
X15847260Y-11084316D01*
X15861945Y-11078233D01*
X15874556Y-11068556D01*
X15884233Y-11055946D01*
X15890316Y-11041260D01*
X15892391Y-11025500D01*
X15890316Y-11009740D01*
X15888031Y-11004224D01*
X17111334Y-11004224D01*
X17111334Y-11004225D01*
X17113408Y-11019984D01*
X17113408Y-11019984D01*
X17119491Y-11034670D01*
X17119491Y-11034670D01*
X17119491Y-11034670D01*
X17129168Y-11047281D01*
X17141779Y-11056958D01*
X17156465Y-11063041D01*
X17164345Y-11064078D01*
X17172224Y-11065115D01*
X17172224Y-11065115D01*
X17172225Y-11065115D01*
X17177478Y-11064424D01*
X17187984Y-11063041D01*
X17202670Y-11056958D01*
X17215281Y-11047281D01*
X17224958Y-11034670D01*
X17225759Y-11032736D01*
X17230142Y-11027296D01*
X17236772Y-11025089D01*
X17243542Y-11026817D01*
X17244763Y-11027644D01*
X17247779Y-11029957D01*
X17247779Y-11029958D01*
X17257039Y-11033793D01*
X17262465Y-11036041D01*
X17270345Y-11037078D01*
X17278224Y-11038115D01*
X17278224Y-11038115D01*
X17278225Y-11038115D01*
X17283478Y-11037424D01*
X17293984Y-11036041D01*
X17308670Y-11029958D01*
X17321281Y-11020281D01*
X17330958Y-11007670D01*
X17337041Y-10992984D01*
X17339115Y-10977224D01*
X17337041Y-10961465D01*
X17330958Y-10946779D01*
X17330957Y-10946779D01*
X17330957Y-10946779D01*
X17321281Y-10934168D01*
X17308670Y-10924491D01*
X17293984Y-10918408D01*
X17293984Y-10918408D01*
X17278225Y-10916334D01*
X17278224Y-10916334D01*
X17262465Y-10918408D01*
X17262465Y-10918408D01*
X17247779Y-10924491D01*
X17235168Y-10934168D01*
X17225491Y-10946779D01*
X17224690Y-10948713D01*
X17220306Y-10954153D01*
X17213676Y-10956360D01*
X17206907Y-10954632D01*
X17205686Y-10953805D01*
X17202670Y-10951491D01*
X17202670Y-10951491D01*
X17187984Y-10945408D01*
X17187984Y-10945408D01*
X17172225Y-10943334D01*
X17172224Y-10943334D01*
X17156465Y-10945408D01*
X17156465Y-10945408D01*
X17141779Y-10951491D01*
X17129168Y-10961168D01*
X17119491Y-10973779D01*
X17113408Y-10988465D01*
X17113408Y-10988465D01*
X17111334Y-11004224D01*
X15888031Y-11004224D01*
X15884233Y-10995055D01*
X15884233Y-10995055D01*
X15884233Y-10995054D01*
X15874556Y-10982444D01*
X15867755Y-10977224D01*
X15861945Y-10972767D01*
X15861945Y-10972767D01*
X15861945Y-10972767D01*
X15847260Y-10966684D01*
X15847259Y-10966684D01*
X15831500Y-10964609D01*
X15831500Y-10964609D01*
X15815740Y-10966684D01*
X15815740Y-10966684D01*
X15801054Y-10972767D01*
X15788444Y-10982444D01*
X15778767Y-10995054D01*
X15772684Y-11009740D01*
X15772684Y-11009740D01*
X15770609Y-11025500D01*
X14599508Y-11025500D01*
X14599246Y-10373875D01*
X15887729Y-10373875D01*
X15887729Y-10373875D01*
X15889804Y-10389635D01*
X15889804Y-10389635D01*
X15895887Y-10404320D01*
X15895887Y-10404320D01*
X15895887Y-10404321D01*
X15905564Y-10416931D01*
X15918174Y-10426608D01*
X15932860Y-10432691D01*
X15940740Y-10433729D01*
X15948620Y-10434766D01*
X15948620Y-10434766D01*
X15948620Y-10434766D01*
X15953873Y-10434074D01*
X15964380Y-10432691D01*
X15979065Y-10426608D01*
X15991676Y-10416931D01*
X16001353Y-10404321D01*
X16006313Y-10392347D01*
X17252706Y-10392347D01*
X17252706Y-10392348D01*
X17254780Y-10408107D01*
X17254780Y-10408107D01*
X17260863Y-10422793D01*
X17260863Y-10422793D01*
X17260863Y-10422793D01*
X17270540Y-10435404D01*
X17283151Y-10445081D01*
X17297837Y-10451164D01*
X17305717Y-10452201D01*
X17313596Y-10453238D01*
X17313596Y-10453238D01*
X17313597Y-10453238D01*
X17318850Y-10452547D01*
X17329356Y-10451164D01*
X17344042Y-10445081D01*
X17356653Y-10435404D01*
X17366330Y-10422793D01*
X17372413Y-10408107D01*
X17374487Y-10392347D01*
X17374130Y-10389635D01*
X17372413Y-10376588D01*
X17372413Y-10376588D01*
X17366330Y-10361902D01*
X17366329Y-10361902D01*
X17366329Y-10361902D01*
X17356653Y-10349291D01*
X17344042Y-10339614D01*
X17329356Y-10333531D01*
X17329356Y-10333531D01*
X17313597Y-10331457D01*
X17313596Y-10331457D01*
X17297837Y-10333531D01*
X17297837Y-10333531D01*
X17283151Y-10339614D01*
X17270540Y-10349291D01*
X17260863Y-10361902D01*
X17254780Y-10376588D01*
X17254780Y-10376588D01*
X17252706Y-10392347D01*
X16006313Y-10392347D01*
X16007436Y-10389635D01*
X16009511Y-10373875D01*
X16007436Y-10358115D01*
X16001353Y-10343430D01*
X16001353Y-10343430D01*
X16001353Y-10343429D01*
X15991676Y-10330819D01*
X15979065Y-10321142D01*
X15964380Y-10315059D01*
X15964379Y-10315059D01*
X15948620Y-10312984D01*
X15948620Y-10312984D01*
X15932860Y-10315059D01*
X15932860Y-10315059D01*
X15918174Y-10321142D01*
X15905564Y-10330819D01*
X15895887Y-10343429D01*
X15889804Y-10358115D01*
X15889804Y-10358115D01*
X15887729Y-10373875D01*
X14599246Y-10373875D01*
X14599187Y-10227875D01*
X15874729Y-10227875D01*
X15874729Y-10227875D01*
X15876804Y-10243635D01*
X15876804Y-10243635D01*
X15882887Y-10258320D01*
X15882887Y-10258320D01*
X15882887Y-10258321D01*
X15892564Y-10270931D01*
X15905174Y-10280608D01*
X15919860Y-10286691D01*
X15927740Y-10287729D01*
X15935620Y-10288766D01*
X15935620Y-10288766D01*
X15935620Y-10288766D01*
X15940873Y-10288074D01*
X15951380Y-10286691D01*
X15966065Y-10280608D01*
X15978676Y-10270931D01*
X15988353Y-10258321D01*
X15994436Y-10243635D01*
X15996511Y-10227875D01*
X15994436Y-10212115D01*
X15988353Y-10197430D01*
X15988353Y-10197430D01*
X15988353Y-10197429D01*
X15978676Y-10184819D01*
X15966065Y-10175142D01*
X15951380Y-10169059D01*
X15951379Y-10169059D01*
X15935620Y-10166984D01*
X15935620Y-10166984D01*
X15919860Y-10169059D01*
X15919860Y-10169059D01*
X15905174Y-10175142D01*
X15892564Y-10184819D01*
X15882887Y-10197429D01*
X15876804Y-10212115D01*
X15876804Y-10212115D01*
X15874729Y-10227875D01*
X14599187Y-10227875D01*
X14599064Y-9922322D01*
X16691731Y-9922322D01*
X16691731Y-9922322D01*
X16693806Y-9938082D01*
X16693806Y-9938082D01*
X16699888Y-9952767D01*
X16699889Y-9952767D01*
X16699889Y-9952768D01*
X16709565Y-9965378D01*
X16722176Y-9975055D01*
X16736862Y-9981138D01*
X16744742Y-9982176D01*
X16752622Y-9983213D01*
X16752622Y-9983213D01*
X16752622Y-9983213D01*
X16757875Y-9982521D01*
X16768381Y-9981138D01*
X16783067Y-9975055D01*
X16795678Y-9965378D01*
X16805355Y-9952768D01*
X16811438Y-9938082D01*
X16813513Y-9922322D01*
X16811438Y-9906562D01*
X16805355Y-9891877D01*
X16805355Y-9891877D01*
X16805355Y-9891876D01*
X16795678Y-9879266D01*
X16784418Y-9870626D01*
X16783067Y-9869589D01*
X16783067Y-9869589D01*
X16783067Y-9869589D01*
X16768382Y-9863506D01*
X16768381Y-9863506D01*
X16752622Y-9861431D01*
X16752622Y-9861431D01*
X16736862Y-9863506D01*
X16736862Y-9863506D01*
X16722176Y-9869589D01*
X16709565Y-9879266D01*
X16699889Y-9891876D01*
X16693806Y-9906562D01*
X16693806Y-9906562D01*
X16691731Y-9922322D01*
X14599064Y-9922322D01*
X14599010Y-9787875D01*
X15694729Y-9787875D01*
X15694729Y-9787875D01*
X15696804Y-9803635D01*
X15696804Y-9803635D01*
X15702887Y-9818320D01*
X15702887Y-9818320D01*
X15702887Y-9818321D01*
X15712564Y-9830931D01*
X15725174Y-9840608D01*
X15739860Y-9846691D01*
X15747740Y-9847729D01*
X15755620Y-9848766D01*
X15755620Y-9848766D01*
X15755620Y-9848766D01*
X15760873Y-9848074D01*
X15771380Y-9846691D01*
X15786065Y-9840608D01*
X15798676Y-9830931D01*
X15808353Y-9818321D01*
X15811050Y-9811809D01*
X16967042Y-9811809D01*
X16967042Y-9811810D01*
X16969116Y-9827569D01*
X16969117Y-9827569D01*
X16975199Y-9842255D01*
X16975199Y-9842255D01*
X16975200Y-9842255D01*
X16984876Y-9854866D01*
X16997487Y-9864543D01*
X17012173Y-9870626D01*
X17014945Y-9870991D01*
X17027933Y-9872700D01*
X17027933Y-9872700D01*
X17027933Y-9872700D01*
X17033186Y-9872009D01*
X17043692Y-9870626D01*
X17058378Y-9864543D01*
X17070989Y-9854866D01*
X17080666Y-9842255D01*
X17086749Y-9827569D01*
X17087897Y-9818845D01*
X17090724Y-9812456D01*
X17092870Y-9811040D01*
X17092597Y-9810869D01*
X17107287Y-9810869D01*
X17109465Y-9812233D01*
X17112443Y-9818553D01*
X17112485Y-9818845D01*
X17113408Y-9825859D01*
X17113409Y-9825860D01*
X17119491Y-9840545D01*
X17119491Y-9840545D01*
X17119491Y-9840545D01*
X17129168Y-9853156D01*
X17141779Y-9862833D01*
X17141779Y-9862833D01*
X17141779Y-9862833D01*
X17143405Y-9863506D01*
X17156465Y-9868916D01*
X17161577Y-9869589D01*
X17172224Y-9870991D01*
X17172225Y-9870991D01*
X17172225Y-9870991D01*
X17177478Y-9870299D01*
X17187984Y-9868916D01*
X17202670Y-9862833D01*
X17215281Y-9853156D01*
X17224958Y-9840545D01*
X17231041Y-9825859D01*
X17233115Y-9810100D01*
X17233030Y-9809453D01*
X17231041Y-9794340D01*
X17231041Y-9794340D01*
X17224958Y-9779654D01*
X17224958Y-9779654D01*
X17224958Y-9779654D01*
X17215281Y-9767043D01*
X17207771Y-9761281D01*
X17202670Y-9757367D01*
X17202670Y-9757366D01*
X17202670Y-9757366D01*
X17187985Y-9751284D01*
X17187984Y-9751283D01*
X17172225Y-9749209D01*
X17172224Y-9749209D01*
X17156465Y-9751283D01*
X17156465Y-9751284D01*
X17141779Y-9757367D01*
X17129168Y-9767043D01*
X17119491Y-9779654D01*
X17113408Y-9794340D01*
X17113408Y-9794340D01*
X17112260Y-9803064D01*
X17109433Y-9809453D01*
X17107287Y-9810869D01*
X17092597Y-9810869D01*
X17090692Y-9809676D01*
X17087714Y-9803356D01*
X17087673Y-9803070D01*
X17086749Y-9796050D01*
X17080666Y-9781364D01*
X17080666Y-9781364D01*
X17080666Y-9781364D01*
X17070989Y-9768753D01*
X17070989Y-9768753D01*
X17058378Y-9759076D01*
X17058378Y-9759076D01*
X17058378Y-9759076D01*
X17043693Y-9752993D01*
X17043692Y-9752993D01*
X17027933Y-9750919D01*
X17027933Y-9750919D01*
X17012173Y-9752993D01*
X17012173Y-9752993D01*
X16997487Y-9759076D01*
X16984876Y-9768753D01*
X16975200Y-9781364D01*
X16969117Y-9796050D01*
X16969116Y-9796050D01*
X16967042Y-9811809D01*
X15811050Y-9811809D01*
X15814436Y-9803635D01*
X15816511Y-9787875D01*
X15814436Y-9772115D01*
X15808353Y-9757430D01*
X15808353Y-9757430D01*
X15808353Y-9757429D01*
X15798676Y-9744819D01*
X15786065Y-9735142D01*
X15771380Y-9729059D01*
X15771379Y-9729059D01*
X15755620Y-9726984D01*
X15755620Y-9726984D01*
X15739860Y-9729059D01*
X15739860Y-9729059D01*
X15725174Y-9735142D01*
X15712564Y-9744819D01*
X15702887Y-9757429D01*
X15696804Y-9772115D01*
X15696804Y-9772115D01*
X15694729Y-9787875D01*
X14599010Y-9787875D01*
X14598982Y-9718224D01*
X17428334Y-9718224D01*
X17428334Y-9718225D01*
X17430408Y-9733984D01*
X17430408Y-9733984D01*
X17436491Y-9748670D01*
X17436491Y-9748670D01*
X17436491Y-9748670D01*
X17446168Y-9761281D01*
X17458779Y-9770958D01*
X17458779Y-9770958D01*
X17458779Y-9770958D01*
X17461574Y-9772115D01*
X17473465Y-9777041D01*
X17481345Y-9778078D01*
X17489224Y-9779115D01*
X17489224Y-9779115D01*
X17489225Y-9779115D01*
X17494478Y-9778424D01*
X17504984Y-9777041D01*
X17519670Y-9770958D01*
X17532281Y-9761281D01*
X17541958Y-9748670D01*
X17548041Y-9733984D01*
X17550115Y-9718224D01*
X17548041Y-9702465D01*
X17541958Y-9687779D01*
X17541957Y-9687779D01*
X17541957Y-9687779D01*
X17532281Y-9675168D01*
X17519670Y-9665491D01*
X17504984Y-9659408D01*
X17504984Y-9659408D01*
X17489225Y-9657334D01*
X17489224Y-9657334D01*
X17473465Y-9659408D01*
X17473465Y-9659408D01*
X17458779Y-9665491D01*
X17446168Y-9675168D01*
X17436491Y-9687779D01*
X17430408Y-9702465D01*
X17430408Y-9702465D01*
X17428334Y-9718224D01*
X14598982Y-9718224D01*
X14598908Y-9534000D01*
X15225109Y-9534000D01*
X15225109Y-9534000D01*
X15227184Y-9549760D01*
X15227184Y-9549760D01*
X15233267Y-9564445D01*
X15233267Y-9564445D01*
X15233267Y-9564446D01*
X15242944Y-9577056D01*
X15255554Y-9586733D01*
X15270240Y-9592816D01*
X15278120Y-9593854D01*
X15286000Y-9594891D01*
X15286000Y-9594891D01*
X15286000Y-9594891D01*
X15291253Y-9594199D01*
X15301760Y-9592816D01*
X15306145Y-9591000D01*
X17534109Y-9591000D01*
X17534109Y-9591000D01*
X17536184Y-9606760D01*
X17536184Y-9606760D01*
X17542267Y-9621445D01*
X17542267Y-9621445D01*
X17542267Y-9621446D01*
X17551944Y-9634056D01*
X17564555Y-9643733D01*
X17579240Y-9649816D01*
X17587120Y-9650854D01*
X17595000Y-9651891D01*
X17595000Y-9651891D01*
X17595000Y-9651891D01*
X17600253Y-9651199D01*
X17610760Y-9649816D01*
X17625446Y-9643733D01*
X17638056Y-9634056D01*
X17647733Y-9621446D01*
X17653816Y-9606760D01*
X17655891Y-9591000D01*
X17653816Y-9575240D01*
X17647733Y-9560555D01*
X17647733Y-9560555D01*
X17647733Y-9560554D01*
X17638057Y-9547944D01*
X17637662Y-9547641D01*
X17625446Y-9538267D01*
X17625445Y-9538267D01*
X17625445Y-9538267D01*
X17610760Y-9532184D01*
X17610760Y-9532184D01*
X17595000Y-9530109D01*
X17595000Y-9530109D01*
X17579240Y-9532184D01*
X17579240Y-9532184D01*
X17564554Y-9538267D01*
X17551944Y-9547944D01*
X17542267Y-9560554D01*
X17536184Y-9575240D01*
X17536184Y-9575240D01*
X17534109Y-9591000D01*
X15306145Y-9591000D01*
X15316445Y-9586733D01*
X15329056Y-9577056D01*
X15338733Y-9564446D01*
X15344816Y-9549760D01*
X15346891Y-9534000D01*
X15345826Y-9525914D01*
X15344816Y-9518240D01*
X15344816Y-9518240D01*
X15342645Y-9513000D01*
X16341163Y-9513000D01*
X16343020Y-9525914D01*
X16343020Y-9525914D01*
X16347526Y-9535781D01*
X16348440Y-9537781D01*
X16356983Y-9547641D01*
X16356984Y-9547641D01*
X16356984Y-9547641D01*
X16367958Y-9554694D01*
X16367958Y-9554694D01*
X16367959Y-9554694D01*
X16380477Y-9558370D01*
X16393523Y-9558370D01*
X16406041Y-9554694D01*
X16417016Y-9547641D01*
X16425560Y-9537781D01*
X16430980Y-9525914D01*
X16432836Y-9513000D01*
X16432549Y-9511000D01*
X16468163Y-9511000D01*
X16470020Y-9523914D01*
X16470020Y-9523914D01*
X16474626Y-9534000D01*
X16475440Y-9535781D01*
X16477594Y-9538267D01*
X16483984Y-9545641D01*
X16483984Y-9545641D01*
X16494958Y-9552694D01*
X16494958Y-9552694D01*
X16494959Y-9552694D01*
X16507477Y-9556370D01*
X16520523Y-9556370D01*
X16533041Y-9552694D01*
X16544016Y-9545641D01*
X16552560Y-9535781D01*
X16557980Y-9523914D01*
X16559836Y-9511000D01*
X16557980Y-9498086D01*
X16557980Y-9498086D01*
X16553473Y-9488219D01*
X16552560Y-9486219D01*
X16544016Y-9476359D01*
X16544016Y-9476359D01*
X16544016Y-9476359D01*
X16544016Y-9476359D01*
X16533042Y-9469306D01*
X16533041Y-9469306D01*
X16533041Y-9469306D01*
X16520523Y-9465630D01*
X16507477Y-9465630D01*
X16494959Y-9469306D01*
X16494958Y-9469306D01*
X16483984Y-9476359D01*
X16483984Y-9476359D01*
X16475440Y-9486219D01*
X16475440Y-9486219D01*
X16470020Y-9498086D01*
X16470020Y-9498086D01*
X16468163Y-9511000D01*
X16432549Y-9511000D01*
X16430980Y-9500086D01*
X16430980Y-9500086D01*
X16425776Y-9488691D01*
X16425560Y-9488219D01*
X16417016Y-9478359D01*
X16417016Y-9478359D01*
X16417016Y-9478359D01*
X16417016Y-9478359D01*
X16406042Y-9471306D01*
X16406041Y-9471306D01*
X16406041Y-9471306D01*
X16393523Y-9467630D01*
X16380477Y-9467630D01*
X16367959Y-9471306D01*
X16367958Y-9471306D01*
X16356984Y-9478359D01*
X16356984Y-9478359D01*
X16348440Y-9488219D01*
X16348440Y-9488219D01*
X16343020Y-9500086D01*
X16343020Y-9500086D01*
X16341163Y-9513000D01*
X15342645Y-9513000D01*
X15338733Y-9503555D01*
X15338733Y-9503555D01*
X15338733Y-9503554D01*
X15329056Y-9490944D01*
X15322899Y-9486219D01*
X15316445Y-9481267D01*
X15316445Y-9481267D01*
X15316445Y-9481267D01*
X15301760Y-9475184D01*
X15301759Y-9475184D01*
X15286000Y-9473109D01*
X15286000Y-9473109D01*
X15270240Y-9475184D01*
X15270240Y-9475184D01*
X15255554Y-9481267D01*
X15242944Y-9490944D01*
X15233267Y-9503554D01*
X15227184Y-9518240D01*
X15227184Y-9518240D01*
X15225109Y-9534000D01*
X14598908Y-9534000D01*
X14598845Y-9376000D01*
X15234109Y-9376000D01*
X15234109Y-9376000D01*
X15236184Y-9391760D01*
X15236184Y-9391760D01*
X15242267Y-9406445D01*
X15242267Y-9406445D01*
X15242267Y-9406446D01*
X15251944Y-9419056D01*
X15264554Y-9428733D01*
X15264555Y-9428733D01*
X15264555Y-9428733D01*
X15269450Y-9430761D01*
X15279240Y-9434816D01*
X15287120Y-9435854D01*
X15295000Y-9436891D01*
X15295000Y-9436891D01*
X15295000Y-9436891D01*
X15300253Y-9436199D01*
X15310760Y-9434816D01*
X15322689Y-9429875D01*
X15628729Y-9429875D01*
X15628729Y-9429875D01*
X15630804Y-9445635D01*
X15630804Y-9445635D01*
X15636887Y-9460320D01*
X15636887Y-9460320D01*
X15636887Y-9460321D01*
X15646564Y-9472931D01*
X15659174Y-9482608D01*
X15673860Y-9488691D01*
X15681740Y-9489729D01*
X15689620Y-9490766D01*
X15689620Y-9490766D01*
X15689620Y-9490766D01*
X15694873Y-9490074D01*
X15705380Y-9488691D01*
X15720065Y-9482608D01*
X15732676Y-9472931D01*
X15742353Y-9460321D01*
X15748436Y-9445635D01*
X15750511Y-9429875D01*
X15748436Y-9414115D01*
X15742353Y-9399430D01*
X15742353Y-9399430D01*
X15742353Y-9399429D01*
X15732676Y-9386819D01*
X15727610Y-9382931D01*
X15720065Y-9377142D01*
X15720065Y-9377142D01*
X15720065Y-9377142D01*
X15705380Y-9371059D01*
X15705379Y-9371059D01*
X15689620Y-9368984D01*
X15689620Y-9368984D01*
X15673860Y-9371059D01*
X15673860Y-9371059D01*
X15659174Y-9377142D01*
X15646564Y-9386819D01*
X15636887Y-9399429D01*
X15630804Y-9414115D01*
X15630804Y-9414115D01*
X15628729Y-9429875D01*
X15322689Y-9429875D01*
X15325445Y-9428733D01*
X15338056Y-9419056D01*
X15347733Y-9406446D01*
X15353816Y-9391760D01*
X15355891Y-9376000D01*
X15355143Y-9370320D01*
X15353816Y-9360240D01*
X15353816Y-9360240D01*
X15347733Y-9345555D01*
X15347733Y-9345555D01*
X15347733Y-9345554D01*
X15343375Y-9339875D01*
X17227729Y-9339875D01*
X17227729Y-9339875D01*
X17229804Y-9355635D01*
X17229804Y-9355635D01*
X17235887Y-9370320D01*
X17235887Y-9370320D01*
X17235887Y-9370321D01*
X17245564Y-9382931D01*
X17258175Y-9392608D01*
X17272860Y-9398691D01*
X17278468Y-9399429D01*
X17288620Y-9400766D01*
X17288620Y-9400766D01*
X17288620Y-9400766D01*
X17293873Y-9400074D01*
X17304380Y-9398691D01*
X17319066Y-9392608D01*
X17331676Y-9382931D01*
X17341353Y-9370321D01*
X17347436Y-9355635D01*
X17349511Y-9339875D01*
X17347436Y-9324115D01*
X17341353Y-9309430D01*
X17341353Y-9309430D01*
X17341353Y-9309429D01*
X17331677Y-9296819D01*
X17330142Y-9295641D01*
X17319066Y-9287142D01*
X17319065Y-9287142D01*
X17319065Y-9287142D01*
X17304380Y-9281059D01*
X17304380Y-9281059D01*
X17288620Y-9278984D01*
X17288620Y-9278984D01*
X17272860Y-9281059D01*
X17272860Y-9281059D01*
X17258174Y-9287142D01*
X17245564Y-9296819D01*
X17235887Y-9309429D01*
X17229804Y-9324115D01*
X17229804Y-9324115D01*
X17227729Y-9339875D01*
X15343375Y-9339875D01*
X15338056Y-9332944D01*
X15338056Y-9332944D01*
X15325445Y-9323267D01*
X15325445Y-9323267D01*
X15325445Y-9323267D01*
X15310760Y-9317184D01*
X15310759Y-9317184D01*
X15295000Y-9315109D01*
X15295000Y-9315109D01*
X15279240Y-9317184D01*
X15279240Y-9317184D01*
X15264554Y-9323267D01*
X15251944Y-9332944D01*
X15242267Y-9345554D01*
X15236184Y-9360240D01*
X15236184Y-9360240D01*
X15234109Y-9376000D01*
X14598845Y-9376000D01*
X14598781Y-9217875D01*
X14666740Y-9217875D01*
X14668775Y-9238531D01*
X14668775Y-9238531D01*
X14674800Y-9258393D01*
X14674800Y-9258394D01*
X14674800Y-9258394D01*
X14674800Y-9258394D01*
X14684584Y-9276698D01*
X14684584Y-9276699D01*
X14697752Y-9292743D01*
X14713796Y-9305911D01*
X14713797Y-9305911D01*
X14732101Y-9315695D01*
X14732101Y-9315695D01*
X14732102Y-9315695D01*
X14751964Y-9321720D01*
X14751964Y-9321720D01*
X14753816Y-9321903D01*
X14772620Y-9323755D01*
X14793276Y-9321720D01*
X14813138Y-9315695D01*
X14831444Y-9305911D01*
X14847488Y-9292743D01*
X14860656Y-9276699D01*
X14869047Y-9261000D01*
X16258163Y-9261000D01*
X16260020Y-9273914D01*
X16260020Y-9273914D01*
X16265440Y-9285781D01*
X16265440Y-9285781D01*
X16271473Y-9292743D01*
X16273984Y-9295641D01*
X16273984Y-9295641D01*
X16284958Y-9302694D01*
X16284958Y-9302694D01*
X16284959Y-9302694D01*
X16297477Y-9306370D01*
X16310523Y-9306370D01*
X16323041Y-9302694D01*
X16334016Y-9295641D01*
X16342560Y-9285781D01*
X16347980Y-9273914D01*
X16349836Y-9261000D01*
X16347980Y-9248086D01*
X16347980Y-9248086D01*
X16343616Y-9238531D01*
X16342560Y-9236219D01*
X16334016Y-9226359D01*
X16334016Y-9226359D01*
X16334016Y-9226359D01*
X16334016Y-9226359D01*
X16323042Y-9219306D01*
X16323041Y-9219306D01*
X16323041Y-9219306D01*
X16310523Y-9215630D01*
X16297477Y-9215630D01*
X16284959Y-9219306D01*
X16284958Y-9219306D01*
X16273984Y-9226359D01*
X16273984Y-9226359D01*
X16265440Y-9236219D01*
X16265440Y-9236219D01*
X16260020Y-9248086D01*
X16260020Y-9248086D01*
X16258163Y-9261000D01*
X14869047Y-9261000D01*
X14870440Y-9258393D01*
X14876465Y-9238531D01*
X14878500Y-9217875D01*
X14876465Y-9197219D01*
X14870440Y-9177357D01*
X14870440Y-9177356D01*
X14860656Y-9159052D01*
X14860656Y-9159051D01*
X14858152Y-9156000D01*
X14926109Y-9156000D01*
X14926109Y-9156000D01*
X14928184Y-9171760D01*
X14928184Y-9171760D01*
X14934267Y-9186445D01*
X14934267Y-9186445D01*
X14934267Y-9186446D01*
X14943944Y-9199056D01*
X14956554Y-9208733D01*
X14971240Y-9214816D01*
X14977422Y-9215630D01*
X14987000Y-9216891D01*
X14987000Y-9216891D01*
X14987000Y-9216891D01*
X14992253Y-9216199D01*
X15002760Y-9214816D01*
X15017445Y-9208733D01*
X15030056Y-9199056D01*
X15039733Y-9186446D01*
X15045816Y-9171760D01*
X15047891Y-9156000D01*
X15045816Y-9140240D01*
X15041409Y-9129601D01*
X15071110Y-9129601D01*
X15071110Y-9129602D01*
X15073184Y-9145361D01*
X15073185Y-9145362D01*
X15079267Y-9160047D01*
X15079267Y-9160047D01*
X15079267Y-9160047D01*
X15088944Y-9172658D01*
X15101555Y-9182335D01*
X15116241Y-9188418D01*
X15124121Y-9189455D01*
X15132000Y-9190493D01*
X15132001Y-9190493D01*
X15132001Y-9190493D01*
X15137254Y-9189801D01*
X15147760Y-9188418D01*
X15162446Y-9182335D01*
X15175057Y-9172658D01*
X15184734Y-9160047D01*
X15190817Y-9145361D01*
X15192891Y-9129602D01*
X15190817Y-9113842D01*
X15184734Y-9099156D01*
X15184734Y-9099156D01*
X15184734Y-9099156D01*
X15175057Y-9086545D01*
X15162446Y-9076868D01*
X15150692Y-9072000D01*
X17321515Y-9072000D01*
X17323453Y-9096636D01*
X17329222Y-9120665D01*
X17338679Y-9143497D01*
X17338679Y-9143497D01*
X17351396Y-9164249D01*
X17409711Y-9105933D01*
X17410764Y-9108473D01*
X17419190Y-9121085D01*
X17429915Y-9131810D01*
X17442527Y-9140237D01*
X17445067Y-9141289D01*
X17386751Y-9199604D01*
X17407503Y-9212321D01*
X17407503Y-9212321D01*
X17430335Y-9221778D01*
X17454364Y-9227547D01*
X17454364Y-9227547D01*
X17479000Y-9229485D01*
X17503636Y-9227547D01*
X17527665Y-9221778D01*
X17550497Y-9212321D01*
X17550497Y-9212321D01*
X17571249Y-9199604D01*
X17512933Y-9141289D01*
X17515473Y-9140237D01*
X17528085Y-9131810D01*
X17538810Y-9121085D01*
X17547237Y-9108473D01*
X17548289Y-9105933D01*
X17606604Y-9164249D01*
X17619321Y-9143497D01*
X17619321Y-9143497D01*
X17628778Y-9120665D01*
X17634547Y-9096636D01*
X17636485Y-9072000D01*
X17634547Y-9047364D01*
X17628778Y-9023335D01*
X17619321Y-9000503D01*
X17619321Y-9000503D01*
X17606604Y-8979751D01*
X17548289Y-9038067D01*
X17547237Y-9035527D01*
X17538810Y-9022915D01*
X17528085Y-9012190D01*
X17515473Y-9003764D01*
X17512933Y-9002711D01*
X17571249Y-8944396D01*
X17550497Y-8931679D01*
X17550497Y-8931679D01*
X17527665Y-8922222D01*
X17503636Y-8916453D01*
X17503636Y-8916453D01*
X17479000Y-8914515D01*
X17454364Y-8916453D01*
X17430335Y-8922222D01*
X17407504Y-8931679D01*
X17407503Y-8931679D01*
X17386751Y-8944396D01*
X17445067Y-9002711D01*
X17442527Y-9003764D01*
X17429915Y-9012190D01*
X17419190Y-9022915D01*
X17410764Y-9035527D01*
X17409711Y-9038067D01*
X17351396Y-8979751D01*
X17338679Y-9000503D01*
X17338679Y-9000504D01*
X17329222Y-9023335D01*
X17323453Y-9047364D01*
X17321515Y-9072000D01*
X15150692Y-9072000D01*
X15147761Y-9070786D01*
X15147760Y-9070785D01*
X15132001Y-9068711D01*
X15132000Y-9068711D01*
X15116241Y-9070785D01*
X15116241Y-9070786D01*
X15101555Y-9076869D01*
X15088944Y-9086545D01*
X15079267Y-9099156D01*
X15073184Y-9113842D01*
X15073184Y-9113842D01*
X15071110Y-9129601D01*
X15041409Y-9129601D01*
X15039733Y-9125555D01*
X15039733Y-9125555D01*
X15039733Y-9125554D01*
X15030056Y-9112944D01*
X15028820Y-9111995D01*
X15017445Y-9103267D01*
X15017445Y-9103267D01*
X15017445Y-9103267D01*
X15002760Y-9097184D01*
X15002759Y-9097184D01*
X14987000Y-9095109D01*
X14987000Y-9095109D01*
X14971240Y-9097184D01*
X14971240Y-9097184D01*
X14956554Y-9103267D01*
X14943944Y-9112944D01*
X14934267Y-9125554D01*
X14928184Y-9140240D01*
X14928184Y-9140240D01*
X14926109Y-9156000D01*
X14858152Y-9156000D01*
X14847488Y-9143007D01*
X14831444Y-9129839D01*
X14831443Y-9129839D01*
X14813139Y-9120055D01*
X14813139Y-9120055D01*
X14813139Y-9120055D01*
X14813138Y-9120055D01*
X14793276Y-9114030D01*
X14793276Y-9114030D01*
X14793276Y-9114030D01*
X14772620Y-9111995D01*
X14751964Y-9114030D01*
X14740236Y-9117587D01*
X14732102Y-9120055D01*
X14732101Y-9120055D01*
X14732101Y-9120055D01*
X14732101Y-9120055D01*
X14713797Y-9129839D01*
X14713796Y-9129839D01*
X14697752Y-9143007D01*
X14684584Y-9159051D01*
X14684584Y-9159052D01*
X14674800Y-9177356D01*
X14674800Y-9177356D01*
X14668775Y-9197219D01*
X14666740Y-9217875D01*
X14598781Y-9217875D01*
X14598567Y-8684875D01*
X14639556Y-8684875D01*
X14639556Y-8684875D01*
X14729319Y-8684875D01*
X14726027Y-8690576D01*
X14722620Y-8703292D01*
X14722620Y-8716458D01*
X14726027Y-8729174D01*
X14729319Y-8734875D01*
X14639556Y-8734875D01*
X14645277Y-8756224D01*
X14645277Y-8756224D01*
X14655260Y-8777633D01*
X14668809Y-8796983D01*
X14685512Y-8813686D01*
X14704862Y-8827235D01*
X14726271Y-8837218D01*
X14726272Y-8837218D01*
X14737900Y-8840334D01*
X14743866Y-8843971D01*
X14746919Y-8850255D01*
X14746089Y-8857193D01*
X14741641Y-8862581D01*
X14738290Y-8864178D01*
X14732101Y-8866055D01*
X14732101Y-8866055D01*
X14713797Y-8875839D01*
X14713796Y-8875839D01*
X14697752Y-8889007D01*
X14684584Y-8905051D01*
X14684584Y-8905052D01*
X14674800Y-8923356D01*
X14674800Y-8923356D01*
X14674800Y-8923356D01*
X14674800Y-8923357D01*
X14673105Y-8928944D01*
X14668775Y-8943219D01*
X14666740Y-8963875D01*
X14668775Y-8984531D01*
X14670434Y-8990000D01*
X14674800Y-9004393D01*
X14674800Y-9004394D01*
X14674800Y-9004394D01*
X14674800Y-9004394D01*
X14684584Y-9022698D01*
X14684584Y-9022699D01*
X14697752Y-9038743D01*
X14713796Y-9051911D01*
X14713797Y-9051911D01*
X14732101Y-9061695D01*
X14732101Y-9061695D01*
X14732102Y-9061695D01*
X14751964Y-9067720D01*
X14751964Y-9067720D01*
X14753816Y-9067903D01*
X14772620Y-9069755D01*
X14793276Y-9067720D01*
X14813138Y-9061695D01*
X14831444Y-9051911D01*
X14847488Y-9038743D01*
X14860656Y-9022699D01*
X14870440Y-9004393D01*
X14876465Y-8984531D01*
X14877700Y-8972000D01*
X15092109Y-8972000D01*
X15092109Y-8972000D01*
X15094184Y-8987760D01*
X15094184Y-8987760D01*
X15100267Y-9002445D01*
X15100267Y-9002445D01*
X15100267Y-9002446D01*
X15109944Y-9015056D01*
X15122554Y-9024733D01*
X15137240Y-9030816D01*
X15145120Y-9031854D01*
X15153000Y-9032891D01*
X15153000Y-9032891D01*
X15153000Y-9032891D01*
X15158253Y-9032199D01*
X15168760Y-9030816D01*
X15183445Y-9024733D01*
X15196056Y-9015056D01*
X15205733Y-9002446D01*
X15210888Y-8990000D01*
X15238109Y-8990000D01*
X15238109Y-8990000D01*
X15240184Y-9005760D01*
X15240184Y-9005760D01*
X15246267Y-9020445D01*
X15246267Y-9020445D01*
X15246267Y-9020446D01*
X15255944Y-9033056D01*
X15268554Y-9042733D01*
X15283240Y-9048816D01*
X15288738Y-9049540D01*
X15299000Y-9050891D01*
X15299000Y-9050891D01*
X15299000Y-9050891D01*
X15304253Y-9050199D01*
X15314760Y-9048816D01*
X15329445Y-9042733D01*
X15342056Y-9033056D01*
X15351733Y-9020446D01*
X15357816Y-9005760D01*
X15359256Y-8994824D01*
X16109464Y-8994824D01*
X16109464Y-8994824D01*
X16111539Y-9010584D01*
X16111539Y-9010584D01*
X16117622Y-9025270D01*
X16117622Y-9025270D01*
X16117622Y-9025270D01*
X16127298Y-9037881D01*
X16139909Y-9047557D01*
X16154595Y-9053640D01*
X16162475Y-9054678D01*
X16170355Y-9055715D01*
X16170355Y-9055715D01*
X16170355Y-9055715D01*
X16175608Y-9055024D01*
X16186115Y-9053640D01*
X16200800Y-9047557D01*
X16213411Y-9037881D01*
X16223088Y-9025270D01*
X16229171Y-9010584D01*
X16231246Y-8994824D01*
X16230611Y-8990000D01*
X16229171Y-8979065D01*
X16229171Y-8979065D01*
X16223088Y-8964379D01*
X16223088Y-8964379D01*
X16223088Y-8964379D01*
X16213411Y-8951768D01*
X16207124Y-8946944D01*
X16200800Y-8942091D01*
X16200800Y-8942091D01*
X16200800Y-8942091D01*
X16186115Y-8936008D01*
X16186114Y-8936008D01*
X16170355Y-8933933D01*
X16170355Y-8933933D01*
X16154595Y-8936008D01*
X16154595Y-8936008D01*
X16139909Y-8942091D01*
X16127298Y-8951768D01*
X16117622Y-8964379D01*
X16111539Y-8979065D01*
X16111539Y-8979065D01*
X16109464Y-8994824D01*
X15359256Y-8994824D01*
X15359891Y-8990000D01*
X15359596Y-8987760D01*
X15357816Y-8974240D01*
X15357816Y-8974240D01*
X15351733Y-8959555D01*
X15351733Y-8959555D01*
X15351733Y-8959554D01*
X15342056Y-8946944D01*
X15341727Y-8946691D01*
X15329445Y-8937267D01*
X15329445Y-8937267D01*
X15329445Y-8937267D01*
X15314760Y-8931184D01*
X15314759Y-8931184D01*
X15299000Y-8929109D01*
X15299000Y-8929109D01*
X15283240Y-8931184D01*
X15283240Y-8931184D01*
X15268554Y-8937267D01*
X15255944Y-8946944D01*
X15246267Y-8959554D01*
X15240184Y-8974240D01*
X15240184Y-8974240D01*
X15238109Y-8990000D01*
X15210888Y-8990000D01*
X15211816Y-8987760D01*
X15213199Y-8977253D01*
X15213891Y-8972000D01*
X15213891Y-8972000D01*
X15211816Y-8956240D01*
X15211816Y-8956240D01*
X15205733Y-8941555D01*
X15205733Y-8941555D01*
X15205733Y-8941554D01*
X15196056Y-8928944D01*
X15196056Y-8928944D01*
X15183445Y-8919267D01*
X15183445Y-8919267D01*
X15183445Y-8919267D01*
X15168760Y-8913184D01*
X15168759Y-8913184D01*
X15153000Y-8911109D01*
X15153000Y-8911109D01*
X15137240Y-8913184D01*
X15137240Y-8913184D01*
X15122554Y-8919267D01*
X15109944Y-8928944D01*
X15100267Y-8941554D01*
X15094184Y-8956240D01*
X15094184Y-8956240D01*
X15092109Y-8972000D01*
X14877700Y-8972000D01*
X14878500Y-8963875D01*
X14876465Y-8943219D01*
X14870440Y-8923357D01*
X14870440Y-8923356D01*
X14860656Y-8905052D01*
X14860656Y-8905051D01*
X14847488Y-8889007D01*
X14831444Y-8875839D01*
X14831443Y-8875839D01*
X14830809Y-8875500D01*
X15459609Y-8875500D01*
X15459609Y-8875500D01*
X15461684Y-8891259D01*
X15461684Y-8891260D01*
X15467767Y-8905945D01*
X15467767Y-8905945D01*
X15467767Y-8905945D01*
X15477444Y-8918556D01*
X15490055Y-8928233D01*
X15490055Y-8928233D01*
X15490055Y-8928233D01*
X15491770Y-8928944D01*
X15504740Y-8934316D01*
X15511766Y-8935241D01*
X15520500Y-8936391D01*
X15520500Y-8936391D01*
X15520500Y-8936391D01*
X15525753Y-8935699D01*
X15536260Y-8934316D01*
X15550946Y-8928233D01*
X15563556Y-8918556D01*
X15573233Y-8905945D01*
X15579316Y-8891260D01*
X15581391Y-8875500D01*
X15581240Y-8874350D01*
X15581240Y-8874350D01*
X16223459Y-8874350D01*
X16223459Y-8874350D01*
X16225534Y-8890110D01*
X16225534Y-8890110D01*
X16231617Y-8904795D01*
X16231617Y-8904796D01*
X16231617Y-8904796D01*
X16241294Y-8917407D01*
X16253905Y-8927083D01*
X16268590Y-8933166D01*
X16274418Y-8933933D01*
X16284350Y-8935241D01*
X16284350Y-8935241D01*
X16284350Y-8935241D01*
X16291378Y-8934316D01*
X16300110Y-8933166D01*
X16314796Y-8927083D01*
X16327406Y-8917407D01*
X16337083Y-8904796D01*
X16343166Y-8890110D01*
X16343460Y-8887875D01*
X17227729Y-8887875D01*
X17227729Y-8887875D01*
X17229804Y-8903635D01*
X17229804Y-8903635D01*
X17235887Y-8918320D01*
X17235887Y-8918320D01*
X17235887Y-8918321D01*
X17245564Y-8930931D01*
X17258175Y-8940608D01*
X17258175Y-8940608D01*
X17258175Y-8940608D01*
X17263070Y-8942636D01*
X17272860Y-8946691D01*
X17280740Y-8947729D01*
X17288620Y-8948766D01*
X17288620Y-8948766D01*
X17288620Y-8948766D01*
X17293873Y-8948074D01*
X17304380Y-8946691D01*
X17319066Y-8940608D01*
X17331676Y-8930931D01*
X17341353Y-8918321D01*
X17347436Y-8903635D01*
X17349065Y-8891259D01*
X17349511Y-8887875D01*
X17349511Y-8887875D01*
X17347436Y-8872115D01*
X17347436Y-8872115D01*
X17341353Y-8857430D01*
X17341353Y-8857430D01*
X17341353Y-8857429D01*
X17331677Y-8844819D01*
X17327581Y-8841676D01*
X17319066Y-8835142D01*
X17319065Y-8835142D01*
X17319065Y-8835142D01*
X17304380Y-8829059D01*
X17304380Y-8829059D01*
X17288620Y-8826984D01*
X17288620Y-8826984D01*
X17272860Y-8829059D01*
X17272860Y-8829059D01*
X17258174Y-8835142D01*
X17245564Y-8844819D01*
X17235887Y-8857429D01*
X17229804Y-8872115D01*
X17229804Y-8872115D01*
X17227729Y-8887875D01*
X16343460Y-8887875D01*
X16345241Y-8874350D01*
X16344149Y-8866055D01*
X16343166Y-8858591D01*
X16343166Y-8858590D01*
X16337083Y-8843905D01*
X16337083Y-8843905D01*
X16337083Y-8843905D01*
X16327407Y-8831294D01*
X16327406Y-8831294D01*
X16314796Y-8821617D01*
X16314795Y-8821617D01*
X16314795Y-8821617D01*
X16300110Y-8815534D01*
X16300110Y-8815534D01*
X16284350Y-8813459D01*
X16284350Y-8813459D01*
X16268590Y-8815534D01*
X16268590Y-8815534D01*
X16253904Y-8821617D01*
X16241294Y-8831294D01*
X16231617Y-8843905D01*
X16225534Y-8858590D01*
X16225534Y-8858591D01*
X16223459Y-8874350D01*
X15581240Y-8874350D01*
X15579316Y-8859740D01*
X15579316Y-8859740D01*
X15573233Y-8845055D01*
X15573233Y-8845054D01*
X15573233Y-8845054D01*
X15563557Y-8832444D01*
X15562058Y-8831294D01*
X15550946Y-8822767D01*
X15550945Y-8822767D01*
X15550945Y-8822767D01*
X15536260Y-8816684D01*
X15536260Y-8816684D01*
X15520500Y-8814609D01*
X15520500Y-8814609D01*
X15504740Y-8816684D01*
X15504740Y-8816684D01*
X15490054Y-8822767D01*
X15477444Y-8832444D01*
X15467767Y-8845054D01*
X15461684Y-8859740D01*
X15461684Y-8859740D01*
X15459609Y-8875500D01*
X14830809Y-8875500D01*
X14813139Y-8866055D01*
X14813138Y-8866055D01*
X14813138Y-8866055D01*
X14813138Y-8866055D01*
X14806950Y-8864178D01*
X14801106Y-8860348D01*
X14798260Y-8853967D01*
X14799316Y-8847060D01*
X14803939Y-8841821D01*
X14807340Y-8840334D01*
X14818968Y-8837218D01*
X14818969Y-8837218D01*
X14840378Y-8827235D01*
X14859728Y-8813686D01*
X14874794Y-8798620D01*
X15911779Y-8798620D01*
X15911779Y-8798620D01*
X15913854Y-8814380D01*
X15913854Y-8814380D01*
X15919937Y-8829065D01*
X15919937Y-8829065D01*
X15919937Y-8829066D01*
X15929614Y-8841676D01*
X15942225Y-8851353D01*
X15956910Y-8857436D01*
X15961157Y-8857995D01*
X15972670Y-8859511D01*
X15972670Y-8859511D01*
X15972670Y-8859511D01*
X15979662Y-8858590D01*
X15988430Y-8857436D01*
X16003116Y-8851353D01*
X16015727Y-8841676D01*
X16025403Y-8829066D01*
X16031486Y-8814380D01*
X16033561Y-8798620D01*
X16032918Y-8793733D01*
X16031644Y-8784056D01*
X16031486Y-8782860D01*
X16025403Y-8768175D01*
X16025403Y-8768175D01*
X16025403Y-8768174D01*
X16015727Y-8755564D01*
X16003115Y-8745887D01*
X15991317Y-8741000D01*
X17243109Y-8741000D01*
X17243109Y-8741000D01*
X17245184Y-8756760D01*
X17245184Y-8756760D01*
X17251267Y-8771445D01*
X17251267Y-8771445D01*
X17251267Y-8771446D01*
X17260944Y-8784056D01*
X17273555Y-8793733D01*
X17288240Y-8799816D01*
X17296120Y-8800854D01*
X17304000Y-8801891D01*
X17304000Y-8801891D01*
X17304000Y-8801891D01*
X17309253Y-8801199D01*
X17319760Y-8799816D01*
X17334446Y-8793733D01*
X17347056Y-8784056D01*
X17356733Y-8771446D01*
X17362816Y-8756760D01*
X17364248Y-8745887D01*
X17364891Y-8741000D01*
X17364891Y-8741000D01*
X17362816Y-8725240D01*
X17362816Y-8725240D01*
X17356733Y-8710555D01*
X17356733Y-8710555D01*
X17356733Y-8710554D01*
X17347057Y-8697944D01*
X17347056Y-8697944D01*
X17334446Y-8688267D01*
X17334445Y-8688267D01*
X17334445Y-8688267D01*
X17319760Y-8682184D01*
X17319760Y-8682184D01*
X17304000Y-8680109D01*
X17304000Y-8680109D01*
X17288240Y-8682184D01*
X17288240Y-8682184D01*
X17273554Y-8688267D01*
X17260944Y-8697944D01*
X17251267Y-8710554D01*
X17245184Y-8725240D01*
X17245184Y-8725240D01*
X17243109Y-8741000D01*
X15991317Y-8741000D01*
X15988430Y-8739804D01*
X15988430Y-8739804D01*
X15972670Y-8737729D01*
X15972670Y-8737729D01*
X15956911Y-8739804D01*
X15956910Y-8739804D01*
X15942225Y-8745887D01*
X15929614Y-8755564D01*
X15919937Y-8768174D01*
X15913854Y-8782860D01*
X15913854Y-8782860D01*
X15911779Y-8798620D01*
X14874794Y-8798620D01*
X14876430Y-8796983D01*
X14889980Y-8777633D01*
X14899963Y-8756224D01*
X14899963Y-8756224D01*
X14905684Y-8734875D01*
X14815921Y-8734875D01*
X14819212Y-8729174D01*
X14820063Y-8726000D01*
X15474109Y-8726000D01*
X15474109Y-8726000D01*
X15476184Y-8741760D01*
X15476184Y-8741760D01*
X15482267Y-8756445D01*
X15482267Y-8756445D01*
X15482267Y-8756446D01*
X15491944Y-8769056D01*
X15504554Y-8778733D01*
X15519240Y-8784816D01*
X15527120Y-8785854D01*
X15535000Y-8786891D01*
X15535000Y-8786891D01*
X15535000Y-8786891D01*
X15540253Y-8786199D01*
X15550760Y-8784816D01*
X15565445Y-8778733D01*
X15578056Y-8769056D01*
X15587733Y-8756446D01*
X15593816Y-8741760D01*
X15595891Y-8726000D01*
X15595066Y-8719733D01*
X15593857Y-8710555D01*
X15593816Y-8710240D01*
X15587733Y-8695555D01*
X15587733Y-8695555D01*
X15587733Y-8695554D01*
X15578056Y-8682944D01*
X15577817Y-8682760D01*
X15565445Y-8673267D01*
X15565445Y-8673267D01*
X15565445Y-8673267D01*
X15550760Y-8667184D01*
X15550759Y-8667184D01*
X15549362Y-8667000D01*
X15996109Y-8667000D01*
X15996109Y-8667000D01*
X15998184Y-8682760D01*
X15998184Y-8682760D01*
X16004267Y-8697445D01*
X16004267Y-8697445D01*
X16004267Y-8697446D01*
X16013944Y-8710056D01*
X16026554Y-8719733D01*
X16041240Y-8725816D01*
X16049120Y-8726854D01*
X16057000Y-8727891D01*
X16057000Y-8727891D01*
X16057000Y-8727891D01*
X16062253Y-8727199D01*
X16072760Y-8725816D01*
X16087445Y-8719733D01*
X16100056Y-8710056D01*
X16109733Y-8697446D01*
X16115816Y-8682760D01*
X16117891Y-8667000D01*
X16117496Y-8664000D01*
X16115816Y-8651240D01*
X16115816Y-8651240D01*
X16109733Y-8636555D01*
X16109733Y-8636555D01*
X16109733Y-8636554D01*
X16100056Y-8623944D01*
X16097922Y-8622306D01*
X16087445Y-8614267D01*
X16087445Y-8614267D01*
X16087445Y-8614267D01*
X16084387Y-8613000D01*
X16459163Y-8613000D01*
X16461020Y-8625914D01*
X16461020Y-8625914D01*
X16465479Y-8635678D01*
X16466440Y-8637781D01*
X16474983Y-8647641D01*
X16474984Y-8647641D01*
X16474984Y-8647641D01*
X16485958Y-8654694D01*
X16485958Y-8654694D01*
X16485959Y-8654694D01*
X16498477Y-8658370D01*
X16511523Y-8658370D01*
X16524041Y-8654694D01*
X16535016Y-8647641D01*
X16540925Y-8640822D01*
X16561476Y-8640822D01*
X16563754Y-8645811D01*
X16563478Y-8649684D01*
X16563646Y-8649709D01*
X16561663Y-8663500D01*
X16563520Y-8676414D01*
X16563520Y-8676414D01*
X16567968Y-8686154D01*
X16568940Y-8688281D01*
X16577313Y-8697944D01*
X16577484Y-8698141D01*
X16577484Y-8698141D01*
X16588458Y-8705194D01*
X16588458Y-8705194D01*
X16588459Y-8705194D01*
X16600977Y-8708870D01*
X16614023Y-8708870D01*
X16626541Y-8705194D01*
X16637516Y-8698141D01*
X16646060Y-8688281D01*
X16650253Y-8679101D01*
X16651480Y-8676414D01*
X16651480Y-8676414D01*
X16651932Y-8673267D01*
X16653336Y-8663500D01*
X16651480Y-8650586D01*
X16651480Y-8650586D01*
X16648682Y-8644460D01*
X16676822Y-8644460D01*
X16678679Y-8657373D01*
X16678679Y-8657374D01*
X16683159Y-8667184D01*
X16684099Y-8669241D01*
X16690314Y-8676414D01*
X16692643Y-8679101D01*
X16692643Y-8679101D01*
X16703617Y-8686154D01*
X16703617Y-8686154D01*
X16703618Y-8686154D01*
X16716136Y-8689830D01*
X16729182Y-8689830D01*
X16741700Y-8686154D01*
X16752675Y-8679101D01*
X16761219Y-8669241D01*
X16763612Y-8664000D01*
X16949164Y-8664000D01*
X16951020Y-8676914D01*
X16951020Y-8676914D01*
X16956440Y-8688781D01*
X16956440Y-8688781D01*
X16964550Y-8698141D01*
X16964984Y-8698641D01*
X16964984Y-8698641D01*
X16975958Y-8705694D01*
X16975958Y-8705694D01*
X16975959Y-8705694D01*
X16988477Y-8709370D01*
X17001523Y-8709370D01*
X17014041Y-8705694D01*
X17025017Y-8698641D01*
X17033560Y-8688781D01*
X17037947Y-8679174D01*
X17038980Y-8676914D01*
X17038980Y-8676914D01*
X17039993Y-8669865D01*
X17040837Y-8664000D01*
X17038980Y-8651086D01*
X17038980Y-8651086D01*
X17033560Y-8639219D01*
X17033560Y-8639219D01*
X17025017Y-8629359D01*
X17025016Y-8629359D01*
X17025016Y-8629359D01*
X17025016Y-8629359D01*
X17014042Y-8622306D01*
X17014041Y-8622306D01*
X17014041Y-8622306D01*
X17001523Y-8618630D01*
X16988477Y-8618630D01*
X16975959Y-8622306D01*
X16975958Y-8622306D01*
X16964984Y-8629359D01*
X16964984Y-8629359D01*
X16956440Y-8639219D01*
X16956440Y-8639219D01*
X16951020Y-8651086D01*
X16951020Y-8651086D01*
X16949164Y-8664000D01*
X16763612Y-8664000D01*
X16766639Y-8657373D01*
X16768495Y-8644460D01*
X16766639Y-8631546D01*
X16766639Y-8631546D01*
X16763147Y-8623901D01*
X16761219Y-8619679D01*
X16752675Y-8609819D01*
X16752675Y-8609819D01*
X16752675Y-8609819D01*
X16752675Y-8609819D01*
X16751401Y-8609000D01*
X16832164Y-8609000D01*
X16834020Y-8621914D01*
X16834020Y-8621914D01*
X16839440Y-8633781D01*
X16839440Y-8633781D01*
X16846663Y-8642117D01*
X16847984Y-8643641D01*
X16847984Y-8643641D01*
X16858958Y-8650694D01*
X16858958Y-8650694D01*
X16858959Y-8650694D01*
X16871477Y-8654370D01*
X16884523Y-8654370D01*
X16897041Y-8650694D01*
X16908017Y-8643641D01*
X16916560Y-8633781D01*
X16921801Y-8622306D01*
X16921980Y-8621914D01*
X16921980Y-8621914D01*
X16922301Y-8619679D01*
X16923837Y-8609000D01*
X16921980Y-8596086D01*
X16921980Y-8596086D01*
X16918743Y-8589000D01*
X17260109Y-8589000D01*
X17260109Y-8589000D01*
X17262184Y-8604760D01*
X17262184Y-8604760D01*
X17268267Y-8619445D01*
X17268267Y-8619445D01*
X17268267Y-8619446D01*
X17277944Y-8632056D01*
X17290555Y-8641733D01*
X17305240Y-8647816D01*
X17313120Y-8648854D01*
X17321000Y-8649891D01*
X17321000Y-8649891D01*
X17321000Y-8649891D01*
X17326253Y-8649199D01*
X17336760Y-8647816D01*
X17351446Y-8641733D01*
X17364056Y-8632056D01*
X17373733Y-8619446D01*
X17379816Y-8604760D01*
X17381891Y-8589000D01*
X17379816Y-8573240D01*
X17373733Y-8558555D01*
X17373733Y-8558555D01*
X17373733Y-8558554D01*
X17364057Y-8545944D01*
X17361407Y-8543911D01*
X17351446Y-8536267D01*
X17351445Y-8536267D01*
X17351445Y-8536267D01*
X17336760Y-8530184D01*
X17336760Y-8530184D01*
X17321000Y-8528109D01*
X17321000Y-8528109D01*
X17305240Y-8530184D01*
X17305240Y-8530184D01*
X17290554Y-8536267D01*
X17277944Y-8545944D01*
X17268267Y-8558554D01*
X17262184Y-8573240D01*
X17262184Y-8573240D01*
X17260109Y-8589000D01*
X16918743Y-8589000D01*
X16918387Y-8588219D01*
X16916560Y-8584219D01*
X16908017Y-8574359D01*
X16908016Y-8574359D01*
X16908016Y-8574359D01*
X16908016Y-8574359D01*
X16897042Y-8567306D01*
X16897041Y-8567306D01*
X16897041Y-8567306D01*
X16884523Y-8563630D01*
X16871477Y-8563630D01*
X16858959Y-8567306D01*
X16858958Y-8567306D01*
X16847984Y-8574359D01*
X16847984Y-8574359D01*
X16839440Y-8584219D01*
X16839440Y-8584219D01*
X16834020Y-8596086D01*
X16834020Y-8596086D01*
X16832164Y-8609000D01*
X16751401Y-8609000D01*
X16741701Y-8602766D01*
X16741700Y-8602766D01*
X16741700Y-8602766D01*
X16729182Y-8599090D01*
X16716136Y-8599090D01*
X16703618Y-8602766D01*
X16703617Y-8602766D01*
X16692643Y-8609819D01*
X16692643Y-8609819D01*
X16684099Y-8619679D01*
X16684099Y-8619679D01*
X16678679Y-8631546D01*
X16678679Y-8631546D01*
X16676822Y-8644460D01*
X16648682Y-8644460D01*
X16647612Y-8642117D01*
X16646060Y-8638719D01*
X16637516Y-8628859D01*
X16637516Y-8628859D01*
X16637516Y-8628859D01*
X16637516Y-8628859D01*
X16626542Y-8621806D01*
X16626541Y-8621806D01*
X16626541Y-8621806D01*
X16614023Y-8618130D01*
X16600977Y-8618130D01*
X16588459Y-8621806D01*
X16588458Y-8621806D01*
X16577484Y-8628859D01*
X16577483Y-8628859D01*
X16570390Y-8637045D01*
X16564513Y-8640822D01*
X16561476Y-8640822D01*
X16540925Y-8640822D01*
X16542109Y-8639455D01*
X16547987Y-8635678D01*
X16551023Y-8635678D01*
X16548745Y-8630689D01*
X16549022Y-8626816D01*
X16548854Y-8626791D01*
X16549498Y-8622306D01*
X16550836Y-8613000D01*
X16548980Y-8600086D01*
X16548980Y-8600086D01*
X16545488Y-8592442D01*
X16543560Y-8588219D01*
X16535016Y-8578359D01*
X16535016Y-8578359D01*
X16535016Y-8578359D01*
X16535016Y-8578359D01*
X16524042Y-8571306D01*
X16524041Y-8571306D01*
X16524041Y-8571306D01*
X16511523Y-8567630D01*
X16498477Y-8567630D01*
X16485959Y-8571306D01*
X16485958Y-8571306D01*
X16474984Y-8578359D01*
X16474984Y-8578359D01*
X16466440Y-8588219D01*
X16466440Y-8588219D01*
X16461020Y-8600086D01*
X16461020Y-8600086D01*
X16459163Y-8613000D01*
X16084387Y-8613000D01*
X16072760Y-8608184D01*
X16072759Y-8608184D01*
X16057000Y-8606109D01*
X16057000Y-8606109D01*
X16041240Y-8608184D01*
X16041240Y-8608184D01*
X16026554Y-8614267D01*
X16013944Y-8623944D01*
X16004267Y-8636554D01*
X15998184Y-8651240D01*
X15998184Y-8651240D01*
X15996109Y-8667000D01*
X15549362Y-8667000D01*
X15535000Y-8665109D01*
X15535000Y-8665109D01*
X15519240Y-8667184D01*
X15519240Y-8667184D01*
X15504554Y-8673267D01*
X15491944Y-8682944D01*
X15482267Y-8695554D01*
X15476184Y-8710240D01*
X15476184Y-8710240D01*
X15474109Y-8726000D01*
X14820063Y-8726000D01*
X14822620Y-8716458D01*
X14822620Y-8703292D01*
X14819212Y-8690576D01*
X14815921Y-8684875D01*
X14905684Y-8684875D01*
X14905683Y-8684875D01*
X14899963Y-8663526D01*
X14899963Y-8663526D01*
X14889980Y-8642117D01*
X14889980Y-8642117D01*
X14876431Y-8622768D01*
X14876431Y-8622767D01*
X14859728Y-8606064D01*
X14840378Y-8592515D01*
X14818969Y-8582532D01*
X14818969Y-8582532D01*
X14807340Y-8579416D01*
X14801374Y-8575779D01*
X14798321Y-8569495D01*
X14799151Y-8562557D01*
X14803599Y-8557169D01*
X14806950Y-8555573D01*
X14813138Y-8553695D01*
X14831444Y-8543911D01*
X14842667Y-8534700D01*
X16061809Y-8534700D01*
X16061809Y-8534700D01*
X16063884Y-8550460D01*
X16063884Y-8550460D01*
X16069967Y-8565146D01*
X16069967Y-8565146D01*
X16069967Y-8565146D01*
X16079644Y-8577757D01*
X16092255Y-8587433D01*
X16106941Y-8593516D01*
X16114820Y-8594554D01*
X16122700Y-8595591D01*
X16122700Y-8595591D01*
X16122700Y-8595591D01*
X16127953Y-8594900D01*
X16138460Y-8593516D01*
X16153146Y-8587433D01*
X16165757Y-8577757D01*
X16175433Y-8565146D01*
X16181516Y-8550460D01*
X16183591Y-8534700D01*
X16181516Y-8518941D01*
X16175433Y-8504255D01*
X16175433Y-8504255D01*
X16175433Y-8504255D01*
X16165757Y-8491644D01*
X16161963Y-8488733D01*
X16153146Y-8481967D01*
X16153146Y-8481967D01*
X16153145Y-8481967D01*
X16138460Y-8475884D01*
X16138460Y-8475884D01*
X16122700Y-8473809D01*
X16122700Y-8473809D01*
X16106941Y-8475884D01*
X16106940Y-8475884D01*
X16092255Y-8481967D01*
X16079644Y-8491644D01*
X16069967Y-8504255D01*
X16063884Y-8518941D01*
X16063884Y-8518941D01*
X16061809Y-8534700D01*
X14842667Y-8534700D01*
X14847488Y-8530743D01*
X14860656Y-8514699D01*
X14870440Y-8496393D01*
X14876465Y-8476531D01*
X14878500Y-8455875D01*
X14876542Y-8436000D01*
X15951109Y-8436000D01*
X15951109Y-8436000D01*
X15953184Y-8451760D01*
X15953184Y-8451760D01*
X15959267Y-8466445D01*
X15959267Y-8466445D01*
X15959267Y-8466446D01*
X15968944Y-8479056D01*
X15981554Y-8488733D01*
X15996240Y-8494816D01*
X16004120Y-8495854D01*
X16012000Y-8496891D01*
X16012000Y-8496891D01*
X16012000Y-8496891D01*
X16017253Y-8496199D01*
X16027760Y-8494816D01*
X16042445Y-8488733D01*
X16055056Y-8479056D01*
X16064733Y-8466446D01*
X16070816Y-8451760D01*
X16072891Y-8436000D01*
X16071315Y-8424027D01*
X16451328Y-8424027D01*
X16467205Y-8429582D01*
X16467206Y-8429582D01*
X16484000Y-8431475D01*
X16484000Y-8431475D01*
X16500794Y-8429582D01*
X16500794Y-8429582D01*
X16516671Y-8424027D01*
X16516671Y-8424027D01*
X16557995Y-8424027D01*
X16573872Y-8429582D01*
X16573872Y-8429582D01*
X16590666Y-8431475D01*
X16590667Y-8431475D01*
X16607460Y-8429582D01*
X16607461Y-8429582D01*
X16623338Y-8424027D01*
X16623338Y-8424027D01*
X16664662Y-8424027D01*
X16680539Y-8429582D01*
X16680539Y-8429582D01*
X16697333Y-8431475D01*
X16697334Y-8431475D01*
X16714127Y-8429582D01*
X16714128Y-8429582D01*
X16730005Y-8424027D01*
X16730005Y-8424027D01*
X16771328Y-8424027D01*
X16787205Y-8429582D01*
X16787206Y-8429582D01*
X16804000Y-8431475D01*
X16804000Y-8431475D01*
X16820794Y-8429582D01*
X16820794Y-8429582D01*
X16836671Y-8424027D01*
X16836671Y-8424027D01*
X16804000Y-8391355D01*
X16804000Y-8391355D01*
X16771328Y-8424027D01*
X16730005Y-8424027D01*
X16697333Y-8391355D01*
X16697333Y-8391355D01*
X16664662Y-8424027D01*
X16623338Y-8424027D01*
X16590667Y-8391355D01*
X16590667Y-8391355D01*
X16557995Y-8424027D01*
X16516671Y-8424027D01*
X16484000Y-8391355D01*
X16484000Y-8391355D01*
X16451328Y-8424027D01*
X16071315Y-8424027D01*
X16070816Y-8420240D01*
X16064733Y-8405555D01*
X16064733Y-8405555D01*
X16064733Y-8405554D01*
X16055056Y-8392944D01*
X16052987Y-8391355D01*
X16042445Y-8383267D01*
X16042445Y-8383267D01*
X16042445Y-8383267D01*
X16027760Y-8377184D01*
X16027759Y-8377184D01*
X16012000Y-8375109D01*
X16012000Y-8375109D01*
X15996240Y-8377184D01*
X15996240Y-8377184D01*
X15981554Y-8383267D01*
X15968944Y-8392944D01*
X15959267Y-8405554D01*
X15953184Y-8420240D01*
X15953184Y-8420240D01*
X15951109Y-8436000D01*
X14876542Y-8436000D01*
X14876465Y-8435219D01*
X14870440Y-8415357D01*
X14860656Y-8397051D01*
X14860656Y-8397051D01*
X14847488Y-8381007D01*
X14831444Y-8367839D01*
X14831443Y-8367839D01*
X14813139Y-8358055D01*
X14813139Y-8358055D01*
X14813139Y-8358055D01*
X14813138Y-8358055D01*
X14806363Y-8356000D01*
X16408525Y-8356000D01*
X16408525Y-8356000D01*
X16410418Y-8372794D01*
X16415973Y-8388671D01*
X16448645Y-8356000D01*
X16446655Y-8354011D01*
X16474000Y-8354011D01*
X16474000Y-8357989D01*
X16475522Y-8361664D01*
X16478335Y-8364478D01*
X16482011Y-8366000D01*
X16485989Y-8366000D01*
X16489664Y-8364478D01*
X16492478Y-8361664D01*
X16494000Y-8357989D01*
X16494000Y-8356000D01*
X16519355Y-8356000D01*
X16519355Y-8356000D01*
X16537333Y-8373978D01*
X16555311Y-8356000D01*
X16553322Y-8354011D01*
X16580667Y-8354011D01*
X16580667Y-8357989D01*
X16582189Y-8361664D01*
X16585002Y-8364478D01*
X16588678Y-8366000D01*
X16592656Y-8366000D01*
X16596331Y-8364478D01*
X16599144Y-8361664D01*
X16600667Y-8357989D01*
X16600667Y-8356000D01*
X16626022Y-8356000D01*
X16644000Y-8373978D01*
X16661978Y-8356000D01*
X16659989Y-8354011D01*
X16687333Y-8354011D01*
X16687333Y-8357989D01*
X16688856Y-8361664D01*
X16691669Y-8364478D01*
X16695344Y-8366000D01*
X16699322Y-8366000D01*
X16702998Y-8364478D01*
X16705811Y-8361664D01*
X16707333Y-8357989D01*
X16707333Y-8356000D01*
X16732689Y-8356000D01*
X16732689Y-8356000D01*
X16750666Y-8373978D01*
X16768644Y-8356000D01*
X16766655Y-8354011D01*
X16794000Y-8354011D01*
X16794000Y-8357989D01*
X16795522Y-8361664D01*
X16798336Y-8364478D01*
X16802011Y-8366000D01*
X16805989Y-8366000D01*
X16809665Y-8364478D01*
X16812478Y-8361664D01*
X16814000Y-8357989D01*
X16814000Y-8356000D01*
X16839355Y-8356000D01*
X16839355Y-8356000D01*
X16872027Y-8388671D01*
X16872027Y-8388671D01*
X16877582Y-8372794D01*
X16877582Y-8372794D01*
X16879475Y-8356000D01*
X16879475Y-8356000D01*
X16877582Y-8339206D01*
X16877582Y-8339205D01*
X16872027Y-8323328D01*
X16872027Y-8323328D01*
X16839355Y-8356000D01*
X16814000Y-8356000D01*
X16814000Y-8354011D01*
X16812478Y-8350335D01*
X16809665Y-8347522D01*
X16805989Y-8346000D01*
X16802011Y-8346000D01*
X16798336Y-8347522D01*
X16795522Y-8350335D01*
X16794000Y-8354011D01*
X16766655Y-8354011D01*
X16750667Y-8338022D01*
X16732689Y-8356000D01*
X16707333Y-8356000D01*
X16707333Y-8354011D01*
X16705811Y-8350335D01*
X16702998Y-8347522D01*
X16699322Y-8346000D01*
X16695344Y-8346000D01*
X16691669Y-8347522D01*
X16688856Y-8350335D01*
X16687333Y-8354011D01*
X16659989Y-8354011D01*
X16644000Y-8338022D01*
X16626022Y-8356000D01*
X16600667Y-8356000D01*
X16600667Y-8354011D01*
X16599144Y-8350335D01*
X16596331Y-8347522D01*
X16592656Y-8346000D01*
X16588678Y-8346000D01*
X16585002Y-8347522D01*
X16582189Y-8350335D01*
X16580667Y-8354011D01*
X16553322Y-8354011D01*
X16537333Y-8338022D01*
X16519355Y-8356000D01*
X16494000Y-8356000D01*
X16494000Y-8354011D01*
X16492478Y-8350335D01*
X16489664Y-8347522D01*
X16485989Y-8346000D01*
X16482011Y-8346000D01*
X16478335Y-8347522D01*
X16475522Y-8350335D01*
X16474000Y-8354011D01*
X16446655Y-8354011D01*
X16415973Y-8323328D01*
X16410418Y-8339205D01*
X16408525Y-8356000D01*
X14806363Y-8356000D01*
X14793276Y-8352030D01*
X14793276Y-8352030D01*
X14793276Y-8352030D01*
X14772620Y-8349995D01*
X14751964Y-8352030D01*
X14740236Y-8355587D01*
X14732102Y-8358055D01*
X14732101Y-8358055D01*
X14732101Y-8358055D01*
X14732101Y-8358055D01*
X14713797Y-8367839D01*
X14713796Y-8367839D01*
X14697752Y-8381007D01*
X14684584Y-8397051D01*
X14684584Y-8397052D01*
X14674800Y-8415356D01*
X14674800Y-8415356D01*
X14674800Y-8415356D01*
X14674800Y-8415357D01*
X14672332Y-8423492D01*
X14668775Y-8435219D01*
X14666740Y-8455875D01*
X14668775Y-8476531D01*
X14668775Y-8476531D01*
X14674800Y-8496393D01*
X14674800Y-8496394D01*
X14674800Y-8496394D01*
X14674800Y-8496394D01*
X14684584Y-8514698D01*
X14684584Y-8514699D01*
X14697752Y-8530743D01*
X14713796Y-8543911D01*
X14713797Y-8543911D01*
X14732101Y-8553695D01*
X14732101Y-8553695D01*
X14732102Y-8553695D01*
X14738290Y-8555572D01*
X14744134Y-8559402D01*
X14746979Y-8565783D01*
X14745923Y-8572690D01*
X14741301Y-8577929D01*
X14737900Y-8579416D01*
X14726271Y-8582532D01*
X14726271Y-8582532D01*
X14704862Y-8592515D01*
X14704862Y-8592515D01*
X14685513Y-8606064D01*
X14685512Y-8606064D01*
X14668809Y-8622767D01*
X14668809Y-8622768D01*
X14655260Y-8642117D01*
X14655260Y-8642117D01*
X14645277Y-8663526D01*
X14645277Y-8663526D01*
X14639556Y-8684875D01*
X14598567Y-8684875D01*
X14598373Y-8201875D01*
X14666740Y-8201875D01*
X14668775Y-8222531D01*
X14670783Y-8229152D01*
X14674800Y-8242393D01*
X14674800Y-8242394D01*
X14674800Y-8242394D01*
X14674800Y-8242394D01*
X14684584Y-8260698D01*
X14684584Y-8260699D01*
X14697752Y-8276743D01*
X14713796Y-8289911D01*
X14713797Y-8289911D01*
X14732101Y-8299695D01*
X14732101Y-8299695D01*
X14732102Y-8299695D01*
X14751964Y-8305720D01*
X14751964Y-8305720D01*
X14753816Y-8305903D01*
X14772620Y-8307755D01*
X14793276Y-8305720D01*
X14813138Y-8299695D01*
X14831444Y-8289911D01*
X14847488Y-8276743D01*
X14860656Y-8260699D01*
X14866909Y-8249000D01*
X15468109Y-8249000D01*
X15468109Y-8249000D01*
X15470184Y-8264759D01*
X15470184Y-8264760D01*
X15476267Y-8279445D01*
X15476267Y-8279445D01*
X15476267Y-8279445D01*
X15485944Y-8292056D01*
X15498554Y-8301733D01*
X15513240Y-8307816D01*
X15521120Y-8308853D01*
X15529000Y-8309891D01*
X15529000Y-8309891D01*
X15529000Y-8309891D01*
X15534253Y-8309199D01*
X15544760Y-8307816D01*
X15557192Y-8302667D01*
X16466022Y-8302667D01*
X16484000Y-8320644D01*
X16501978Y-8302667D01*
X16572689Y-8302667D01*
X16590667Y-8320644D01*
X16608644Y-8302667D01*
X16679355Y-8302667D01*
X16697333Y-8320644D01*
X16715311Y-8302667D01*
X16786022Y-8302667D01*
X16804000Y-8320644D01*
X16821978Y-8302666D01*
X16804000Y-8284689D01*
X16786022Y-8302667D01*
X16715311Y-8302667D01*
X16715311Y-8302666D01*
X16697333Y-8284689D01*
X16679355Y-8302667D01*
X16608644Y-8302667D01*
X16608645Y-8302666D01*
X16590667Y-8284689D01*
X16572689Y-8302667D01*
X16501978Y-8302667D01*
X16501978Y-8302666D01*
X16484000Y-8284689D01*
X16466022Y-8302667D01*
X15557192Y-8302667D01*
X15559445Y-8301733D01*
X15572056Y-8292056D01*
X15581733Y-8279445D01*
X15587816Y-8264760D01*
X15589847Y-8249333D01*
X16408525Y-8249333D01*
X16408525Y-8249334D01*
X16410418Y-8266128D01*
X16415973Y-8282005D01*
X16448645Y-8249333D01*
X16446655Y-8247344D01*
X16474000Y-8247344D01*
X16474000Y-8251322D01*
X16475522Y-8254998D01*
X16478335Y-8257811D01*
X16482011Y-8259333D01*
X16485989Y-8259333D01*
X16489664Y-8257811D01*
X16492478Y-8254998D01*
X16494000Y-8251322D01*
X16494000Y-8249333D01*
X16519355Y-8249333D01*
X16519355Y-8249333D01*
X16537333Y-8267311D01*
X16555311Y-8249333D01*
X16553322Y-8247344D01*
X16580667Y-8247344D01*
X16580667Y-8251322D01*
X16582189Y-8254998D01*
X16585002Y-8257811D01*
X16588678Y-8259333D01*
X16592656Y-8259333D01*
X16596331Y-8257811D01*
X16599144Y-8254998D01*
X16600667Y-8251322D01*
X16600667Y-8249333D01*
X16626022Y-8249333D01*
X16644000Y-8267311D01*
X16661978Y-8249333D01*
X16659989Y-8247344D01*
X16687333Y-8247344D01*
X16687333Y-8251322D01*
X16688856Y-8254998D01*
X16691669Y-8257811D01*
X16695344Y-8259333D01*
X16699322Y-8259333D01*
X16702998Y-8257811D01*
X16705811Y-8254998D01*
X16707333Y-8251322D01*
X16707333Y-8249333D01*
X16732689Y-8249333D01*
X16732689Y-8249333D01*
X16750666Y-8267311D01*
X16768644Y-8249333D01*
X16766655Y-8247344D01*
X16794000Y-8247344D01*
X16794000Y-8251322D01*
X16795522Y-8254998D01*
X16798336Y-8257811D01*
X16802011Y-8259333D01*
X16805989Y-8259333D01*
X16809665Y-8257811D01*
X16812478Y-8254998D01*
X16814000Y-8251322D01*
X16814000Y-8249333D01*
X16839355Y-8249333D01*
X16839355Y-8249333D01*
X16872027Y-8282005D01*
X16872027Y-8282005D01*
X16877582Y-8266128D01*
X16877582Y-8266127D01*
X16879475Y-8249334D01*
X16879475Y-8249333D01*
X16877582Y-8232539D01*
X16877582Y-8232539D01*
X16877226Y-8231520D01*
X16967109Y-8231520D01*
X16967109Y-8231520D01*
X16969184Y-8247279D01*
X16969184Y-8247280D01*
X16975267Y-8261965D01*
X16975267Y-8261965D01*
X16975267Y-8261965D01*
X16984944Y-8274576D01*
X16997555Y-8284253D01*
X17012240Y-8290336D01*
X17020120Y-8291373D01*
X17028000Y-8292411D01*
X17028000Y-8292411D01*
X17028000Y-8292411D01*
X17033253Y-8291719D01*
X17043760Y-8290336D01*
X17058446Y-8284253D01*
X17071056Y-8274576D01*
X17080733Y-8261965D01*
X17086816Y-8247280D01*
X17088891Y-8231520D01*
X17088869Y-8231355D01*
X17088033Y-8225000D01*
X17117109Y-8225000D01*
X17117109Y-8225000D01*
X17119184Y-8240759D01*
X17119184Y-8240760D01*
X17125267Y-8255445D01*
X17125267Y-8255445D01*
X17125267Y-8255445D01*
X17134944Y-8268056D01*
X17147555Y-8277733D01*
X17162240Y-8283816D01*
X17168868Y-8284689D01*
X17178000Y-8285891D01*
X17178000Y-8285891D01*
X17178000Y-8285891D01*
X17187132Y-8284689D01*
X17193760Y-8283816D01*
X17208446Y-8277733D01*
X17221056Y-8268056D01*
X17230733Y-8255445D01*
X17233817Y-8248000D01*
X17282109Y-8248000D01*
X17282109Y-8248000D01*
X17284184Y-8263759D01*
X17284184Y-8263760D01*
X17290267Y-8278445D01*
X17290267Y-8278445D01*
X17290267Y-8278445D01*
X17299944Y-8291056D01*
X17312555Y-8300733D01*
X17327240Y-8306816D01*
X17334836Y-8307816D01*
X17343000Y-8308891D01*
X17343000Y-8308891D01*
X17343000Y-8308891D01*
X17351164Y-8307816D01*
X17358760Y-8306816D01*
X17373446Y-8300733D01*
X17386056Y-8291056D01*
X17395733Y-8278445D01*
X17401816Y-8263760D01*
X17403759Y-8249000D01*
X17403891Y-8248000D01*
X17403891Y-8248000D01*
X17401948Y-8233240D01*
X17401816Y-8232240D01*
X17395733Y-8217555D01*
X17395733Y-8217554D01*
X17395733Y-8217554D01*
X17386057Y-8204944D01*
X17386056Y-8204944D01*
X17373446Y-8195267D01*
X17373445Y-8195267D01*
X17373445Y-8195267D01*
X17358760Y-8189184D01*
X17358760Y-8189184D01*
X17343000Y-8187109D01*
X17343000Y-8187109D01*
X17327240Y-8189184D01*
X17327240Y-8189184D01*
X17312554Y-8195267D01*
X17299944Y-8204944D01*
X17290267Y-8217554D01*
X17284184Y-8232240D01*
X17284184Y-8232240D01*
X17282109Y-8248000D01*
X17233817Y-8248000D01*
X17236816Y-8240760D01*
X17238891Y-8225000D01*
X17238566Y-8222531D01*
X17236816Y-8209240D01*
X17236816Y-8209240D01*
X17230733Y-8194555D01*
X17230733Y-8194554D01*
X17230733Y-8194554D01*
X17221057Y-8181944D01*
X17220112Y-8181219D01*
X17208446Y-8172267D01*
X17208445Y-8172267D01*
X17208445Y-8172267D01*
X17193760Y-8166184D01*
X17193760Y-8166184D01*
X17178000Y-8164109D01*
X17178000Y-8164109D01*
X17162240Y-8166184D01*
X17162240Y-8166184D01*
X17147554Y-8172267D01*
X17134944Y-8181944D01*
X17125267Y-8194554D01*
X17119184Y-8209240D01*
X17119184Y-8209240D01*
X17117109Y-8225000D01*
X17088033Y-8225000D01*
X17087508Y-8221013D01*
X17086816Y-8215760D01*
X17080733Y-8201075D01*
X17080733Y-8201074D01*
X17080733Y-8201074D01*
X17071057Y-8188464D01*
X17062560Y-8181944D01*
X17058446Y-8178787D01*
X17058445Y-8178787D01*
X17058445Y-8178787D01*
X17043760Y-8172704D01*
X17043760Y-8172704D01*
X17028000Y-8170629D01*
X17028000Y-8170629D01*
X17012240Y-8172704D01*
X17012240Y-8172704D01*
X16997554Y-8178787D01*
X16984944Y-8188464D01*
X16975267Y-8201074D01*
X16969184Y-8215760D01*
X16969184Y-8215760D01*
X16967109Y-8231520D01*
X16877226Y-8231520D01*
X16872027Y-8216662D01*
X16872027Y-8216662D01*
X16839355Y-8249333D01*
X16814000Y-8249333D01*
X16814000Y-8247344D01*
X16812478Y-8243669D01*
X16809665Y-8240856D01*
X16805989Y-8239333D01*
X16802011Y-8239333D01*
X16798336Y-8240856D01*
X16795522Y-8243669D01*
X16794000Y-8247344D01*
X16766655Y-8247344D01*
X16750667Y-8231355D01*
X16732689Y-8249333D01*
X16707333Y-8249333D01*
X16707333Y-8247344D01*
X16705811Y-8243669D01*
X16702998Y-8240856D01*
X16699322Y-8239333D01*
X16695344Y-8239333D01*
X16691669Y-8240856D01*
X16688856Y-8243669D01*
X16687333Y-8247344D01*
X16659989Y-8247344D01*
X16644000Y-8231355D01*
X16626022Y-8249333D01*
X16600667Y-8249333D01*
X16600667Y-8247344D01*
X16599144Y-8243669D01*
X16596331Y-8240856D01*
X16592656Y-8239333D01*
X16588678Y-8239333D01*
X16585002Y-8240856D01*
X16582189Y-8243669D01*
X16580667Y-8247344D01*
X16553322Y-8247344D01*
X16537333Y-8231355D01*
X16519355Y-8249333D01*
X16494000Y-8249333D01*
X16494000Y-8247344D01*
X16492478Y-8243669D01*
X16489664Y-8240856D01*
X16485989Y-8239333D01*
X16482011Y-8239333D01*
X16478335Y-8240856D01*
X16475522Y-8243669D01*
X16474000Y-8247344D01*
X16446655Y-8247344D01*
X16415973Y-8216662D01*
X16410418Y-8232539D01*
X16408525Y-8249333D01*
X15589847Y-8249333D01*
X15589891Y-8249000D01*
X15589759Y-8248000D01*
X15587816Y-8233240D01*
X15587816Y-8233240D01*
X15581733Y-8218555D01*
X15581733Y-8218554D01*
X15581733Y-8218554D01*
X15572056Y-8205944D01*
X15570753Y-8204944D01*
X15559445Y-8196267D01*
X15559445Y-8196267D01*
X15559445Y-8196267D01*
X15544760Y-8190184D01*
X15544759Y-8190184D01*
X15529557Y-8188182D01*
X16062509Y-8188182D01*
X16062509Y-8188183D01*
X16064584Y-8203942D01*
X16064584Y-8203943D01*
X16070667Y-8218628D01*
X16070667Y-8218628D01*
X16070667Y-8218628D01*
X16080344Y-8231239D01*
X16092954Y-8240916D01*
X16107640Y-8246999D01*
X16115244Y-8248000D01*
X16123400Y-8249073D01*
X16123400Y-8249073D01*
X16123400Y-8249073D01*
X16128653Y-8248382D01*
X16139160Y-8246999D01*
X16153845Y-8240916D01*
X16166456Y-8231239D01*
X16176133Y-8218628D01*
X16182216Y-8203942D01*
X16183262Y-8196000D01*
X16466022Y-8196000D01*
X16484000Y-8213978D01*
X16501978Y-8196000D01*
X16572689Y-8196000D01*
X16590667Y-8213978D01*
X16608645Y-8196000D01*
X16679355Y-8196000D01*
X16697333Y-8213978D01*
X16715311Y-8196000D01*
X16786022Y-8196000D01*
X16804000Y-8213978D01*
X16821978Y-8196000D01*
X16804000Y-8178022D01*
X16786022Y-8196000D01*
X16715311Y-8196000D01*
X16697333Y-8178022D01*
X16679355Y-8196000D01*
X16608645Y-8196000D01*
X16590667Y-8178022D01*
X16572689Y-8196000D01*
X16501978Y-8196000D01*
X16484000Y-8178022D01*
X16466022Y-8196000D01*
X16183262Y-8196000D01*
X16184291Y-8188183D01*
X16182216Y-8172423D01*
X16176133Y-8157737D01*
X16176133Y-8157737D01*
X16176133Y-8157737D01*
X16166456Y-8145126D01*
X16166456Y-8145126D01*
X16163251Y-8142666D01*
X16408525Y-8142666D01*
X16408525Y-8142667D01*
X16410418Y-8159461D01*
X16415973Y-8175338D01*
X16448645Y-8142667D01*
X16446655Y-8140678D01*
X16474000Y-8140678D01*
X16474000Y-8144656D01*
X16475522Y-8148331D01*
X16478335Y-8151144D01*
X16482011Y-8152667D01*
X16485989Y-8152667D01*
X16489664Y-8151144D01*
X16492478Y-8148331D01*
X16494000Y-8144656D01*
X16494000Y-8142667D01*
X16519355Y-8142667D01*
X16519355Y-8142667D01*
X16537333Y-8160645D01*
X16555311Y-8142667D01*
X16553322Y-8140678D01*
X16580667Y-8140678D01*
X16580667Y-8144656D01*
X16582189Y-8148331D01*
X16585002Y-8151144D01*
X16588678Y-8152667D01*
X16592656Y-8152667D01*
X16596331Y-8151144D01*
X16599144Y-8148331D01*
X16600667Y-8144656D01*
X16600667Y-8142667D01*
X16626022Y-8142667D01*
X16644000Y-8160645D01*
X16661978Y-8142667D01*
X16659989Y-8140678D01*
X16687333Y-8140678D01*
X16687333Y-8144656D01*
X16688856Y-8148331D01*
X16691669Y-8151144D01*
X16695344Y-8152667D01*
X16699322Y-8152667D01*
X16702998Y-8151144D01*
X16705811Y-8148331D01*
X16707333Y-8144656D01*
X16707333Y-8142667D01*
X16732689Y-8142667D01*
X16732689Y-8142667D01*
X16750666Y-8160645D01*
X16768644Y-8142667D01*
X16766655Y-8140678D01*
X16794000Y-8140678D01*
X16794000Y-8144656D01*
X16795522Y-8148331D01*
X16798336Y-8151144D01*
X16802011Y-8152667D01*
X16805989Y-8152667D01*
X16809665Y-8151144D01*
X16812478Y-8148331D01*
X16814000Y-8144656D01*
X16814000Y-8142667D01*
X16839355Y-8142667D01*
X16839355Y-8142667D01*
X16872027Y-8175338D01*
X16872027Y-8175338D01*
X16877582Y-8159461D01*
X16877582Y-8159460D01*
X16879475Y-8142667D01*
X16879475Y-8142666D01*
X16877582Y-8125872D01*
X16877582Y-8125872D01*
X16872027Y-8109995D01*
X16872027Y-8109995D01*
X16839355Y-8142667D01*
X16814000Y-8142667D01*
X16814000Y-8140678D01*
X16812478Y-8137002D01*
X16809665Y-8134189D01*
X16805989Y-8132667D01*
X16802011Y-8132667D01*
X16798336Y-8134189D01*
X16795522Y-8137002D01*
X16794000Y-8140678D01*
X16766655Y-8140678D01*
X16750667Y-8124689D01*
X16732689Y-8142667D01*
X16707333Y-8142667D01*
X16707333Y-8140678D01*
X16705811Y-8137002D01*
X16702998Y-8134189D01*
X16699322Y-8132667D01*
X16695344Y-8132667D01*
X16691669Y-8134189D01*
X16688856Y-8137002D01*
X16687333Y-8140678D01*
X16659989Y-8140678D01*
X16644000Y-8124689D01*
X16626022Y-8142667D01*
X16600667Y-8142667D01*
X16600667Y-8140678D01*
X16599144Y-8137002D01*
X16596331Y-8134189D01*
X16592656Y-8132667D01*
X16588678Y-8132667D01*
X16585002Y-8134189D01*
X16582189Y-8137002D01*
X16580667Y-8140678D01*
X16553322Y-8140678D01*
X16537333Y-8124689D01*
X16519355Y-8142667D01*
X16494000Y-8142667D01*
X16494000Y-8140678D01*
X16492478Y-8137002D01*
X16489664Y-8134189D01*
X16485989Y-8132667D01*
X16482011Y-8132667D01*
X16478335Y-8134189D01*
X16475522Y-8137002D01*
X16474000Y-8140678D01*
X16446655Y-8140678D01*
X16415973Y-8109995D01*
X16410418Y-8125872D01*
X16408525Y-8142666D01*
X16163251Y-8142666D01*
X16153845Y-8135449D01*
X16153845Y-8135449D01*
X16153845Y-8135449D01*
X16139160Y-8129367D01*
X16139159Y-8129366D01*
X16123400Y-8127292D01*
X16123400Y-8127292D01*
X16107640Y-8129366D01*
X16107640Y-8129366D01*
X16092954Y-8135449D01*
X16080344Y-8145126D01*
X16070667Y-8157737D01*
X16064584Y-8172423D01*
X16064584Y-8172423D01*
X16062509Y-8188182D01*
X15529557Y-8188182D01*
X15529000Y-8188109D01*
X15529000Y-8188109D01*
X15513240Y-8190184D01*
X15513240Y-8190184D01*
X15498554Y-8196267D01*
X15485944Y-8205944D01*
X15476267Y-8218554D01*
X15470184Y-8233240D01*
X15470184Y-8233240D01*
X15468109Y-8249000D01*
X14866909Y-8249000D01*
X14870440Y-8242393D01*
X14876465Y-8222531D01*
X14878500Y-8201875D01*
X14876465Y-8181219D01*
X14870440Y-8161357D01*
X14870440Y-8161356D01*
X14860656Y-8143052D01*
X14860656Y-8143051D01*
X14847488Y-8127007D01*
X14831444Y-8113839D01*
X14831443Y-8113839D01*
X14813139Y-8104055D01*
X14813139Y-8104055D01*
X14813139Y-8104055D01*
X14813138Y-8104055D01*
X14793276Y-8098030D01*
X14793276Y-8098030D01*
X14793276Y-8098030D01*
X14772620Y-8095995D01*
X14751964Y-8098030D01*
X14740236Y-8101587D01*
X14732102Y-8104055D01*
X14732101Y-8104055D01*
X14732101Y-8104055D01*
X14732101Y-8104055D01*
X14713797Y-8113839D01*
X14713796Y-8113839D01*
X14697752Y-8127007D01*
X14684584Y-8143051D01*
X14684584Y-8143052D01*
X14674800Y-8161356D01*
X14674800Y-8161356D01*
X14674800Y-8161356D01*
X14674800Y-8161357D01*
X14672332Y-8169491D01*
X14668775Y-8181219D01*
X14666740Y-8201875D01*
X14598373Y-8201875D01*
X14598328Y-8089333D01*
X16466022Y-8089333D01*
X16484000Y-8107311D01*
X16501978Y-8089333D01*
X16572689Y-8089333D01*
X16590667Y-8107311D01*
X16608644Y-8089333D01*
X16679355Y-8089333D01*
X16697333Y-8107311D01*
X16715311Y-8089333D01*
X16786022Y-8089333D01*
X16804000Y-8107311D01*
X16821978Y-8089333D01*
X16804000Y-8071355D01*
X16786022Y-8089333D01*
X16715311Y-8089333D01*
X16715311Y-8089333D01*
X16697333Y-8071355D01*
X16679355Y-8089333D01*
X16608644Y-8089333D01*
X16608645Y-8089333D01*
X16590667Y-8071355D01*
X16572689Y-8089333D01*
X16501978Y-8089333D01*
X16501978Y-8089333D01*
X16484000Y-8071355D01*
X16466022Y-8089333D01*
X14598328Y-8089333D01*
X14598306Y-8034882D01*
X14667250Y-8034882D01*
X14668432Y-8040823D01*
X14668432Y-8040823D01*
X14669926Y-8043059D01*
X14672934Y-8047561D01*
X14679672Y-8052063D01*
X14679672Y-8052063D01*
X14685613Y-8053245D01*
X14685614Y-8053245D01*
X14859627Y-8053245D01*
X14865568Y-8052063D01*
X14865568Y-8052063D01*
X14865568Y-8052063D01*
X14872306Y-8047561D01*
X14876808Y-8040823D01*
X14877372Y-8037989D01*
X14877768Y-8036000D01*
X16408525Y-8036000D01*
X16408525Y-8036000D01*
X16410418Y-8052794D01*
X16415973Y-8068671D01*
X16448645Y-8036000D01*
X16446655Y-8034011D01*
X16474000Y-8034011D01*
X16474000Y-8037989D01*
X16475522Y-8041664D01*
X16478335Y-8044478D01*
X16482011Y-8046000D01*
X16485989Y-8046000D01*
X16489664Y-8044478D01*
X16492478Y-8041664D01*
X16494000Y-8037989D01*
X16494000Y-8036000D01*
X16519355Y-8036000D01*
X16519355Y-8036000D01*
X16537333Y-8053978D01*
X16555311Y-8036000D01*
X16553322Y-8034011D01*
X16580667Y-8034011D01*
X16580667Y-8037989D01*
X16582189Y-8041664D01*
X16585002Y-8044478D01*
X16588678Y-8046000D01*
X16592656Y-8046000D01*
X16596331Y-8044478D01*
X16599144Y-8041664D01*
X16600667Y-8037989D01*
X16600667Y-8036000D01*
X16626022Y-8036000D01*
X16644000Y-8053978D01*
X16661978Y-8036000D01*
X16659989Y-8034011D01*
X16687333Y-8034011D01*
X16687333Y-8037989D01*
X16688856Y-8041664D01*
X16691669Y-8044478D01*
X16695344Y-8046000D01*
X16699322Y-8046000D01*
X16702998Y-8044478D01*
X16705811Y-8041664D01*
X16707333Y-8037989D01*
X16707333Y-8036000D01*
X16732689Y-8036000D01*
X16732689Y-8036000D01*
X16750666Y-8053978D01*
X16768644Y-8036000D01*
X16766655Y-8034011D01*
X16794000Y-8034011D01*
X16794000Y-8037989D01*
X16795522Y-8041664D01*
X16798336Y-8044478D01*
X16802011Y-8046000D01*
X16805989Y-8046000D01*
X16809665Y-8044478D01*
X16812478Y-8041664D01*
X16814000Y-8037989D01*
X16814000Y-8036000D01*
X16839355Y-8036000D01*
X16839355Y-8036000D01*
X16872027Y-8068671D01*
X16872027Y-8068671D01*
X16877582Y-8052794D01*
X16877582Y-8052794D01*
X16879475Y-8036000D01*
X16879475Y-8036000D01*
X16877582Y-8019206D01*
X16877582Y-8019205D01*
X16872027Y-8003328D01*
X16872027Y-8003328D01*
X16839355Y-8036000D01*
X16814000Y-8036000D01*
X16814000Y-8034011D01*
X16812478Y-8030335D01*
X16809665Y-8027522D01*
X16805989Y-8026000D01*
X16802011Y-8026000D01*
X16798336Y-8027522D01*
X16795522Y-8030335D01*
X16794000Y-8034011D01*
X16766655Y-8034011D01*
X16750667Y-8018022D01*
X16732689Y-8036000D01*
X16707333Y-8036000D01*
X16707333Y-8034011D01*
X16705811Y-8030335D01*
X16702998Y-8027522D01*
X16699322Y-8026000D01*
X16695344Y-8026000D01*
X16691669Y-8027522D01*
X16688856Y-8030335D01*
X16687333Y-8034011D01*
X16659989Y-8034011D01*
X16644000Y-8018022D01*
X16626022Y-8036000D01*
X16600667Y-8036000D01*
X16600667Y-8034011D01*
X16599144Y-8030335D01*
X16596331Y-8027522D01*
X16592656Y-8026000D01*
X16588678Y-8026000D01*
X16585002Y-8027522D01*
X16582189Y-8030335D01*
X16580667Y-8034011D01*
X16553322Y-8034011D01*
X16537333Y-8018022D01*
X16519355Y-8036000D01*
X16494000Y-8036000D01*
X16494000Y-8034011D01*
X16492478Y-8030335D01*
X16489664Y-8027522D01*
X16485989Y-8026000D01*
X16482011Y-8026000D01*
X16478335Y-8027522D01*
X16475522Y-8030335D01*
X16474000Y-8034011D01*
X16446655Y-8034011D01*
X16415973Y-8003328D01*
X16410418Y-8019205D01*
X16408525Y-8036000D01*
X14877768Y-8036000D01*
X14877990Y-8034882D01*
X14877990Y-7949000D01*
X14920109Y-7949000D01*
X14920109Y-7949000D01*
X14922184Y-7964759D01*
X14922184Y-7964760D01*
X14928267Y-7979445D01*
X14928267Y-7979445D01*
X14928267Y-7979445D01*
X14937944Y-7992056D01*
X14950554Y-8001733D01*
X14965240Y-8007816D01*
X14973120Y-8008853D01*
X14981000Y-8009891D01*
X14981000Y-8009891D01*
X14981000Y-8009891D01*
X14986253Y-8009199D01*
X14996760Y-8007816D01*
X15011445Y-8001733D01*
X15024056Y-7992056D01*
X15033733Y-7979445D01*
X15036403Y-7973000D01*
X15573109Y-7973000D01*
X15573109Y-7973000D01*
X15575184Y-7988759D01*
X15575184Y-7988760D01*
X15581267Y-8003445D01*
X15581267Y-8003445D01*
X15581267Y-8003445D01*
X15590944Y-8016056D01*
X15603554Y-8025733D01*
X15603555Y-8025733D01*
X15603555Y-8025733D01*
X15607874Y-8027522D01*
X15618240Y-8031816D01*
X15626120Y-8032853D01*
X15634000Y-8033891D01*
X15634000Y-8033891D01*
X15634000Y-8033891D01*
X15639253Y-8033199D01*
X15649760Y-8031816D01*
X15664445Y-8025733D01*
X15677056Y-8016056D01*
X15686733Y-8003445D01*
X15692816Y-7988760D01*
X15694891Y-7973000D01*
X15694229Y-7967973D01*
X16451328Y-7967973D01*
X16484000Y-8000645D01*
X16484000Y-8000645D01*
X16516671Y-7967973D01*
X16557995Y-7967973D01*
X16590667Y-8000645D01*
X16590667Y-8000645D01*
X16623338Y-7967973D01*
X16664662Y-7967973D01*
X16697333Y-8000645D01*
X16697333Y-8000645D01*
X16730005Y-7967973D01*
X16771328Y-7967973D01*
X16804000Y-8000645D01*
X16804000Y-8000645D01*
X16836671Y-7967973D01*
X16820794Y-7962418D01*
X16804000Y-7960525D01*
X16804000Y-7960525D01*
X16787206Y-7962418D01*
X16771328Y-7967973D01*
X16730005Y-7967973D01*
X16714128Y-7962418D01*
X16697334Y-7960525D01*
X16697333Y-7960525D01*
X16680539Y-7962418D01*
X16664662Y-7967973D01*
X16623338Y-7967973D01*
X16607461Y-7962418D01*
X16590667Y-7960525D01*
X16590666Y-7960525D01*
X16573872Y-7962418D01*
X16557995Y-7967973D01*
X16516671Y-7967973D01*
X16500794Y-7962418D01*
X16484000Y-7960525D01*
X16484000Y-7960525D01*
X16467205Y-7962418D01*
X16451328Y-7967973D01*
X15694229Y-7967973D01*
X15693806Y-7964760D01*
X15692816Y-7957240D01*
X15692816Y-7957240D01*
X15686733Y-7942555D01*
X15686733Y-7942554D01*
X15686733Y-7942554D01*
X15677056Y-7929944D01*
X15664445Y-7920267D01*
X15649760Y-7914184D01*
X15649759Y-7914184D01*
X15634000Y-7912109D01*
X15634000Y-7912109D01*
X15618240Y-7914184D01*
X15618240Y-7914184D01*
X15603554Y-7920267D01*
X15590944Y-7929944D01*
X15581267Y-7942554D01*
X15575184Y-7957240D01*
X15575184Y-7957240D01*
X15573109Y-7973000D01*
X15036403Y-7973000D01*
X15039816Y-7964760D01*
X15041891Y-7949000D01*
X15041042Y-7942555D01*
X15039816Y-7933240D01*
X15039816Y-7933240D01*
X15033733Y-7918555D01*
X15033733Y-7918554D01*
X15033733Y-7918554D01*
X15024056Y-7905944D01*
X15017613Y-7901000D01*
X16925109Y-7901000D01*
X16925109Y-7901000D01*
X16927184Y-7916759D01*
X16927184Y-7916760D01*
X16933267Y-7931445D01*
X16933267Y-7931445D01*
X16933267Y-7931445D01*
X16942944Y-7944056D01*
X16955555Y-7953733D01*
X16970240Y-7959816D01*
X16975628Y-7960525D01*
X16986000Y-7961891D01*
X16986000Y-7961891D01*
X16986000Y-7961891D01*
X16991253Y-7961199D01*
X17001760Y-7959816D01*
X17016446Y-7953733D01*
X17029056Y-7944056D01*
X17038733Y-7931445D01*
X17044816Y-7916760D01*
X17046891Y-7901000D01*
X17044816Y-7885240D01*
X17038733Y-7870555D01*
X17038733Y-7870554D01*
X17038733Y-7870554D01*
X17029057Y-7857944D01*
X17016445Y-7848267D01*
X17001760Y-7842184D01*
X17001760Y-7842184D01*
X16986000Y-7840109D01*
X16986000Y-7840109D01*
X16970240Y-7842184D01*
X16970240Y-7842184D01*
X16955554Y-7848267D01*
X16942944Y-7857944D01*
X16933267Y-7870554D01*
X16927184Y-7885240D01*
X16927184Y-7885240D01*
X16925109Y-7901000D01*
X15017613Y-7901000D01*
X15011445Y-7896267D01*
X14996760Y-7890184D01*
X14996759Y-7890184D01*
X14981000Y-7888109D01*
X14981000Y-7888109D01*
X14965240Y-7890184D01*
X14965240Y-7890184D01*
X14950554Y-7896267D01*
X14937944Y-7905944D01*
X14928267Y-7918554D01*
X14922184Y-7933240D01*
X14922184Y-7933240D01*
X14920109Y-7949000D01*
X14877990Y-7949000D01*
X14877990Y-7860868D01*
X14876808Y-7854927D01*
X14876808Y-7854927D01*
X14872306Y-7848189D01*
X14865568Y-7843687D01*
X14865568Y-7843687D01*
X14865568Y-7843687D01*
X14859627Y-7842505D01*
X14859626Y-7842505D01*
X14685614Y-7842505D01*
X14685613Y-7842505D01*
X14679672Y-7843687D01*
X14679672Y-7843687D01*
X14672934Y-7848189D01*
X14668432Y-7854927D01*
X14668432Y-7854927D01*
X14667250Y-7860868D01*
X14667250Y-7860869D01*
X14667250Y-8034881D01*
X14667250Y-8034882D01*
X14667250Y-8034882D01*
X14598306Y-8034882D01*
X14598202Y-7777000D01*
X16626109Y-7777000D01*
X16626109Y-7777000D01*
X16628184Y-7792759D01*
X16628184Y-7792760D01*
X16634267Y-7807445D01*
X16634267Y-7807445D01*
X16634267Y-7807445D01*
X16643944Y-7820056D01*
X16656554Y-7829733D01*
X16671240Y-7835816D01*
X16679120Y-7836853D01*
X16687000Y-7837891D01*
X16687000Y-7837891D01*
X16687000Y-7837891D01*
X16692253Y-7837199D01*
X16702760Y-7835816D01*
X16717445Y-7829733D01*
X16730056Y-7820056D01*
X16739733Y-7807445D01*
X16745816Y-7792760D01*
X16747891Y-7777000D01*
X16745816Y-7761240D01*
X16739733Y-7746555D01*
X16739733Y-7746554D01*
X16739733Y-7746554D01*
X16730056Y-7733944D01*
X16717445Y-7724267D01*
X16702760Y-7718184D01*
X16702759Y-7718184D01*
X16687000Y-7716109D01*
X16687000Y-7716109D01*
X16671240Y-7718184D01*
X16671240Y-7718184D01*
X16656554Y-7724267D01*
X16643944Y-7733944D01*
X16634267Y-7746554D01*
X16628184Y-7761240D01*
X16628184Y-7761240D01*
X16626109Y-7777000D01*
X14598202Y-7777000D01*
X14598156Y-7662000D01*
X15959109Y-7662000D01*
X15959109Y-7662000D01*
X15961184Y-7677759D01*
X15961184Y-7677760D01*
X15967267Y-7692445D01*
X15967267Y-7692445D01*
X15967267Y-7692445D01*
X15976944Y-7705056D01*
X15989554Y-7714733D01*
X16004240Y-7720816D01*
X16012120Y-7721853D01*
X16020000Y-7722891D01*
X16020000Y-7722891D01*
X16020000Y-7722891D01*
X16025253Y-7722199D01*
X16035760Y-7720816D01*
X16050445Y-7714733D01*
X16063056Y-7705056D01*
X16072733Y-7692445D01*
X16078816Y-7677760D01*
X16080891Y-7662000D01*
X16078816Y-7646240D01*
X16072733Y-7631555D01*
X16072733Y-7631554D01*
X16072733Y-7631554D01*
X16063056Y-7618944D01*
X16050445Y-7609267D01*
X16035760Y-7603184D01*
X16035759Y-7603184D01*
X16020000Y-7601109D01*
X16020000Y-7601109D01*
X16004240Y-7603184D01*
X16004240Y-7603184D01*
X15989554Y-7609267D01*
X15976944Y-7618944D01*
X15967267Y-7631554D01*
X15961184Y-7646240D01*
X15961184Y-7646240D01*
X15959109Y-7662000D01*
X14598156Y-7662000D01*
X14598005Y-7286436D01*
X14599971Y-7279731D01*
X14605249Y-7275154D01*
X14610436Y-7274031D01*
X17760636Y-7281969D01*
G37*
%TD.AperFunction*%
%TD*%
M02*
