%TF.GenerationSoftware,KiCad,Pcbnew,9.0.0*%
%TF.CreationDate,2025-02-25T22:38:48+02:00*%
%TF.ProjectId,bluetooth-audio,626c7565-746f-46f7-9468-2d617564696f,rev?*%
%TF.SameCoordinates,Original*%
%TF.FileFunction,Legend,Bot*%
%TF.FilePolarity,Positive*%
%FSLAX45Y45*%
G04 Gerber Fmt 4.5, Leading zero omitted, Abs format (unit mm)*
G04 Created by KiCad (PCBNEW 9.0.0) date 2025-02-25 22:38:48*
%MOMM*%
%LPD*%
G01*
G04 APERTURE LIST*
%ADD10C,0.150000*%
%ADD11C,0.100000*%
%ADD12C,0.120000*%
G04 APERTURE END LIST*
D10*
X14805953Y-7660357D02*
X14805953Y-7731785D01*
X14805953Y-7731785D02*
X14810715Y-7746071D01*
X14810715Y-7746071D02*
X14820239Y-7755595D01*
X14820239Y-7755595D02*
X14834525Y-7760357D01*
X14834525Y-7760357D02*
X14844048Y-7760357D01*
X14767858Y-7660357D02*
X14705953Y-7660357D01*
X14705953Y-7660357D02*
X14739287Y-7698452D01*
X14739287Y-7698452D02*
X14725001Y-7698452D01*
X14725001Y-7698452D02*
X14715477Y-7703214D01*
X14715477Y-7703214D02*
X14710715Y-7707976D01*
X14710715Y-7707976D02*
X14705953Y-7717500D01*
X14705953Y-7717500D02*
X14705953Y-7741309D01*
X14705953Y-7741309D02*
X14710715Y-7750833D01*
X14710715Y-7750833D02*
X14715477Y-7755595D01*
X14715477Y-7755595D02*
X14725001Y-7760357D01*
X14725001Y-7760357D02*
X14753572Y-7760357D01*
X14753572Y-7760357D02*
X14763096Y-7755595D01*
X14763096Y-7755595D02*
X14767858Y-7750833D01*
X17260706Y-11237034D02*
X17260706Y-11294177D01*
X17360706Y-11265605D02*
X17260706Y-11265605D01*
X17360706Y-11327510D02*
X17260706Y-11327510D01*
X17260706Y-11327510D02*
X17260706Y-11365605D01*
X17260706Y-11365605D02*
X17265468Y-11375129D01*
X17265468Y-11375129D02*
X17270230Y-11379891D01*
X17270230Y-11379891D02*
X17279754Y-11384653D01*
X17279754Y-11384653D02*
X17294040Y-11384653D01*
X17294040Y-11384653D02*
X17303563Y-11379891D01*
X17303563Y-11379891D02*
X17308325Y-11375129D01*
X17308325Y-11375129D02*
X17313087Y-11365605D01*
X17313087Y-11365605D02*
X17313087Y-11327510D01*
X17260706Y-11470367D02*
X17260706Y-11451320D01*
X17260706Y-11451320D02*
X17265468Y-11441796D01*
X17265468Y-11441796D02*
X17270230Y-11437034D01*
X17270230Y-11437034D02*
X17284516Y-11427510D01*
X17284516Y-11427510D02*
X17303563Y-11422748D01*
X17303563Y-11422748D02*
X17341659Y-11422748D01*
X17341659Y-11422748D02*
X17351182Y-11427510D01*
X17351182Y-11427510D02*
X17355944Y-11432272D01*
X17355944Y-11432272D02*
X17360706Y-11441796D01*
X17360706Y-11441796D02*
X17360706Y-11460843D01*
X17360706Y-11460843D02*
X17355944Y-11470367D01*
X17355944Y-11470367D02*
X17351182Y-11475129D01*
X17351182Y-11475129D02*
X17341659Y-11479891D01*
X17341659Y-11479891D02*
X17317849Y-11479891D01*
X17317849Y-11479891D02*
X17308325Y-11475129D01*
X17308325Y-11475129D02*
X17303563Y-11470367D01*
X17303563Y-11470367D02*
X17298802Y-11460843D01*
X17298802Y-11460843D02*
X17298802Y-11441796D01*
X17298802Y-11441796D02*
X17303563Y-11432272D01*
X17303563Y-11432272D02*
X17308325Y-11427510D01*
X17308325Y-11427510D02*
X17317849Y-11422748D01*
D11*
X14744287Y-8959133D02*
X14744287Y-8887705D01*
X14744287Y-8887705D02*
X14739525Y-8873419D01*
X14739525Y-8873419D02*
X14730001Y-8863895D01*
X14730001Y-8863895D02*
X14715715Y-8859133D01*
X14715715Y-8859133D02*
X14706191Y-8859133D01*
X14834763Y-8925800D02*
X14834763Y-8859133D01*
X14810953Y-8963895D02*
X14787144Y-8892466D01*
X14787144Y-8892466D02*
X14849048Y-8892466D01*
D10*
X17100190Y-10100482D02*
X17043048Y-10100482D01*
X17071619Y-10200482D02*
X17071619Y-10100482D01*
X17009714Y-10200482D02*
X17009714Y-10100482D01*
X17009714Y-10100482D02*
X16971619Y-10100482D01*
X16971619Y-10100482D02*
X16962095Y-10105244D01*
X16962095Y-10105244D02*
X16957333Y-10110006D01*
X16957333Y-10110006D02*
X16952571Y-10119530D01*
X16952571Y-10119530D02*
X16952571Y-10133815D01*
X16952571Y-10133815D02*
X16957333Y-10143339D01*
X16957333Y-10143339D02*
X16962095Y-10148101D01*
X16962095Y-10148101D02*
X16971619Y-10152863D01*
X16971619Y-10152863D02*
X17009714Y-10152863D01*
X16919238Y-10100482D02*
X16852571Y-10100482D01*
X16852571Y-10100482D02*
X16895429Y-10200482D01*
X16392282Y-8878810D02*
X16392282Y-8935952D01*
X16492282Y-8907381D02*
X16392282Y-8907381D01*
X16492282Y-8969286D02*
X16392282Y-8969286D01*
X16392282Y-8969286D02*
X16392282Y-9007381D01*
X16392282Y-9007381D02*
X16397044Y-9016905D01*
X16397044Y-9016905D02*
X16401806Y-9021667D01*
X16401806Y-9021667D02*
X16411330Y-9026429D01*
X16411330Y-9026429D02*
X16425615Y-9026429D01*
X16425615Y-9026429D02*
X16435139Y-9021667D01*
X16435139Y-9021667D02*
X16439901Y-9016905D01*
X16439901Y-9016905D02*
X16444663Y-9007381D01*
X16444663Y-9007381D02*
X16444663Y-8969286D01*
X16492282Y-9074048D02*
X16492282Y-9093095D01*
X16492282Y-9093095D02*
X16487520Y-9102619D01*
X16487520Y-9102619D02*
X16482758Y-9107381D01*
X16482758Y-9107381D02*
X16468472Y-9116905D01*
X16468472Y-9116905D02*
X16449425Y-9121667D01*
X16449425Y-9121667D02*
X16411330Y-9121667D01*
X16411330Y-9121667D02*
X16401806Y-9116905D01*
X16401806Y-9116905D02*
X16397044Y-9112143D01*
X16397044Y-9112143D02*
X16392282Y-9102619D01*
X16392282Y-9102619D02*
X16392282Y-9083571D01*
X16392282Y-9083571D02*
X16397044Y-9074048D01*
X16397044Y-9074048D02*
X16401806Y-9069286D01*
X16401806Y-9069286D02*
X16411330Y-9064524D01*
X16411330Y-9064524D02*
X16435139Y-9064524D01*
X16435139Y-9064524D02*
X16444663Y-9069286D01*
X16444663Y-9069286D02*
X16449425Y-9074048D01*
X16449425Y-9074048D02*
X16454187Y-9083571D01*
X16454187Y-9083571D02*
X16454187Y-9102619D01*
X16454187Y-9102619D02*
X16449425Y-9112143D01*
X16449425Y-9112143D02*
X16444663Y-9116905D01*
X16444663Y-9116905D02*
X16435139Y-9121667D01*
X17374482Y-9570810D02*
X17374482Y-9627952D01*
X17474482Y-9599381D02*
X17374482Y-9599381D01*
X17474482Y-9661286D02*
X17374482Y-9661286D01*
X17374482Y-9661286D02*
X17374482Y-9699381D01*
X17374482Y-9699381D02*
X17379244Y-9708905D01*
X17379244Y-9708905D02*
X17384006Y-9713667D01*
X17384006Y-9713667D02*
X17393530Y-9718429D01*
X17393530Y-9718429D02*
X17407815Y-9718429D01*
X17407815Y-9718429D02*
X17417339Y-9713667D01*
X17417339Y-9713667D02*
X17422101Y-9708905D01*
X17422101Y-9708905D02*
X17426863Y-9699381D01*
X17426863Y-9699381D02*
X17426863Y-9661286D01*
X17374482Y-9808905D02*
X17374482Y-9761286D01*
X17374482Y-9761286D02*
X17422101Y-9756524D01*
X17422101Y-9756524D02*
X17417339Y-9761286D01*
X17417339Y-9761286D02*
X17412577Y-9770810D01*
X17412577Y-9770810D02*
X17412577Y-9794619D01*
X17412577Y-9794619D02*
X17417339Y-9804143D01*
X17417339Y-9804143D02*
X17422101Y-9808905D01*
X17422101Y-9808905D02*
X17431625Y-9813667D01*
X17431625Y-9813667D02*
X17455434Y-9813667D01*
X17455434Y-9813667D02*
X17464958Y-9808905D01*
X17464958Y-9808905D02*
X17469720Y-9804143D01*
X17469720Y-9804143D02*
X17474482Y-9794619D01*
X17474482Y-9794619D02*
X17474482Y-9770810D01*
X17474482Y-9770810D02*
X17469720Y-9761286D01*
X17469720Y-9761286D02*
X17464958Y-9756524D01*
D12*
%TO.C,J3*%
X14639620Y-8074875D02*
X14905620Y-8074875D01*
X14639620Y-9350875D02*
X14639620Y-8074875D01*
X14639620Y-9350875D02*
X14905620Y-9350875D01*
X14772620Y-7814875D02*
X14905620Y-7814875D01*
X14905620Y-7814875D02*
X14905620Y-7947875D01*
X14905620Y-9350875D02*
X14905620Y-8074875D01*
%TO.C,TP6*%
X17635224Y-11363224D02*
G75*
G02*
X17495224Y-11363224I-70000J0D01*
G01*
X17495224Y-11363224D02*
G75*
G02*
X17635224Y-11363224I70000J0D01*
G01*
X17635224Y-11617224D02*
G75*
G02*
X17495224Y-11617224I-70000J0D01*
G01*
X17495224Y-11617224D02*
G75*
G02*
X17635224Y-11617224I70000J0D01*
G01*
D11*
X17692224Y-11744224D02*
X17438224Y-11744224D01*
X17438224Y-11236224D01*
X17692224Y-11236224D01*
X17692224Y-11744224D01*
%TO.C,J4*%
X15027620Y-8704875D02*
X15052620Y-8704875D01*
X15052620Y-7854875D02*
X15052620Y-8104875D01*
X15052620Y-8104875D02*
X15027620Y-8104875D01*
X15052620Y-8704875D02*
X15052620Y-8954875D01*
X15527620Y-8954875D02*
X15027620Y-8954875D01*
X15027620Y-7854875D01*
X15527620Y-7854875D01*
X15527620Y-8954875D01*
D12*
%TO.C,TP7*%
X17044000Y-9905000D02*
G75*
G02*
X16904000Y-9905000I-70000J0D01*
G01*
X16904000Y-9905000D02*
G75*
G02*
X17044000Y-9905000I70000J0D01*
G01*
X17298000Y-9905000D02*
G75*
G02*
X17158000Y-9905000I-70000J0D01*
G01*
X17158000Y-9905000D02*
G75*
G02*
X17298000Y-9905000I70000J0D01*
G01*
D11*
X17355000Y-10032000D02*
X16847000Y-10032000D01*
X16847000Y-9778000D01*
X17355000Y-9778000D01*
X17355000Y-10032000D01*
D12*
%TO.C,TP9*%
X16372000Y-9005000D02*
G75*
G02*
X16232000Y-9005000I-70000J0D01*
G01*
X16232000Y-9005000D02*
G75*
G02*
X16372000Y-9005000I70000J0D01*
G01*
%TO.C,TP5*%
X17749000Y-9697000D02*
G75*
G02*
X17609000Y-9697000I-70000J0D01*
G01*
X17609000Y-9697000D02*
G75*
G02*
X17749000Y-9697000I70000J0D01*
G01*
X17749000Y-9951000D02*
G75*
G02*
X17609000Y-9951000I-70000J0D01*
G01*
X17609000Y-9951000D02*
G75*
G02*
X17749000Y-9951000I70000J0D01*
G01*
D11*
X17806000Y-10078000D02*
X17552000Y-10078000D01*
X17552000Y-9570000D01*
X17806000Y-9570000D01*
X17806000Y-10078000D01*
%TD*%
M02*
