%TF.GenerationSoftware,KiCad,Pcbnew,9.0.0*%
%TF.CreationDate,2025-02-25T22:38:48+02:00*%
%TF.ProjectId,bluetooth-audio,626c7565-746f-46f7-9468-2d617564696f,rev?*%
%TF.SameCoordinates,Original*%
%TF.FileFunction,Legend,Top*%
%TF.FilePolarity,Positive*%
%FSLAX45Y45*%
G04 Gerber Fmt 4.5, Leading zero omitted, Abs format (unit mm)*
G04 Created by KiCad (PCBNEW 9.0.0) date 2025-02-25 22:38:48*
%MOMM*%
%LPD*%
G01*
G04 APERTURE LIST*
%ADD10C,0.150000*%
%ADD11C,0.254000*%
%ADD12C,0.100000*%
%ADD13C,0.120000*%
%ADD14C,0.200000*%
G04 APERTURE END LIST*
D10*
X17209958Y-9308286D02*
X17214720Y-9313048D01*
X17214720Y-9313048D02*
X17219482Y-9327333D01*
X17219482Y-9327333D02*
X17219482Y-9336857D01*
X17219482Y-9336857D02*
X17214720Y-9351143D01*
X17214720Y-9351143D02*
X17205196Y-9360667D01*
X17205196Y-9360667D02*
X17195672Y-9365429D01*
X17195672Y-9365429D02*
X17176625Y-9370190D01*
X17176625Y-9370190D02*
X17162339Y-9370190D01*
X17162339Y-9370190D02*
X17143291Y-9365429D01*
X17143291Y-9365429D02*
X17133768Y-9360667D01*
X17133768Y-9360667D02*
X17124244Y-9351143D01*
X17124244Y-9351143D02*
X17119482Y-9336857D01*
X17119482Y-9336857D02*
X17119482Y-9327333D01*
X17119482Y-9327333D02*
X17124244Y-9313048D01*
X17124244Y-9313048D02*
X17129006Y-9308286D01*
X17152815Y-9222571D02*
X17219482Y-9222571D01*
X17114720Y-9246381D02*
X17186149Y-9270190D01*
X17186149Y-9270190D02*
X17186149Y-9208286D01*
X17152815Y-9127333D02*
X17219482Y-9127333D01*
X17114720Y-9151143D02*
X17186149Y-9174952D01*
X17186149Y-9174952D02*
X17186149Y-9113048D01*
X16219958Y-8672667D02*
X16224720Y-8677429D01*
X16224720Y-8677429D02*
X16229482Y-8691714D01*
X16229482Y-8691714D02*
X16229482Y-8701238D01*
X16229482Y-8701238D02*
X16224720Y-8715524D01*
X16224720Y-8715524D02*
X16215196Y-8725048D01*
X16215196Y-8725048D02*
X16205672Y-8729809D01*
X16205672Y-8729809D02*
X16186625Y-8734571D01*
X16186625Y-8734571D02*
X16172339Y-8734571D01*
X16172339Y-8734571D02*
X16153291Y-8729809D01*
X16153291Y-8729809D02*
X16143768Y-8725048D01*
X16143768Y-8725048D02*
X16134244Y-8715524D01*
X16134244Y-8715524D02*
X16129482Y-8701238D01*
X16129482Y-8701238D02*
X16129482Y-8691714D01*
X16129482Y-8691714D02*
X16134244Y-8677429D01*
X16134244Y-8677429D02*
X16139006Y-8672667D01*
X16129482Y-8586952D02*
X16129482Y-8606000D01*
X16129482Y-8606000D02*
X16134244Y-8615524D01*
X16134244Y-8615524D02*
X16139006Y-8620286D01*
X16139006Y-8620286D02*
X16153291Y-8629809D01*
X16153291Y-8629809D02*
X16172339Y-8634571D01*
X16172339Y-8634571D02*
X16210434Y-8634571D01*
X16210434Y-8634571D02*
X16219958Y-8629809D01*
X16219958Y-8629809D02*
X16224720Y-8625048D01*
X16224720Y-8625048D02*
X16229482Y-8615524D01*
X16229482Y-8615524D02*
X16229482Y-8596476D01*
X16229482Y-8596476D02*
X16224720Y-8586952D01*
X16224720Y-8586952D02*
X16219958Y-8582190D01*
X16219958Y-8582190D02*
X16210434Y-8577429D01*
X16210434Y-8577429D02*
X16186625Y-8577429D01*
X16186625Y-8577429D02*
X16177101Y-8582190D01*
X16177101Y-8582190D02*
X16172339Y-8586952D01*
X16172339Y-8586952D02*
X16167577Y-8596476D01*
X16167577Y-8596476D02*
X16167577Y-8615524D01*
X16167577Y-8615524D02*
X16172339Y-8625048D01*
X16172339Y-8625048D02*
X16177101Y-8629809D01*
X16177101Y-8629809D02*
X16186625Y-8634571D01*
X15676482Y-11491667D02*
X15628863Y-11525000D01*
X15676482Y-11548809D02*
X15576482Y-11548809D01*
X15576482Y-11548809D02*
X15576482Y-11510714D01*
X15576482Y-11510714D02*
X15581244Y-11501190D01*
X15581244Y-11501190D02*
X15586006Y-11496428D01*
X15586006Y-11496428D02*
X15595529Y-11491667D01*
X15595529Y-11491667D02*
X15609815Y-11491667D01*
X15609815Y-11491667D02*
X15619339Y-11496428D01*
X15619339Y-11496428D02*
X15624101Y-11501190D01*
X15624101Y-11501190D02*
X15628863Y-11510714D01*
X15628863Y-11510714D02*
X15628863Y-11548809D01*
X15576482Y-11401190D02*
X15576482Y-11448809D01*
X15576482Y-11448809D02*
X15624101Y-11453571D01*
X15624101Y-11453571D02*
X15619339Y-11448809D01*
X15619339Y-11448809D02*
X15614577Y-11439286D01*
X15614577Y-11439286D02*
X15614577Y-11415476D01*
X15614577Y-11415476D02*
X15619339Y-11405952D01*
X15619339Y-11405952D02*
X15624101Y-11401190D01*
X15624101Y-11401190D02*
X15633625Y-11396428D01*
X15633625Y-11396428D02*
X15657434Y-11396428D01*
X15657434Y-11396428D02*
X15666958Y-11401190D01*
X15666958Y-11401190D02*
X15671720Y-11405952D01*
X15671720Y-11405952D02*
X15676482Y-11415476D01*
X15676482Y-11415476D02*
X15676482Y-11439286D01*
X15676482Y-11439286D02*
X15671720Y-11448809D01*
X15671720Y-11448809D02*
X15666958Y-11453571D01*
X16055482Y-7761286D02*
X16007863Y-7794619D01*
X16055482Y-7818428D02*
X15955482Y-7818428D01*
X15955482Y-7818428D02*
X15955482Y-7780333D01*
X15955482Y-7780333D02*
X15960244Y-7770809D01*
X15960244Y-7770809D02*
X15965006Y-7766047D01*
X15965006Y-7766047D02*
X15974529Y-7761286D01*
X15974529Y-7761286D02*
X15988815Y-7761286D01*
X15988815Y-7761286D02*
X15998339Y-7766047D01*
X15998339Y-7766047D02*
X16003101Y-7770809D01*
X16003101Y-7770809D02*
X16007863Y-7780333D01*
X16007863Y-7780333D02*
X16007863Y-7818428D01*
X16055482Y-7666047D02*
X16055482Y-7723190D01*
X16055482Y-7694619D02*
X15955482Y-7694619D01*
X15955482Y-7694619D02*
X15969768Y-7704143D01*
X15969768Y-7704143D02*
X15979291Y-7713666D01*
X15979291Y-7713666D02*
X15984053Y-7723190D01*
X16055482Y-7570809D02*
X16055482Y-7627952D01*
X16055482Y-7599381D02*
X15955482Y-7599381D01*
X15955482Y-7599381D02*
X15969768Y-7608905D01*
X15969768Y-7608905D02*
X15979291Y-7618428D01*
X15979291Y-7618428D02*
X15984053Y-7627952D01*
X14811703Y-11281982D02*
X14778370Y-11234363D01*
X14754561Y-11281982D02*
X14754561Y-11181982D01*
X14754561Y-11181982D02*
X14792656Y-11181982D01*
X14792656Y-11181982D02*
X14802180Y-11186744D01*
X14802180Y-11186744D02*
X14806941Y-11191506D01*
X14806941Y-11191506D02*
X14811703Y-11201029D01*
X14811703Y-11201029D02*
X14811703Y-11215315D01*
X14811703Y-11215315D02*
X14806941Y-11224839D01*
X14806941Y-11224839D02*
X14802180Y-11229601D01*
X14802180Y-11229601D02*
X14792656Y-11234363D01*
X14792656Y-11234363D02*
X14754561Y-11234363D01*
X14897418Y-11215315D02*
X14897418Y-11281982D01*
X14873608Y-11177220D02*
X14849799Y-11248648D01*
X14849799Y-11248648D02*
X14911703Y-11248648D01*
X15451953Y-9345357D02*
X15418620Y-9297738D01*
X15394810Y-9345357D02*
X15394810Y-9245357D01*
X15394810Y-9245357D02*
X15432906Y-9245357D01*
X15432906Y-9245357D02*
X15442429Y-9250119D01*
X15442429Y-9250119D02*
X15447191Y-9254881D01*
X15447191Y-9254881D02*
X15451953Y-9264405D01*
X15451953Y-9264405D02*
X15451953Y-9278690D01*
X15451953Y-9278690D02*
X15447191Y-9288214D01*
X15447191Y-9288214D02*
X15442429Y-9292976D01*
X15442429Y-9292976D02*
X15432906Y-9297738D01*
X15432906Y-9297738D02*
X15394810Y-9297738D01*
X15490049Y-9254881D02*
X15494810Y-9250119D01*
X15494810Y-9250119D02*
X15504334Y-9245357D01*
X15504334Y-9245357D02*
X15528144Y-9245357D01*
X15528144Y-9245357D02*
X15537668Y-9250119D01*
X15537668Y-9250119D02*
X15542429Y-9254881D01*
X15542429Y-9254881D02*
X15547191Y-9264405D01*
X15547191Y-9264405D02*
X15547191Y-9273928D01*
X15547191Y-9273928D02*
X15542429Y-9288214D01*
X15542429Y-9288214D02*
X15485287Y-9345357D01*
X15485287Y-9345357D02*
X15547191Y-9345357D01*
X17288183Y-9821510D02*
X17292945Y-9826272D01*
X17292945Y-9826272D02*
X17297706Y-9840558D01*
X17297706Y-9840558D02*
X17297706Y-9850081D01*
X17297706Y-9850081D02*
X17292945Y-9864367D01*
X17292945Y-9864367D02*
X17283421Y-9873891D01*
X17283421Y-9873891D02*
X17273897Y-9878653D01*
X17273897Y-9878653D02*
X17254849Y-9883415D01*
X17254849Y-9883415D02*
X17240564Y-9883415D01*
X17240564Y-9883415D02*
X17221516Y-9878653D01*
X17221516Y-9878653D02*
X17211992Y-9873891D01*
X17211992Y-9873891D02*
X17202468Y-9864367D01*
X17202468Y-9864367D02*
X17197706Y-9850081D01*
X17197706Y-9850081D02*
X17197706Y-9840558D01*
X17197706Y-9840558D02*
X17202468Y-9826272D01*
X17202468Y-9826272D02*
X17207230Y-9821510D01*
X17207230Y-9783415D02*
X17202468Y-9778653D01*
X17202468Y-9778653D02*
X17197706Y-9769129D01*
X17197706Y-9769129D02*
X17197706Y-9745320D01*
X17197706Y-9745320D02*
X17202468Y-9735796D01*
X17202468Y-9735796D02*
X17207230Y-9731034D01*
X17207230Y-9731034D02*
X17216754Y-9726272D01*
X17216754Y-9726272D02*
X17226278Y-9726272D01*
X17226278Y-9726272D02*
X17240564Y-9731034D01*
X17240564Y-9731034D02*
X17297706Y-9788177D01*
X17297706Y-9788177D02*
X17297706Y-9726272D01*
X17207230Y-9688177D02*
X17202468Y-9683415D01*
X17202468Y-9683415D02*
X17197706Y-9673891D01*
X17197706Y-9673891D02*
X17197706Y-9650081D01*
X17197706Y-9650081D02*
X17202468Y-9640558D01*
X17202468Y-9640558D02*
X17207230Y-9635796D01*
X17207230Y-9635796D02*
X17216754Y-9631034D01*
X17216754Y-9631034D02*
X17226278Y-9631034D01*
X17226278Y-9631034D02*
X17240564Y-9635796D01*
X17240564Y-9635796D02*
X17297706Y-9692939D01*
X17297706Y-9692939D02*
X17297706Y-9631034D01*
X16509706Y-11628558D02*
X16581135Y-11628558D01*
X16581135Y-11628558D02*
X16595420Y-11633320D01*
X16595420Y-11633320D02*
X16604944Y-11642843D01*
X16604944Y-11642843D02*
X16609706Y-11657129D01*
X16609706Y-11657129D02*
X16609706Y-11666653D01*
X16609706Y-11528558D02*
X16609706Y-11585700D01*
X16609706Y-11557129D02*
X16509706Y-11557129D01*
X16509706Y-11557129D02*
X16523992Y-11566653D01*
X16523992Y-11566653D02*
X16533516Y-11576177D01*
X16533516Y-11576177D02*
X16538278Y-11585700D01*
X15621482Y-7928190D02*
X15621482Y-7871048D01*
X15721482Y-7899619D02*
X15621482Y-7899619D01*
X15721482Y-7837714D02*
X15621482Y-7837714D01*
X15621482Y-7837714D02*
X15621482Y-7799619D01*
X15621482Y-7799619D02*
X15626244Y-7790095D01*
X15626244Y-7790095D02*
X15631006Y-7785333D01*
X15631006Y-7785333D02*
X15640529Y-7780571D01*
X15640529Y-7780571D02*
X15654815Y-7780571D01*
X15654815Y-7780571D02*
X15664339Y-7785333D01*
X15664339Y-7785333D02*
X15669101Y-7790095D01*
X15669101Y-7790095D02*
X15673863Y-7799619D01*
X15673863Y-7799619D02*
X15673863Y-7837714D01*
X15721482Y-7685333D02*
X15721482Y-7742476D01*
X15721482Y-7713905D02*
X15621482Y-7713905D01*
X15621482Y-7713905D02*
X15635768Y-7723428D01*
X15635768Y-7723428D02*
X15645291Y-7732952D01*
X15645291Y-7732952D02*
X15650053Y-7742476D01*
X17778182Y-10720510D02*
X17782944Y-10725272D01*
X17782944Y-10725272D02*
X17787706Y-10739558D01*
X17787706Y-10739558D02*
X17787706Y-10749082D01*
X17787706Y-10749082D02*
X17782944Y-10763367D01*
X17782944Y-10763367D02*
X17773421Y-10772891D01*
X17773421Y-10772891D02*
X17763897Y-10777653D01*
X17763897Y-10777653D02*
X17744849Y-10782415D01*
X17744849Y-10782415D02*
X17730563Y-10782415D01*
X17730563Y-10782415D02*
X17711516Y-10777653D01*
X17711516Y-10777653D02*
X17701992Y-10772891D01*
X17701992Y-10772891D02*
X17692468Y-10763367D01*
X17692468Y-10763367D02*
X17687706Y-10749082D01*
X17687706Y-10749082D02*
X17687706Y-10739558D01*
X17687706Y-10739558D02*
X17692468Y-10725272D01*
X17692468Y-10725272D02*
X17697230Y-10720510D01*
X17787706Y-10625272D02*
X17787706Y-10682415D01*
X17787706Y-10653843D02*
X17687706Y-10653843D01*
X17687706Y-10653843D02*
X17701992Y-10663367D01*
X17701992Y-10663367D02*
X17711516Y-10672891D01*
X17711516Y-10672891D02*
X17716278Y-10682415D01*
X17687706Y-10591939D02*
X17687706Y-10525272D01*
X17687706Y-10525272D02*
X17787706Y-10568129D01*
X16736190Y-9508682D02*
X16793333Y-9508682D01*
X16764762Y-9608682D02*
X16764762Y-9508682D01*
X16826667Y-9608682D02*
X16826667Y-9508682D01*
X16826667Y-9508682D02*
X16864762Y-9508682D01*
X16864762Y-9508682D02*
X16874286Y-9513444D01*
X16874286Y-9513444D02*
X16879048Y-9518206D01*
X16879048Y-9518206D02*
X16883810Y-9527729D01*
X16883810Y-9527729D02*
X16883810Y-9542015D01*
X16883810Y-9542015D02*
X16879048Y-9551539D01*
X16879048Y-9551539D02*
X16874286Y-9556301D01*
X16874286Y-9556301D02*
X16864762Y-9561063D01*
X16864762Y-9561063D02*
X16826667Y-9561063D01*
X16979048Y-9608682D02*
X16921905Y-9608682D01*
X16950476Y-9608682D02*
X16950476Y-9508682D01*
X16950476Y-9508682D02*
X16940952Y-9522968D01*
X16940952Y-9522968D02*
X16931429Y-9532491D01*
X16931429Y-9532491D02*
X16921905Y-9537253D01*
X17064762Y-9542015D02*
X17064762Y-9608682D01*
X17040952Y-9503920D02*
X17017143Y-9575348D01*
X17017143Y-9575348D02*
X17079048Y-9575348D01*
X16769945Y-7629859D02*
X16769945Y-7636593D01*
X16769945Y-7636593D02*
X16763210Y-7650062D01*
X16763210Y-7650062D02*
X16756476Y-7656796D01*
X16756476Y-7656796D02*
X16743007Y-7663530D01*
X16743007Y-7663530D02*
X16729539Y-7663530D01*
X16729539Y-7663530D02*
X16719437Y-7660163D01*
X16719437Y-7660163D02*
X16702601Y-7650062D01*
X16702601Y-7650062D02*
X16692500Y-7639960D01*
X16692500Y-7639960D02*
X16682398Y-7623124D01*
X16682398Y-7623124D02*
X16679031Y-7613023D01*
X16679031Y-7613023D02*
X16679031Y-7599554D01*
X16679031Y-7599554D02*
X16685765Y-7586085D01*
X16685765Y-7586085D02*
X16692500Y-7579351D01*
X16692500Y-7579351D02*
X16705969Y-7572617D01*
X16705969Y-7572617D02*
X16712703Y-7572617D01*
X16729539Y-7542312D02*
X16773312Y-7498539D01*
X16773312Y-7498539D02*
X16776679Y-7549046D01*
X16776679Y-7549046D02*
X16786781Y-7538945D01*
X16786781Y-7538945D02*
X16796882Y-7535578D01*
X16796882Y-7535578D02*
X16803617Y-7535578D01*
X16803617Y-7535578D02*
X16813718Y-7538945D01*
X16813718Y-7538945D02*
X16830554Y-7555781D01*
X16830554Y-7555781D02*
X16833921Y-7565882D01*
X16833921Y-7565882D02*
X16833921Y-7572617D01*
X16833921Y-7572617D02*
X16830554Y-7582718D01*
X16830554Y-7582718D02*
X16810351Y-7602921D01*
X16810351Y-7602921D02*
X16800250Y-7606288D01*
X16800250Y-7606288D02*
X16793515Y-7606288D01*
X16796882Y-7474969D02*
X16844023Y-7427828D01*
X16844023Y-7427828D02*
X16884429Y-7528843D01*
X16025334Y-8451833D02*
X16020572Y-8456595D01*
X16020572Y-8456595D02*
X16006287Y-8461357D01*
X16006287Y-8461357D02*
X15996763Y-8461357D01*
X15996763Y-8461357D02*
X15982477Y-8456595D01*
X15982477Y-8456595D02*
X15972953Y-8447071D01*
X15972953Y-8447071D02*
X15968191Y-8437547D01*
X15968191Y-8437547D02*
X15963429Y-8418500D01*
X15963429Y-8418500D02*
X15963429Y-8404214D01*
X15963429Y-8404214D02*
X15968191Y-8385166D01*
X15968191Y-8385166D02*
X15972953Y-8375643D01*
X15972953Y-8375643D02*
X15982477Y-8366119D01*
X15982477Y-8366119D02*
X15996763Y-8361357D01*
X15996763Y-8361357D02*
X16006287Y-8361357D01*
X16006287Y-8361357D02*
X16020572Y-8366119D01*
X16020572Y-8366119D02*
X16025334Y-8370881D01*
X16058668Y-8361357D02*
X16120572Y-8361357D01*
X16120572Y-8361357D02*
X16087239Y-8399452D01*
X16087239Y-8399452D02*
X16101525Y-8399452D01*
X16101525Y-8399452D02*
X16111048Y-8404214D01*
X16111048Y-8404214D02*
X16115810Y-8408976D01*
X16115810Y-8408976D02*
X16120572Y-8418500D01*
X16120572Y-8418500D02*
X16120572Y-8442309D01*
X16120572Y-8442309D02*
X16115810Y-8451833D01*
X16115810Y-8451833D02*
X16111048Y-8456595D01*
X16111048Y-8456595D02*
X16101525Y-8461357D01*
X16101525Y-8461357D02*
X16072953Y-8461357D01*
X16072953Y-8461357D02*
X16063429Y-8456595D01*
X16063429Y-8456595D02*
X16058668Y-8451833D01*
X16153906Y-8361357D02*
X16215810Y-8361357D01*
X16215810Y-8361357D02*
X16182477Y-8399452D01*
X16182477Y-8399452D02*
X16196763Y-8399452D01*
X16196763Y-8399452D02*
X16206287Y-8404214D01*
X16206287Y-8404214D02*
X16211048Y-8408976D01*
X16211048Y-8408976D02*
X16215810Y-8418500D01*
X16215810Y-8418500D02*
X16215810Y-8442309D01*
X16215810Y-8442309D02*
X16211048Y-8451833D01*
X16211048Y-8451833D02*
X16206287Y-8456595D01*
X16206287Y-8456595D02*
X16196763Y-8461357D01*
X16196763Y-8461357D02*
X16168191Y-8461357D01*
X16168191Y-8461357D02*
X16158668Y-8456595D01*
X16158668Y-8456595D02*
X16153906Y-8451833D01*
X15022852Y-10991065D02*
X15103804Y-10991065D01*
X15103804Y-10991065D02*
X15113328Y-10986304D01*
X15113328Y-10986304D02*
X15118090Y-10981542D01*
X15118090Y-10981542D02*
X15122852Y-10972018D01*
X15122852Y-10972018D02*
X15122852Y-10952970D01*
X15122852Y-10952970D02*
X15118090Y-10943446D01*
X15118090Y-10943446D02*
X15113328Y-10938685D01*
X15113328Y-10938685D02*
X15103804Y-10933923D01*
X15103804Y-10933923D02*
X15022852Y-10933923D01*
X15022852Y-10895827D02*
X15022852Y-10829161D01*
X15022852Y-10829161D02*
X15122852Y-10872018D01*
X17206706Y-10825891D02*
X17159087Y-10859224D01*
X17206706Y-10883034D02*
X17106706Y-10883034D01*
X17106706Y-10883034D02*
X17106706Y-10844939D01*
X17106706Y-10844939D02*
X17111468Y-10835415D01*
X17111468Y-10835415D02*
X17116230Y-10830653D01*
X17116230Y-10830653D02*
X17125754Y-10825891D01*
X17125754Y-10825891D02*
X17140040Y-10825891D01*
X17140040Y-10825891D02*
X17149563Y-10830653D01*
X17149563Y-10830653D02*
X17154325Y-10835415D01*
X17154325Y-10835415D02*
X17159087Y-10844939D01*
X17159087Y-10844939D02*
X17159087Y-10883034D01*
X17106706Y-10792558D02*
X17106706Y-10725891D01*
X17106706Y-10725891D02*
X17206706Y-10768748D01*
X17573714Y-9419958D02*
X17568952Y-9424720D01*
X17568952Y-9424720D02*
X17554667Y-9429482D01*
X17554667Y-9429482D02*
X17545143Y-9429482D01*
X17545143Y-9429482D02*
X17530857Y-9424720D01*
X17530857Y-9424720D02*
X17521333Y-9415196D01*
X17521333Y-9415196D02*
X17516571Y-9405672D01*
X17516571Y-9405672D02*
X17511810Y-9386625D01*
X17511810Y-9386625D02*
X17511810Y-9372339D01*
X17511810Y-9372339D02*
X17516571Y-9353291D01*
X17516571Y-9353291D02*
X17521333Y-9343768D01*
X17521333Y-9343768D02*
X17530857Y-9334244D01*
X17530857Y-9334244D02*
X17545143Y-9329482D01*
X17545143Y-9329482D02*
X17554667Y-9329482D01*
X17554667Y-9329482D02*
X17568952Y-9334244D01*
X17568952Y-9334244D02*
X17573714Y-9339006D01*
X17659429Y-9362815D02*
X17659429Y-9429482D01*
X17635619Y-9324720D02*
X17611810Y-9396149D01*
X17611810Y-9396149D02*
X17673714Y-9396149D01*
X17730857Y-9329482D02*
X17740381Y-9329482D01*
X17740381Y-9329482D02*
X17749905Y-9334244D01*
X17749905Y-9334244D02*
X17754667Y-9339006D01*
X17754667Y-9339006D02*
X17759429Y-9348530D01*
X17759429Y-9348530D02*
X17764190Y-9367577D01*
X17764190Y-9367577D02*
X17764190Y-9391387D01*
X17764190Y-9391387D02*
X17759429Y-9410434D01*
X17759429Y-9410434D02*
X17754667Y-9419958D01*
X17754667Y-9419958D02*
X17749905Y-9424720D01*
X17749905Y-9424720D02*
X17740381Y-9429482D01*
X17740381Y-9429482D02*
X17730857Y-9429482D01*
X17730857Y-9429482D02*
X17721333Y-9424720D01*
X17721333Y-9424720D02*
X17716571Y-9419958D01*
X17716571Y-9419958D02*
X17711810Y-9410434D01*
X17711810Y-9410434D02*
X17707048Y-9391387D01*
X17707048Y-9391387D02*
X17707048Y-9367577D01*
X17707048Y-9367577D02*
X17711810Y-9348530D01*
X17711810Y-9348530D02*
X17716571Y-9339006D01*
X17716571Y-9339006D02*
X17721333Y-9334244D01*
X17721333Y-9334244D02*
X17730857Y-9329482D01*
X17489191Y-8809482D02*
X17489191Y-8709482D01*
X17489191Y-8709482D02*
X17513000Y-8709482D01*
X17513000Y-8709482D02*
X17527286Y-8714244D01*
X17527286Y-8714244D02*
X17536810Y-8723768D01*
X17536810Y-8723768D02*
X17541571Y-8733291D01*
X17541571Y-8733291D02*
X17546333Y-8752339D01*
X17546333Y-8752339D02*
X17546333Y-8766625D01*
X17546333Y-8766625D02*
X17541571Y-8785672D01*
X17541571Y-8785672D02*
X17536810Y-8795196D01*
X17536810Y-8795196D02*
X17527286Y-8804720D01*
X17527286Y-8804720D02*
X17513000Y-8809482D01*
X17513000Y-8809482D02*
X17489191Y-8809482D01*
X17579667Y-8709482D02*
X17641571Y-8709482D01*
X17641571Y-8709482D02*
X17608238Y-8747577D01*
X17608238Y-8747577D02*
X17622524Y-8747577D01*
X17622524Y-8747577D02*
X17632048Y-8752339D01*
X17632048Y-8752339D02*
X17636810Y-8757101D01*
X17636810Y-8757101D02*
X17641571Y-8766625D01*
X17641571Y-8766625D02*
X17641571Y-8790434D01*
X17641571Y-8790434D02*
X17636810Y-8799958D01*
X17636810Y-8799958D02*
X17632048Y-8804720D01*
X17632048Y-8804720D02*
X17622524Y-8809482D01*
X17622524Y-8809482D02*
X17593952Y-8809482D01*
X17593952Y-8809482D02*
X17584429Y-8804720D01*
X17584429Y-8804720D02*
X17579667Y-8799958D01*
X17090081Y-8241102D02*
X17056748Y-8193483D01*
X17032938Y-8241102D02*
X17032938Y-8141102D01*
X17032938Y-8141102D02*
X17071033Y-8141102D01*
X17071033Y-8141102D02*
X17080557Y-8145864D01*
X17080557Y-8145864D02*
X17085319Y-8150626D01*
X17085319Y-8150626D02*
X17090081Y-8160150D01*
X17090081Y-8160150D02*
X17090081Y-8174435D01*
X17090081Y-8174435D02*
X17085319Y-8183959D01*
X17085319Y-8183959D02*
X17080557Y-8188721D01*
X17080557Y-8188721D02*
X17071033Y-8193483D01*
X17071033Y-8193483D02*
X17032938Y-8193483D01*
X17185319Y-8241102D02*
X17128176Y-8241102D01*
X17156748Y-8241102D02*
X17156748Y-8141102D01*
X17156748Y-8141102D02*
X17147224Y-8155388D01*
X17147224Y-8155388D02*
X17137700Y-8164912D01*
X17137700Y-8164912D02*
X17128176Y-8169674D01*
X17218652Y-8141102D02*
X17280557Y-8141102D01*
X17280557Y-8141102D02*
X17247224Y-8179197D01*
X17247224Y-8179197D02*
X17261510Y-8179197D01*
X17261510Y-8179197D02*
X17271033Y-8183959D01*
X17271033Y-8183959D02*
X17275795Y-8188721D01*
X17275795Y-8188721D02*
X17280557Y-8198245D01*
X17280557Y-8198245D02*
X17280557Y-8222054D01*
X17280557Y-8222054D02*
X17275795Y-8231578D01*
X17275795Y-8231578D02*
X17271033Y-8236340D01*
X17271033Y-8236340D02*
X17261510Y-8241102D01*
X17261510Y-8241102D02*
X17232938Y-8241102D01*
X17232938Y-8241102D02*
X17223414Y-8236340D01*
X17223414Y-8236340D02*
X17218652Y-8231578D01*
X16972182Y-10667510D02*
X16976944Y-10672272D01*
X16976944Y-10672272D02*
X16981706Y-10686558D01*
X16981706Y-10686558D02*
X16981706Y-10696082D01*
X16981706Y-10696082D02*
X16976944Y-10710367D01*
X16976944Y-10710367D02*
X16967421Y-10719891D01*
X16967421Y-10719891D02*
X16957897Y-10724653D01*
X16957897Y-10724653D02*
X16938849Y-10729415D01*
X16938849Y-10729415D02*
X16924563Y-10729415D01*
X16924563Y-10729415D02*
X16905516Y-10724653D01*
X16905516Y-10724653D02*
X16895992Y-10719891D01*
X16895992Y-10719891D02*
X16886468Y-10710367D01*
X16886468Y-10710367D02*
X16881706Y-10696082D01*
X16881706Y-10696082D02*
X16881706Y-10686558D01*
X16881706Y-10686558D02*
X16886468Y-10672272D01*
X16886468Y-10672272D02*
X16891230Y-10667510D01*
X16891230Y-10629415D02*
X16886468Y-10624653D01*
X16886468Y-10624653D02*
X16881706Y-10615129D01*
X16881706Y-10615129D02*
X16881706Y-10591320D01*
X16881706Y-10591320D02*
X16886468Y-10581796D01*
X16886468Y-10581796D02*
X16891230Y-10577034D01*
X16891230Y-10577034D02*
X16900754Y-10572272D01*
X16900754Y-10572272D02*
X16910278Y-10572272D01*
X16910278Y-10572272D02*
X16924563Y-10577034D01*
X16924563Y-10577034D02*
X16981706Y-10634177D01*
X16981706Y-10634177D02*
X16981706Y-10572272D01*
X16924563Y-10515129D02*
X16919802Y-10524653D01*
X16919802Y-10524653D02*
X16915040Y-10529415D01*
X16915040Y-10529415D02*
X16905516Y-10534177D01*
X16905516Y-10534177D02*
X16900754Y-10534177D01*
X16900754Y-10534177D02*
X16891230Y-10529415D01*
X16891230Y-10529415D02*
X16886468Y-10524653D01*
X16886468Y-10524653D02*
X16881706Y-10515129D01*
X16881706Y-10515129D02*
X16881706Y-10496082D01*
X16881706Y-10496082D02*
X16886468Y-10486558D01*
X16886468Y-10486558D02*
X16891230Y-10481796D01*
X16891230Y-10481796D02*
X16900754Y-10477034D01*
X16900754Y-10477034D02*
X16905516Y-10477034D01*
X16905516Y-10477034D02*
X16915040Y-10481796D01*
X16915040Y-10481796D02*
X16919802Y-10486558D01*
X16919802Y-10486558D02*
X16924563Y-10496082D01*
X16924563Y-10496082D02*
X16924563Y-10515129D01*
X16924563Y-10515129D02*
X16929325Y-10524653D01*
X16929325Y-10524653D02*
X16934087Y-10529415D01*
X16934087Y-10529415D02*
X16943611Y-10534177D01*
X16943611Y-10534177D02*
X16962659Y-10534177D01*
X16962659Y-10534177D02*
X16972182Y-10529415D01*
X16972182Y-10529415D02*
X16976944Y-10524653D01*
X16976944Y-10524653D02*
X16981706Y-10515129D01*
X16981706Y-10515129D02*
X16981706Y-10496082D01*
X16981706Y-10496082D02*
X16976944Y-10486558D01*
X16976944Y-10486558D02*
X16972182Y-10481796D01*
X16972182Y-10481796D02*
X16962659Y-10477034D01*
X16962659Y-10477034D02*
X16943611Y-10477034D01*
X16943611Y-10477034D02*
X16934087Y-10481796D01*
X16934087Y-10481796D02*
X16929325Y-10486558D01*
X16929325Y-10486558D02*
X16924563Y-10496082D01*
X17080958Y-9253286D02*
X17085720Y-9258048D01*
X17085720Y-9258048D02*
X17090482Y-9272333D01*
X17090482Y-9272333D02*
X17090482Y-9281857D01*
X17090482Y-9281857D02*
X17085720Y-9296143D01*
X17085720Y-9296143D02*
X17076196Y-9305667D01*
X17076196Y-9305667D02*
X17066672Y-9310429D01*
X17066672Y-9310429D02*
X17047625Y-9315190D01*
X17047625Y-9315190D02*
X17033339Y-9315190D01*
X17033339Y-9315190D02*
X17014291Y-9310429D01*
X17014291Y-9310429D02*
X17004768Y-9305667D01*
X17004768Y-9305667D02*
X16995244Y-9296143D01*
X16995244Y-9296143D02*
X16990482Y-9281857D01*
X16990482Y-9281857D02*
X16990482Y-9272333D01*
X16990482Y-9272333D02*
X16995244Y-9258048D01*
X16995244Y-9258048D02*
X17000006Y-9253286D01*
X17023815Y-9167571D02*
X17090482Y-9167571D01*
X16985720Y-9191381D02*
X17057149Y-9215190D01*
X17057149Y-9215190D02*
X17057149Y-9153286D01*
X16990482Y-9124714D02*
X16990482Y-9062810D01*
X16990482Y-9062810D02*
X17028577Y-9096143D01*
X17028577Y-9096143D02*
X17028577Y-9081857D01*
X17028577Y-9081857D02*
X17033339Y-9072333D01*
X17033339Y-9072333D02*
X17038101Y-9067571D01*
X17038101Y-9067571D02*
X17047625Y-9062810D01*
X17047625Y-9062810D02*
X17071434Y-9062810D01*
X17071434Y-9062810D02*
X17080958Y-9067571D01*
X17080958Y-9067571D02*
X17085720Y-9072333D01*
X17085720Y-9072333D02*
X17090482Y-9081857D01*
X17090482Y-9081857D02*
X17090482Y-9110429D01*
X17090482Y-9110429D02*
X17085720Y-9119952D01*
X17085720Y-9119952D02*
X17080958Y-9124714D01*
X16943003Y-7690280D02*
X16938241Y-7695042D01*
X16938241Y-7695042D02*
X16923955Y-7699804D01*
X16923955Y-7699804D02*
X16914431Y-7699804D01*
X16914431Y-7699804D02*
X16900146Y-7695042D01*
X16900146Y-7695042D02*
X16890622Y-7685518D01*
X16890622Y-7685518D02*
X16885860Y-7675994D01*
X16885860Y-7675994D02*
X16881098Y-7656946D01*
X16881098Y-7656946D02*
X16881098Y-7642661D01*
X16881098Y-7642661D02*
X16885860Y-7623613D01*
X16885860Y-7623613D02*
X16890622Y-7614089D01*
X16890622Y-7614089D02*
X16900146Y-7604565D01*
X16900146Y-7604565D02*
X16914431Y-7599804D01*
X16914431Y-7599804D02*
X16923955Y-7599804D01*
X16923955Y-7599804D02*
X16938241Y-7604565D01*
X16938241Y-7604565D02*
X16943003Y-7609327D01*
X17038241Y-7699804D02*
X16981098Y-7699804D01*
X17009669Y-7699804D02*
X17009669Y-7599804D01*
X17009669Y-7599804D02*
X17000146Y-7614089D01*
X17000146Y-7614089D02*
X16990622Y-7623613D01*
X16990622Y-7623613D02*
X16981098Y-7628375D01*
X17100146Y-7599804D02*
X17109669Y-7599804D01*
X17109669Y-7599804D02*
X17119193Y-7604565D01*
X17119193Y-7604565D02*
X17123955Y-7609327D01*
X17123955Y-7609327D02*
X17128717Y-7618851D01*
X17128717Y-7618851D02*
X17133479Y-7637899D01*
X17133479Y-7637899D02*
X17133479Y-7661708D01*
X17133479Y-7661708D02*
X17128717Y-7680756D01*
X17128717Y-7680756D02*
X17123955Y-7690280D01*
X17123955Y-7690280D02*
X17119193Y-7695042D01*
X17119193Y-7695042D02*
X17109669Y-7699804D01*
X17109669Y-7699804D02*
X17100146Y-7699804D01*
X17100146Y-7699804D02*
X17090622Y-7695042D01*
X17090622Y-7695042D02*
X17085860Y-7690280D01*
X17085860Y-7690280D02*
X17081098Y-7680756D01*
X17081098Y-7680756D02*
X17076336Y-7661708D01*
X17076336Y-7661708D02*
X17076336Y-7637899D01*
X17076336Y-7637899D02*
X17081098Y-7618851D01*
X17081098Y-7618851D02*
X17085860Y-7609327D01*
X17085860Y-7609327D02*
X17090622Y-7604565D01*
X17090622Y-7604565D02*
X17100146Y-7599804D01*
X17323482Y-9054286D02*
X17275863Y-9087619D01*
X17323482Y-9111429D02*
X17223482Y-9111429D01*
X17223482Y-9111429D02*
X17223482Y-9073333D01*
X17223482Y-9073333D02*
X17228244Y-9063810D01*
X17228244Y-9063810D02*
X17233006Y-9059048D01*
X17233006Y-9059048D02*
X17242530Y-9054286D01*
X17242530Y-9054286D02*
X17256815Y-9054286D01*
X17256815Y-9054286D02*
X17266339Y-9059048D01*
X17266339Y-9059048D02*
X17271101Y-9063810D01*
X17271101Y-9063810D02*
X17275863Y-9073333D01*
X17275863Y-9073333D02*
X17275863Y-9111429D01*
X17233006Y-9016190D02*
X17228244Y-9011429D01*
X17228244Y-9011429D02*
X17223482Y-9001905D01*
X17223482Y-9001905D02*
X17223482Y-8978095D01*
X17223482Y-8978095D02*
X17228244Y-8968571D01*
X17228244Y-8968571D02*
X17233006Y-8963810D01*
X17233006Y-8963810D02*
X17242530Y-8959048D01*
X17242530Y-8959048D02*
X17252053Y-8959048D01*
X17252053Y-8959048D02*
X17266339Y-8963810D01*
X17266339Y-8963810D02*
X17323482Y-9020952D01*
X17323482Y-9020952D02*
X17323482Y-8959048D01*
X17323482Y-8863810D02*
X17323482Y-8920952D01*
X17323482Y-8892381D02*
X17223482Y-8892381D01*
X17223482Y-8892381D02*
X17237768Y-8901905D01*
X17237768Y-8901905D02*
X17247291Y-8911429D01*
X17247291Y-8911429D02*
X17252053Y-8920952D01*
X16818810Y-9299682D02*
X16875952Y-9299682D01*
X16847381Y-9399682D02*
X16847381Y-9299682D01*
X16909286Y-9399682D02*
X16909286Y-9299682D01*
X16909286Y-9299682D02*
X16947381Y-9299682D01*
X16947381Y-9299682D02*
X16956905Y-9304444D01*
X16956905Y-9304444D02*
X16961667Y-9309206D01*
X16961667Y-9309206D02*
X16966429Y-9318730D01*
X16966429Y-9318730D02*
X16966429Y-9333015D01*
X16966429Y-9333015D02*
X16961667Y-9342539D01*
X16961667Y-9342539D02*
X16956905Y-9347301D01*
X16956905Y-9347301D02*
X16947381Y-9352063D01*
X16947381Y-9352063D02*
X16909286Y-9352063D01*
X17023571Y-9342539D02*
X17014048Y-9337777D01*
X17014048Y-9337777D02*
X17009286Y-9333015D01*
X17009286Y-9333015D02*
X17004524Y-9323491D01*
X17004524Y-9323491D02*
X17004524Y-9318730D01*
X17004524Y-9318730D02*
X17009286Y-9309206D01*
X17009286Y-9309206D02*
X17014048Y-9304444D01*
X17014048Y-9304444D02*
X17023571Y-9299682D01*
X17023571Y-9299682D02*
X17042619Y-9299682D01*
X17042619Y-9299682D02*
X17052143Y-9304444D01*
X17052143Y-9304444D02*
X17056905Y-9309206D01*
X17056905Y-9309206D02*
X17061667Y-9318730D01*
X17061667Y-9318730D02*
X17061667Y-9323491D01*
X17061667Y-9323491D02*
X17056905Y-9333015D01*
X17056905Y-9333015D02*
X17052143Y-9337777D01*
X17052143Y-9337777D02*
X17042619Y-9342539D01*
X17042619Y-9342539D02*
X17023571Y-9342539D01*
X17023571Y-9342539D02*
X17014048Y-9347301D01*
X17014048Y-9347301D02*
X17009286Y-9352063D01*
X17009286Y-9352063D02*
X17004524Y-9361587D01*
X17004524Y-9361587D02*
X17004524Y-9380634D01*
X17004524Y-9380634D02*
X17009286Y-9390158D01*
X17009286Y-9390158D02*
X17014048Y-9394920D01*
X17014048Y-9394920D02*
X17023571Y-9399682D01*
X17023571Y-9399682D02*
X17042619Y-9399682D01*
X17042619Y-9399682D02*
X17052143Y-9394920D01*
X17052143Y-9394920D02*
X17056905Y-9390158D01*
X17056905Y-9390158D02*
X17061667Y-9380634D01*
X17061667Y-9380634D02*
X17061667Y-9361587D01*
X17061667Y-9361587D02*
X17056905Y-9352063D01*
X17056905Y-9352063D02*
X17052143Y-9347301D01*
X17052143Y-9347301D02*
X17042619Y-9342539D01*
X15058334Y-9264833D02*
X15053572Y-9269595D01*
X15053572Y-9269595D02*
X15039287Y-9274357D01*
X15039287Y-9274357D02*
X15029763Y-9274357D01*
X15029763Y-9274357D02*
X15015477Y-9269595D01*
X15015477Y-9269595D02*
X15005953Y-9260071D01*
X15005953Y-9260071D02*
X15001191Y-9250547D01*
X15001191Y-9250547D02*
X14996429Y-9231500D01*
X14996429Y-9231500D02*
X14996429Y-9217214D01*
X14996429Y-9217214D02*
X15001191Y-9198166D01*
X15001191Y-9198166D02*
X15005953Y-9188643D01*
X15005953Y-9188643D02*
X15015477Y-9179119D01*
X15015477Y-9179119D02*
X15029763Y-9174357D01*
X15029763Y-9174357D02*
X15039287Y-9174357D01*
X15039287Y-9174357D02*
X15053572Y-9179119D01*
X15053572Y-9179119D02*
X15058334Y-9183881D01*
X15153572Y-9274357D02*
X15096429Y-9274357D01*
X15125001Y-9274357D02*
X15125001Y-9174357D01*
X15125001Y-9174357D02*
X15115477Y-9188643D01*
X15115477Y-9188643D02*
X15105953Y-9198166D01*
X15105953Y-9198166D02*
X15096429Y-9202928D01*
X15201191Y-9274357D02*
X15220239Y-9274357D01*
X15220239Y-9274357D02*
X15229763Y-9269595D01*
X15229763Y-9269595D02*
X15234525Y-9264833D01*
X15234525Y-9264833D02*
X15244048Y-9250547D01*
X15244048Y-9250547D02*
X15248810Y-9231500D01*
X15248810Y-9231500D02*
X15248810Y-9193405D01*
X15248810Y-9193405D02*
X15244048Y-9183881D01*
X15244048Y-9183881D02*
X15239287Y-9179119D01*
X15239287Y-9179119D02*
X15229763Y-9174357D01*
X15229763Y-9174357D02*
X15210715Y-9174357D01*
X15210715Y-9174357D02*
X15201191Y-9179119D01*
X15201191Y-9179119D02*
X15196429Y-9183881D01*
X15196429Y-9183881D02*
X15191668Y-9193405D01*
X15191668Y-9193405D02*
X15191668Y-9217214D01*
X15191668Y-9217214D02*
X15196429Y-9226738D01*
X15196429Y-9226738D02*
X15201191Y-9231500D01*
X15201191Y-9231500D02*
X15210715Y-9236262D01*
X15210715Y-9236262D02*
X15229763Y-9236262D01*
X15229763Y-9236262D02*
X15239287Y-9231500D01*
X15239287Y-9231500D02*
X15244048Y-9226738D01*
X15244048Y-9226738D02*
X15248810Y-9217214D01*
X16538190Y-9420682D02*
X16595333Y-9420682D01*
X16566762Y-9520682D02*
X16566762Y-9420682D01*
X16628667Y-9520682D02*
X16628667Y-9420682D01*
X16628667Y-9420682D02*
X16666762Y-9420682D01*
X16666762Y-9420682D02*
X16676286Y-9425444D01*
X16676286Y-9425444D02*
X16681048Y-9430206D01*
X16681048Y-9430206D02*
X16685809Y-9439730D01*
X16685809Y-9439730D02*
X16685809Y-9454015D01*
X16685809Y-9454015D02*
X16681048Y-9463539D01*
X16681048Y-9463539D02*
X16676286Y-9468301D01*
X16676286Y-9468301D02*
X16666762Y-9473063D01*
X16666762Y-9473063D02*
X16628667Y-9473063D01*
X16781048Y-9520682D02*
X16723905Y-9520682D01*
X16752476Y-9520682D02*
X16752476Y-9420682D01*
X16752476Y-9420682D02*
X16742952Y-9434968D01*
X16742952Y-9434968D02*
X16733429Y-9444491D01*
X16733429Y-9444491D02*
X16723905Y-9449253D01*
X16871524Y-9420682D02*
X16823905Y-9420682D01*
X16823905Y-9420682D02*
X16819143Y-9468301D01*
X16819143Y-9468301D02*
X16823905Y-9463539D01*
X16823905Y-9463539D02*
X16833429Y-9458777D01*
X16833429Y-9458777D02*
X16857238Y-9458777D01*
X16857238Y-9458777D02*
X16866762Y-9463539D01*
X16866762Y-9463539D02*
X16871524Y-9468301D01*
X16871524Y-9468301D02*
X16876286Y-9477825D01*
X16876286Y-9477825D02*
X16876286Y-9501634D01*
X16876286Y-9501634D02*
X16871524Y-9511158D01*
X16871524Y-9511158D02*
X16866762Y-9515920D01*
X16866762Y-9515920D02*
X16857238Y-9520682D01*
X16857238Y-9520682D02*
X16833429Y-9520682D01*
X16833429Y-9520682D02*
X16823905Y-9515920D01*
X16823905Y-9515920D02*
X16819143Y-9511158D01*
X17347714Y-9641958D02*
X17342952Y-9646720D01*
X17342952Y-9646720D02*
X17328667Y-9651482D01*
X17328667Y-9651482D02*
X17319143Y-9651482D01*
X17319143Y-9651482D02*
X17304857Y-9646720D01*
X17304857Y-9646720D02*
X17295333Y-9637196D01*
X17295333Y-9637196D02*
X17290571Y-9627672D01*
X17290571Y-9627672D02*
X17285810Y-9608625D01*
X17285810Y-9608625D02*
X17285810Y-9594339D01*
X17285810Y-9594339D02*
X17290571Y-9575291D01*
X17290571Y-9575291D02*
X17295333Y-9565768D01*
X17295333Y-9565768D02*
X17304857Y-9556244D01*
X17304857Y-9556244D02*
X17319143Y-9551482D01*
X17319143Y-9551482D02*
X17328667Y-9551482D01*
X17328667Y-9551482D02*
X17342952Y-9556244D01*
X17342952Y-9556244D02*
X17347714Y-9561006D01*
X17381048Y-9551482D02*
X17442952Y-9551482D01*
X17442952Y-9551482D02*
X17409619Y-9589577D01*
X17409619Y-9589577D02*
X17423905Y-9589577D01*
X17423905Y-9589577D02*
X17433429Y-9594339D01*
X17433429Y-9594339D02*
X17438190Y-9599101D01*
X17438190Y-9599101D02*
X17442952Y-9608625D01*
X17442952Y-9608625D02*
X17442952Y-9632434D01*
X17442952Y-9632434D02*
X17438190Y-9641958D01*
X17438190Y-9641958D02*
X17433429Y-9646720D01*
X17433429Y-9646720D02*
X17423905Y-9651482D01*
X17423905Y-9651482D02*
X17395333Y-9651482D01*
X17395333Y-9651482D02*
X17385810Y-9646720D01*
X17385810Y-9646720D02*
X17381048Y-9641958D01*
X17490571Y-9651482D02*
X17509619Y-9651482D01*
X17509619Y-9651482D02*
X17519143Y-9646720D01*
X17519143Y-9646720D02*
X17523905Y-9641958D01*
X17523905Y-9641958D02*
X17533429Y-9627672D01*
X17533429Y-9627672D02*
X17538190Y-9608625D01*
X17538190Y-9608625D02*
X17538190Y-9570530D01*
X17538190Y-9570530D02*
X17533429Y-9561006D01*
X17533429Y-9561006D02*
X17528667Y-9556244D01*
X17528667Y-9556244D02*
X17519143Y-9551482D01*
X17519143Y-9551482D02*
X17500095Y-9551482D01*
X17500095Y-9551482D02*
X17490571Y-9556244D01*
X17490571Y-9556244D02*
X17485810Y-9561006D01*
X17485810Y-9561006D02*
X17481048Y-9570530D01*
X17481048Y-9570530D02*
X17481048Y-9594339D01*
X17481048Y-9594339D02*
X17485810Y-9603863D01*
X17485810Y-9603863D02*
X17490571Y-9608625D01*
X17490571Y-9608625D02*
X17500095Y-9613387D01*
X17500095Y-9613387D02*
X17519143Y-9613387D01*
X17519143Y-9613387D02*
X17528667Y-9608625D01*
X17528667Y-9608625D02*
X17533429Y-9603863D01*
X17533429Y-9603863D02*
X17538190Y-9594339D01*
X17825958Y-10184286D02*
X17830720Y-10189048D01*
X17830720Y-10189048D02*
X17835482Y-10203333D01*
X17835482Y-10203333D02*
X17835482Y-10212857D01*
X17835482Y-10212857D02*
X17830720Y-10227143D01*
X17830720Y-10227143D02*
X17821196Y-10236667D01*
X17821196Y-10236667D02*
X17811672Y-10241429D01*
X17811672Y-10241429D02*
X17792625Y-10246190D01*
X17792625Y-10246190D02*
X17778339Y-10246190D01*
X17778339Y-10246190D02*
X17759291Y-10241429D01*
X17759291Y-10241429D02*
X17749768Y-10236667D01*
X17749768Y-10236667D02*
X17740244Y-10227143D01*
X17740244Y-10227143D02*
X17735482Y-10212857D01*
X17735482Y-10212857D02*
X17735482Y-10203333D01*
X17735482Y-10203333D02*
X17740244Y-10189048D01*
X17740244Y-10189048D02*
X17745006Y-10184286D01*
X17745006Y-10146190D02*
X17740244Y-10141429D01*
X17740244Y-10141429D02*
X17735482Y-10131905D01*
X17735482Y-10131905D02*
X17735482Y-10108095D01*
X17735482Y-10108095D02*
X17740244Y-10098571D01*
X17740244Y-10098571D02*
X17745006Y-10093810D01*
X17745006Y-10093810D02*
X17754530Y-10089048D01*
X17754530Y-10089048D02*
X17764053Y-10089048D01*
X17764053Y-10089048D02*
X17778339Y-10093810D01*
X17778339Y-10093810D02*
X17835482Y-10150952D01*
X17835482Y-10150952D02*
X17835482Y-10089048D01*
X17835482Y-10041429D02*
X17835482Y-10022381D01*
X17835482Y-10022381D02*
X17830720Y-10012857D01*
X17830720Y-10012857D02*
X17825958Y-10008095D01*
X17825958Y-10008095D02*
X17811672Y-9998571D01*
X17811672Y-9998571D02*
X17792625Y-9993810D01*
X17792625Y-9993810D02*
X17754530Y-9993810D01*
X17754530Y-9993810D02*
X17745006Y-9998571D01*
X17745006Y-9998571D02*
X17740244Y-10003333D01*
X17740244Y-10003333D02*
X17735482Y-10012857D01*
X17735482Y-10012857D02*
X17735482Y-10031905D01*
X17735482Y-10031905D02*
X17740244Y-10041429D01*
X17740244Y-10041429D02*
X17745006Y-10046190D01*
X17745006Y-10046190D02*
X17754530Y-10050952D01*
X17754530Y-10050952D02*
X17778339Y-10050952D01*
X17778339Y-10050952D02*
X17787863Y-10046190D01*
X17787863Y-10046190D02*
X17792625Y-10041429D01*
X17792625Y-10041429D02*
X17797387Y-10031905D01*
X17797387Y-10031905D02*
X17797387Y-10012857D01*
X17797387Y-10012857D02*
X17792625Y-10003333D01*
X17792625Y-10003333D02*
X17787863Y-9998571D01*
X17787863Y-9998571D02*
X17778339Y-9993810D01*
X16952810Y-9752482D02*
X16952810Y-9833434D01*
X16952810Y-9833434D02*
X16957571Y-9842958D01*
X16957571Y-9842958D02*
X16962333Y-9847720D01*
X16962333Y-9847720D02*
X16971857Y-9852482D01*
X16971857Y-9852482D02*
X16990905Y-9852482D01*
X16990905Y-9852482D02*
X17000429Y-9847720D01*
X17000429Y-9847720D02*
X17005190Y-9842958D01*
X17005190Y-9842958D02*
X17009952Y-9833434D01*
X17009952Y-9833434D02*
X17009952Y-9752482D01*
X17100429Y-9785815D02*
X17100429Y-9852482D01*
X17076619Y-9747720D02*
X17052810Y-9819149D01*
X17052810Y-9819149D02*
X17114714Y-9819149D01*
X15471482Y-8145286D02*
X15423863Y-8178619D01*
X15471482Y-8202428D02*
X15371482Y-8202428D01*
X15371482Y-8202428D02*
X15371482Y-8164333D01*
X15371482Y-8164333D02*
X15376244Y-8154809D01*
X15376244Y-8154809D02*
X15381006Y-8150048D01*
X15381006Y-8150048D02*
X15390529Y-8145286D01*
X15390529Y-8145286D02*
X15404815Y-8145286D01*
X15404815Y-8145286D02*
X15414339Y-8150048D01*
X15414339Y-8150048D02*
X15419101Y-8154809D01*
X15419101Y-8154809D02*
X15423863Y-8164333D01*
X15423863Y-8164333D02*
X15423863Y-8202428D01*
X15381006Y-8107190D02*
X15376244Y-8102428D01*
X15376244Y-8102428D02*
X15371482Y-8092905D01*
X15371482Y-8092905D02*
X15371482Y-8069095D01*
X15371482Y-8069095D02*
X15376244Y-8059571D01*
X15376244Y-8059571D02*
X15381006Y-8054809D01*
X15381006Y-8054809D02*
X15390529Y-8050048D01*
X15390529Y-8050048D02*
X15400053Y-8050048D01*
X15400053Y-8050048D02*
X15414339Y-8054809D01*
X15414339Y-8054809D02*
X15471482Y-8111952D01*
X15471482Y-8111952D02*
X15471482Y-8050048D01*
X15371482Y-7964333D02*
X15371482Y-7983381D01*
X15371482Y-7983381D02*
X15376244Y-7992905D01*
X15376244Y-7992905D02*
X15381006Y-7997667D01*
X15381006Y-7997667D02*
X15395291Y-8007190D01*
X15395291Y-8007190D02*
X15414339Y-8011952D01*
X15414339Y-8011952D02*
X15452434Y-8011952D01*
X15452434Y-8011952D02*
X15461958Y-8007190D01*
X15461958Y-8007190D02*
X15466720Y-8002428D01*
X15466720Y-8002428D02*
X15471482Y-7992905D01*
X15471482Y-7992905D02*
X15471482Y-7973857D01*
X15471482Y-7973857D02*
X15466720Y-7964333D01*
X15466720Y-7964333D02*
X15461958Y-7959571D01*
X15461958Y-7959571D02*
X15452434Y-7954809D01*
X15452434Y-7954809D02*
X15428625Y-7954809D01*
X15428625Y-7954809D02*
X15419101Y-7959571D01*
X15419101Y-7959571D02*
X15414339Y-7964333D01*
X15414339Y-7964333D02*
X15409577Y-7973857D01*
X15409577Y-7973857D02*
X15409577Y-7992905D01*
X15409577Y-7992905D02*
X15414339Y-8002428D01*
X15414339Y-8002428D02*
X15419101Y-8007190D01*
X15419101Y-8007190D02*
X15428625Y-8011952D01*
X16524476Y-7887212D02*
X16519714Y-7891974D01*
X16519714Y-7891974D02*
X16505428Y-7896736D01*
X16505428Y-7896736D02*
X16495905Y-7896736D01*
X16495905Y-7896736D02*
X16481619Y-7891974D01*
X16481619Y-7891974D02*
X16472095Y-7882450D01*
X16472095Y-7882450D02*
X16467333Y-7872926D01*
X16467333Y-7872926D02*
X16462571Y-7853878D01*
X16462571Y-7853878D02*
X16462571Y-7839593D01*
X16462571Y-7839593D02*
X16467333Y-7820545D01*
X16467333Y-7820545D02*
X16472095Y-7811021D01*
X16472095Y-7811021D02*
X16481619Y-7801497D01*
X16481619Y-7801497D02*
X16495905Y-7796736D01*
X16495905Y-7796736D02*
X16505428Y-7796736D01*
X16505428Y-7796736D02*
X16519714Y-7801497D01*
X16519714Y-7801497D02*
X16524476Y-7806259D01*
X16557809Y-7796736D02*
X16624476Y-7796736D01*
X16624476Y-7796736D02*
X16581619Y-7896736D01*
X16557886Y-7419917D02*
X16557886Y-7426652D01*
X16557886Y-7426652D02*
X16551152Y-7440121D01*
X16551152Y-7440121D02*
X16544417Y-7446855D01*
X16544417Y-7446855D02*
X16530949Y-7453589D01*
X16530949Y-7453589D02*
X16517480Y-7453589D01*
X16517480Y-7453589D02*
X16507378Y-7450222D01*
X16507378Y-7450222D02*
X16490542Y-7440121D01*
X16490542Y-7440121D02*
X16480441Y-7430019D01*
X16480441Y-7430019D02*
X16470339Y-7413183D01*
X16470339Y-7413183D02*
X16466972Y-7403082D01*
X16466972Y-7403082D02*
X16466972Y-7389613D01*
X16466972Y-7389613D02*
X16473707Y-7376144D01*
X16473707Y-7376144D02*
X16480441Y-7369410D01*
X16480441Y-7369410D02*
X16493910Y-7362676D01*
X16493910Y-7362676D02*
X16500644Y-7362676D01*
X16517480Y-7332371D02*
X16561253Y-7288598D01*
X16561253Y-7288598D02*
X16564620Y-7339105D01*
X16564620Y-7339105D02*
X16574722Y-7329004D01*
X16574722Y-7329004D02*
X16584823Y-7325637D01*
X16584823Y-7325637D02*
X16591558Y-7325637D01*
X16591558Y-7325637D02*
X16601659Y-7329004D01*
X16601659Y-7329004D02*
X16618495Y-7345840D01*
X16618495Y-7345840D02*
X16621862Y-7355941D01*
X16621862Y-7355941D02*
X16621862Y-7362676D01*
X16621862Y-7362676D02*
X16618495Y-7372777D01*
X16618495Y-7372777D02*
X16598292Y-7392980D01*
X16598292Y-7392980D02*
X16588191Y-7396347D01*
X16588191Y-7396347D02*
X16581456Y-7396347D01*
X16631964Y-7278496D02*
X16621862Y-7281863D01*
X16621862Y-7281863D02*
X16615128Y-7281863D01*
X16615128Y-7281863D02*
X16605026Y-7278496D01*
X16605026Y-7278496D02*
X16601659Y-7275129D01*
X16601659Y-7275129D02*
X16598292Y-7265027D01*
X16598292Y-7265027D02*
X16598292Y-7258293D01*
X16598292Y-7258293D02*
X16601659Y-7248192D01*
X16601659Y-7248192D02*
X16615128Y-7234723D01*
X16615128Y-7234723D02*
X16625229Y-7231356D01*
X16625229Y-7231356D02*
X16631964Y-7231356D01*
X16631964Y-7231356D02*
X16642065Y-7234723D01*
X16642065Y-7234723D02*
X16645433Y-7238090D01*
X16645433Y-7238090D02*
X16648800Y-7248192D01*
X16648800Y-7248192D02*
X16648800Y-7254926D01*
X16648800Y-7254926D02*
X16645433Y-7265027D01*
X16645433Y-7265027D02*
X16631964Y-7278496D01*
X16631964Y-7278496D02*
X16628597Y-7288598D01*
X16628597Y-7288598D02*
X16628597Y-7295332D01*
X16628597Y-7295332D02*
X16631964Y-7305434D01*
X16631964Y-7305434D02*
X16645433Y-7318902D01*
X16645433Y-7318902D02*
X16655534Y-7322269D01*
X16655534Y-7322269D02*
X16662268Y-7322269D01*
X16662268Y-7322269D02*
X16672370Y-7318902D01*
X16672370Y-7318902D02*
X16685839Y-7305434D01*
X16685839Y-7305434D02*
X16689206Y-7295332D01*
X16689206Y-7295332D02*
X16689206Y-7288598D01*
X16689206Y-7288598D02*
X16685839Y-7278496D01*
X16685839Y-7278496D02*
X16672370Y-7265027D01*
X16672370Y-7265027D02*
X16662268Y-7261660D01*
X16662268Y-7261660D02*
X16655534Y-7261660D01*
X16655534Y-7261660D02*
X16645433Y-7265027D01*
X17003958Y-7942667D02*
X17008720Y-7947428D01*
X17008720Y-7947428D02*
X17013482Y-7961714D01*
X17013482Y-7961714D02*
X17013482Y-7971238D01*
X17013482Y-7971238D02*
X17008720Y-7985524D01*
X17008720Y-7985524D02*
X16999196Y-7995047D01*
X16999196Y-7995047D02*
X16989672Y-7999809D01*
X16989672Y-7999809D02*
X16970625Y-8004571D01*
X16970625Y-8004571D02*
X16956339Y-8004571D01*
X16956339Y-8004571D02*
X16937291Y-7999809D01*
X16937291Y-7999809D02*
X16927768Y-7995047D01*
X16927768Y-7995047D02*
X16918244Y-7985524D01*
X16918244Y-7985524D02*
X16913482Y-7971238D01*
X16913482Y-7971238D02*
X16913482Y-7961714D01*
X16913482Y-7961714D02*
X16918244Y-7947428D01*
X16918244Y-7947428D02*
X16923006Y-7942667D01*
X17013482Y-7895047D02*
X17013482Y-7876000D01*
X17013482Y-7876000D02*
X17008720Y-7866476D01*
X17008720Y-7866476D02*
X17003958Y-7861714D01*
X17003958Y-7861714D02*
X16989672Y-7852190D01*
X16989672Y-7852190D02*
X16970625Y-7847428D01*
X16970625Y-7847428D02*
X16932530Y-7847428D01*
X16932530Y-7847428D02*
X16923006Y-7852190D01*
X16923006Y-7852190D02*
X16918244Y-7856952D01*
X16918244Y-7856952D02*
X16913482Y-7866476D01*
X16913482Y-7866476D02*
X16913482Y-7885524D01*
X16913482Y-7885524D02*
X16918244Y-7895047D01*
X16918244Y-7895047D02*
X16923006Y-7899809D01*
X16923006Y-7899809D02*
X16932530Y-7904571D01*
X16932530Y-7904571D02*
X16956339Y-7904571D01*
X16956339Y-7904571D02*
X16965863Y-7899809D01*
X16965863Y-7899809D02*
X16970625Y-7895047D01*
X16970625Y-7895047D02*
X16975387Y-7885524D01*
X16975387Y-7885524D02*
X16975387Y-7866476D01*
X16975387Y-7866476D02*
X16970625Y-7856952D01*
X16970625Y-7856952D02*
X16965863Y-7852190D01*
X16965863Y-7852190D02*
X16956339Y-7847428D01*
X17054714Y-8596482D02*
X17021381Y-8548863D01*
X16997572Y-8596482D02*
X16997572Y-8496482D01*
X16997572Y-8496482D02*
X17035667Y-8496482D01*
X17035667Y-8496482D02*
X17045191Y-8501244D01*
X17045191Y-8501244D02*
X17049952Y-8506006D01*
X17049952Y-8506006D02*
X17054714Y-8515530D01*
X17054714Y-8515530D02*
X17054714Y-8529815D01*
X17054714Y-8529815D02*
X17049952Y-8539339D01*
X17049952Y-8539339D02*
X17045191Y-8544101D01*
X17045191Y-8544101D02*
X17035667Y-8548863D01*
X17035667Y-8548863D02*
X16997572Y-8548863D01*
X17092810Y-8506006D02*
X17097572Y-8501244D01*
X17097572Y-8501244D02*
X17107095Y-8496482D01*
X17107095Y-8496482D02*
X17130905Y-8496482D01*
X17130905Y-8496482D02*
X17140429Y-8501244D01*
X17140429Y-8501244D02*
X17145191Y-8506006D01*
X17145191Y-8506006D02*
X17149952Y-8515530D01*
X17149952Y-8515530D02*
X17149952Y-8525053D01*
X17149952Y-8525053D02*
X17145191Y-8539339D01*
X17145191Y-8539339D02*
X17088048Y-8596482D01*
X17088048Y-8596482D02*
X17149952Y-8596482D01*
X17211857Y-8496482D02*
X17221381Y-8496482D01*
X17221381Y-8496482D02*
X17230905Y-8501244D01*
X17230905Y-8501244D02*
X17235667Y-8506006D01*
X17235667Y-8506006D02*
X17240429Y-8515530D01*
X17240429Y-8515530D02*
X17245191Y-8534577D01*
X17245191Y-8534577D02*
X17245191Y-8558387D01*
X17245191Y-8558387D02*
X17240429Y-8577434D01*
X17240429Y-8577434D02*
X17235667Y-8586958D01*
X17235667Y-8586958D02*
X17230905Y-8591720D01*
X17230905Y-8591720D02*
X17221381Y-8596482D01*
X17221381Y-8596482D02*
X17211857Y-8596482D01*
X17211857Y-8596482D02*
X17202333Y-8591720D01*
X17202333Y-8591720D02*
X17197572Y-8586958D01*
X17197572Y-8586958D02*
X17192810Y-8577434D01*
X17192810Y-8577434D02*
X17188048Y-8558387D01*
X17188048Y-8558387D02*
X17188048Y-8534577D01*
X17188048Y-8534577D02*
X17192810Y-8515530D01*
X17192810Y-8515530D02*
X17197572Y-8506006D01*
X17197572Y-8506006D02*
X17202333Y-8501244D01*
X17202333Y-8501244D02*
X17211857Y-8496482D01*
X16564714Y-10137958D02*
X16559952Y-10142720D01*
X16559952Y-10142720D02*
X16545667Y-10147482D01*
X16545667Y-10147482D02*
X16536143Y-10147482D01*
X16536143Y-10147482D02*
X16521857Y-10142720D01*
X16521857Y-10142720D02*
X16512333Y-10133196D01*
X16512333Y-10133196D02*
X16507571Y-10123672D01*
X16507571Y-10123672D02*
X16502809Y-10104625D01*
X16502809Y-10104625D02*
X16502809Y-10090339D01*
X16502809Y-10090339D02*
X16507571Y-10071291D01*
X16507571Y-10071291D02*
X16512333Y-10061768D01*
X16512333Y-10061768D02*
X16521857Y-10052244D01*
X16521857Y-10052244D02*
X16536143Y-10047482D01*
X16536143Y-10047482D02*
X16545667Y-10047482D01*
X16545667Y-10047482D02*
X16559952Y-10052244D01*
X16559952Y-10052244D02*
X16564714Y-10057006D01*
X16659952Y-10147482D02*
X16602809Y-10147482D01*
X16631381Y-10147482D02*
X16631381Y-10047482D01*
X16631381Y-10047482D02*
X16621857Y-10061768D01*
X16621857Y-10061768D02*
X16612333Y-10071291D01*
X16612333Y-10071291D02*
X16602809Y-10076053D01*
X16693286Y-10047482D02*
X16755190Y-10047482D01*
X16755190Y-10047482D02*
X16721857Y-10085577D01*
X16721857Y-10085577D02*
X16736143Y-10085577D01*
X16736143Y-10085577D02*
X16745667Y-10090339D01*
X16745667Y-10090339D02*
X16750428Y-10095101D01*
X16750428Y-10095101D02*
X16755190Y-10104625D01*
X16755190Y-10104625D02*
X16755190Y-10128434D01*
X16755190Y-10128434D02*
X16750428Y-10137958D01*
X16750428Y-10137958D02*
X16745667Y-10142720D01*
X16745667Y-10142720D02*
X16736143Y-10147482D01*
X16736143Y-10147482D02*
X16707571Y-10147482D01*
X16707571Y-10147482D02*
X16698048Y-10142720D01*
X16698048Y-10142720D02*
X16693286Y-10137958D01*
X16864182Y-10667510D02*
X16868944Y-10672272D01*
X16868944Y-10672272D02*
X16873706Y-10686558D01*
X16873706Y-10686558D02*
X16873706Y-10696082D01*
X16873706Y-10696082D02*
X16868944Y-10710367D01*
X16868944Y-10710367D02*
X16859421Y-10719891D01*
X16859421Y-10719891D02*
X16849897Y-10724653D01*
X16849897Y-10724653D02*
X16830849Y-10729415D01*
X16830849Y-10729415D02*
X16816563Y-10729415D01*
X16816563Y-10729415D02*
X16797516Y-10724653D01*
X16797516Y-10724653D02*
X16787992Y-10719891D01*
X16787992Y-10719891D02*
X16778468Y-10710367D01*
X16778468Y-10710367D02*
X16773706Y-10696082D01*
X16773706Y-10696082D02*
X16773706Y-10686558D01*
X16773706Y-10686558D02*
X16778468Y-10672272D01*
X16778468Y-10672272D02*
X16783230Y-10667510D01*
X16783230Y-10629415D02*
X16778468Y-10624653D01*
X16778468Y-10624653D02*
X16773706Y-10615129D01*
X16773706Y-10615129D02*
X16773706Y-10591320D01*
X16773706Y-10591320D02*
X16778468Y-10581796D01*
X16778468Y-10581796D02*
X16783230Y-10577034D01*
X16783230Y-10577034D02*
X16792754Y-10572272D01*
X16792754Y-10572272D02*
X16802278Y-10572272D01*
X16802278Y-10572272D02*
X16816563Y-10577034D01*
X16816563Y-10577034D02*
X16873706Y-10634177D01*
X16873706Y-10634177D02*
X16873706Y-10572272D01*
X16773706Y-10538939D02*
X16773706Y-10472272D01*
X16773706Y-10472272D02*
X16873706Y-10515129D01*
X17147714Y-9656482D02*
X17114381Y-9608863D01*
X17090571Y-9656482D02*
X17090571Y-9556482D01*
X17090571Y-9556482D02*
X17128667Y-9556482D01*
X17128667Y-9556482D02*
X17138190Y-9561244D01*
X17138190Y-9561244D02*
X17142952Y-9566006D01*
X17142952Y-9566006D02*
X17147714Y-9575530D01*
X17147714Y-9575530D02*
X17147714Y-9589815D01*
X17147714Y-9589815D02*
X17142952Y-9599339D01*
X17142952Y-9599339D02*
X17138190Y-9604101D01*
X17138190Y-9604101D02*
X17128667Y-9608863D01*
X17128667Y-9608863D02*
X17090571Y-9608863D01*
X17185810Y-9566006D02*
X17190571Y-9561244D01*
X17190571Y-9561244D02*
X17200095Y-9556482D01*
X17200095Y-9556482D02*
X17223905Y-9556482D01*
X17223905Y-9556482D02*
X17233429Y-9561244D01*
X17233429Y-9561244D02*
X17238190Y-9566006D01*
X17238190Y-9566006D02*
X17242952Y-9575530D01*
X17242952Y-9575530D02*
X17242952Y-9585053D01*
X17242952Y-9585053D02*
X17238190Y-9599339D01*
X17238190Y-9599339D02*
X17181048Y-9656482D01*
X17181048Y-9656482D02*
X17242952Y-9656482D01*
X17281048Y-9566006D02*
X17285810Y-9561244D01*
X17285810Y-9561244D02*
X17295333Y-9556482D01*
X17295333Y-9556482D02*
X17319143Y-9556482D01*
X17319143Y-9556482D02*
X17328667Y-9561244D01*
X17328667Y-9561244D02*
X17333429Y-9566006D01*
X17333429Y-9566006D02*
X17338190Y-9575530D01*
X17338190Y-9575530D02*
X17338190Y-9585053D01*
X17338190Y-9585053D02*
X17333429Y-9599339D01*
X17333429Y-9599339D02*
X17276286Y-9656482D01*
X17276286Y-9656482D02*
X17338190Y-9656482D01*
X17659958Y-10240286D02*
X17664720Y-10245048D01*
X17664720Y-10245048D02*
X17669482Y-10259333D01*
X17669482Y-10259333D02*
X17669482Y-10268857D01*
X17669482Y-10268857D02*
X17664720Y-10283143D01*
X17664720Y-10283143D02*
X17655196Y-10292667D01*
X17655196Y-10292667D02*
X17645672Y-10297429D01*
X17645672Y-10297429D02*
X17626625Y-10302190D01*
X17626625Y-10302190D02*
X17612339Y-10302190D01*
X17612339Y-10302190D02*
X17593291Y-10297429D01*
X17593291Y-10297429D02*
X17583768Y-10292667D01*
X17583768Y-10292667D02*
X17574244Y-10283143D01*
X17574244Y-10283143D02*
X17569482Y-10268857D01*
X17569482Y-10268857D02*
X17569482Y-10259333D01*
X17569482Y-10259333D02*
X17574244Y-10245048D01*
X17574244Y-10245048D02*
X17579006Y-10240286D01*
X17569482Y-10206952D02*
X17569482Y-10145048D01*
X17569482Y-10145048D02*
X17607577Y-10178381D01*
X17607577Y-10178381D02*
X17607577Y-10164095D01*
X17607577Y-10164095D02*
X17612339Y-10154571D01*
X17612339Y-10154571D02*
X17617101Y-10149810D01*
X17617101Y-10149810D02*
X17626625Y-10145048D01*
X17626625Y-10145048D02*
X17650434Y-10145048D01*
X17650434Y-10145048D02*
X17659958Y-10149810D01*
X17659958Y-10149810D02*
X17664720Y-10154571D01*
X17664720Y-10154571D02*
X17669482Y-10164095D01*
X17669482Y-10164095D02*
X17669482Y-10192667D01*
X17669482Y-10192667D02*
X17664720Y-10202190D01*
X17664720Y-10202190D02*
X17659958Y-10206952D01*
X17569482Y-10083143D02*
X17569482Y-10073619D01*
X17569482Y-10073619D02*
X17574244Y-10064095D01*
X17574244Y-10064095D02*
X17579006Y-10059333D01*
X17579006Y-10059333D02*
X17588530Y-10054571D01*
X17588530Y-10054571D02*
X17607577Y-10049810D01*
X17607577Y-10049810D02*
X17631387Y-10049810D01*
X17631387Y-10049810D02*
X17650434Y-10054571D01*
X17650434Y-10054571D02*
X17659958Y-10059333D01*
X17659958Y-10059333D02*
X17664720Y-10064095D01*
X17664720Y-10064095D02*
X17669482Y-10073619D01*
X17669482Y-10073619D02*
X17669482Y-10083143D01*
X17669482Y-10083143D02*
X17664720Y-10092667D01*
X17664720Y-10092667D02*
X17659958Y-10097429D01*
X17659958Y-10097429D02*
X17650434Y-10102190D01*
X17650434Y-10102190D02*
X17631387Y-10106952D01*
X17631387Y-10106952D02*
X17607577Y-10106952D01*
X17607577Y-10106952D02*
X17588530Y-10102190D01*
X17588530Y-10102190D02*
X17579006Y-10097429D01*
X17579006Y-10097429D02*
X17574244Y-10092667D01*
X17574244Y-10092667D02*
X17569482Y-10083143D01*
X16158328Y-10643167D02*
X16163090Y-10647929D01*
X16163090Y-10647929D02*
X16167852Y-10662214D01*
X16167852Y-10662214D02*
X16167852Y-10671738D01*
X16167852Y-10671738D02*
X16163090Y-10686024D01*
X16163090Y-10686024D02*
X16153566Y-10695548D01*
X16153566Y-10695548D02*
X16144042Y-10700309D01*
X16144042Y-10700309D02*
X16124995Y-10705071D01*
X16124995Y-10705071D02*
X16110709Y-10705071D01*
X16110709Y-10705071D02*
X16091661Y-10700309D01*
X16091661Y-10700309D02*
X16082138Y-10695548D01*
X16082138Y-10695548D02*
X16072614Y-10686024D01*
X16072614Y-10686024D02*
X16067852Y-10671738D01*
X16067852Y-10671738D02*
X16067852Y-10662214D01*
X16067852Y-10662214D02*
X16072614Y-10647929D01*
X16072614Y-10647929D02*
X16077376Y-10643167D01*
X16101185Y-10557452D02*
X16167852Y-10557452D01*
X16063090Y-10581262D02*
X16134518Y-10605071D01*
X16134518Y-10605071D02*
X16134518Y-10543167D01*
X16115083Y-11099083D02*
X16110321Y-11103845D01*
X16110321Y-11103845D02*
X16096036Y-11108607D01*
X16096036Y-11108607D02*
X16086512Y-11108607D01*
X16086512Y-11108607D02*
X16072226Y-11103845D01*
X16072226Y-11103845D02*
X16062702Y-11094321D01*
X16062702Y-11094321D02*
X16057940Y-11084797D01*
X16057940Y-11084797D02*
X16053179Y-11065750D01*
X16053179Y-11065750D02*
X16053179Y-11051464D01*
X16053179Y-11051464D02*
X16057940Y-11032416D01*
X16057940Y-11032416D02*
X16062702Y-11022893D01*
X16062702Y-11022893D02*
X16072226Y-11013369D01*
X16072226Y-11013369D02*
X16086512Y-11008607D01*
X16086512Y-11008607D02*
X16096036Y-11008607D01*
X16096036Y-11008607D02*
X16110321Y-11013369D01*
X16110321Y-11013369D02*
X16115083Y-11018131D01*
X16210321Y-11108607D02*
X16153179Y-11108607D01*
X16181750Y-11108607D02*
X16181750Y-11008607D01*
X16181750Y-11008607D02*
X16172226Y-11022893D01*
X16172226Y-11022893D02*
X16162702Y-11032416D01*
X16162702Y-11032416D02*
X16153179Y-11037178D01*
X15707004Y-8630553D02*
X15659385Y-8663886D01*
X15707004Y-8687696D02*
X15607004Y-8687696D01*
X15607004Y-8687696D02*
X15607004Y-8649600D01*
X15607004Y-8649600D02*
X15611766Y-8640077D01*
X15611766Y-8640077D02*
X15616528Y-8635315D01*
X15616528Y-8635315D02*
X15626052Y-8630553D01*
X15626052Y-8630553D02*
X15640337Y-8630553D01*
X15640337Y-8630553D02*
X15649861Y-8635315D01*
X15649861Y-8635315D02*
X15654623Y-8640077D01*
X15654623Y-8640077D02*
X15659385Y-8649600D01*
X15659385Y-8649600D02*
X15659385Y-8687696D01*
X15616528Y-8592458D02*
X15611766Y-8587696D01*
X15611766Y-8587696D02*
X15607004Y-8578172D01*
X15607004Y-8578172D02*
X15607004Y-8554362D01*
X15607004Y-8554362D02*
X15611766Y-8544839D01*
X15611766Y-8544839D02*
X15616528Y-8540077D01*
X15616528Y-8540077D02*
X15626052Y-8535315D01*
X15626052Y-8535315D02*
X15635575Y-8535315D01*
X15635575Y-8535315D02*
X15649861Y-8540077D01*
X15649861Y-8540077D02*
X15707004Y-8597219D01*
X15707004Y-8597219D02*
X15707004Y-8535315D01*
X15607004Y-8444839D02*
X15607004Y-8492458D01*
X15607004Y-8492458D02*
X15654623Y-8497219D01*
X15654623Y-8497219D02*
X15649861Y-8492458D01*
X15649861Y-8492458D02*
X15645099Y-8482934D01*
X15645099Y-8482934D02*
X15645099Y-8459124D01*
X15645099Y-8459124D02*
X15649861Y-8449600D01*
X15649861Y-8449600D02*
X15654623Y-8444839D01*
X15654623Y-8444839D02*
X15664147Y-8440077D01*
X15664147Y-8440077D02*
X15687956Y-8440077D01*
X15687956Y-8440077D02*
X15697480Y-8444839D01*
X15697480Y-8444839D02*
X15702242Y-8449600D01*
X15702242Y-8449600D02*
X15707004Y-8459124D01*
X15707004Y-8459124D02*
X15707004Y-8482934D01*
X15707004Y-8482934D02*
X15702242Y-8492458D01*
X15702242Y-8492458D02*
X15697480Y-8497219D01*
X16500714Y-10029833D02*
X16495952Y-10034595D01*
X16495952Y-10034595D02*
X16481667Y-10039357D01*
X16481667Y-10039357D02*
X16472143Y-10039357D01*
X16472143Y-10039357D02*
X16457857Y-10034595D01*
X16457857Y-10034595D02*
X16448333Y-10025071D01*
X16448333Y-10025071D02*
X16443571Y-10015547D01*
X16443571Y-10015547D02*
X16438809Y-9996500D01*
X16438809Y-9996500D02*
X16438809Y-9982214D01*
X16438809Y-9982214D02*
X16443571Y-9963166D01*
X16443571Y-9963166D02*
X16448333Y-9953643D01*
X16448333Y-9953643D02*
X16457857Y-9944119D01*
X16457857Y-9944119D02*
X16472143Y-9939357D01*
X16472143Y-9939357D02*
X16481667Y-9939357D01*
X16481667Y-9939357D02*
X16495952Y-9944119D01*
X16495952Y-9944119D02*
X16500714Y-9948881D01*
X16595952Y-10039357D02*
X16538809Y-10039357D01*
X16567381Y-10039357D02*
X16567381Y-9939357D01*
X16567381Y-9939357D02*
X16557857Y-9953643D01*
X16557857Y-9953643D02*
X16548333Y-9963166D01*
X16548333Y-9963166D02*
X16538809Y-9967928D01*
X16681667Y-9972690D02*
X16681667Y-10039357D01*
X16657857Y-9934595D02*
X16634048Y-10006024D01*
X16634048Y-10006024D02*
X16695952Y-10006024D01*
X16969482Y-8272190D02*
X17050434Y-8272190D01*
X17050434Y-8272190D02*
X17059958Y-8267428D01*
X17059958Y-8267428D02*
X17064720Y-8262667D01*
X17064720Y-8262667D02*
X17069482Y-8253143D01*
X17069482Y-8253143D02*
X17069482Y-8234095D01*
X17069482Y-8234095D02*
X17064720Y-8224571D01*
X17064720Y-8224571D02*
X17059958Y-8219809D01*
X17059958Y-8219809D02*
X17050434Y-8215048D01*
X17050434Y-8215048D02*
X16969482Y-8215048D01*
X17069482Y-8115048D02*
X17069482Y-8172190D01*
X17069482Y-8143619D02*
X16969482Y-8143619D01*
X16969482Y-8143619D02*
X16983768Y-8153143D01*
X16983768Y-8153143D02*
X16993291Y-8162667D01*
X16993291Y-8162667D02*
X16998053Y-8172190D01*
X16474482Y-9706190D02*
X16474482Y-9649048D01*
X16574482Y-9677619D02*
X16474482Y-9677619D01*
X16574482Y-9615714D02*
X16474482Y-9615714D01*
X16474482Y-9615714D02*
X16474482Y-9577619D01*
X16474482Y-9577619D02*
X16479244Y-9568095D01*
X16479244Y-9568095D02*
X16484006Y-9563333D01*
X16484006Y-9563333D02*
X16493529Y-9558571D01*
X16493529Y-9558571D02*
X16507815Y-9558571D01*
X16507815Y-9558571D02*
X16517339Y-9563333D01*
X16517339Y-9563333D02*
X16522101Y-9568095D01*
X16522101Y-9568095D02*
X16526863Y-9577619D01*
X16526863Y-9577619D02*
X16526863Y-9615714D01*
X16474482Y-9525238D02*
X16474482Y-9463333D01*
X16474482Y-9463333D02*
X16512577Y-9496667D01*
X16512577Y-9496667D02*
X16512577Y-9482381D01*
X16512577Y-9482381D02*
X16517339Y-9472857D01*
X16517339Y-9472857D02*
X16522101Y-9468095D01*
X16522101Y-9468095D02*
X16531625Y-9463333D01*
X16531625Y-9463333D02*
X16555434Y-9463333D01*
X16555434Y-9463333D02*
X16564958Y-9468095D01*
X16564958Y-9468095D02*
X16569720Y-9472857D01*
X16569720Y-9472857D02*
X16574482Y-9482381D01*
X16574482Y-9482381D02*
X16574482Y-9510952D01*
X16574482Y-9510952D02*
X16569720Y-9520476D01*
X16569720Y-9520476D02*
X16564958Y-9525238D01*
X17319706Y-10879510D02*
X17272087Y-10912843D01*
X17319706Y-10936653D02*
X17219706Y-10936653D01*
X17219706Y-10936653D02*
X17219706Y-10898558D01*
X17219706Y-10898558D02*
X17224468Y-10889034D01*
X17224468Y-10889034D02*
X17229230Y-10884272D01*
X17229230Y-10884272D02*
X17238754Y-10879510D01*
X17238754Y-10879510D02*
X17253040Y-10879510D01*
X17253040Y-10879510D02*
X17262563Y-10884272D01*
X17262563Y-10884272D02*
X17267325Y-10889034D01*
X17267325Y-10889034D02*
X17272087Y-10898558D01*
X17272087Y-10898558D02*
X17272087Y-10936653D01*
X17319706Y-10784272D02*
X17319706Y-10841415D01*
X17319706Y-10812843D02*
X17219706Y-10812843D01*
X17219706Y-10812843D02*
X17233992Y-10822367D01*
X17233992Y-10822367D02*
X17243516Y-10831891D01*
X17243516Y-10831891D02*
X17248278Y-10841415D01*
X17219706Y-10722367D02*
X17219706Y-10712843D01*
X17219706Y-10712843D02*
X17224468Y-10703320D01*
X17224468Y-10703320D02*
X17229230Y-10698558D01*
X17229230Y-10698558D02*
X17238754Y-10693796D01*
X17238754Y-10693796D02*
X17257802Y-10689034D01*
X17257802Y-10689034D02*
X17281611Y-10689034D01*
X17281611Y-10689034D02*
X17300659Y-10693796D01*
X17300659Y-10693796D02*
X17310182Y-10698558D01*
X17310182Y-10698558D02*
X17314944Y-10703320D01*
X17314944Y-10703320D02*
X17319706Y-10712843D01*
X17319706Y-10712843D02*
X17319706Y-10722367D01*
X17319706Y-10722367D02*
X17314944Y-10731891D01*
X17314944Y-10731891D02*
X17310182Y-10736653D01*
X17310182Y-10736653D02*
X17300659Y-10741415D01*
X17300659Y-10741415D02*
X17281611Y-10746177D01*
X17281611Y-10746177D02*
X17257802Y-10746177D01*
X17257802Y-10746177D02*
X17238754Y-10741415D01*
X17238754Y-10741415D02*
X17229230Y-10736653D01*
X17229230Y-10736653D02*
X17224468Y-10731891D01*
X17224468Y-10731891D02*
X17219706Y-10722367D01*
X16153190Y-10264682D02*
X16210333Y-10264682D01*
X16181762Y-10364682D02*
X16181762Y-10264682D01*
X16243667Y-10364682D02*
X16243667Y-10264682D01*
X16243667Y-10264682D02*
X16281762Y-10264682D01*
X16281762Y-10264682D02*
X16291286Y-10269444D01*
X16291286Y-10269444D02*
X16296048Y-10274206D01*
X16296048Y-10274206D02*
X16300809Y-10283730D01*
X16300809Y-10283730D02*
X16300809Y-10298015D01*
X16300809Y-10298015D02*
X16296048Y-10307539D01*
X16296048Y-10307539D02*
X16291286Y-10312301D01*
X16291286Y-10312301D02*
X16281762Y-10317063D01*
X16281762Y-10317063D02*
X16243667Y-10317063D01*
X16396048Y-10364682D02*
X16338905Y-10364682D01*
X16367476Y-10364682D02*
X16367476Y-10264682D01*
X16367476Y-10264682D02*
X16357952Y-10278968D01*
X16357952Y-10278968D02*
X16348429Y-10288491D01*
X16348429Y-10288491D02*
X16338905Y-10293253D01*
X16434143Y-10274206D02*
X16438905Y-10269444D01*
X16438905Y-10269444D02*
X16448429Y-10264682D01*
X16448429Y-10264682D02*
X16472238Y-10264682D01*
X16472238Y-10264682D02*
X16481762Y-10269444D01*
X16481762Y-10269444D02*
X16486524Y-10274206D01*
X16486524Y-10274206D02*
X16491286Y-10283730D01*
X16491286Y-10283730D02*
X16491286Y-10293253D01*
X16491286Y-10293253D02*
X16486524Y-10307539D01*
X16486524Y-10307539D02*
X16429381Y-10364682D01*
X16429381Y-10364682D02*
X16491286Y-10364682D01*
X15409703Y-9904708D02*
X15404941Y-9909470D01*
X15404941Y-9909470D02*
X15390656Y-9914232D01*
X15390656Y-9914232D02*
X15381132Y-9914232D01*
X15381132Y-9914232D02*
X15366846Y-9909470D01*
X15366846Y-9909470D02*
X15357322Y-9899946D01*
X15357322Y-9899946D02*
X15352560Y-9890422D01*
X15352560Y-9890422D02*
X15347799Y-9871375D01*
X15347799Y-9871375D02*
X15347799Y-9857089D01*
X15347799Y-9857089D02*
X15352560Y-9838041D01*
X15352560Y-9838041D02*
X15357322Y-9828518D01*
X15357322Y-9828518D02*
X15366846Y-9818994D01*
X15366846Y-9818994D02*
X15381132Y-9814232D01*
X15381132Y-9814232D02*
X15390656Y-9814232D01*
X15390656Y-9814232D02*
X15404941Y-9818994D01*
X15404941Y-9818994D02*
X15409703Y-9823756D01*
X15447799Y-9823756D02*
X15452560Y-9818994D01*
X15452560Y-9818994D02*
X15462084Y-9814232D01*
X15462084Y-9814232D02*
X15485894Y-9814232D01*
X15485894Y-9814232D02*
X15495418Y-9818994D01*
X15495418Y-9818994D02*
X15500179Y-9823756D01*
X15500179Y-9823756D02*
X15504941Y-9833280D01*
X15504941Y-9833280D02*
X15504941Y-9842803D01*
X15504941Y-9842803D02*
X15500179Y-9857089D01*
X15500179Y-9857089D02*
X15443037Y-9914232D01*
X15443037Y-9914232D02*
X15504941Y-9914232D01*
X17316958Y-9732286D02*
X17321720Y-9737048D01*
X17321720Y-9737048D02*
X17326482Y-9751333D01*
X17326482Y-9751333D02*
X17326482Y-9760857D01*
X17326482Y-9760857D02*
X17321720Y-9775143D01*
X17321720Y-9775143D02*
X17312196Y-9784667D01*
X17312196Y-9784667D02*
X17302672Y-9789429D01*
X17302672Y-9789429D02*
X17283625Y-9794190D01*
X17283625Y-9794190D02*
X17269339Y-9794190D01*
X17269339Y-9794190D02*
X17250291Y-9789429D01*
X17250291Y-9789429D02*
X17240768Y-9784667D01*
X17240768Y-9784667D02*
X17231244Y-9775143D01*
X17231244Y-9775143D02*
X17226482Y-9760857D01*
X17226482Y-9760857D02*
X17226482Y-9751333D01*
X17226482Y-9751333D02*
X17231244Y-9737048D01*
X17231244Y-9737048D02*
X17236006Y-9732286D01*
X17259815Y-9646571D02*
X17326482Y-9646571D01*
X17221720Y-9670381D02*
X17293149Y-9694190D01*
X17293149Y-9694190D02*
X17293149Y-9632286D01*
X17236006Y-9598952D02*
X17231244Y-9594190D01*
X17231244Y-9594190D02*
X17226482Y-9584667D01*
X17226482Y-9584667D02*
X17226482Y-9560857D01*
X17226482Y-9560857D02*
X17231244Y-9551333D01*
X17231244Y-9551333D02*
X17236006Y-9546571D01*
X17236006Y-9546571D02*
X17245530Y-9541810D01*
X17245530Y-9541810D02*
X17255053Y-9541810D01*
X17255053Y-9541810D02*
X17269339Y-9546571D01*
X17269339Y-9546571D02*
X17326482Y-9603714D01*
X17326482Y-9603714D02*
X17326482Y-9541810D01*
X17386939Y-10248182D02*
X17382177Y-10252944D01*
X17382177Y-10252944D02*
X17367891Y-10257706D01*
X17367891Y-10257706D02*
X17358367Y-10257706D01*
X17358367Y-10257706D02*
X17344082Y-10252944D01*
X17344082Y-10252944D02*
X17334558Y-10243421D01*
X17334558Y-10243421D02*
X17329796Y-10233897D01*
X17329796Y-10233897D02*
X17325034Y-10214849D01*
X17325034Y-10214849D02*
X17325034Y-10200563D01*
X17325034Y-10200563D02*
X17329796Y-10181516D01*
X17329796Y-10181516D02*
X17334558Y-10171992D01*
X17334558Y-10171992D02*
X17344082Y-10162468D01*
X17344082Y-10162468D02*
X17358367Y-10157706D01*
X17358367Y-10157706D02*
X17367891Y-10157706D01*
X17367891Y-10157706D02*
X17382177Y-10162468D01*
X17382177Y-10162468D02*
X17386939Y-10167230D01*
X17482177Y-10257706D02*
X17425034Y-10257706D01*
X17453605Y-10257706D02*
X17453605Y-10157706D01*
X17453605Y-10157706D02*
X17444082Y-10171992D01*
X17444082Y-10171992D02*
X17434558Y-10181516D01*
X17434558Y-10181516D02*
X17425034Y-10186278D01*
X17567891Y-10157706D02*
X17548843Y-10157706D01*
X17548843Y-10157706D02*
X17539320Y-10162468D01*
X17539320Y-10162468D02*
X17534558Y-10167230D01*
X17534558Y-10167230D02*
X17525034Y-10181516D01*
X17525034Y-10181516D02*
X17520272Y-10200563D01*
X17520272Y-10200563D02*
X17520272Y-10238659D01*
X17520272Y-10238659D02*
X17525034Y-10248182D01*
X17525034Y-10248182D02*
X17529796Y-10252944D01*
X17529796Y-10252944D02*
X17539320Y-10257706D01*
X17539320Y-10257706D02*
X17558367Y-10257706D01*
X17558367Y-10257706D02*
X17567891Y-10252944D01*
X17567891Y-10252944D02*
X17572653Y-10248182D01*
X17572653Y-10248182D02*
X17577415Y-10238659D01*
X17577415Y-10238659D02*
X17577415Y-10214849D01*
X17577415Y-10214849D02*
X17572653Y-10205325D01*
X17572653Y-10205325D02*
X17567891Y-10200563D01*
X17567891Y-10200563D02*
X17558367Y-10195802D01*
X17558367Y-10195802D02*
X17539320Y-10195802D01*
X17539320Y-10195802D02*
X17529796Y-10200563D01*
X17529796Y-10200563D02*
X17525034Y-10205325D01*
X17525034Y-10205325D02*
X17520272Y-10214849D01*
X15585096Y-9902881D02*
X15575572Y-9898119D01*
X15575572Y-9898119D02*
X15566048Y-9888595D01*
X15566048Y-9888595D02*
X15551763Y-9874309D01*
X15551763Y-9874309D02*
X15542239Y-9869547D01*
X15542239Y-9869547D02*
X15532715Y-9869547D01*
X15537477Y-9893357D02*
X15527953Y-9888595D01*
X15527953Y-9888595D02*
X15518429Y-9879071D01*
X15518429Y-9879071D02*
X15513668Y-9860024D01*
X15513668Y-9860024D02*
X15513668Y-9826690D01*
X15513668Y-9826690D02*
X15518429Y-9807643D01*
X15518429Y-9807643D02*
X15527953Y-9798119D01*
X15527953Y-9798119D02*
X15537477Y-9793357D01*
X15537477Y-9793357D02*
X15556525Y-9793357D01*
X15556525Y-9793357D02*
X15566048Y-9798119D01*
X15566048Y-9798119D02*
X15575572Y-9807643D01*
X15575572Y-9807643D02*
X15580334Y-9826690D01*
X15580334Y-9826690D02*
X15580334Y-9860024D01*
X15580334Y-9860024D02*
X15575572Y-9879071D01*
X15575572Y-9879071D02*
X15566048Y-9888595D01*
X15566048Y-9888595D02*
X15556525Y-9893357D01*
X15556525Y-9893357D02*
X15537477Y-9893357D01*
X15675572Y-9893357D02*
X15618429Y-9893357D01*
X15647001Y-9893357D02*
X15647001Y-9793357D01*
X15647001Y-9793357D02*
X15637477Y-9807643D01*
X15637477Y-9807643D02*
X15627953Y-9817166D01*
X15627953Y-9817166D02*
X15618429Y-9821928D01*
X17183182Y-9821510D02*
X17187944Y-9826272D01*
X17187944Y-9826272D02*
X17192706Y-9840558D01*
X17192706Y-9840558D02*
X17192706Y-9850082D01*
X17192706Y-9850082D02*
X17187944Y-9864367D01*
X17187944Y-9864367D02*
X17178421Y-9873891D01*
X17178421Y-9873891D02*
X17168897Y-9878653D01*
X17168897Y-9878653D02*
X17149849Y-9883415D01*
X17149849Y-9883415D02*
X17135563Y-9883415D01*
X17135563Y-9883415D02*
X17116516Y-9878653D01*
X17116516Y-9878653D02*
X17106992Y-9873891D01*
X17106992Y-9873891D02*
X17097468Y-9864367D01*
X17097468Y-9864367D02*
X17092706Y-9850082D01*
X17092706Y-9850082D02*
X17092706Y-9840558D01*
X17092706Y-9840558D02*
X17097468Y-9826272D01*
X17097468Y-9826272D02*
X17102230Y-9821510D01*
X17102230Y-9783415D02*
X17097468Y-9778653D01*
X17097468Y-9778653D02*
X17092706Y-9769129D01*
X17092706Y-9769129D02*
X17092706Y-9745320D01*
X17092706Y-9745320D02*
X17097468Y-9735796D01*
X17097468Y-9735796D02*
X17102230Y-9731034D01*
X17102230Y-9731034D02*
X17111754Y-9726272D01*
X17111754Y-9726272D02*
X17121278Y-9726272D01*
X17121278Y-9726272D02*
X17135563Y-9731034D01*
X17135563Y-9731034D02*
X17192706Y-9788177D01*
X17192706Y-9788177D02*
X17192706Y-9726272D01*
X17192706Y-9631034D02*
X17192706Y-9688177D01*
X17192706Y-9659605D02*
X17092706Y-9659605D01*
X17092706Y-9659605D02*
X17106992Y-9669129D01*
X17106992Y-9669129D02*
X17116516Y-9678653D01*
X17116516Y-9678653D02*
X17121278Y-9688177D01*
X14565482Y-9868315D02*
X14646434Y-9868315D01*
X14646434Y-9868315D02*
X14655958Y-9863554D01*
X14655958Y-9863554D02*
X14660720Y-9858792D01*
X14660720Y-9858792D02*
X14665482Y-9849268D01*
X14665482Y-9849268D02*
X14665482Y-9830220D01*
X14665482Y-9830220D02*
X14660720Y-9820696D01*
X14660720Y-9820696D02*
X14655958Y-9815935D01*
X14655958Y-9815935D02*
X14646434Y-9811173D01*
X14646434Y-9811173D02*
X14565482Y-9811173D01*
X14575006Y-9768315D02*
X14570244Y-9763554D01*
X14570244Y-9763554D02*
X14565482Y-9754030D01*
X14565482Y-9754030D02*
X14565482Y-9730220D01*
X14565482Y-9730220D02*
X14570244Y-9720696D01*
X14570244Y-9720696D02*
X14575006Y-9715935D01*
X14575006Y-9715935D02*
X14584529Y-9711173D01*
X14584529Y-9711173D02*
X14594053Y-9711173D01*
X14594053Y-9711173D02*
X14608339Y-9715935D01*
X14608339Y-9715935D02*
X14665482Y-9773077D01*
X14665482Y-9773077D02*
X14665482Y-9711173D01*
X17437706Y-10818891D02*
X17390087Y-10852224D01*
X17437706Y-10876034D02*
X17337706Y-10876034D01*
X17337706Y-10876034D02*
X17337706Y-10837939D01*
X17337706Y-10837939D02*
X17342468Y-10828415D01*
X17342468Y-10828415D02*
X17347230Y-10823653D01*
X17347230Y-10823653D02*
X17356754Y-10818891D01*
X17356754Y-10818891D02*
X17371040Y-10818891D01*
X17371040Y-10818891D02*
X17380563Y-10823653D01*
X17380563Y-10823653D02*
X17385325Y-10828415D01*
X17385325Y-10828415D02*
X17390087Y-10837939D01*
X17390087Y-10837939D02*
X17390087Y-10876034D01*
X17437706Y-10771272D02*
X17437706Y-10752224D01*
X17437706Y-10752224D02*
X17432944Y-10742701D01*
X17432944Y-10742701D02*
X17428182Y-10737939D01*
X17428182Y-10737939D02*
X17413897Y-10728415D01*
X17413897Y-10728415D02*
X17394849Y-10723653D01*
X17394849Y-10723653D02*
X17356754Y-10723653D01*
X17356754Y-10723653D02*
X17347230Y-10728415D01*
X17347230Y-10728415D02*
X17342468Y-10733177D01*
X17342468Y-10733177D02*
X17337706Y-10742701D01*
X17337706Y-10742701D02*
X17337706Y-10761748D01*
X17337706Y-10761748D02*
X17342468Y-10771272D01*
X17342468Y-10771272D02*
X17347230Y-10776034D01*
X17347230Y-10776034D02*
X17356754Y-10780796D01*
X17356754Y-10780796D02*
X17380563Y-10780796D01*
X17380563Y-10780796D02*
X17390087Y-10776034D01*
X17390087Y-10776034D02*
X17394849Y-10771272D01*
X17394849Y-10771272D02*
X17399611Y-10761748D01*
X17399611Y-10761748D02*
X17399611Y-10742701D01*
X17399611Y-10742701D02*
X17394849Y-10733177D01*
X17394849Y-10733177D02*
X17390087Y-10728415D01*
X17390087Y-10728415D02*
X17380563Y-10723653D01*
D11*
X17536432Y-9306310D02*
X17409432Y-9306310D01*
X17409432Y-9306310D02*
X17500146Y-9263976D01*
X17500146Y-9263976D02*
X17409432Y-9221643D01*
X17409432Y-9221643D02*
X17536432Y-9221643D01*
X17536432Y-9161167D02*
X17409432Y-9161167D01*
X17536432Y-9088595D02*
X17463860Y-9143024D01*
X17409432Y-9088595D02*
X17482003Y-9161167D01*
X17536432Y-8967643D02*
X17536432Y-9040214D01*
X17536432Y-9003929D02*
X17409432Y-9003929D01*
X17409432Y-9003929D02*
X17427575Y-9016024D01*
X17427575Y-9016024D02*
X17439670Y-9028119D01*
X17439670Y-9028119D02*
X17445718Y-9040214D01*
D10*
X17489191Y-8606482D02*
X17489191Y-8506482D01*
X17489191Y-8506482D02*
X17513000Y-8506482D01*
X17513000Y-8506482D02*
X17527286Y-8511244D01*
X17527286Y-8511244D02*
X17536810Y-8520768D01*
X17536810Y-8520768D02*
X17541571Y-8530291D01*
X17541571Y-8530291D02*
X17546333Y-8549339D01*
X17546333Y-8549339D02*
X17546333Y-8563625D01*
X17546333Y-8563625D02*
X17541571Y-8582672D01*
X17541571Y-8582672D02*
X17536810Y-8592196D01*
X17536810Y-8592196D02*
X17527286Y-8601720D01*
X17527286Y-8601720D02*
X17513000Y-8606482D01*
X17513000Y-8606482D02*
X17489191Y-8606482D01*
X17641571Y-8606482D02*
X17584429Y-8606482D01*
X17613000Y-8606482D02*
X17613000Y-8506482D01*
X17613000Y-8506482D02*
X17603476Y-8520768D01*
X17603476Y-8520768D02*
X17593952Y-8530291D01*
X17593952Y-8530291D02*
X17584429Y-8535053D01*
X17193182Y-10665510D02*
X17197944Y-10670272D01*
X17197944Y-10670272D02*
X17202706Y-10684558D01*
X17202706Y-10684558D02*
X17202706Y-10694082D01*
X17202706Y-10694082D02*
X17197944Y-10708367D01*
X17197944Y-10708367D02*
X17188421Y-10717891D01*
X17188421Y-10717891D02*
X17178897Y-10722653D01*
X17178897Y-10722653D02*
X17159849Y-10727415D01*
X17159849Y-10727415D02*
X17145563Y-10727415D01*
X17145563Y-10727415D02*
X17126516Y-10722653D01*
X17126516Y-10722653D02*
X17116992Y-10717891D01*
X17116992Y-10717891D02*
X17107468Y-10708367D01*
X17107468Y-10708367D02*
X17102706Y-10694082D01*
X17102706Y-10694082D02*
X17102706Y-10684558D01*
X17102706Y-10684558D02*
X17107468Y-10670272D01*
X17107468Y-10670272D02*
X17112230Y-10665510D01*
X17112230Y-10627415D02*
X17107468Y-10622653D01*
X17107468Y-10622653D02*
X17102706Y-10613129D01*
X17102706Y-10613129D02*
X17102706Y-10589320D01*
X17102706Y-10589320D02*
X17107468Y-10579796D01*
X17107468Y-10579796D02*
X17112230Y-10575034D01*
X17112230Y-10575034D02*
X17121754Y-10570272D01*
X17121754Y-10570272D02*
X17131278Y-10570272D01*
X17131278Y-10570272D02*
X17145563Y-10575034D01*
X17145563Y-10575034D02*
X17202706Y-10632177D01*
X17202706Y-10632177D02*
X17202706Y-10570272D01*
X17136040Y-10484558D02*
X17202706Y-10484558D01*
X17097944Y-10508367D02*
X17169373Y-10532177D01*
X17169373Y-10532177D02*
X17169373Y-10470272D01*
X15955809Y-10155682D02*
X16012952Y-10155682D01*
X15984381Y-10255682D02*
X15984381Y-10155682D01*
X16046286Y-10255682D02*
X16046286Y-10155682D01*
X16046286Y-10155682D02*
X16084381Y-10155682D01*
X16084381Y-10155682D02*
X16093905Y-10160444D01*
X16093905Y-10160444D02*
X16098667Y-10165206D01*
X16098667Y-10165206D02*
X16103428Y-10174730D01*
X16103428Y-10174730D02*
X16103428Y-10189015D01*
X16103428Y-10189015D02*
X16098667Y-10198539D01*
X16098667Y-10198539D02*
X16093905Y-10203301D01*
X16093905Y-10203301D02*
X16084381Y-10208063D01*
X16084381Y-10208063D02*
X16046286Y-10208063D01*
X16141524Y-10165206D02*
X16146286Y-10160444D01*
X16146286Y-10160444D02*
X16155809Y-10155682D01*
X16155809Y-10155682D02*
X16179619Y-10155682D01*
X16179619Y-10155682D02*
X16189143Y-10160444D01*
X16189143Y-10160444D02*
X16193905Y-10165206D01*
X16193905Y-10165206D02*
X16198667Y-10174730D01*
X16198667Y-10174730D02*
X16198667Y-10184253D01*
X16198667Y-10184253D02*
X16193905Y-10198539D01*
X16193905Y-10198539D02*
X16136762Y-10255682D01*
X16136762Y-10255682D02*
X16198667Y-10255682D01*
X16117083Y-10837833D02*
X16112321Y-10842595D01*
X16112321Y-10842595D02*
X16098036Y-10847357D01*
X16098036Y-10847357D02*
X16088512Y-10847357D01*
X16088512Y-10847357D02*
X16074226Y-10842595D01*
X16074226Y-10842595D02*
X16064702Y-10833071D01*
X16064702Y-10833071D02*
X16059940Y-10823547D01*
X16059940Y-10823547D02*
X16055179Y-10804500D01*
X16055179Y-10804500D02*
X16055179Y-10790214D01*
X16055179Y-10790214D02*
X16059940Y-10771166D01*
X16059940Y-10771166D02*
X16064702Y-10761643D01*
X16064702Y-10761643D02*
X16074226Y-10752119D01*
X16074226Y-10752119D02*
X16088512Y-10747357D01*
X16088512Y-10747357D02*
X16098036Y-10747357D01*
X16098036Y-10747357D02*
X16112321Y-10752119D01*
X16112321Y-10752119D02*
X16117083Y-10756881D01*
X16150417Y-10747357D02*
X16212321Y-10747357D01*
X16212321Y-10747357D02*
X16178988Y-10785452D01*
X16178988Y-10785452D02*
X16193274Y-10785452D01*
X16193274Y-10785452D02*
X16202798Y-10790214D01*
X16202798Y-10790214D02*
X16207559Y-10794976D01*
X16207559Y-10794976D02*
X16212321Y-10804500D01*
X16212321Y-10804500D02*
X16212321Y-10828309D01*
X16212321Y-10828309D02*
X16207559Y-10837833D01*
X16207559Y-10837833D02*
X16202798Y-10842595D01*
X16202798Y-10842595D02*
X16193274Y-10847357D01*
X16193274Y-10847357D02*
X16164702Y-10847357D01*
X16164702Y-10847357D02*
X16155179Y-10842595D01*
X16155179Y-10842595D02*
X16150417Y-10837833D01*
X16771786Y-7504644D02*
X16738114Y-7470972D01*
X16738114Y-7470972D02*
X16808825Y-7400261D01*
X16832395Y-7565253D02*
X16791989Y-7524847D01*
X16812192Y-7545050D02*
X16882903Y-7474339D01*
X16882903Y-7474339D02*
X16866067Y-7477706D01*
X16866067Y-7477706D02*
X16852598Y-7477706D01*
X16852598Y-7477706D02*
X16842497Y-7474339D01*
X17469714Y-8351958D02*
X17464952Y-8356720D01*
X17464952Y-8356720D02*
X17450667Y-8361482D01*
X17450667Y-8361482D02*
X17441143Y-8361482D01*
X17441143Y-8361482D02*
X17426857Y-8356720D01*
X17426857Y-8356720D02*
X17417333Y-8347196D01*
X17417333Y-8347196D02*
X17412571Y-8337672D01*
X17412571Y-8337672D02*
X17407810Y-8318625D01*
X17407810Y-8318625D02*
X17407810Y-8304339D01*
X17407810Y-8304339D02*
X17412571Y-8285291D01*
X17412571Y-8285291D02*
X17417333Y-8275768D01*
X17417333Y-8275768D02*
X17426857Y-8266244D01*
X17426857Y-8266244D02*
X17441143Y-8261482D01*
X17441143Y-8261482D02*
X17450667Y-8261482D01*
X17450667Y-8261482D02*
X17464952Y-8266244D01*
X17464952Y-8266244D02*
X17469714Y-8271006D01*
X17503048Y-8261482D02*
X17564952Y-8261482D01*
X17564952Y-8261482D02*
X17531619Y-8299577D01*
X17531619Y-8299577D02*
X17545905Y-8299577D01*
X17545905Y-8299577D02*
X17555429Y-8304339D01*
X17555429Y-8304339D02*
X17560190Y-8309101D01*
X17560190Y-8309101D02*
X17564952Y-8318625D01*
X17564952Y-8318625D02*
X17564952Y-8342434D01*
X17564952Y-8342434D02*
X17560190Y-8351958D01*
X17560190Y-8351958D02*
X17555429Y-8356720D01*
X17555429Y-8356720D02*
X17545905Y-8361482D01*
X17545905Y-8361482D02*
X17517333Y-8361482D01*
X17517333Y-8361482D02*
X17507810Y-8356720D01*
X17507810Y-8356720D02*
X17503048Y-8351958D01*
X17650667Y-8261482D02*
X17631619Y-8261482D01*
X17631619Y-8261482D02*
X17622095Y-8266244D01*
X17622095Y-8266244D02*
X17617333Y-8271006D01*
X17617333Y-8271006D02*
X17607810Y-8285291D01*
X17607810Y-8285291D02*
X17603048Y-8304339D01*
X17603048Y-8304339D02*
X17603048Y-8342434D01*
X17603048Y-8342434D02*
X17607810Y-8351958D01*
X17607810Y-8351958D02*
X17612571Y-8356720D01*
X17612571Y-8356720D02*
X17622095Y-8361482D01*
X17622095Y-8361482D02*
X17641143Y-8361482D01*
X17641143Y-8361482D02*
X17650667Y-8356720D01*
X17650667Y-8356720D02*
X17655429Y-8351958D01*
X17655429Y-8351958D02*
X17660190Y-8342434D01*
X17660190Y-8342434D02*
X17660190Y-8318625D01*
X17660190Y-8318625D02*
X17655429Y-8309101D01*
X17655429Y-8309101D02*
X17650667Y-8304339D01*
X17650667Y-8304339D02*
X17641143Y-8299577D01*
X17641143Y-8299577D02*
X17622095Y-8299577D01*
X17622095Y-8299577D02*
X17612571Y-8304339D01*
X17612571Y-8304339D02*
X17607810Y-8309101D01*
X17607810Y-8309101D02*
X17603048Y-8318625D01*
X16158681Y-7759871D02*
X16163443Y-7764633D01*
X16163443Y-7764633D02*
X16168205Y-7778919D01*
X16168205Y-7778919D02*
X16168205Y-7788443D01*
X16168205Y-7788443D02*
X16163443Y-7802728D01*
X16163443Y-7802728D02*
X16153919Y-7812252D01*
X16153919Y-7812252D02*
X16144395Y-7817014D01*
X16144395Y-7817014D02*
X16125348Y-7821776D01*
X16125348Y-7821776D02*
X16111062Y-7821776D01*
X16111062Y-7821776D02*
X16092014Y-7817014D01*
X16092014Y-7817014D02*
X16082490Y-7812252D01*
X16082490Y-7812252D02*
X16072967Y-7802728D01*
X16072967Y-7802728D02*
X16068205Y-7788443D01*
X16068205Y-7788443D02*
X16068205Y-7778919D01*
X16068205Y-7778919D02*
X16072967Y-7764633D01*
X16072967Y-7764633D02*
X16077729Y-7759871D01*
X16068205Y-7726538D02*
X16068205Y-7664633D01*
X16068205Y-7664633D02*
X16106300Y-7697967D01*
X16106300Y-7697967D02*
X16106300Y-7683681D01*
X16106300Y-7683681D02*
X16111062Y-7674157D01*
X16111062Y-7674157D02*
X16115824Y-7669395D01*
X16115824Y-7669395D02*
X16125348Y-7664633D01*
X16125348Y-7664633D02*
X16149157Y-7664633D01*
X16149157Y-7664633D02*
X16158681Y-7669395D01*
X16158681Y-7669395D02*
X16163443Y-7674157D01*
X16163443Y-7674157D02*
X16168205Y-7683681D01*
X16168205Y-7683681D02*
X16168205Y-7712252D01*
X16168205Y-7712252D02*
X16163443Y-7721776D01*
X16163443Y-7721776D02*
X16158681Y-7726538D01*
X16101538Y-7578919D02*
X16168205Y-7578919D01*
X16063443Y-7602728D02*
X16134871Y-7626538D01*
X16134871Y-7626538D02*
X16134871Y-7564633D01*
X17211958Y-8572286D02*
X17216720Y-8577048D01*
X17216720Y-8577048D02*
X17221482Y-8591333D01*
X17221482Y-8591333D02*
X17221482Y-8600857D01*
X17221482Y-8600857D02*
X17216720Y-8615143D01*
X17216720Y-8615143D02*
X17207196Y-8624667D01*
X17207196Y-8624667D02*
X17197672Y-8629429D01*
X17197672Y-8629429D02*
X17178625Y-8634190D01*
X17178625Y-8634190D02*
X17164339Y-8634190D01*
X17164339Y-8634190D02*
X17145291Y-8629429D01*
X17145291Y-8629429D02*
X17135768Y-8624667D01*
X17135768Y-8624667D02*
X17126244Y-8615143D01*
X17126244Y-8615143D02*
X17121482Y-8600857D01*
X17121482Y-8600857D02*
X17121482Y-8591333D01*
X17121482Y-8591333D02*
X17126244Y-8577048D01*
X17126244Y-8577048D02*
X17131006Y-8572286D01*
X17221482Y-8477048D02*
X17221482Y-8534190D01*
X17221482Y-8505619D02*
X17121482Y-8505619D01*
X17121482Y-8505619D02*
X17135768Y-8515143D01*
X17135768Y-8515143D02*
X17145291Y-8524667D01*
X17145291Y-8524667D02*
X17150053Y-8534190D01*
X17221482Y-8381809D02*
X17221482Y-8438952D01*
X17221482Y-8410381D02*
X17121482Y-8410381D01*
X17121482Y-8410381D02*
X17135768Y-8419905D01*
X17135768Y-8419905D02*
X17145291Y-8429429D01*
X17145291Y-8429429D02*
X17150053Y-8438952D01*
X16920714Y-8709482D02*
X16887381Y-8661863D01*
X16863571Y-8709482D02*
X16863571Y-8609482D01*
X16863571Y-8609482D02*
X16901667Y-8609482D01*
X16901667Y-8609482D02*
X16911190Y-8614244D01*
X16911190Y-8614244D02*
X16915952Y-8619006D01*
X16915952Y-8619006D02*
X16920714Y-8628530D01*
X16920714Y-8628530D02*
X16920714Y-8642815D01*
X16920714Y-8642815D02*
X16915952Y-8652339D01*
X16915952Y-8652339D02*
X16911190Y-8657101D01*
X16911190Y-8657101D02*
X16901667Y-8661863D01*
X16901667Y-8661863D02*
X16863571Y-8661863D01*
X17015952Y-8709482D02*
X16958810Y-8709482D01*
X16987381Y-8709482D02*
X16987381Y-8609482D01*
X16987381Y-8609482D02*
X16977857Y-8623768D01*
X16977857Y-8623768D02*
X16968333Y-8633291D01*
X16968333Y-8633291D02*
X16958810Y-8638053D01*
X17063571Y-8709482D02*
X17082619Y-8709482D01*
X17082619Y-8709482D02*
X17092143Y-8704720D01*
X17092143Y-8704720D02*
X17096905Y-8699958D01*
X17096905Y-8699958D02*
X17106429Y-8685672D01*
X17106429Y-8685672D02*
X17111190Y-8666625D01*
X17111190Y-8666625D02*
X17111190Y-8628530D01*
X17111190Y-8628530D02*
X17106429Y-8619006D01*
X17106429Y-8619006D02*
X17101667Y-8614244D01*
X17101667Y-8614244D02*
X17092143Y-8609482D01*
X17092143Y-8609482D02*
X17073095Y-8609482D01*
X17073095Y-8609482D02*
X17063571Y-8614244D01*
X17063571Y-8614244D02*
X17058810Y-8619006D01*
X17058810Y-8619006D02*
X17054048Y-8628530D01*
X17054048Y-8628530D02*
X17054048Y-8652339D01*
X17054048Y-8652339D02*
X17058810Y-8661863D01*
X17058810Y-8661863D02*
X17063571Y-8666625D01*
X17063571Y-8666625D02*
X17073095Y-8671387D01*
X17073095Y-8671387D02*
X17092143Y-8671387D01*
X17092143Y-8671387D02*
X17101667Y-8666625D01*
X17101667Y-8666625D02*
X17106429Y-8661863D01*
X17106429Y-8661863D02*
X17111190Y-8652339D01*
X17216958Y-9732286D02*
X17221720Y-9737048D01*
X17221720Y-9737048D02*
X17226482Y-9751333D01*
X17226482Y-9751333D02*
X17226482Y-9760857D01*
X17226482Y-9760857D02*
X17221720Y-9775143D01*
X17221720Y-9775143D02*
X17212196Y-9784667D01*
X17212196Y-9784667D02*
X17202672Y-9789429D01*
X17202672Y-9789429D02*
X17183625Y-9794190D01*
X17183625Y-9794190D02*
X17169339Y-9794190D01*
X17169339Y-9794190D02*
X17150291Y-9789429D01*
X17150291Y-9789429D02*
X17140768Y-9784667D01*
X17140768Y-9784667D02*
X17131244Y-9775143D01*
X17131244Y-9775143D02*
X17126482Y-9760857D01*
X17126482Y-9760857D02*
X17126482Y-9751333D01*
X17126482Y-9751333D02*
X17131244Y-9737048D01*
X17131244Y-9737048D02*
X17136006Y-9732286D01*
X17159815Y-9646571D02*
X17226482Y-9646571D01*
X17121720Y-9670381D02*
X17193149Y-9694190D01*
X17193149Y-9694190D02*
X17193149Y-9632286D01*
X17226482Y-9541810D02*
X17226482Y-9598952D01*
X17226482Y-9570381D02*
X17126482Y-9570381D01*
X17126482Y-9570381D02*
X17140768Y-9579905D01*
X17140768Y-9579905D02*
X17150291Y-9589429D01*
X17150291Y-9589429D02*
X17155053Y-9598952D01*
X17614182Y-10723010D02*
X17618944Y-10727772D01*
X17618944Y-10727772D02*
X17623706Y-10742058D01*
X17623706Y-10742058D02*
X17623706Y-10751582D01*
X17623706Y-10751582D02*
X17618944Y-10765867D01*
X17618944Y-10765867D02*
X17609421Y-10775391D01*
X17609421Y-10775391D02*
X17599897Y-10780153D01*
X17599897Y-10780153D02*
X17580849Y-10784915D01*
X17580849Y-10784915D02*
X17566563Y-10784915D01*
X17566563Y-10784915D02*
X17547516Y-10780153D01*
X17547516Y-10780153D02*
X17537992Y-10775391D01*
X17537992Y-10775391D02*
X17528468Y-10765867D01*
X17528468Y-10765867D02*
X17523706Y-10751582D01*
X17523706Y-10751582D02*
X17523706Y-10742058D01*
X17523706Y-10742058D02*
X17528468Y-10727772D01*
X17528468Y-10727772D02*
X17533230Y-10723010D01*
X17623706Y-10627772D02*
X17623706Y-10684915D01*
X17623706Y-10656344D02*
X17523706Y-10656344D01*
X17523706Y-10656344D02*
X17537992Y-10665867D01*
X17537992Y-10665867D02*
X17547516Y-10675391D01*
X17547516Y-10675391D02*
X17552278Y-10684915D01*
X17523706Y-10537296D02*
X17523706Y-10584915D01*
X17523706Y-10584915D02*
X17571325Y-10589677D01*
X17571325Y-10589677D02*
X17566563Y-10584915D01*
X17566563Y-10584915D02*
X17561802Y-10575391D01*
X17561802Y-10575391D02*
X17561802Y-10551582D01*
X17561802Y-10551582D02*
X17566563Y-10542058D01*
X17566563Y-10542058D02*
X17571325Y-10537296D01*
X17571325Y-10537296D02*
X17580849Y-10532534D01*
X17580849Y-10532534D02*
X17604659Y-10532534D01*
X17604659Y-10532534D02*
X17614182Y-10537296D01*
X17614182Y-10537296D02*
X17618944Y-10542058D01*
X17618944Y-10542058D02*
X17623706Y-10551582D01*
X17623706Y-10551582D02*
X17623706Y-10575391D01*
X17623706Y-10575391D02*
X17618944Y-10584915D01*
X17618944Y-10584915D02*
X17614182Y-10589677D01*
X15744102Y-9685161D02*
X15696483Y-9718494D01*
X15744102Y-9742304D02*
X15644102Y-9742304D01*
X15644102Y-9742304D02*
X15644102Y-9704208D01*
X15644102Y-9704208D02*
X15648864Y-9694685D01*
X15648864Y-9694685D02*
X15653626Y-9689923D01*
X15653626Y-9689923D02*
X15663149Y-9685161D01*
X15663149Y-9685161D02*
X15677435Y-9685161D01*
X15677435Y-9685161D02*
X15686959Y-9689923D01*
X15686959Y-9689923D02*
X15691721Y-9694685D01*
X15691721Y-9694685D02*
X15696483Y-9704208D01*
X15696483Y-9704208D02*
X15696483Y-9742304D01*
X15744102Y-9589923D02*
X15744102Y-9647065D01*
X15744102Y-9618494D02*
X15644102Y-9618494D01*
X15644102Y-9618494D02*
X15658388Y-9628018D01*
X15658388Y-9628018D02*
X15667911Y-9637542D01*
X15667911Y-9637542D02*
X15672673Y-9647065D01*
X15677435Y-9504208D02*
X15744102Y-9504208D01*
X15639340Y-9528018D02*
X15710768Y-9551827D01*
X15710768Y-9551827D02*
X15710768Y-9489923D01*
X16564714Y-10237958D02*
X16559952Y-10242720D01*
X16559952Y-10242720D02*
X16545667Y-10247482D01*
X16545667Y-10247482D02*
X16536143Y-10247482D01*
X16536143Y-10247482D02*
X16521857Y-10242720D01*
X16521857Y-10242720D02*
X16512333Y-10233196D01*
X16512333Y-10233196D02*
X16507571Y-10223672D01*
X16507571Y-10223672D02*
X16502809Y-10204625D01*
X16502809Y-10204625D02*
X16502809Y-10190339D01*
X16502809Y-10190339D02*
X16507571Y-10171291D01*
X16507571Y-10171291D02*
X16512333Y-10161768D01*
X16512333Y-10161768D02*
X16521857Y-10152244D01*
X16521857Y-10152244D02*
X16536143Y-10147482D01*
X16536143Y-10147482D02*
X16545667Y-10147482D01*
X16545667Y-10147482D02*
X16559952Y-10152244D01*
X16559952Y-10152244D02*
X16564714Y-10157006D01*
X16659952Y-10247482D02*
X16602809Y-10247482D01*
X16631381Y-10247482D02*
X16631381Y-10147482D01*
X16631381Y-10147482D02*
X16621857Y-10161768D01*
X16621857Y-10161768D02*
X16612333Y-10171291D01*
X16612333Y-10171291D02*
X16602809Y-10176053D01*
X16698048Y-10157006D02*
X16702809Y-10152244D01*
X16702809Y-10152244D02*
X16712333Y-10147482D01*
X16712333Y-10147482D02*
X16736143Y-10147482D01*
X16736143Y-10147482D02*
X16745667Y-10152244D01*
X16745667Y-10152244D02*
X16750428Y-10157006D01*
X16750428Y-10157006D02*
X16755190Y-10166530D01*
X16755190Y-10166530D02*
X16755190Y-10176053D01*
X16755190Y-10176053D02*
X16750428Y-10190339D01*
X16750428Y-10190339D02*
X16693286Y-10247482D01*
X16693286Y-10247482D02*
X16755190Y-10247482D01*
X17725206Y-8043917D02*
X17772825Y-8043917D01*
X17672825Y-8077250D02*
X17725206Y-8043917D01*
X17725206Y-8043917D02*
X17672825Y-8010584D01*
X17772825Y-7924869D02*
X17772825Y-7982012D01*
X17772825Y-7953441D02*
X17672825Y-7953441D01*
X17672825Y-7953441D02*
X17687111Y-7962964D01*
X17687111Y-7962964D02*
X17696635Y-7972488D01*
X17696635Y-7972488D02*
X17701397Y-7982012D01*
X14914190Y-7469682D02*
X14971333Y-7469682D01*
X14942762Y-7569682D02*
X14942762Y-7469682D01*
X15004667Y-7569682D02*
X15004667Y-7469682D01*
X15004667Y-7469682D02*
X15042762Y-7469682D01*
X15042762Y-7469682D02*
X15052286Y-7474444D01*
X15052286Y-7474444D02*
X15057048Y-7479206D01*
X15057048Y-7479206D02*
X15061809Y-7488729D01*
X15061809Y-7488729D02*
X15061809Y-7503015D01*
X15061809Y-7503015D02*
X15057048Y-7512539D01*
X15057048Y-7512539D02*
X15052286Y-7517301D01*
X15052286Y-7517301D02*
X15042762Y-7522063D01*
X15042762Y-7522063D02*
X15004667Y-7522063D01*
X15157048Y-7569682D02*
X15099905Y-7569682D01*
X15128476Y-7569682D02*
X15128476Y-7469682D01*
X15128476Y-7469682D02*
X15118952Y-7483968D01*
X15118952Y-7483968D02*
X15109429Y-7493491D01*
X15109429Y-7493491D02*
X15099905Y-7498253D01*
X15252286Y-7569682D02*
X15195143Y-7569682D01*
X15223714Y-7569682D02*
X15223714Y-7469682D01*
X15223714Y-7469682D02*
X15214190Y-7483968D01*
X15214190Y-7483968D02*
X15204667Y-7493491D01*
X15204667Y-7493491D02*
X15195143Y-7498253D01*
X16178232Y-9181440D02*
X16259184Y-9181440D01*
X16259184Y-9181440D02*
X16268708Y-9176679D01*
X16268708Y-9176679D02*
X16273470Y-9171917D01*
X16273470Y-9171917D02*
X16278232Y-9162393D01*
X16278232Y-9162393D02*
X16278232Y-9143345D01*
X16278232Y-9143345D02*
X16273470Y-9133821D01*
X16273470Y-9133821D02*
X16268708Y-9129060D01*
X16268708Y-9129060D02*
X16259184Y-9124298D01*
X16259184Y-9124298D02*
X16178232Y-9124298D01*
X16178232Y-9033821D02*
X16178232Y-9052869D01*
X16178232Y-9052869D02*
X16182994Y-9062393D01*
X16182994Y-9062393D02*
X16187756Y-9067155D01*
X16187756Y-9067155D02*
X16202041Y-9076679D01*
X16202041Y-9076679D02*
X16221089Y-9081440D01*
X16221089Y-9081440D02*
X16259184Y-9081440D01*
X16259184Y-9081440D02*
X16268708Y-9076679D01*
X16268708Y-9076679D02*
X16273470Y-9071917D01*
X16273470Y-9071917D02*
X16278232Y-9062393D01*
X16278232Y-9062393D02*
X16278232Y-9043345D01*
X16278232Y-9043345D02*
X16273470Y-9033821D01*
X16273470Y-9033821D02*
X16268708Y-9029060D01*
X16268708Y-9029060D02*
X16259184Y-9024298D01*
X16259184Y-9024298D02*
X16235375Y-9024298D01*
X16235375Y-9024298D02*
X16225851Y-9029060D01*
X16225851Y-9029060D02*
X16221089Y-9033821D01*
X16221089Y-9033821D02*
X16216327Y-9043345D01*
X16216327Y-9043345D02*
X16216327Y-9062393D01*
X16216327Y-9062393D02*
X16221089Y-9071917D01*
X16221089Y-9071917D02*
X16225851Y-9076679D01*
X16225851Y-9076679D02*
X16235375Y-9081440D01*
X14871190Y-10246682D02*
X14928333Y-10246682D01*
X14899762Y-10346682D02*
X14899762Y-10246682D01*
X14961667Y-10346682D02*
X14961667Y-10246682D01*
X14961667Y-10246682D02*
X14999762Y-10246682D01*
X14999762Y-10246682D02*
X15009286Y-10251444D01*
X15009286Y-10251444D02*
X15014048Y-10256206D01*
X15014048Y-10256206D02*
X15018809Y-10265730D01*
X15018809Y-10265730D02*
X15018809Y-10280015D01*
X15018809Y-10280015D02*
X15014048Y-10289539D01*
X15014048Y-10289539D02*
X15009286Y-10294301D01*
X15009286Y-10294301D02*
X14999762Y-10299063D01*
X14999762Y-10299063D02*
X14961667Y-10299063D01*
X15114048Y-10346682D02*
X15056905Y-10346682D01*
X15085476Y-10346682D02*
X15085476Y-10246682D01*
X15085476Y-10246682D02*
X15075952Y-10260968D01*
X15075952Y-10260968D02*
X15066429Y-10270491D01*
X15066429Y-10270491D02*
X15056905Y-10275253D01*
X15175952Y-10246682D02*
X15185476Y-10246682D01*
X15185476Y-10246682D02*
X15195000Y-10251444D01*
X15195000Y-10251444D02*
X15199762Y-10256206D01*
X15199762Y-10256206D02*
X15204524Y-10265730D01*
X15204524Y-10265730D02*
X15209286Y-10284777D01*
X15209286Y-10284777D02*
X15209286Y-10308587D01*
X15209286Y-10308587D02*
X15204524Y-10327634D01*
X15204524Y-10327634D02*
X15199762Y-10337158D01*
X15199762Y-10337158D02*
X15195000Y-10341920D01*
X15195000Y-10341920D02*
X15185476Y-10346682D01*
X15185476Y-10346682D02*
X15175952Y-10346682D01*
X15175952Y-10346682D02*
X15166429Y-10341920D01*
X15166429Y-10341920D02*
X15161667Y-10337158D01*
X15161667Y-10337158D02*
X15156905Y-10327634D01*
X15156905Y-10327634D02*
X15152143Y-10308587D01*
X15152143Y-10308587D02*
X15152143Y-10284777D01*
X15152143Y-10284777D02*
X15156905Y-10265730D01*
X15156905Y-10265730D02*
X15161667Y-10256206D01*
X15161667Y-10256206D02*
X15166429Y-10251444D01*
X15166429Y-10251444D02*
X15175952Y-10246682D01*
X16451333Y-7779958D02*
X16446571Y-7784720D01*
X16446571Y-7784720D02*
X16432286Y-7789482D01*
X16432286Y-7789482D02*
X16422762Y-7789482D01*
X16422762Y-7789482D02*
X16408476Y-7784720D01*
X16408476Y-7784720D02*
X16398952Y-7775196D01*
X16398952Y-7775196D02*
X16394190Y-7765672D01*
X16394190Y-7765672D02*
X16389429Y-7746625D01*
X16389429Y-7746625D02*
X16389429Y-7732339D01*
X16389429Y-7732339D02*
X16394190Y-7713291D01*
X16394190Y-7713291D02*
X16398952Y-7703768D01*
X16398952Y-7703768D02*
X16408476Y-7694244D01*
X16408476Y-7694244D02*
X16422762Y-7689482D01*
X16422762Y-7689482D02*
X16432286Y-7689482D01*
X16432286Y-7689482D02*
X16446571Y-7694244D01*
X16446571Y-7694244D02*
X16451333Y-7699006D01*
X16508476Y-7732339D02*
X16498952Y-7727577D01*
X16498952Y-7727577D02*
X16494190Y-7722815D01*
X16494190Y-7722815D02*
X16489429Y-7713291D01*
X16489429Y-7713291D02*
X16489429Y-7708529D01*
X16489429Y-7708529D02*
X16494190Y-7699006D01*
X16494190Y-7699006D02*
X16498952Y-7694244D01*
X16498952Y-7694244D02*
X16508476Y-7689482D01*
X16508476Y-7689482D02*
X16527524Y-7689482D01*
X16527524Y-7689482D02*
X16537048Y-7694244D01*
X16537048Y-7694244D02*
X16541809Y-7699006D01*
X16541809Y-7699006D02*
X16546571Y-7708529D01*
X16546571Y-7708529D02*
X16546571Y-7713291D01*
X16546571Y-7713291D02*
X16541809Y-7722815D01*
X16541809Y-7722815D02*
X16537048Y-7727577D01*
X16537048Y-7727577D02*
X16527524Y-7732339D01*
X16527524Y-7732339D02*
X16508476Y-7732339D01*
X16508476Y-7732339D02*
X16498952Y-7737101D01*
X16498952Y-7737101D02*
X16494190Y-7741863D01*
X16494190Y-7741863D02*
X16489429Y-7751387D01*
X16489429Y-7751387D02*
X16489429Y-7770434D01*
X16489429Y-7770434D02*
X16494190Y-7779958D01*
X16494190Y-7779958D02*
X16498952Y-7784720D01*
X16498952Y-7784720D02*
X16508476Y-7789482D01*
X16508476Y-7789482D02*
X16527524Y-7789482D01*
X16527524Y-7789482D02*
X16537048Y-7784720D01*
X16537048Y-7784720D02*
X16541809Y-7779958D01*
X16541809Y-7779958D02*
X16546571Y-7770434D01*
X16546571Y-7770434D02*
X16546571Y-7751387D01*
X16546571Y-7751387D02*
X16541809Y-7741863D01*
X16541809Y-7741863D02*
X16537048Y-7737101D01*
X16537048Y-7737101D02*
X16527524Y-7732339D01*
X16955182Y-10670510D02*
X16959944Y-10675272D01*
X16959944Y-10675272D02*
X16964706Y-10689558D01*
X16964706Y-10689558D02*
X16964706Y-10699082D01*
X16964706Y-10699082D02*
X16959944Y-10713367D01*
X16959944Y-10713367D02*
X16950421Y-10722891D01*
X16950421Y-10722891D02*
X16940897Y-10727653D01*
X16940897Y-10727653D02*
X16921849Y-10732415D01*
X16921849Y-10732415D02*
X16907563Y-10732415D01*
X16907563Y-10732415D02*
X16888516Y-10727653D01*
X16888516Y-10727653D02*
X16878992Y-10722891D01*
X16878992Y-10722891D02*
X16869468Y-10713367D01*
X16869468Y-10713367D02*
X16864706Y-10699082D01*
X16864706Y-10699082D02*
X16864706Y-10689558D01*
X16864706Y-10689558D02*
X16869468Y-10675272D01*
X16869468Y-10675272D02*
X16874230Y-10670510D01*
X16874230Y-10632415D02*
X16869468Y-10627653D01*
X16869468Y-10627653D02*
X16864706Y-10618129D01*
X16864706Y-10618129D02*
X16864706Y-10594320D01*
X16864706Y-10594320D02*
X16869468Y-10584796D01*
X16869468Y-10584796D02*
X16874230Y-10580034D01*
X16874230Y-10580034D02*
X16883754Y-10575272D01*
X16883754Y-10575272D02*
X16893278Y-10575272D01*
X16893278Y-10575272D02*
X16907563Y-10580034D01*
X16907563Y-10580034D02*
X16964706Y-10637177D01*
X16964706Y-10637177D02*
X16964706Y-10575272D01*
X16864706Y-10541939D02*
X16864706Y-10480034D01*
X16864706Y-10480034D02*
X16902802Y-10513367D01*
X16902802Y-10513367D02*
X16902802Y-10499082D01*
X16902802Y-10499082D02*
X16907563Y-10489558D01*
X16907563Y-10489558D02*
X16912325Y-10484796D01*
X16912325Y-10484796D02*
X16921849Y-10480034D01*
X16921849Y-10480034D02*
X16945659Y-10480034D01*
X16945659Y-10480034D02*
X16955182Y-10484796D01*
X16955182Y-10484796D02*
X16959944Y-10489558D01*
X16959944Y-10489558D02*
X16964706Y-10499082D01*
X16964706Y-10499082D02*
X16964706Y-10527653D01*
X16964706Y-10527653D02*
X16959944Y-10537177D01*
X16959944Y-10537177D02*
X16955182Y-10541939D01*
X16154190Y-10979482D02*
X16154190Y-10879482D01*
X16154190Y-10879482D02*
X16178000Y-10879482D01*
X16178000Y-10879482D02*
X16192286Y-10884244D01*
X16192286Y-10884244D02*
X16201809Y-10893768D01*
X16201809Y-10893768D02*
X16206571Y-10903291D01*
X16206571Y-10903291D02*
X16211333Y-10922339D01*
X16211333Y-10922339D02*
X16211333Y-10936625D01*
X16211333Y-10936625D02*
X16206571Y-10955672D01*
X16206571Y-10955672D02*
X16201809Y-10965196D01*
X16201809Y-10965196D02*
X16192286Y-10974720D01*
X16192286Y-10974720D02*
X16178000Y-10979482D01*
X16178000Y-10979482D02*
X16154190Y-10979482D01*
X16249429Y-10889006D02*
X16254190Y-10884244D01*
X16254190Y-10884244D02*
X16263714Y-10879482D01*
X16263714Y-10879482D02*
X16287524Y-10879482D01*
X16287524Y-10879482D02*
X16297048Y-10884244D01*
X16297048Y-10884244D02*
X16301809Y-10889006D01*
X16301809Y-10889006D02*
X16306571Y-10898530D01*
X16306571Y-10898530D02*
X16306571Y-10908053D01*
X16306571Y-10908053D02*
X16301809Y-10922339D01*
X16301809Y-10922339D02*
X16244667Y-10979482D01*
X16244667Y-10979482D02*
X16306571Y-10979482D01*
X15409179Y-9977982D02*
X15409179Y-10058934D01*
X15409179Y-10058934D02*
X15413941Y-10068458D01*
X15413941Y-10068458D02*
X15418703Y-10073220D01*
X15418703Y-10073220D02*
X15428227Y-10077982D01*
X15428227Y-10077982D02*
X15447275Y-10077982D01*
X15447275Y-10077982D02*
X15456798Y-10073220D01*
X15456798Y-10073220D02*
X15461560Y-10068458D01*
X15461560Y-10068458D02*
X15466322Y-10058934D01*
X15466322Y-10058934D02*
X15466322Y-9977982D01*
X15504418Y-9977982D02*
X15566322Y-9977982D01*
X15566322Y-9977982D02*
X15532989Y-10016077D01*
X15532989Y-10016077D02*
X15547275Y-10016077D01*
X15547275Y-10016077D02*
X15556798Y-10020839D01*
X15556798Y-10020839D02*
X15561560Y-10025601D01*
X15561560Y-10025601D02*
X15566322Y-10035125D01*
X15566322Y-10035125D02*
X15566322Y-10058934D01*
X15566322Y-10058934D02*
X15561560Y-10068458D01*
X15561560Y-10068458D02*
X15556798Y-10073220D01*
X15556798Y-10073220D02*
X15547275Y-10077982D01*
X15547275Y-10077982D02*
X15518703Y-10077982D01*
X15518703Y-10077982D02*
X15509179Y-10073220D01*
X15509179Y-10073220D02*
X15504418Y-10068458D01*
X16284852Y-10589167D02*
X16237233Y-10622500D01*
X16284852Y-10646309D02*
X16184852Y-10646309D01*
X16184852Y-10646309D02*
X16184852Y-10608214D01*
X16184852Y-10608214D02*
X16189614Y-10598690D01*
X16189614Y-10598690D02*
X16194376Y-10593929D01*
X16194376Y-10593929D02*
X16203899Y-10589167D01*
X16203899Y-10589167D02*
X16218185Y-10589167D01*
X16218185Y-10589167D02*
X16227709Y-10593929D01*
X16227709Y-10593929D02*
X16232471Y-10598690D01*
X16232471Y-10598690D02*
X16237233Y-10608214D01*
X16237233Y-10608214D02*
X16237233Y-10646309D01*
X16184852Y-10503452D02*
X16184852Y-10522500D01*
X16184852Y-10522500D02*
X16189614Y-10532024D01*
X16189614Y-10532024D02*
X16194376Y-10536786D01*
X16194376Y-10536786D02*
X16208661Y-10546309D01*
X16208661Y-10546309D02*
X16227709Y-10551071D01*
X16227709Y-10551071D02*
X16265804Y-10551071D01*
X16265804Y-10551071D02*
X16275328Y-10546309D01*
X16275328Y-10546309D02*
X16280090Y-10541548D01*
X16280090Y-10541548D02*
X16284852Y-10532024D01*
X16284852Y-10532024D02*
X16284852Y-10512976D01*
X16284852Y-10512976D02*
X16280090Y-10503452D01*
X16280090Y-10503452D02*
X16275328Y-10498690D01*
X16275328Y-10498690D02*
X16265804Y-10493929D01*
X16265804Y-10493929D02*
X16241995Y-10493929D01*
X16241995Y-10493929D02*
X16232471Y-10498690D01*
X16232471Y-10498690D02*
X16227709Y-10503452D01*
X16227709Y-10503452D02*
X16222947Y-10512976D01*
X16222947Y-10512976D02*
X16222947Y-10532024D01*
X16222947Y-10532024D02*
X16227709Y-10541548D01*
X16227709Y-10541548D02*
X16232471Y-10546309D01*
X16232471Y-10546309D02*
X16241995Y-10551071D01*
X17222714Y-8396482D02*
X17189381Y-8348863D01*
X17165571Y-8396482D02*
X17165571Y-8296482D01*
X17165571Y-8296482D02*
X17203667Y-8296482D01*
X17203667Y-8296482D02*
X17213190Y-8301244D01*
X17213190Y-8301244D02*
X17217952Y-8306006D01*
X17217952Y-8306006D02*
X17222714Y-8315529D01*
X17222714Y-8315529D02*
X17222714Y-8329815D01*
X17222714Y-8329815D02*
X17217952Y-8339339D01*
X17217952Y-8339339D02*
X17213190Y-8344101D01*
X17213190Y-8344101D02*
X17203667Y-8348863D01*
X17203667Y-8348863D02*
X17165571Y-8348863D01*
X17317952Y-8396482D02*
X17260810Y-8396482D01*
X17289381Y-8396482D02*
X17289381Y-8296482D01*
X17289381Y-8296482D02*
X17279857Y-8310768D01*
X17279857Y-8310768D02*
X17270333Y-8320291D01*
X17270333Y-8320291D02*
X17260810Y-8325053D01*
X17375095Y-8339339D02*
X17365571Y-8334577D01*
X17365571Y-8334577D02*
X17360810Y-8329815D01*
X17360810Y-8329815D02*
X17356048Y-8320291D01*
X17356048Y-8320291D02*
X17356048Y-8315529D01*
X17356048Y-8315529D02*
X17360810Y-8306006D01*
X17360810Y-8306006D02*
X17365571Y-8301244D01*
X17365571Y-8301244D02*
X17375095Y-8296482D01*
X17375095Y-8296482D02*
X17394143Y-8296482D01*
X17394143Y-8296482D02*
X17403667Y-8301244D01*
X17403667Y-8301244D02*
X17408429Y-8306006D01*
X17408429Y-8306006D02*
X17413190Y-8315529D01*
X17413190Y-8315529D02*
X17413190Y-8320291D01*
X17413190Y-8320291D02*
X17408429Y-8329815D01*
X17408429Y-8329815D02*
X17403667Y-8334577D01*
X17403667Y-8334577D02*
X17394143Y-8339339D01*
X17394143Y-8339339D02*
X17375095Y-8339339D01*
X17375095Y-8339339D02*
X17365571Y-8344101D01*
X17365571Y-8344101D02*
X17360810Y-8348863D01*
X17360810Y-8348863D02*
X17356048Y-8358387D01*
X17356048Y-8358387D02*
X17356048Y-8377434D01*
X17356048Y-8377434D02*
X17360810Y-8386958D01*
X17360810Y-8386958D02*
X17365571Y-8391720D01*
X17365571Y-8391720D02*
X17375095Y-8396482D01*
X17375095Y-8396482D02*
X17394143Y-8396482D01*
X17394143Y-8396482D02*
X17403667Y-8391720D01*
X17403667Y-8391720D02*
X17408429Y-8386958D01*
X17408429Y-8386958D02*
X17413190Y-8377434D01*
X17413190Y-8377434D02*
X17413190Y-8358387D01*
X17413190Y-8358387D02*
X17408429Y-8348863D01*
X17408429Y-8348863D02*
X17403667Y-8344101D01*
X17403667Y-8344101D02*
X17394143Y-8339339D01*
X15593190Y-9749682D02*
X15650333Y-9749682D01*
X15621762Y-9849682D02*
X15621762Y-9749682D01*
X15683667Y-9849682D02*
X15683667Y-9749682D01*
X15683667Y-9749682D02*
X15721762Y-9749682D01*
X15721762Y-9749682D02*
X15731286Y-9754444D01*
X15731286Y-9754444D02*
X15736048Y-9759206D01*
X15736048Y-9759206D02*
X15740809Y-9768730D01*
X15740809Y-9768730D02*
X15740809Y-9783015D01*
X15740809Y-9783015D02*
X15736048Y-9792539D01*
X15736048Y-9792539D02*
X15731286Y-9797301D01*
X15731286Y-9797301D02*
X15721762Y-9802063D01*
X15721762Y-9802063D02*
X15683667Y-9802063D01*
X15836048Y-9849682D02*
X15778905Y-9849682D01*
X15807476Y-9849682D02*
X15807476Y-9749682D01*
X15807476Y-9749682D02*
X15797952Y-9763968D01*
X15797952Y-9763968D02*
X15788429Y-9773491D01*
X15788429Y-9773491D02*
X15778905Y-9778253D01*
X15869381Y-9749682D02*
X15931286Y-9749682D01*
X15931286Y-9749682D02*
X15897952Y-9787777D01*
X15897952Y-9787777D02*
X15912238Y-9787777D01*
X15912238Y-9787777D02*
X15921762Y-9792539D01*
X15921762Y-9792539D02*
X15926524Y-9797301D01*
X15926524Y-9797301D02*
X15931286Y-9806825D01*
X15931286Y-9806825D02*
X15931286Y-9830634D01*
X15931286Y-9830634D02*
X15926524Y-9840158D01*
X15926524Y-9840158D02*
X15921762Y-9844920D01*
X15921762Y-9844920D02*
X15912238Y-9849682D01*
X15912238Y-9849682D02*
X15883667Y-9849682D01*
X15883667Y-9849682D02*
X15874143Y-9844920D01*
X15874143Y-9844920D02*
X15869381Y-9840158D01*
X14457417Y-11836607D02*
X14457417Y-11908035D01*
X14457417Y-11908035D02*
X14452655Y-11922321D01*
X14452655Y-11922321D02*
X14443131Y-11931845D01*
X14443131Y-11931845D02*
X14428845Y-11936607D01*
X14428845Y-11936607D02*
X14419321Y-11936607D01*
X14500274Y-11846131D02*
X14505036Y-11841369D01*
X14505036Y-11841369D02*
X14514559Y-11836607D01*
X14514559Y-11836607D02*
X14538369Y-11836607D01*
X14538369Y-11836607D02*
X14547893Y-11841369D01*
X14547893Y-11841369D02*
X14552655Y-11846131D01*
X14552655Y-11846131D02*
X14557417Y-11855654D01*
X14557417Y-11855654D02*
X14557417Y-11865178D01*
X14557417Y-11865178D02*
X14552655Y-11879464D01*
X14552655Y-11879464D02*
X14495512Y-11936607D01*
X14495512Y-11936607D02*
X14557417Y-11936607D01*
X17387939Y-10349183D02*
X17383177Y-10353945D01*
X17383177Y-10353945D02*
X17368891Y-10358706D01*
X17368891Y-10358706D02*
X17359367Y-10358706D01*
X17359367Y-10358706D02*
X17345082Y-10353945D01*
X17345082Y-10353945D02*
X17335558Y-10344421D01*
X17335558Y-10344421D02*
X17330796Y-10334897D01*
X17330796Y-10334897D02*
X17326034Y-10315849D01*
X17326034Y-10315849D02*
X17326034Y-10301564D01*
X17326034Y-10301564D02*
X17330796Y-10282516D01*
X17330796Y-10282516D02*
X17335558Y-10272992D01*
X17335558Y-10272992D02*
X17345082Y-10263468D01*
X17345082Y-10263468D02*
X17359367Y-10258706D01*
X17359367Y-10258706D02*
X17368891Y-10258706D01*
X17368891Y-10258706D02*
X17383177Y-10263468D01*
X17383177Y-10263468D02*
X17387939Y-10268230D01*
X17483177Y-10358706D02*
X17426034Y-10358706D01*
X17454605Y-10358706D02*
X17454605Y-10258706D01*
X17454605Y-10258706D02*
X17445082Y-10272992D01*
X17445082Y-10272992D02*
X17435558Y-10282516D01*
X17435558Y-10282516D02*
X17426034Y-10287278D01*
X17540320Y-10301564D02*
X17530796Y-10296802D01*
X17530796Y-10296802D02*
X17526034Y-10292040D01*
X17526034Y-10292040D02*
X17521272Y-10282516D01*
X17521272Y-10282516D02*
X17521272Y-10277754D01*
X17521272Y-10277754D02*
X17526034Y-10268230D01*
X17526034Y-10268230D02*
X17530796Y-10263468D01*
X17530796Y-10263468D02*
X17540320Y-10258706D01*
X17540320Y-10258706D02*
X17559367Y-10258706D01*
X17559367Y-10258706D02*
X17568891Y-10263468D01*
X17568891Y-10263468D02*
X17573653Y-10268230D01*
X17573653Y-10268230D02*
X17578415Y-10277754D01*
X17578415Y-10277754D02*
X17578415Y-10282516D01*
X17578415Y-10282516D02*
X17573653Y-10292040D01*
X17573653Y-10292040D02*
X17568891Y-10296802D01*
X17568891Y-10296802D02*
X17559367Y-10301564D01*
X17559367Y-10301564D02*
X17540320Y-10301564D01*
X17540320Y-10301564D02*
X17530796Y-10306325D01*
X17530796Y-10306325D02*
X17526034Y-10311087D01*
X17526034Y-10311087D02*
X17521272Y-10320611D01*
X17521272Y-10320611D02*
X17521272Y-10339659D01*
X17521272Y-10339659D02*
X17526034Y-10349183D01*
X17526034Y-10349183D02*
X17530796Y-10353945D01*
X17530796Y-10353945D02*
X17540320Y-10358706D01*
X17540320Y-10358706D02*
X17559367Y-10358706D01*
X17559367Y-10358706D02*
X17568891Y-10353945D01*
X17568891Y-10353945D02*
X17573653Y-10349183D01*
X17573653Y-10349183D02*
X17578415Y-10339659D01*
X17578415Y-10339659D02*
X17578415Y-10320611D01*
X17578415Y-10320611D02*
X17573653Y-10311087D01*
X17573653Y-10311087D02*
X17568891Y-10306325D01*
X17568891Y-10306325D02*
X17559367Y-10301564D01*
X17458108Y-7711902D02*
X17453346Y-7716664D01*
X17453346Y-7716664D02*
X17439060Y-7721426D01*
X17439060Y-7721426D02*
X17429536Y-7721426D01*
X17429536Y-7721426D02*
X17415251Y-7716664D01*
X17415251Y-7716664D02*
X17405727Y-7707140D01*
X17405727Y-7707140D02*
X17400965Y-7697616D01*
X17400965Y-7697616D02*
X17396203Y-7678569D01*
X17396203Y-7678569D02*
X17396203Y-7664283D01*
X17396203Y-7664283D02*
X17400965Y-7645235D01*
X17400965Y-7645235D02*
X17405727Y-7635712D01*
X17405727Y-7635712D02*
X17415251Y-7626188D01*
X17415251Y-7626188D02*
X17429536Y-7621426D01*
X17429536Y-7621426D02*
X17439060Y-7621426D01*
X17439060Y-7621426D02*
X17453346Y-7626188D01*
X17453346Y-7626188D02*
X17458108Y-7630950D01*
X17491441Y-7621426D02*
X17553346Y-7621426D01*
X17553346Y-7621426D02*
X17520013Y-7659521D01*
X17520013Y-7659521D02*
X17534298Y-7659521D01*
X17534298Y-7659521D02*
X17543822Y-7664283D01*
X17543822Y-7664283D02*
X17548584Y-7669045D01*
X17548584Y-7669045D02*
X17553346Y-7678569D01*
X17553346Y-7678569D02*
X17553346Y-7702378D01*
X17553346Y-7702378D02*
X17548584Y-7711902D01*
X17548584Y-7711902D02*
X17543822Y-7716664D01*
X17543822Y-7716664D02*
X17534298Y-7721426D01*
X17534298Y-7721426D02*
X17505727Y-7721426D01*
X17505727Y-7721426D02*
X17496203Y-7716664D01*
X17496203Y-7716664D02*
X17491441Y-7711902D01*
X17643822Y-7621426D02*
X17596203Y-7621426D01*
X17596203Y-7621426D02*
X17591441Y-7669045D01*
X17591441Y-7669045D02*
X17596203Y-7664283D01*
X17596203Y-7664283D02*
X17605727Y-7659521D01*
X17605727Y-7659521D02*
X17629536Y-7659521D01*
X17629536Y-7659521D02*
X17639060Y-7664283D01*
X17639060Y-7664283D02*
X17643822Y-7669045D01*
X17643822Y-7669045D02*
X17648584Y-7678569D01*
X17648584Y-7678569D02*
X17648584Y-7702378D01*
X17648584Y-7702378D02*
X17643822Y-7711902D01*
X17643822Y-7711902D02*
X17639060Y-7716664D01*
X17639060Y-7716664D02*
X17629536Y-7721426D01*
X17629536Y-7721426D02*
X17605727Y-7721426D01*
X17605727Y-7721426D02*
X17596203Y-7716664D01*
X17596203Y-7716664D02*
X17591441Y-7711902D01*
D12*
X15975095Y-7223170D02*
X16022714Y-7223170D01*
X15965571Y-7251742D02*
X15998905Y-7151742D01*
X15998905Y-7151742D02*
X16032238Y-7251742D01*
X16065571Y-7251742D02*
X16065571Y-7151742D01*
X16065571Y-7151742D02*
X16122714Y-7251742D01*
X16122714Y-7251742D02*
X16122714Y-7151742D01*
X16156048Y-7151742D02*
X16213190Y-7151742D01*
X16184619Y-7251742D02*
X16184619Y-7151742D01*
X16298905Y-7251742D02*
X16241762Y-7251742D01*
X16270333Y-7251742D02*
X16270333Y-7151742D01*
X16270333Y-7151742D02*
X16260809Y-7166028D01*
X16260809Y-7166028D02*
X16251286Y-7175551D01*
X16251286Y-7175551D02*
X16241762Y-7180313D01*
D10*
X15873809Y-8735682D02*
X15930952Y-8735682D01*
X15902381Y-8835682D02*
X15902381Y-8735682D01*
X15964286Y-8835682D02*
X15964286Y-8735682D01*
X15964286Y-8735682D02*
X16002381Y-8735682D01*
X16002381Y-8735682D02*
X16011905Y-8740444D01*
X16011905Y-8740444D02*
X16016667Y-8745206D01*
X16016667Y-8745206D02*
X16021428Y-8754730D01*
X16021428Y-8754730D02*
X16021428Y-8769015D01*
X16021428Y-8769015D02*
X16016667Y-8778539D01*
X16016667Y-8778539D02*
X16011905Y-8783301D01*
X16011905Y-8783301D02*
X16002381Y-8788063D01*
X16002381Y-8788063D02*
X15964286Y-8788063D01*
X16107143Y-8769015D02*
X16107143Y-8835682D01*
X16083333Y-8730920D02*
X16059524Y-8802349D01*
X16059524Y-8802349D02*
X16121428Y-8802349D01*
X15412714Y-9174482D02*
X15379381Y-9126863D01*
X15355571Y-9174482D02*
X15355571Y-9074482D01*
X15355571Y-9074482D02*
X15393667Y-9074482D01*
X15393667Y-9074482D02*
X15403190Y-9079244D01*
X15403190Y-9079244D02*
X15407952Y-9084006D01*
X15407952Y-9084006D02*
X15412714Y-9093530D01*
X15412714Y-9093530D02*
X15412714Y-9107815D01*
X15412714Y-9107815D02*
X15407952Y-9117339D01*
X15407952Y-9117339D02*
X15403190Y-9122101D01*
X15403190Y-9122101D02*
X15393667Y-9126863D01*
X15393667Y-9126863D02*
X15355571Y-9126863D01*
X15450809Y-9084006D02*
X15455571Y-9079244D01*
X15455571Y-9079244D02*
X15465095Y-9074482D01*
X15465095Y-9074482D02*
X15488905Y-9074482D01*
X15488905Y-9074482D02*
X15498428Y-9079244D01*
X15498428Y-9079244D02*
X15503190Y-9084006D01*
X15503190Y-9084006D02*
X15507952Y-9093530D01*
X15507952Y-9093530D02*
X15507952Y-9103053D01*
X15507952Y-9103053D02*
X15503190Y-9117339D01*
X15503190Y-9117339D02*
X15446048Y-9174482D01*
X15446048Y-9174482D02*
X15507952Y-9174482D01*
X15593667Y-9107815D02*
X15593667Y-9174482D01*
X15569857Y-9069720D02*
X15546048Y-9141149D01*
X15546048Y-9141149D02*
X15607952Y-9141149D01*
X15071232Y-10972065D02*
X15152184Y-10972065D01*
X15152184Y-10972065D02*
X15161708Y-10967304D01*
X15161708Y-10967304D02*
X15166470Y-10962542D01*
X15166470Y-10962542D02*
X15171232Y-10953018D01*
X15171232Y-10953018D02*
X15171232Y-10933970D01*
X15171232Y-10933970D02*
X15166470Y-10924446D01*
X15166470Y-10924446D02*
X15161708Y-10919685D01*
X15161708Y-10919685D02*
X15152184Y-10914923D01*
X15152184Y-10914923D02*
X15071232Y-10914923D01*
X15071232Y-10819685D02*
X15071232Y-10867304D01*
X15071232Y-10867304D02*
X15118851Y-10872065D01*
X15118851Y-10872065D02*
X15114089Y-10867304D01*
X15114089Y-10867304D02*
X15109327Y-10857780D01*
X15109327Y-10857780D02*
X15109327Y-10833970D01*
X15109327Y-10833970D02*
X15114089Y-10824446D01*
X15114089Y-10824446D02*
X15118851Y-10819685D01*
X15118851Y-10819685D02*
X15128375Y-10814923D01*
X15128375Y-10814923D02*
X15152184Y-10814923D01*
X15152184Y-10814923D02*
X15161708Y-10819685D01*
X15161708Y-10819685D02*
X15166470Y-10824446D01*
X15166470Y-10824446D02*
X15171232Y-10833970D01*
X15171232Y-10833970D02*
X15171232Y-10857780D01*
X15171232Y-10857780D02*
X15166470Y-10867304D01*
X15166470Y-10867304D02*
X15161708Y-10872065D01*
X17226714Y-8282482D02*
X17193381Y-8234863D01*
X17169571Y-8282482D02*
X17169571Y-8182482D01*
X17169571Y-8182482D02*
X17207667Y-8182482D01*
X17207667Y-8182482D02*
X17217190Y-8187244D01*
X17217190Y-8187244D02*
X17221952Y-8192006D01*
X17221952Y-8192006D02*
X17226714Y-8201529D01*
X17226714Y-8201529D02*
X17226714Y-8215815D01*
X17226714Y-8215815D02*
X17221952Y-8225339D01*
X17221952Y-8225339D02*
X17217190Y-8230101D01*
X17217190Y-8230101D02*
X17207667Y-8234863D01*
X17207667Y-8234863D02*
X17169571Y-8234863D01*
X17321952Y-8282482D02*
X17264810Y-8282482D01*
X17293381Y-8282482D02*
X17293381Y-8182482D01*
X17293381Y-8182482D02*
X17283857Y-8196768D01*
X17283857Y-8196768D02*
X17274333Y-8206291D01*
X17274333Y-8206291D02*
X17264810Y-8211053D01*
X17360048Y-8192006D02*
X17364810Y-8187244D01*
X17364810Y-8187244D02*
X17374333Y-8182482D01*
X17374333Y-8182482D02*
X17398143Y-8182482D01*
X17398143Y-8182482D02*
X17407667Y-8187244D01*
X17407667Y-8187244D02*
X17412429Y-8192006D01*
X17412429Y-8192006D02*
X17417190Y-8201529D01*
X17417190Y-8201529D02*
X17417190Y-8211053D01*
X17417190Y-8211053D02*
X17412429Y-8225339D01*
X17412429Y-8225339D02*
X17355286Y-8282482D01*
X17355286Y-8282482D02*
X17417190Y-8282482D01*
X15408953Y-9753357D02*
X15375620Y-9705738D01*
X15351810Y-9753357D02*
X15351810Y-9653357D01*
X15351810Y-9653357D02*
X15389906Y-9653357D01*
X15389906Y-9653357D02*
X15399429Y-9658119D01*
X15399429Y-9658119D02*
X15404191Y-9662881D01*
X15404191Y-9662881D02*
X15408953Y-9672405D01*
X15408953Y-9672405D02*
X15408953Y-9686690D01*
X15408953Y-9686690D02*
X15404191Y-9696214D01*
X15404191Y-9696214D02*
X15399429Y-9700976D01*
X15399429Y-9700976D02*
X15389906Y-9705738D01*
X15389906Y-9705738D02*
X15351810Y-9705738D01*
X15504191Y-9753357D02*
X15447049Y-9753357D01*
X15475620Y-9753357D02*
X15475620Y-9653357D01*
X15475620Y-9653357D02*
X15466096Y-9667643D01*
X15466096Y-9667643D02*
X15456572Y-9677166D01*
X15456572Y-9677166D02*
X15447049Y-9681928D01*
X17515939Y-9770182D02*
X17511177Y-9774944D01*
X17511177Y-9774944D02*
X17496891Y-9779706D01*
X17496891Y-9779706D02*
X17487367Y-9779706D01*
X17487367Y-9779706D02*
X17473082Y-9774944D01*
X17473082Y-9774944D02*
X17463558Y-9765421D01*
X17463558Y-9765421D02*
X17458796Y-9755897D01*
X17458796Y-9755897D02*
X17454034Y-9736849D01*
X17454034Y-9736849D02*
X17454034Y-9722563D01*
X17454034Y-9722563D02*
X17458796Y-9703516D01*
X17458796Y-9703516D02*
X17463558Y-9693992D01*
X17463558Y-9693992D02*
X17473082Y-9684468D01*
X17473082Y-9684468D02*
X17487367Y-9679706D01*
X17487367Y-9679706D02*
X17496891Y-9679706D01*
X17496891Y-9679706D02*
X17511177Y-9684468D01*
X17511177Y-9684468D02*
X17515939Y-9689230D01*
X17549272Y-9679706D02*
X17611177Y-9679706D01*
X17611177Y-9679706D02*
X17577843Y-9717802D01*
X17577843Y-9717802D02*
X17592129Y-9717802D01*
X17592129Y-9717802D02*
X17601653Y-9722563D01*
X17601653Y-9722563D02*
X17606415Y-9727325D01*
X17606415Y-9727325D02*
X17611177Y-9736849D01*
X17611177Y-9736849D02*
X17611177Y-9760659D01*
X17611177Y-9760659D02*
X17606415Y-9770182D01*
X17606415Y-9770182D02*
X17601653Y-9774944D01*
X17601653Y-9774944D02*
X17592129Y-9779706D01*
X17592129Y-9779706D02*
X17563558Y-9779706D01*
X17563558Y-9779706D02*
X17554034Y-9774944D01*
X17554034Y-9774944D02*
X17549272Y-9770182D01*
X17706415Y-9779706D02*
X17649272Y-9779706D01*
X17677843Y-9779706D02*
X17677843Y-9679706D01*
X17677843Y-9679706D02*
X17668320Y-9693992D01*
X17668320Y-9693992D02*
X17658796Y-9703516D01*
X17658796Y-9703516D02*
X17649272Y-9708278D01*
X17093706Y-10823141D02*
X17046087Y-10856474D01*
X17093706Y-10880284D02*
X16993706Y-10880284D01*
X16993706Y-10880284D02*
X16993706Y-10842189D01*
X16993706Y-10842189D02*
X16998468Y-10832665D01*
X16998468Y-10832665D02*
X17003230Y-10827903D01*
X17003230Y-10827903D02*
X17012754Y-10823141D01*
X17012754Y-10823141D02*
X17027040Y-10823141D01*
X17027040Y-10823141D02*
X17036563Y-10827903D01*
X17036563Y-10827903D02*
X17041325Y-10832665D01*
X17041325Y-10832665D02*
X17046087Y-10842189D01*
X17046087Y-10842189D02*
X17046087Y-10880284D01*
X17036563Y-10765998D02*
X17031802Y-10775522D01*
X17031802Y-10775522D02*
X17027040Y-10780284D01*
X17027040Y-10780284D02*
X17017516Y-10785046D01*
X17017516Y-10785046D02*
X17012754Y-10785046D01*
X17012754Y-10785046D02*
X17003230Y-10780284D01*
X17003230Y-10780284D02*
X16998468Y-10775522D01*
X16998468Y-10775522D02*
X16993706Y-10765998D01*
X16993706Y-10765998D02*
X16993706Y-10746951D01*
X16993706Y-10746951D02*
X16998468Y-10737427D01*
X16998468Y-10737427D02*
X17003230Y-10732665D01*
X17003230Y-10732665D02*
X17012754Y-10727903D01*
X17012754Y-10727903D02*
X17017516Y-10727903D01*
X17017516Y-10727903D02*
X17027040Y-10732665D01*
X17027040Y-10732665D02*
X17031802Y-10737427D01*
X17031802Y-10737427D02*
X17036563Y-10746951D01*
X17036563Y-10746951D02*
X17036563Y-10765998D01*
X17036563Y-10765998D02*
X17041325Y-10775522D01*
X17041325Y-10775522D02*
X17046087Y-10780284D01*
X17046087Y-10780284D02*
X17055611Y-10785046D01*
X17055611Y-10785046D02*
X17074659Y-10785046D01*
X17074659Y-10785046D02*
X17084182Y-10780284D01*
X17084182Y-10780284D02*
X17088944Y-10775522D01*
X17088944Y-10775522D02*
X17093706Y-10765998D01*
X17093706Y-10765998D02*
X17093706Y-10746951D01*
X17093706Y-10746951D02*
X17088944Y-10737427D01*
X17088944Y-10737427D02*
X17084182Y-10732665D01*
X17084182Y-10732665D02*
X17074659Y-10727903D01*
X17074659Y-10727903D02*
X17055611Y-10727903D01*
X17055611Y-10727903D02*
X17046087Y-10732665D01*
X17046087Y-10732665D02*
X17041325Y-10737427D01*
X17041325Y-10737427D02*
X17036563Y-10746951D01*
X16846182Y-10669510D02*
X16850944Y-10674272D01*
X16850944Y-10674272D02*
X16855706Y-10688558D01*
X16855706Y-10688558D02*
X16855706Y-10698082D01*
X16855706Y-10698082D02*
X16850944Y-10712367D01*
X16850944Y-10712367D02*
X16841421Y-10721891D01*
X16841421Y-10721891D02*
X16831897Y-10726653D01*
X16831897Y-10726653D02*
X16812849Y-10731415D01*
X16812849Y-10731415D02*
X16798563Y-10731415D01*
X16798563Y-10731415D02*
X16779516Y-10726653D01*
X16779516Y-10726653D02*
X16769992Y-10721891D01*
X16769992Y-10721891D02*
X16760468Y-10712367D01*
X16760468Y-10712367D02*
X16755706Y-10698082D01*
X16755706Y-10698082D02*
X16755706Y-10688558D01*
X16755706Y-10688558D02*
X16760468Y-10674272D01*
X16760468Y-10674272D02*
X16765230Y-10669510D01*
X16765230Y-10631415D02*
X16760468Y-10626653D01*
X16760468Y-10626653D02*
X16755706Y-10617129D01*
X16755706Y-10617129D02*
X16755706Y-10593320D01*
X16755706Y-10593320D02*
X16760468Y-10583796D01*
X16760468Y-10583796D02*
X16765230Y-10579034D01*
X16765230Y-10579034D02*
X16774754Y-10574272D01*
X16774754Y-10574272D02*
X16784278Y-10574272D01*
X16784278Y-10574272D02*
X16798563Y-10579034D01*
X16798563Y-10579034D02*
X16855706Y-10636177D01*
X16855706Y-10636177D02*
X16855706Y-10574272D01*
X16755706Y-10483796D02*
X16755706Y-10531415D01*
X16755706Y-10531415D02*
X16803325Y-10536177D01*
X16803325Y-10536177D02*
X16798563Y-10531415D01*
X16798563Y-10531415D02*
X16793802Y-10521891D01*
X16793802Y-10521891D02*
X16793802Y-10498082D01*
X16793802Y-10498082D02*
X16798563Y-10488558D01*
X16798563Y-10488558D02*
X16803325Y-10483796D01*
X16803325Y-10483796D02*
X16812849Y-10479034D01*
X16812849Y-10479034D02*
X16836659Y-10479034D01*
X16836659Y-10479034D02*
X16846182Y-10483796D01*
X16846182Y-10483796D02*
X16850944Y-10488558D01*
X16850944Y-10488558D02*
X16855706Y-10498082D01*
X16855706Y-10498082D02*
X16855706Y-10521891D01*
X16855706Y-10521891D02*
X16850944Y-10531415D01*
X16850944Y-10531415D02*
X16846182Y-10536177D01*
X17521802Y-10018385D02*
X17526564Y-10023147D01*
X17526564Y-10023147D02*
X17531326Y-10037433D01*
X17531326Y-10037433D02*
X17531326Y-10046957D01*
X17531326Y-10046957D02*
X17526564Y-10061242D01*
X17526564Y-10061242D02*
X17517041Y-10070766D01*
X17517041Y-10070766D02*
X17507517Y-10075528D01*
X17507517Y-10075528D02*
X17488469Y-10080290D01*
X17488469Y-10080290D02*
X17474183Y-10080290D01*
X17474183Y-10080290D02*
X17455136Y-10075528D01*
X17455136Y-10075528D02*
X17445612Y-10070766D01*
X17445612Y-10070766D02*
X17436088Y-10061242D01*
X17436088Y-10061242D02*
X17431326Y-10046957D01*
X17431326Y-10046957D02*
X17431326Y-10037433D01*
X17431326Y-10037433D02*
X17436088Y-10023147D01*
X17436088Y-10023147D02*
X17440850Y-10018385D01*
X17431326Y-9985052D02*
X17431326Y-9923147D01*
X17431326Y-9923147D02*
X17469422Y-9956480D01*
X17469422Y-9956480D02*
X17469422Y-9942195D01*
X17469422Y-9942195D02*
X17474183Y-9932671D01*
X17474183Y-9932671D02*
X17478945Y-9927909D01*
X17478945Y-9927909D02*
X17488469Y-9923147D01*
X17488469Y-9923147D02*
X17512279Y-9923147D01*
X17512279Y-9923147D02*
X17521802Y-9927909D01*
X17521802Y-9927909D02*
X17526564Y-9932671D01*
X17526564Y-9932671D02*
X17531326Y-9942195D01*
X17531326Y-9942195D02*
X17531326Y-9970766D01*
X17531326Y-9970766D02*
X17526564Y-9980290D01*
X17526564Y-9980290D02*
X17521802Y-9985052D01*
X17440850Y-9885052D02*
X17436088Y-9880290D01*
X17436088Y-9880290D02*
X17431326Y-9870766D01*
X17431326Y-9870766D02*
X17431326Y-9846957D01*
X17431326Y-9846957D02*
X17436088Y-9837433D01*
X17436088Y-9837433D02*
X17440850Y-9832671D01*
X17440850Y-9832671D02*
X17450374Y-9827909D01*
X17450374Y-9827909D02*
X17459898Y-9827909D01*
X17459898Y-9827909D02*
X17474183Y-9832671D01*
X17474183Y-9832671D02*
X17531326Y-9889814D01*
X17531326Y-9889814D02*
X17531326Y-9827909D01*
X15957578Y-10265167D02*
X15962340Y-10269929D01*
X15962340Y-10269929D02*
X15967102Y-10284214D01*
X15967102Y-10284214D02*
X15967102Y-10293738D01*
X15967102Y-10293738D02*
X15962340Y-10308024D01*
X15962340Y-10308024D02*
X15952816Y-10317548D01*
X15952816Y-10317548D02*
X15943292Y-10322309D01*
X15943292Y-10322309D02*
X15924245Y-10327071D01*
X15924245Y-10327071D02*
X15909959Y-10327071D01*
X15909959Y-10327071D02*
X15890911Y-10322309D01*
X15890911Y-10322309D02*
X15881388Y-10317548D01*
X15881388Y-10317548D02*
X15871864Y-10308024D01*
X15871864Y-10308024D02*
X15867102Y-10293738D01*
X15867102Y-10293738D02*
X15867102Y-10284214D01*
X15867102Y-10284214D02*
X15871864Y-10269929D01*
X15871864Y-10269929D02*
X15876626Y-10265167D01*
X15867102Y-10174690D02*
X15867102Y-10222309D01*
X15867102Y-10222309D02*
X15914721Y-10227071D01*
X15914721Y-10227071D02*
X15909959Y-10222309D01*
X15909959Y-10222309D02*
X15905197Y-10212786D01*
X15905197Y-10212786D02*
X15905197Y-10188976D01*
X15905197Y-10188976D02*
X15909959Y-10179452D01*
X15909959Y-10179452D02*
X15914721Y-10174690D01*
X15914721Y-10174690D02*
X15924245Y-10169929D01*
X15924245Y-10169929D02*
X15948054Y-10169929D01*
X15948054Y-10169929D02*
X15957578Y-10174690D01*
X15957578Y-10174690D02*
X15962340Y-10179452D01*
X15962340Y-10179452D02*
X15967102Y-10188976D01*
X15967102Y-10188976D02*
X15967102Y-10212786D01*
X15967102Y-10212786D02*
X15962340Y-10222309D01*
X15962340Y-10222309D02*
X15957578Y-10227071D01*
X16973482Y-9052286D02*
X16925863Y-9085619D01*
X16973482Y-9109429D02*
X16873482Y-9109429D01*
X16873482Y-9109429D02*
X16873482Y-9071333D01*
X16873482Y-9071333D02*
X16878244Y-9061810D01*
X16878244Y-9061810D02*
X16883006Y-9057048D01*
X16883006Y-9057048D02*
X16892530Y-9052286D01*
X16892530Y-9052286D02*
X16906815Y-9052286D01*
X16906815Y-9052286D02*
X16916339Y-9057048D01*
X16916339Y-9057048D02*
X16921101Y-9061810D01*
X16921101Y-9061810D02*
X16925863Y-9071333D01*
X16925863Y-9071333D02*
X16925863Y-9109429D01*
X16883006Y-9014190D02*
X16878244Y-9009429D01*
X16878244Y-9009429D02*
X16873482Y-8999905D01*
X16873482Y-8999905D02*
X16873482Y-8976095D01*
X16873482Y-8976095D02*
X16878244Y-8966571D01*
X16878244Y-8966571D02*
X16883006Y-8961810D01*
X16883006Y-8961810D02*
X16892530Y-8957048D01*
X16892530Y-8957048D02*
X16902053Y-8957048D01*
X16902053Y-8957048D02*
X16916339Y-8961810D01*
X16916339Y-8961810D02*
X16973482Y-9018952D01*
X16973482Y-9018952D02*
X16973482Y-8957048D01*
X16873482Y-8923714D02*
X16873482Y-8861810D01*
X16873482Y-8861810D02*
X16911577Y-8895143D01*
X16911577Y-8895143D02*
X16911577Y-8880857D01*
X16911577Y-8880857D02*
X16916339Y-8871333D01*
X16916339Y-8871333D02*
X16921101Y-8866571D01*
X16921101Y-8866571D02*
X16930625Y-8861810D01*
X16930625Y-8861810D02*
X16954434Y-8861810D01*
X16954434Y-8861810D02*
X16963958Y-8866571D01*
X16963958Y-8866571D02*
X16968720Y-8871333D01*
X16968720Y-8871333D02*
X16973482Y-8880857D01*
X16973482Y-8880857D02*
X16973482Y-8909429D01*
X16973482Y-8909429D02*
X16968720Y-8918952D01*
X16968720Y-8918952D02*
X16963958Y-8923714D01*
X15529102Y-9638542D02*
X15481483Y-9671875D01*
X15529102Y-9695684D02*
X15429102Y-9695684D01*
X15429102Y-9695684D02*
X15429102Y-9657589D01*
X15429102Y-9657589D02*
X15433864Y-9648065D01*
X15433864Y-9648065D02*
X15438626Y-9643304D01*
X15438626Y-9643304D02*
X15448149Y-9638542D01*
X15448149Y-9638542D02*
X15462435Y-9638542D01*
X15462435Y-9638542D02*
X15471959Y-9643304D01*
X15471959Y-9643304D02*
X15476721Y-9648065D01*
X15476721Y-9648065D02*
X15481483Y-9657589D01*
X15481483Y-9657589D02*
X15481483Y-9695684D01*
X15429102Y-9605208D02*
X15429102Y-9543304D01*
X15429102Y-9543304D02*
X15467197Y-9576637D01*
X15467197Y-9576637D02*
X15467197Y-9562351D01*
X15467197Y-9562351D02*
X15471959Y-9552827D01*
X15471959Y-9552827D02*
X15476721Y-9548065D01*
X15476721Y-9548065D02*
X15486245Y-9543304D01*
X15486245Y-9543304D02*
X15510054Y-9543304D01*
X15510054Y-9543304D02*
X15519578Y-9548065D01*
X15519578Y-9548065D02*
X15524340Y-9552827D01*
X15524340Y-9552827D02*
X15529102Y-9562351D01*
X15529102Y-9562351D02*
X15529102Y-9590923D01*
X15529102Y-9590923D02*
X15524340Y-9600446D01*
X15524340Y-9600446D02*
X15519578Y-9605208D01*
X17070182Y-10668510D02*
X17074944Y-10673272D01*
X17074944Y-10673272D02*
X17079706Y-10687558D01*
X17079706Y-10687558D02*
X17079706Y-10697082D01*
X17079706Y-10697082D02*
X17074944Y-10711367D01*
X17074944Y-10711367D02*
X17065421Y-10720891D01*
X17065421Y-10720891D02*
X17055897Y-10725653D01*
X17055897Y-10725653D02*
X17036849Y-10730415D01*
X17036849Y-10730415D02*
X17022563Y-10730415D01*
X17022563Y-10730415D02*
X17003516Y-10725653D01*
X17003516Y-10725653D02*
X16993992Y-10720891D01*
X16993992Y-10720891D02*
X16984468Y-10711367D01*
X16984468Y-10711367D02*
X16979706Y-10697082D01*
X16979706Y-10697082D02*
X16979706Y-10687558D01*
X16979706Y-10687558D02*
X16984468Y-10673272D01*
X16984468Y-10673272D02*
X16989230Y-10668510D01*
X16989230Y-10630415D02*
X16984468Y-10625653D01*
X16984468Y-10625653D02*
X16979706Y-10616129D01*
X16979706Y-10616129D02*
X16979706Y-10592320D01*
X16979706Y-10592320D02*
X16984468Y-10582796D01*
X16984468Y-10582796D02*
X16989230Y-10578034D01*
X16989230Y-10578034D02*
X16998754Y-10573272D01*
X16998754Y-10573272D02*
X17008278Y-10573272D01*
X17008278Y-10573272D02*
X17022563Y-10578034D01*
X17022563Y-10578034D02*
X17079706Y-10635177D01*
X17079706Y-10635177D02*
X17079706Y-10573272D01*
X16979706Y-10487558D02*
X16979706Y-10506605D01*
X16979706Y-10506605D02*
X16984468Y-10516129D01*
X16984468Y-10516129D02*
X16989230Y-10520891D01*
X16989230Y-10520891D02*
X17003516Y-10530415D01*
X17003516Y-10530415D02*
X17022563Y-10535177D01*
X17022563Y-10535177D02*
X17060659Y-10535177D01*
X17060659Y-10535177D02*
X17070182Y-10530415D01*
X17070182Y-10530415D02*
X17074944Y-10525653D01*
X17074944Y-10525653D02*
X17079706Y-10516129D01*
X17079706Y-10516129D02*
X17079706Y-10497082D01*
X17079706Y-10497082D02*
X17074944Y-10487558D01*
X17074944Y-10487558D02*
X17070182Y-10482796D01*
X17070182Y-10482796D02*
X17060659Y-10478034D01*
X17060659Y-10478034D02*
X17036849Y-10478034D01*
X17036849Y-10478034D02*
X17027325Y-10482796D01*
X17027325Y-10482796D02*
X17022563Y-10487558D01*
X17022563Y-10487558D02*
X17017802Y-10497082D01*
X17017802Y-10497082D02*
X17017802Y-10516129D01*
X17017802Y-10516129D02*
X17022563Y-10525653D01*
X17022563Y-10525653D02*
X17027325Y-10530415D01*
X17027325Y-10530415D02*
X17036849Y-10535177D01*
D13*
%TO.C,C44*%
X16980000Y-9229942D02*
X16980000Y-9258058D01*
X17082000Y-9229942D02*
X17082000Y-9258058D01*
%TO.C,C6*%
X16264000Y-8666784D02*
X16264000Y-8645216D01*
X16336000Y-8666784D02*
X16336000Y-8645216D01*
%TO.C,R5*%
X15476000Y-11459636D02*
X15476000Y-11490364D01*
X15552000Y-11459636D02*
X15552000Y-11490364D01*
%TO.C,R11*%
X16089000Y-7712364D02*
X16089000Y-7681636D01*
X16165000Y-7712364D02*
X16165000Y-7681636D01*
%TO.C,R4*%
X14813006Y-11315500D02*
X14843734Y-11315500D01*
X14813006Y-11391500D02*
X14843734Y-11391500D01*
%TO.C,R2*%
X15453256Y-9378875D02*
X15483984Y-9378875D01*
X15453256Y-9454875D02*
X15483984Y-9454875D01*
%TO.C,C22*%
X17332225Y-9768008D02*
X17332225Y-9746441D01*
X17404225Y-9768008D02*
X17404225Y-9746441D01*
%TO.C,J1*%
X16847224Y-11008224D02*
X16847224Y-11130224D01*
X16847224Y-11008224D02*
X17614224Y-11008224D01*
X16847224Y-11530224D02*
X16847224Y-11290224D01*
X16847224Y-11830224D02*
X16847224Y-11690224D01*
X16847224Y-12242224D02*
X16847224Y-11990224D01*
X16902224Y-12242224D02*
X16847224Y-12242224D01*
X16902224Y-12442224D02*
X16902224Y-12242224D01*
X17426224Y-12242224D02*
X17426224Y-12442224D01*
X17426224Y-12442224D02*
X16902224Y-12442224D01*
X17481224Y-11180224D02*
X17481224Y-12242224D01*
X17481224Y-12242224D02*
X17426224Y-12242224D01*
X17614224Y-11180224D02*
X17481224Y-11180224D01*
%TO.C,TP1*%
X15996000Y-7548000D02*
G75*
G02*
X15856000Y-7548000I-70000J0D01*
G01*
X15856000Y-7548000D02*
G75*
G02*
X15996000Y-7548000I70000J0D01*
G01*
X15996000Y-7802000D02*
G75*
G02*
X15856000Y-7802000I-70000J0D01*
G01*
X15856000Y-7802000D02*
G75*
G02*
X15996000Y-7802000I70000J0D01*
G01*
D12*
X16053000Y-7929000D02*
X15799000Y-7929000D01*
X15799000Y-7421000D01*
X16053000Y-7421000D01*
X16053000Y-7929000D01*
D13*
%TO.C,C17*%
X17548224Y-10642166D02*
X17548224Y-10670283D01*
X17650224Y-10642166D02*
X17650224Y-10670283D01*
%TO.C,TP14*%
X16980000Y-9708000D02*
G75*
G02*
X16840000Y-9708000I-70000J0D01*
G01*
X16840000Y-9708000D02*
G75*
G02*
X16980000Y-9708000I70000J0D01*
G01*
%TO.C,C37*%
X16838919Y-7623169D02*
X16854169Y-7607919D01*
X16889831Y-7674081D02*
X16905081Y-7658831D01*
%TO.C,C33*%
X16100404Y-8263875D02*
X16078836Y-8263875D01*
X16100404Y-8335875D02*
X16078836Y-8335875D01*
%TO.C,U7*%
X15186370Y-10723875D02*
X15312370Y-10723875D01*
X15186370Y-11099875D02*
X15186370Y-10723875D01*
X15868370Y-10723875D02*
X15742370Y-10723875D01*
X15868370Y-11099875D02*
X15868370Y-10723875D01*
X15196370Y-11227875D02*
X15163370Y-11251875D01*
X15163370Y-11203875D01*
X15196370Y-11227875D01*
G36*
X15196370Y-11227875D02*
G01*
X15163370Y-11251875D01*
X15163370Y-11203875D01*
X15196370Y-11227875D01*
G37*
%TO.C,R7*%
X17006224Y-10793860D02*
X17006224Y-10824589D01*
X17082224Y-10793860D02*
X17082224Y-10824589D01*
%TO.C,C40*%
X17627216Y-9464000D02*
X17648784Y-9464000D01*
X17627216Y-9536000D02*
X17648784Y-9536000D01*
%TO.C,D3*%
X17463000Y-8695000D02*
X17731500Y-8695000D01*
X17731500Y-8503000D02*
X17463000Y-8503000D01*
X17731500Y-8695000D02*
X17731500Y-8503000D01*
%TO.C,R13*%
X17169731Y-8040620D02*
X17139003Y-8040620D01*
X17169731Y-8116620D02*
X17139003Y-8116620D01*
%TO.C,C28*%
X16784224Y-10592441D02*
X16784224Y-10614008D01*
X16856224Y-10592441D02*
X16856224Y-10614008D01*
%TO.C,C43*%
X17125000Y-9199784D02*
X17125000Y-9178216D01*
X17197000Y-9199784D02*
X17197000Y-9178216D01*
%TO.C,C10*%
X16996505Y-7734322D02*
X17018072Y-7734322D01*
X16996505Y-7806322D02*
X17018072Y-7806322D01*
%TO.C,R21*%
X17123000Y-8974636D02*
X17123000Y-9005364D01*
X17199000Y-8974636D02*
X17199000Y-9005364D01*
%TO.C,TP8*%
X17015000Y-9499000D02*
G75*
G02*
X16875000Y-9499000I-70000J0D01*
G01*
X16875000Y-9499000D02*
G75*
G02*
X17015000Y-9499000I70000J0D01*
G01*
%TO.C,C19*%
X15111836Y-9308875D02*
X15133404Y-9308875D01*
X15111836Y-9380875D02*
X15133404Y-9380875D01*
%TO.C,TP15*%
X16782000Y-9620000D02*
G75*
G02*
X16642000Y-9620000I-70000J0D01*
G01*
X16642000Y-9620000D02*
G75*
G02*
X16782000Y-9620000I70000J0D01*
G01*
%TO.C,C39*%
X17422784Y-9454000D02*
X17401216Y-9454000D01*
X17422784Y-9526000D02*
X17401216Y-9526000D01*
%TO.C,C29*%
X17596000Y-10105942D02*
X17596000Y-10134058D01*
X17698000Y-10105942D02*
X17698000Y-10134058D01*
%TO.C,U4*%
X16818000Y-9981000D02*
X16818000Y-9950000D01*
X16818000Y-10348000D02*
X16818000Y-10293000D01*
X16873000Y-9926000D02*
X16848000Y-9926000D01*
X16873000Y-10348000D02*
X16818000Y-10348000D01*
X17185000Y-9926000D02*
X17240000Y-9926000D01*
X17185000Y-10348000D02*
X17240000Y-10348000D01*
X17240000Y-9926000D02*
X17240000Y-9981000D01*
X17240000Y-10348000D02*
X17240000Y-10293000D01*
X16818000Y-9926000D02*
X16794000Y-9893000D01*
X16842000Y-9893000D01*
X16818000Y-9926000D01*
G36*
X16818000Y-9926000D02*
G01*
X16794000Y-9893000D01*
X16842000Y-9893000D01*
X16818000Y-9926000D01*
G37*
%TO.C,R26*%
X15505000Y-8096364D02*
X15505000Y-8065636D01*
X15581000Y-8096364D02*
X15581000Y-8065636D01*
%TO.C,C7*%
X16551926Y-7699254D02*
X16530359Y-7699254D01*
X16551926Y-7771254D02*
X16530359Y-7771254D01*
%TO.C,C38*%
X16626860Y-7413228D02*
X16642110Y-7397978D01*
X16677772Y-7464140D02*
X16693022Y-7448890D01*
%TO.C,C9*%
X17048000Y-7936784D02*
X17048000Y-7915216D01*
X17120000Y-7936784D02*
X17120000Y-7915216D01*
%TO.C,R20*%
X17103636Y-8630000D02*
X17134364Y-8630000D01*
X17103636Y-8706000D02*
X17134364Y-8706000D01*
%TO.C,C13*%
X16639784Y-9950000D02*
X16618216Y-9950000D01*
X16639784Y-10022000D02*
X16618216Y-10022000D01*
%TO.C,C27*%
X16676224Y-10592441D02*
X16676224Y-10614008D01*
X16748224Y-10592441D02*
X16748224Y-10614008D01*
%TO.C,R22*%
X17227364Y-9456000D02*
X17196636Y-9456000D01*
X17227364Y-9532000D02*
X17196636Y-9532000D01*
%TO.C,C30*%
X17472000Y-10165216D02*
X17472000Y-10186784D01*
X17544000Y-10165216D02*
X17544000Y-10186784D01*
%TO.C,C4*%
X15928370Y-10612442D02*
X15928370Y-10640558D01*
X16030370Y-10612442D02*
X16030370Y-10640558D01*
%TO.C,C1*%
X16060625Y-11157125D02*
X16202875Y-11157125D01*
X16060625Y-11339125D02*
X16202875Y-11339125D01*
%TO.C,R25*%
X15506522Y-8550903D02*
X15506522Y-8581631D01*
X15582522Y-8550903D02*
X15582522Y-8581631D01*
%TO.C,C14*%
X16579058Y-9799875D02*
X16550942Y-9799875D01*
X16579058Y-9901875D02*
X16550942Y-9901875D01*
%TO.C,U1*%
X16383000Y-8002500D02*
X16383000Y-7935000D01*
X16383000Y-8389500D02*
X16383000Y-8457000D01*
X16905000Y-8002500D02*
X16905000Y-7965000D01*
X16905000Y-8389500D02*
X16905000Y-8457000D01*
X16938000Y-7959000D02*
X16905000Y-7935000D01*
X16938000Y-7911000D01*
X16938000Y-7959000D01*
G36*
X16938000Y-7959000D02*
G01*
X16905000Y-7935000D01*
X16938000Y-7911000D01*
X16938000Y-7959000D01*
G37*
%TO.C,TP3*%
X16349000Y-9580000D02*
G75*
G02*
X16209000Y-9580000I-70000J0D01*
G01*
X16209000Y-9580000D02*
G75*
G02*
X16349000Y-9580000I70000J0D01*
G01*
X16349000Y-9834000D02*
G75*
G02*
X16209000Y-9834000I-70000J0D01*
G01*
X16209000Y-9834000D02*
G75*
G02*
X16349000Y-9834000I70000J0D01*
G01*
D12*
X16406000Y-9961000D02*
X16152000Y-9961000D01*
X16152000Y-9453000D01*
X16406000Y-9453000D01*
X16406000Y-9961000D01*
D13*
%TO.C,R10*%
X17119224Y-10799860D02*
X17119224Y-10830589D01*
X17195224Y-10799860D02*
X17195224Y-10830589D01*
%TO.C,TP12*%
X16397000Y-10464000D02*
G75*
G02*
X16257000Y-10464000I-70000J0D01*
G01*
X16257000Y-10464000D02*
G75*
G02*
X16397000Y-10464000I70000J0D01*
G01*
%TO.C,C2*%
X15412312Y-9960750D02*
X15440428Y-9960750D01*
X15412312Y-10062750D02*
X15440428Y-10062750D01*
%TO.C,C42*%
X17129000Y-9657216D02*
X17129000Y-9678784D01*
X17201000Y-9657216D02*
X17201000Y-9678784D01*
%TO.C,C16*%
X17440441Y-10292224D02*
X17462008Y-10292224D01*
X17440441Y-10364224D02*
X17462008Y-10364224D01*
%TO.C,Q1*%
X15664620Y-9506875D02*
X15524620Y-9506875D01*
X15665620Y-9738875D02*
X15524620Y-9738875D01*
X15726620Y-9766875D02*
X15678620Y-9766875D01*
X15702620Y-9733875D01*
X15726620Y-9766875D01*
G36*
X15726620Y-9766875D02*
G01*
X15678620Y-9766875D01*
X15702620Y-9733875D01*
X15726620Y-9766875D01*
G37*
%TO.C,C21*%
X17227224Y-9768008D02*
X17227224Y-9746441D01*
X17299224Y-9768008D02*
X17299224Y-9746441D01*
%TO.C,U2*%
X14704000Y-9792125D02*
X14704000Y-9597125D01*
X14704000Y-9792125D02*
X14704000Y-9987125D01*
X15216000Y-9792125D02*
X15216000Y-9597125D01*
X15216000Y-9792125D02*
X15216000Y-9987125D01*
X14704000Y-10063375D02*
X14671000Y-10087375D01*
X14671000Y-10039375D01*
X14704000Y-10063375D01*
G36*
X14704000Y-10063375D02*
G01*
X14671000Y-10087375D01*
X14671000Y-10039375D01*
X14704000Y-10063375D01*
G37*
%TO.C,R9*%
X17237224Y-10786860D02*
X17237224Y-10817589D01*
X17313224Y-10786860D02*
X17313224Y-10817589D01*
D14*
%TO.C,MK1*%
X17329000Y-9200000D02*
X17329000Y-8940000D01*
D12*
X17379000Y-9400000D02*
X17379000Y-9400000D01*
X17389000Y-9400000D02*
X17389000Y-9400000D01*
D14*
X17629000Y-9200000D02*
X17629000Y-8940000D01*
D12*
X17379000Y-9400000D02*
G75*
G02*
X17389000Y-9400000I5000J0D01*
G01*
X17389000Y-9400000D02*
G75*
G02*
X17379000Y-9400000I-5000J0D01*
G01*
D13*
%TO.C,D1*%
X17463000Y-8492000D02*
X17731500Y-8492000D01*
X17731500Y-8300000D02*
X17463000Y-8300000D01*
X17731500Y-8492000D02*
X17731500Y-8300000D01*
%TO.C,C24*%
X17237224Y-10612008D02*
X17237224Y-10590441D01*
X17309224Y-10612008D02*
X17309224Y-10590441D01*
%TO.C,TP2*%
X16152000Y-10355000D02*
G75*
G02*
X16012000Y-10355000I-70000J0D01*
G01*
X16012000Y-10355000D02*
G75*
G02*
X16152000Y-10355000I70000J0D01*
G01*
%TO.C,C3*%
X16062625Y-10895875D02*
X16204875Y-10895875D01*
X16062625Y-11077875D02*
X16204875Y-11077875D01*
%TO.C,C36*%
X17544784Y-8164000D02*
X17523216Y-8164000D01*
X17544784Y-8236000D02*
X17523216Y-8236000D01*
%TO.C,C34*%
X16202723Y-7706369D02*
X16202723Y-7684802D01*
X16274723Y-7706369D02*
X16274723Y-7684802D01*
%TO.C,C11*%
X17024000Y-8497216D02*
X17024000Y-8518784D01*
X17096000Y-8497216D02*
X17096000Y-8518784D01*
%TO.C,R19*%
X16969636Y-8743000D02*
X17000364Y-8743000D01*
X16969636Y-8819000D02*
X17000364Y-8819000D01*
%TO.C,C41*%
X17029000Y-9657216D02*
X17029000Y-9678784D01*
X17101000Y-9657216D02*
X17101000Y-9678784D01*
%TO.C,C15*%
X17384224Y-10644667D02*
X17384224Y-10672783D01*
X17486224Y-10644667D02*
X17486224Y-10672783D01*
%TO.C,R14*%
X15777620Y-9636239D02*
X15777620Y-9605511D01*
X15853620Y-9636239D02*
X15853620Y-9605511D01*
%TO.C,C12*%
X16639784Y-10050000D02*
X16618216Y-10050000D01*
X16639784Y-10122000D02*
X16618216Y-10122000D01*
%TO.C,Y1*%
X17407343Y-7856298D02*
X17407343Y-8136298D01*
X17647343Y-7856298D02*
X17407343Y-7856298D01*
%TO.C,TP11*%
X15158000Y-7669000D02*
G75*
G02*
X15018000Y-7669000I-70000J0D01*
G01*
X15018000Y-7669000D02*
G75*
G02*
X15158000Y-7669000I70000J0D01*
G01*
%TO.C,U6*%
X16316750Y-9404250D02*
X16316750Y-8805250D01*
X16838750Y-9405250D02*
X16838750Y-8805250D01*
X16346750Y-9476250D02*
X16298750Y-9428250D01*
X16346750Y-9428250D01*
X16346750Y-9476250D01*
G36*
X16346750Y-9476250D02*
G01*
X16298750Y-9428250D01*
X16346750Y-9428250D01*
X16346750Y-9476250D01*
G37*
%TO.C,TP10*%
X15115000Y-10446000D02*
G75*
G02*
X14975000Y-10446000I-70000J0D01*
G01*
X14975000Y-10446000D02*
G75*
G02*
X15115000Y-10446000I70000J0D01*
G01*
%TO.C,C8*%
X16482058Y-7550000D02*
X16453942Y-7550000D01*
X16482058Y-7652000D02*
X16453942Y-7652000D01*
%TO.C,C23*%
X16999224Y-10617008D02*
X16999224Y-10595441D01*
X17071224Y-10617008D02*
X17071224Y-10595441D01*
%TO.C,D2*%
X16128000Y-10865000D02*
X16396500Y-10865000D01*
X16396500Y-10673000D02*
X16128000Y-10673000D01*
X16396500Y-10865000D02*
X16396500Y-10673000D01*
%TO.C,U3*%
X15485370Y-10116500D02*
X15405370Y-10116500D01*
X15485370Y-10116500D02*
X15565370Y-10116500D01*
X15485370Y-10428500D02*
X15405370Y-10428500D01*
X15485370Y-10428500D02*
X15565370Y-10428500D01*
X15355370Y-10121500D02*
X15331370Y-10088500D01*
X15379370Y-10088500D01*
X15355370Y-10121500D01*
G36*
X15355370Y-10121500D02*
G01*
X15331370Y-10088500D01*
X15379370Y-10088500D01*
X15355370Y-10121500D01*
G37*
%TO.C,R6*%
X16084370Y-10557136D02*
X16084370Y-10587864D01*
X16160370Y-10557136D02*
X16160370Y-10587864D01*
%TO.C,R18*%
X17271636Y-8430000D02*
X17302364Y-8430000D01*
X17271636Y-8506000D02*
X17302364Y-8506000D01*
%TO.C,TP13*%
X15837000Y-9949000D02*
G75*
G02*
X15697000Y-9949000I-70000J0D01*
G01*
X15697000Y-9949000D02*
G75*
G02*
X15837000Y-9949000I70000J0D01*
G01*
%TO.C,J2*%
X14879750Y-12020625D02*
X14879750Y-11879625D01*
X14961750Y-11612625D02*
X14961750Y-11627625D01*
X15041750Y-11612625D02*
X14961750Y-11612625D01*
X15795750Y-12020625D02*
X15795750Y-11879625D01*
%TO.C,C18*%
X17441441Y-10393225D02*
X17463008Y-10393225D01*
X17441441Y-10465225D02*
X17463008Y-10465225D01*
%TO.C,C35*%
X17511610Y-7755944D02*
X17533177Y-7755944D01*
X17511610Y-7827944D02*
X17533177Y-7827944D01*
%TO.C,TP4*%
X16070000Y-8935000D02*
G75*
G02*
X15930000Y-8935000I-70000J0D01*
G01*
X15930000Y-8935000D02*
G75*
G02*
X16070000Y-8935000I70000J0D01*
G01*
%TO.C,R24*%
X15492364Y-8974000D02*
X15461636Y-8974000D01*
X15492364Y-9050000D02*
X15461636Y-9050000D01*
%TO.C,U5*%
X14729750Y-10895875D02*
X14729750Y-10815875D01*
X14729750Y-10895875D02*
X14729750Y-10975875D01*
X15041750Y-10895875D02*
X15041750Y-10815875D01*
X15041750Y-10895875D02*
X15041750Y-10975875D01*
X15069750Y-10789875D02*
X15036750Y-10765875D01*
X15069750Y-10741875D01*
X15069750Y-10789875D01*
G36*
X15069750Y-10789875D02*
G01*
X15036750Y-10765875D01*
X15069750Y-10741875D01*
X15069750Y-10789875D01*
G37*
%TO.C,R12*%
X17275636Y-8316000D02*
X17306364Y-8316000D01*
X17275636Y-8392000D02*
X17306364Y-8392000D01*
%TO.C,R1*%
X15410256Y-9786875D02*
X15440984Y-9786875D01*
X15410256Y-9862875D02*
X15440984Y-9862875D01*
%TO.C,C31*%
X17566166Y-9826224D02*
X17594283Y-9826224D01*
X17566166Y-9928224D02*
X17594283Y-9928224D01*
%TO.C,R8*%
X16893224Y-10791110D02*
X16893224Y-10821839D01*
X16969224Y-10791110D02*
X16969224Y-10821839D01*
%TO.C,C25*%
X16890224Y-10616008D02*
X16890224Y-10594441D01*
X16962224Y-10616008D02*
X16962224Y-10594441D01*
%TO.C,C32*%
X17333844Y-9943316D02*
X17333844Y-9964883D01*
X17405844Y-9943316D02*
X17405844Y-9964883D01*
%TO.C,C5*%
X15727620Y-10234442D02*
X15727620Y-10262558D01*
X15829620Y-10234442D02*
X15829620Y-10262558D01*
%TO.C,R23*%
X17007000Y-9003364D02*
X17007000Y-8972636D01*
X17083000Y-9003364D02*
X17083000Y-8972636D01*
%TO.C,R3*%
X15328620Y-9606511D02*
X15328620Y-9637239D01*
X15404620Y-9606511D02*
X15404620Y-9637239D01*
%TO.C,C26*%
X17114224Y-10615008D02*
X17114224Y-10593441D01*
X17186224Y-10615008D02*
X17186224Y-10593441D01*
%TD*%
M02*
