M48
; DRILL file {KiCad 9.0.0} date 2025-02-25T22:38:48+0200
; FORMAT={-:-/ absolute / inch / decimal}
; #@! TF.CreationDate,2025-02-25T22:38:48+02:00
; #@! TF.GenerationSoftware,Kicad,Pcbnew,9.0.0
; #@! TF.FileFunction,MixedPlating,1,4
FMAT,2
INCH
; #@! TA.AperFunction,Plated,PTH,ComponentDrill
T1C0.0079
; #@! TA.AperFunction,Plated,PTH,ViaDrill
T2C0.0118
; #@! TA.AperFunction,Plated,PTH,ViaDrill
T3C0.0157
; #@! TA.AperFunction,Plated,PTH,ComponentDrill
T4C0.0394
; #@! TA.AperFunction,Plated,PTH,ComponentDrill
T5C0.0606
; #@! TA.AperFunction,NonPlated,NPTH,ComponentDrill
T6C0.0256
; #@! TA.AperFunction,NonPlated,NPTH,ComponentDrill
T7C0.0630
%
G90
G05
T1
X6.4898Y-3.1638
X6.4898Y-3.2058
X6.4898Y-3.2478
X6.4898Y-3.2898
X6.5318Y-3.1638
X6.5318Y-3.2058
X6.5318Y-3.2478
X6.5318Y-3.2898
X6.5738Y-3.1638
X6.5738Y-3.2058
X6.5738Y-3.2478
X6.5738Y-3.2898
X6.6157Y-3.1638
X6.6157Y-3.2058
X6.6157Y-3.2478
X6.6157Y-3.2898
T2
X5.8827Y-3.5713
X5.9835Y-3.5685
X6.0106Y-3.7882
X6.1358Y-3.4642
X6.137Y-3.5185
X6.2406Y-3.8543
X6.324Y-3.4492
X6.348Y-3.5795
X6.3618Y-3.3972
X6.3894Y-3.4657
X6.4189Y-3.6461
X6.4516Y-3.7453
X6.4634Y-3.7728
X6.4873Y-3.4275
X6.498Y-3.3909
X6.5016Y-3.7445
X6.5087Y-3.7724
X6.5384Y-3.4108
X6.5469Y-3.4413
X6.5837Y-3.4033
X6.5983Y-3.4371
X6.6449Y-3.3894
X6.6854Y-3.3803
X6.6909Y-3.411
X6.7268Y-4.3445
X6.7385Y-4.1212
X6.7412Y-3.3852
X6.7565Y-3.1021
X6.7969Y-3.2217
X6.8413Y-4.3252
X6.9142Y-4.4185
X6.9173Y-4.6244
T3
X5.7831Y-3.8535
X5.7913Y-4.1539
X5.8168Y-4.4287
X5.85Y-4.563
X5.876Y-3.5012
X5.8904Y-4.0346
X5.8912Y-4.5363
X5.898Y-3.1295
X5.9004Y-3.6047
X5.9134Y-3.1799
X5.9154Y-3.2807
X5.9162Y-3.2327
X5.9162Y-3.3449
X5.926Y-4.7122
X5.9373Y-4.2854
X5.9496Y-4.172
X5.9575Y-3.5943
X5.9657Y-3.5323
X5.9839Y-4.0437
X5.9908Y-4.78
X5.9926Y-4.7348
X5.9933Y-3.052
X6.0035Y-4.2583
X6.0126Y-3.6496
X6.0181Y-3.7535
X6.0217Y-3.6913
X6.0228Y-4.3197
X6.0294Y-4.4834
X6.0301Y-4.6626
X6.0311Y-4.7043
X6.035Y-3.5185
X6.0645Y-4.7815
X6.0653Y-4.7359
X6.0846Y-3.6583
X6.0987Y-4.6689
X6.0999Y-4.7099
X6.1075Y-3.1268
X6.1104Y-3.4943
X6.1132Y-3.3152
X6.1138Y-3.2476
X6.1161Y-3.4354
X6.1538Y-3.9437
X6.1551Y-3.139
X6.1689Y-4.713
X6.1722Y-4.5407
X6.177Y-3.7125
X6.1796Y-4.2607
X6.1807Y-3.6531
X6.2016Y-2.9728
X6.2028Y-4.1043
X6.203Y-3.8535
X6.2256Y-4.5614
X6.2329Y-4.3407
X6.2492Y-3.7138
X6.262Y-4.5179
X6.2739Y-4.0267
X6.279Y-4.0842
X6.2821Y-3.2807
X6.2885Y-3.464
X6.2929Y-3.965
X6.2932Y-4.2606
X6.3039Y-3.3213
X6.3071Y-3.0165
X6.3217Y-3.4122
X6.3475Y-3.3601
X6.3478Y-3.2237
X6.3663Y-3.5413
X6.3817Y-3.8193
X6.3924Y-2.9713
X6.3925Y-4.1768
X6.4063Y-4.6929
X6.4109Y-4.5031
X6.4112Y-3.4938
X6.4138Y-3.6
X6.4246Y-3.3417
X6.4331Y-3.0453
X6.4396Y-3.9022
X6.4433Y-4.1693
X6.4516Y-2.8741
X6.4732Y-4.272
X6.4795Y-3.9709
X6.4846Y-2.9417
X6.5583Y-3.7343
X6.5697Y-3.0618
X6.5787Y-4.113
X6.5788Y-4.2343
X6.5955Y-3.9064
X6.6229Y-4.2347
X6.6272Y-2.9091
X6.6866Y-2.9642
X6.6874Y-3.1106
X6.7039Y-3.8629
X6.7039Y-3.2408
X6.7406Y-3.6783
X6.7528Y-3.0591
X6.7571Y-3.4697
X6.7607Y-4.3324
X6.7607Y-3.8622
X6.763Y-3.2382
X6.8025Y-4.3217
X6.8065Y-3.4992
X6.8065Y-3.6771
X6.8126Y-3.4413
X6.8154Y-4.5906
X6.8164Y-4.0915
X6.8193Y-3.3815
X6.8256Y-3.1512
X6.828Y-3.2472
X6.8421Y-3.7709
X6.8469Y-4.013
X6.8633Y-4.2804
X6.8855Y-3.8261
X6.8894Y-3.9406
X6.9Y-4.311
X6.9204Y-3.8536
X6.9271Y-4.0863
X6.9272Y-3.776
X6.9295Y-4.2804
X6.94Y-3.452
X6.9452Y-4.1225
X6.9555Y-3.6917
X6.9559Y-4.0591
X6.9569Y-3.2523
X6.965Y-3.1201
T4
X5.816Y-3.1291
X5.816Y-3.2291
X5.816Y-3.3291
X5.816Y-3.4291
X5.816Y-3.5291
X5.816Y-3.6291
T5
X6.8815Y-3.5717
T6
X5.9247Y-4.6471
X6.1523Y-4.6471
T7
X6.7576Y-4.4765
X6.7576Y-4.7521
M30
